<?xml version="1.0" encoding="UTF-8" standalone="no"?>
<!-- Created with Inkscape (http://www.inkscape.org/) -->

<svg
   version="1.1"
   id="svg2"
   xml:space="preserve"
   width="5333.3379"
   height="5326.6631"
   viewBox="0 0 5333.3379 5326.6631"
   sodipodi:docname="e27520f78e62c16d932d37ba004f2818.eps"
   xmlns:inkscape="http://www.inkscape.org/namespaces/inkscape"
   xmlns:sodipodi="http://sodipodi.sourceforge.net/DTD/sodipodi-0.dtd"
   xmlns="http://www.w3.org/2000/svg"
   xmlns:svg="http://www.w3.org/2000/svg"><defs
     id="defs6" /><sodipodi:namedview
     id="namedview4"
     pagecolor="#ffffff"
     bordercolor="#666666"
     borderopacity="1.0"
     inkscape:pageshadow="2"
     inkscape:pageopacity="0.0"
     inkscape:pagecheckerboard="0" /><g
     id="g8"
     inkscape:groupmode="layer"
     inkscape:label="ink_ext_XXXXXX"
     transform="matrix(1.3333333,0,0,-1.3333333,0,5326.6633)"><g
       id="g10"
       transform="scale(0.1)"><g
         id="g12"
         transform="scale(2.45399)"><path
           d="M 16300,0 H 0 V 16279.6 H 16300 V 0"
           style="fill:#6cffdc;fill-opacity:0;fill-rule:nonzero;stroke:none"
           id="path14" /></g><g
         id="g16"
         transform="scale(1.05745)"><path
           d="m 13033.5,9200.08 c -449.6,-1066.15 224.7,-2117.75 1383.1,-2476.72 726.4,-225.08 1489.6,238.68 1686.5,972.34 196.9,733.65 -575.4,780.65 -878,1477.42 -516.3,1188.98 -1807.1,939.08 -2191.6,26.96"
           style="fill:#ffffff;fill-opacity:1;fill-rule:nonzero;stroke:none"
           id="path18" /></g><g
         id="g20"
         transform="scale(1.05731)"><path
           d="m 16105.2,7696.82 c -196.9,-733.75 -960.2,-1197.76 -1686.5,-972.66 -917.1,284.4 -1531.2,1002.64 -1523.8,1818.87 1.8,214.6 46.8,436.29 140.4,658.37 384.5,912.1 1675.6,1162.2 2191.9,-26.86 3.3,-7.29 6.6,-14.47 9.5,-21.66 309.4,-676.34 1063.3,-730.07 868.5,-1456.06"
           style="fill:#ffffff;fill-opacity:1;fill-rule:nonzero;stroke:none"
           id="path22" /></g><g
         id="g24"
         transform="scale(1.05731)"><path
           d="m 16105.2,7696.82 c -196.9,-733.75 -960.2,-1197.76 -1686.5,-972.66 -917.1,284.4 -1531.2,1002.64 -1523.8,1818.87 125.6,-327.16 364.9,-715.12 784.9,-655.82 491.6,69.61 304.1,994.13 1527.3,1260.18 10,2.18 19.5,4.07 29.6,5.49 309.4,-676.34 1063.3,-730.07 868.5,-1456.06"
           style="fill:#d3dded;fill-opacity:1;fill-rule:nonzero;stroke:none"
           id="path26" /></g><g
         id="g28"
         transform="scale(1.05627)"><path
           d="m 13048,9210.34 -135.6,57.18 c -103.1,-244.35 -152.3,-490.88 -152.2,-730.31 0,-221.34 41.9,-436.25 119.8,-637.71 117.1,-302.39 314.7,-574.1 572.5,-797.81 257.9,-223.62 576,-399.62 936.6,-511.33 139.7,-43.26 281,-63.81 419.9,-63.81 166.7,0 329.9,29.54 483.4,84.07 230.2,81.8 438.7,219.74 606.9,400.09 168.3,180.35 296.3,403.49 363.9,655.42 24.6,91.73 36.7,177.51 36.7,258.55 0.1,81.23 -12.4,157.53 -35.4,227.31 -20,61.16 -47.8,117.01 -80.3,167.95 -28.4,44.59 -60.5,85.58 -94.5,123.92 -59.5,67.13 -124.9,126.77 -191.2,185.09 -99.5,87.48 -200.9,172.4 -291.4,269.63 -90.5,97.42 -170.3,206 -230.1,343.38 -65.8,151.57 -144.2,283.45 -232.8,396.01 -132.8,168.9 -289,294.15 -456.8,376.13 -167.7,82.2 -346.5,120.9 -523,120.8 -130.9,0 -260.6,-21.1 -384.9,-60.9 -186.5,-59.7 -360.9,-161.38 -510,-297.99 -149.1,-136.71 -272.8,-308.54 -357.1,-508.49 l 135.6,-57.18 135.6,-57.09 c 90.1,213.86 235.9,386.07 409.1,504.6 86.7,59.27 180.1,105.09 276.6,135.96 96.5,30.86 195.9,46.86 295.1,46.86 89.2,0 178.2,-12.88 265.1,-39.76 130.2,-40.43 256.1,-112 371.7,-221.82 115.5,-109.92 220.9,-258.65 305.9,-454.34 75.2,-173.34 177.2,-311.09 283.1,-425.08 79.6,-85.58 161.4,-158.29 237.3,-224.75 57,-49.71 110.7,-95.91 158,-140.59 35.6,-33.42 67.5,-65.99 94.9,-98.08 20.6,-24.05 38.5,-47.91 54,-71.86 23.2,-35.88 40.5,-71.67 52.5,-110.29 11.9,-38.63 18.8,-80.29 18.8,-129.42 0,-51.5 -7.7,-111.43 -26.7,-182.24 -36.6,-136.05 -94.7,-261.59 -169.9,-373.58 -112.7,-168.05 -263.9,-305.51 -436.4,-400.47 -172.5,-95.05 -365.7,-147.59 -563.7,-147.59 -110,0 -221.6,16.18 -332.8,50.65 -432,133.77 -789.1,368.37 -1036.3,659.77 -123.7,145.7 -220,305.51 -285.4,474.5 -65.4,168.99 -100,347.26 -100.1,531.49 0.1,199.29 40.5,405.86 129.2,616.04 l -135.6,57.09"
           style="fill:#000072;fill-opacity:1;fill-rule:nonzero;stroke:none"
           id="path30" /></g><g
         id="g32"
         transform="scale(1.74266)"><path
           d="m 12337,3377.32 2005.4,-526.39 c 0,0 556.9,-63.69 942.3,-63.69 782.7,0 1015.3,1214.7 1015.3,1214.7 l -822.7,803.08 -2084.4,645.74"
           style="fill:#777782;fill-opacity:1;fill-rule:nonzero;stroke:none"
           id="path34" /></g><g
         id="g36"
         transform="scale(1.74266)"><path
           d="m 12337,3377.24 2005.2,-526.37 c 0,0 557.2,-63.7 942.4,-63.7 782.8,0 1015.4,1214.75 1015.4,1214.75 l -627.5,612.57 -195.2,190.57 -1550.2,480.24 -487.6,151.04 -46.6,14.4 L 13230.1,5131 12337,3377.24"
           style="fill:#ffffff;fill-opacity:1;fill-rule:nonzero;stroke:none"
           id="path38" /></g><g
         id="g40"
         transform="scale(1.74266)"><path
           d="m 12337,3377.24 2005.2,-526.37 c 0,0 557.2,-63.7 942.4,-63.7 782.8,0 1015.4,1214.75 1015.4,1214.75 l -627.5,612.57 -754.6,247.61 c -318.4,-182.82 -155.9,-1004.56 -656.7,-872.11 -386.2,102.14 -312.9,778.98 -334.1,1295.31 l -487.6,151.04 c -65.9,-90.15 -136.4,-193.62 -209.4,-305.34 L 12337,3377.24"
           style="fill:#dfe8f4;fill-opacity:1;fill-rule:nonzero;stroke:none"
           id="path42" /></g><g
         id="g44"
         transform="scale(1.75299)"><path
           d="m 12241.8,3271.67 1999.7,-524.87 6.3,-0.75 c 0.6,-0.05 139.7,-15.97 327.3,-31.94 93.7,-7.93 199.7,-15.92 306.6,-21.91 106.9,-6.05 214.8,-10.04 312.9,-10.04 108.8,-0.05 209.5,21.28 300.4,58.48 79.5,32.51 151.5,76.89 216.2,128.97 113.3,91.22 204.8,205.43 279.4,324.48 111.8,178.72 186,369.09 233.1,515.69 47.1,146.55 66.8,249.29 67.3,251.91 l 9,46.78 -867.2,846.61 -2092.5,648.27 c -46.8,14.49 -96.5,-11.7 -110.9,-58.47 -14.5,-46.78 11.6,-96.47 58.4,-110.96 l 2051.7,-635.54 802.5,-783.46 61.9,63.43 -87,16.66 v 0 c -0.5,-2.34 -15.1,-77.41 -48.5,-187.74 -25,-82.72 -60.5,-185.28 -108.1,-291.79 -35.7,-79.86 -78.1,-161.89 -127.6,-239.36 -37.1,-58.07 -78.2,-113.64 -123.2,-163.89 -67.6,-75.42 -143.7,-138.74 -228.6,-182.89 -42.5,-22.08 -87.2,-39.47 -134.6,-51.4 -47.5,-11.98 -97.8,-18.48 -151.7,-18.48 -93.3,0 -198.3,3.88 -303,9.75 -157,8.79 -313.2,22.08 -430,33.15 -58.4,5.53 -106.9,10.5 -140.8,14.09 -16.9,1.77 -30.2,3.25 -39.2,4.22 -4.5,0.51 -8,0.91 -10.3,1.14 -1.1,0.12 -2,0.23 -2.6,0.29 -0.5,0.05 -0.8,0.11 -0.8,0.11 l -10.1,-88.08 22.6,85.74 -1993.6,523.28 c -47.4,12.44 -95.8,-15.86 -108.2,-63.26 -12.5,-47.35 15.8,-95.84 63.2,-108.22"
           style="fill:#000072;fill-opacity:1;fill-rule:nonzero;stroke:none"
           id="path46" /></g><g
         id="g48"
         transform="scale(1.80372)"><path
           d="m 13618.6,2816.96 c 191.5,-51.56 899.2,-251.65 1350.2,-100.74 567.7,190.06 853.4,858.23 925.1,1014.35 406.1,883.68 64.2,1520.75 -342.3,1671.88 -704.4,262.07 -1257,-341.4 -1435.1,-1557.39 l -497.9,-1028.1"
           style="fill:#ffffff;fill-opacity:1;fill-rule:nonzero;stroke:none"
           id="path50" /></g><g
         id="g52"
         transform="scale(1.80373)"><path
           d="m 15893.8,3730.55 c -18.7,-40.64 -51.9,-116.26 -101.1,-209.35 -139,-263.01 -404.5,-664.62 -824.1,-804.94 -450.9,-151.02 -1158.6,49.01 -1350,100.57 l 497.6,1028.2 c 25.4,172.37 58.1,332.42 97.9,479.45 240.1,890.21 732.8,1302.8 1337.4,1078.05 406.4,-151.3 748.5,-788.2 342.3,-1671.98"
           style="fill:#ffffff;fill-opacity:1;fill-rule:nonzero;stroke:none"
           id="path54" /></g><g
         id="g56"
         transform="scale(1.74988)"><path
           d="m 16300,3760.04 c -15.1,-34.52 -21.5,-78.81 -21.3,-130.47 -143.3,-271.11 -416.9,-685.08 -849.4,-829.72 -464.8,-155.66 -1194.2,50.52 -1391.6,103.67 l 513,1059.84 c 26.1,177.67 59.9,342.66 100.8,494.21 -97.5,-643.7 94.8,-1361.58 652.7,-1393.01 563.1,-31.89 965.2,635.7 995.8,695.48"
           style="fill:#dfe8f4;fill-opacity:1;fill-rule:nonzero;stroke:none"
           id="path58" /></g><g
         id="g60"
         transform="scale(1.79287)"><path
           d="m 13723.6,2917.68 c 281.5,-77.37 572.5,-141.4 863.7,-152.66 210.5,-8.15 422.2,15.11 606.3,121.59 345.1,196.61 562.4,553.86 720.9,909.71 44.6,97.95 82.9,199.97 111.9,303.26 95.9,332.04 86.8,713.44 -118.1,1001.7 -74.8,105.25 -177.4,196.39 -297,244.02 -403.5,154 -722.5,-19.3 -952.8,-358.64 -185.1,-272.42 -296.6,-587.56 -393.1,-901.97 -21.7,-71.56 -42.1,-143.79 -63.5,-216.36 4.5,304.38 55.7,607.8 163.2,894.83 135.9,367.23 412.1,742.72 822.8,814 164.6,29.68 335.7,5.3 490.3,-51.37 322.4,-114.62 516.2,-442.31 565.7,-766.76 56.1,-353.46 -25.2,-713.83 -171.6,-1034.6 -141.3,-318.21 -324.4,-626.09 -596.5,-853.11 -180.9,-154.22 -419.2,-258.69 -659.5,-274.3 -348.5,-27.39 -693.5,38.98 -1028.5,124.1 -36.7,9.48 -73.4,19.47 -109.2,29.17 l 45,167.39"
           style="fill:#000072;fill-opacity:1;fill-rule:nonzero;stroke:none"
           id="path62" /></g><g
         id="g64"
         transform="scale(1.66426)"><path
           d="m 15900.9,5145.58 c -28.1,-130.81 32.2,-254.65 134.6,-276.58 102.4,-21.99 208.3,66.28 236.4,197.08 28.1,130.81 -32.2,254.65 -134.6,276.64 -102.5,21.94 -208.3,-66.27 -236.4,-197.14"
           style="fill:#f9acbc;fill-opacity:1;fill-rule:nonzero;stroke:none"
           id="path66" /></g><g
         id="g68"
         transform="scale(1.7578)"><path
           d="m 15922.1,4550.35 c -26.6,-123.84 30.5,-241.09 127.5,-261.91 97,-20.77 197.2,62.74 223.8,186.59 26.6,123.85 -30.4,241.16 -127.4,261.92 -97,20.82 -197.2,-62.75 -223.9,-186.6"
           style="fill:#f9acbc;fill-opacity:1;fill-rule:nonzero;stroke:none"
           id="path70" /></g><g
         id="g72"
         transform="scale(1.72694)"><path
           d="m 15807.7,5056.33 c -34.6,-161.33 39.7,-314.08 166,-341.18 126.4,-27.04 256.9,81.76 291.6,243.09 34.7,161.32 -39.6,314.08 -166,341.18 -126.4,27.1 -256.9,-81.71 -291.6,-243.09"
           style="fill:#f9acbc;fill-opacity:1;fill-rule:nonzero;stroke:none"
           id="path74" /></g><g
         id="g76"
         transform="scale(1.72604)"><path
           d="m 16076.8,3662.83 c -170.7,-368.47 -430.7,-584 -658,-526.58 -227.5,57.53 -295,418.82 -209.9,815.85 111.5,519.4 418.4,606.01 658,526.35 l 0.4,-0.11 c 239.4,-80.01 432.7,-333.43 209.5,-815.51"
           style="fill:#f9acbc;fill-opacity:1;fill-rule:nonzero;stroke:none"
           id="path78" /></g><g
         id="g80"
         transform="scale(1.14863)"><path
           d="m 16300,5123.95 -3042.4,-798.61 c 0,0 -845,-96.64 -1429.7,-96.64 -1187.5,0 -1540.4,1842.9 -1540.4,1842.9 l 1248.1,1218.42 3162.4,979.69"
           style="fill:#777782;fill-opacity:1;fill-rule:nonzero;stroke:none"
           id="path82" /></g><g
         id="g84"
         transform="scale(1.14863)"><path
           d="m 16300,5123.86 -3042.3,-798.6 c 0,0 -845.3,-96.64 -1429.7,-96.64 -1187.6,0 -1540.6,1842.98 -1540.6,1842.98 l 952,929.37 296.2,289.13 2351.9,728.61 739.8,229.15 70.7,21.85 247,-485.1 1355,-2660.75"
           style="fill:#ffffff;fill-opacity:1;fill-rule:nonzero;stroke:none"
           id="path86" /></g><g
         id="g88"
         transform="scale(1.14863)"><path
           d="m 16300,5123.86 -3042.3,-798.6 c 0,0 -845.3,-96.64 -1429.7,-96.64 -1187.6,0 -1540.6,1842.98 -1540.6,1842.98 l 952,929.37 1144.9,375.67 c 483.1,-277.38 236.5,-1524.08 996.3,-1323.15 585.9,154.97 474.7,1181.85 506.9,1965.22 l 739.8,229.15 c 100,-136.78 206.9,-293.75 317.7,-463.25 l 1355,-2660.75"
           style="fill:#dfe8f4;fill-opacity:1;fill-rule:nonzero;stroke:none"
           id="path90" /></g><g
         id="g92"
         transform="scale(1.15918)"><path
           d="m 16117.5,5206.94 -3014.7,-791.33 34,-129.66 -15.2,133.19 -0.6,-0.08 c -11.8,-1.3 -222.2,-25.1 -499.8,-48.57 -138.8,-11.65 -294.4,-23.29 -450.2,-31.92 -155.8,-8.63 -311.9,-14.32 -450.9,-14.32 -129.7,0.08 -245.7,24.84 -352.7,68.5 -93.4,38.21 -180,91.18 -260.4,155.8 -140.8,113.01 -262.1,262.25 -363.3,424 -151.9,242.5 -258,512 -324.5,719.56 -33.4,103.87 -57,192.2 -72.2,254.06 -7.6,30.97 -13.1,55.29 -16.6,71.6 -1.8,8.19 -3,14.4 -3.9,18.37 -0.4,1.99 -0.7,3.45 -0.9,4.4 l -0.1,0.87 v 0.17 l -0.1,0.17 -96,-18.63 96.1,18.37 -0.1,0.26 -96,-18.63 96.1,18.37 -131.7,-25.19 93.6,-95.93 1213.6,1184.8 3102.8,961.2 c 70.7,21.91 110.3,96.96 88.3,167.7 -21.9,70.74 -96.9,110.33 -167.7,88.42 l -3164.4,-980.34 -1311.5,-1280.3 13.6,-70.74 c 0.7,-3.45 23.4,-121.72 76.2,-298.57 39.7,-132.59 96.2,-298.14 173.6,-473.18 58.1,-131.3 127.9,-267.94 211.5,-400.11 62.7,-99.03 133.2,-195.65 212.8,-285.29 119.3,-134.4 259.2,-253.71 423.4,-339.89 82,-43.05 170,-77.64 263.6,-101.36 93.6,-23.82 192.9,-36.67 296.9,-36.58 148.5,0 311.6,6.04 473.3,15.18 242.5,13.55 481.6,33.91 660.6,50.81 178.9,17 297.4,30.55 298,30.63 l 9.6,1.03 3024,793.84 c 71.6,18.72 114.4,92.04 95.6,163.65 -18.8,71.69 -92.1,114.48 -163.7,95.67"
           style="fill:#000072;fill-opacity:1;fill-rule:nonzero;stroke:none"
           id="path94" /></g><path
         d="m 15657.7,5081 c -345.5,-93 -1621.9,-453.9 -2435.4,-181.7 -1024,342.8 -1539.2,1548 -1668.6,1829.6 -732.5,1593.9 -115.8,2743 617.4,3015.6 1270.6,472.7 2267.2,-615.8 2588.6,-2809.1 l 898,-1854.4"
         style="fill:#ffffff;fill-opacity:1;fill-rule:nonzero;stroke:none"
         id="path96" /><path
         d="m 11553.7,6728.9 c 33.7,-73.3 93.5,-209.7 182.4,-377.6 250.7,-474.4 729.5,-1198.8 1486.3,-1451.9 813.4,-272.4 2089.8,88.4 2435.1,181.4 l -897.6,1854.6 c -45.8,310.9 -104.8,599.6 -176.5,864.8 -433.1,1605.7 -1321.8,2349.9 -2412.3,1944.5 C 11438,9471.8 10821,8323 11553.7,6728.9"
         style="fill:#ffffff;fill-opacity:1;fill-rule:nonzero;stroke:none"
         id="path98" /><path
         d="m 11698.8,6579.6 c 26.4,-60.4 37.6,-137.9 37.3,-228.3 250.7,-474.4 729.5,-1198.8 1486.3,-1451.9 813.4,-272.4 2089.8,88.4 2435.1,181.4 l -897.6,1854.6 c -45.8,310.9 -104.8,599.6 -176.5,864.8 170.7,-1126.4 -165.7,-2382.6 -1142.1,-2437.6 -985.4,-55.8 -1688.9,1112.4 -1742.5,1217"
         style="fill:#dfe8f4;fill-opacity:1;fill-rule:nonzero;stroke:none"
         id="path100" /><path
         d="m 15698,4930.9 c -752.6,-202.8 -1697.9,-411 -2465.7,-197.4 -940.3,290.2 -1501.3,1185.7 -1868,2039.4 -349.1,802.9 -456,1809 48.9,2572.6 119.7,177.6 277.9,338.1 463.3,451.1 324.8,190.9 742,270.4 1116.1,206.3 518.5,-87.9 932.8,-463.3 1203.9,-895.5 401.3,-645.8 564.2,-1419.7 563.3,-2172 -235,744.3 -458.4,1529.3 -935.3,2154.8 -316.6,406.2 -759.1,664.4 -1284.7,573.8 -159.1,-28.4 -318.9,-74.3 -458.4,-158.3 -474.1,-288.6 -699.9,-863.4 -700.6,-1402.9 -2.6,-445 124,-891.3 308.5,-1296.5 328.7,-737.7 822.8,-1522.7 1630.8,-1774.7 647.6,-178 1459.5,-14.3 2103.9,147.8 64.2,16.7 127.9,34 193.3,51.6 l 80.7,-300.1"
         style="fill:#000072;fill-opacity:1;fill-rule:nonzero;stroke:none"
         id="path102" /><path
         d="m 13758.5,8563.6 c 46.8,-217.7 -53.5,-423.8 -224,-460.3 -170.5,-36.6 -346.6,110.3 -393.4,328 -46.8,217.7 53.5,423.8 224,460.4 170.5,36.5 346.6,-110.3 393.4,-328.1"
         style="fill:#f9acbc;fill-opacity:1;fill-rule:nonzero;stroke:none"
         id="path104" /><path
         d="m 12233.9,7998.6 c 46.8,-217.7 -53.5,-423.8 -224,-460.4 -170.5,-36.5 -346.6,110.3 -393.4,328 -46.8,217.7 53.4,423.9 223.9,460.4 170.5,36.6 346.7,-110.3 393.5,-328"
         style="fill:#f9acbc;fill-opacity:1;fill-rule:nonzero;stroke:none"
         id="path106" /><path
         d="m 12922.7,8732 c 59.9,-278.6 -68.4,-542.4 -286.7,-589.2 -218.2,-46.7 -443.6,141.2 -503.5,419.8 -59.9,278.6 68.5,542.4 286.7,589.2 218.2,46.8 443.6,-141.1 503.5,-419.8"
         style="fill:#f9acbc;fill-opacity:1;fill-rule:nonzero;stroke:none"
         id="path108" /><path
         d="m 12472.6,6322.2 c 294.6,-636 743.3,-1008 1135.7,-908.9 392.6,99.3 509.1,722.9 362.2,1408.2 -192.3,896.5 -722.1,1046 -1135.6,908.5 l -0.7,-0.2 c -413.2,-138.1 -746.9,-575.5 -361.6,-1407.6"
         style="fill:#f9acbc;fill-opacity:1;fill-rule:nonzero;stroke:none"
         id="path110" /><g
         id="g112"
         transform="scale(1.23269)"><path
           d="m 16300,3955.99 v -0.57 l -0.8,0.25 0.8,0.32"
           style="fill:#a1acc6;fill-opacity:1;fill-rule:nonzero;stroke:none"
           id="path114" /></g><g
         id="g116"
         transform="scale(1.23263)"><path
           d="m 16300,3955.87 -0.8,-0.25 v 0.57 l 0.8,-0.32"
           style="fill:#a1acc6;fill-opacity:1;fill-rule:nonzero;stroke:none"
           id="path118" /></g><g
         id="g120"
         transform="scale(1.53178)"><path
           d="M 16184.6,5237.5 15258.9,3902 c 0,0 -187.8,-81.15 -516.2,-168.04 -376.9,-99.56 -939,-206.49 -1615.7,-206.49 -676.9,0 -1239,106.93 -1615.9,206.75 -19.2,4.9 -37.6,10.12 -55.7,15.01 h -0.3 c -293.5,80.89 -459.8,152.77 -459.8,152.77 l -926,1335.5 c -48.3,242.4 -50.2,523.12 -14.5,825.51 49.8,422.46 173.6,887.08 348.5,1348.05 313.1,824.66 790.2,1638.35 1303.4,2179.36 h 2840.4 c 513.2,-541.21 990.5,-1354.9 1303.4,-2179.82 300.3,-790.91 449.5,-1592.33 334.1,-2173.1"
           style="fill:#ffffff;fill-opacity:1;fill-rule:nonzero;stroke:none"
           id="path122" /></g><g
         id="g124"
         transform="scale(1.16772)"><path
           d="m 16300,4913.06 -316.7,-195.25 c -344.9,51.04 -643,116.81 -883.4,180.61 -25.2,6.42 -49.4,13.18 -73.1,19.69 h -0.4 c -385,106.11 -603.1,200.39 -603.1,200.39 l -874.1,1260.66 c 203.5,644.42 -22.9,1813.36 260.2,2224.76 284.2,412.51 2490.6,-3690.86 2490.6,-3690.86"
           style="fill:#dfe8f4;fill-opacity:1;fill-rule:nonzero;stroke:none"
           id="path126" /></g><g
         id="g128"
         transform="scale(1.38543)"><path
           d="m 16300,4128.4 c -416.7,-110.08 -1038.2,-228.31 -1786.3,-228.31 -748.4,0 -1369.9,118.23 -1786.6,228.59 l 653.2,2933.68 640.3,105.6 c 0,0 214.3,-1022.14 492.9,-1022.14 278.8,0 493.1,1022.14 493.1,1022.14 l 640.2,-105.6 653.2,-2933.96"
           style="fill:#dfe8f4;fill-opacity:1;fill-rule:nonzero;stroke:none"
           id="path130" /></g><g
         id="g132"
         transform="scale(1.37962)"><path
           d="m 16300,4453.62 c -705.2,-389.02 -1725.3,-366.55 -1725.3,-366.55 0,0 -1020.5,-22.47 -1725.7,366.55 l 461,2070.57 c 433.8,125.9 821.6,186.79 790.8,354.15 -17.9,96.77 -24.9,202.52 -18.7,307.12 25.8,-117.21 231,-1013.76 492.4,-1013.76 262.1,0 467.5,899.89 492.8,1014.48 6.2,-104.81 -0.7,-210.85 -18.7,-307.84 -31.1,-167.36 356.8,-228.25 790.6,-354.15 L 16300,4453.62"
           style="fill:#a84e20;fill-opacity:1;fill-rule:nonzero;stroke:none"
           id="path134" /></g><g
         id="g136"
         transform="scale(1.48954)"><path
           d="m 16300,7620.74 c -611.3,-962.85 -2195.9,-1189.36 -2800.7,-1189.36 -604.8,0 -2189.8,226.72 -2801,1189.83 322,848.05 812.6,1684.82 1340.4,2241.17 h 2921 c 527.7,-556.55 1018.5,-1393.32 1340.3,-2241.64"
           style="fill:#777782;fill-opacity:1;fill-rule:nonzero;stroke:none"
           id="path138" /></g><g
         id="g140"
         transform="scale(1.48954)"><path
           d="m 16300,7620.74 c -611.3,-962.85 -2195.9,-1189.36 -2800.7,-1189.36 -604.8,0 -2189.8,226.72 -2801,1189.83 77.3,203.69 164.3,406.57 259.3,605.16 300.4,628.65 680,1213.26 1081.1,1636.01 h 2921 c 400.3,-422.28 779.3,-1005.55 1079.4,-1633.13 95.7,-199.72 183.2,-403.68 260.9,-608.51"
           style="fill:#ffffff;fill-opacity:1;fill-rule:nonzero;stroke:none"
           id="path142" /></g><g
         id="g144"
         transform="scale(1.4657)"><path
           d="m 16300,8363.11 c -624.3,-376.55 -1550.8,-615 -2584.6,-615 -1031,0 -1955.1,237.16 -2579.6,612.06 305.3,638.88 691,1233 1098.7,1662.63 H 15203 c 406.9,-429.16 792,-1021.91 1097,-1659.69"
           style="fill:#dfe8f4;fill-opacity:1;fill-rule:nonzero;stroke:none"
           id="path146" /></g><g
         id="g148"
         transform="scale(1.46329)"><path
           d="m 16300,8360.89 c -349.4,-205.76 -790.1,-369.23 -1289.6,-472.83 l 960.5,1139.14 c 145.6,-186.22 252.7,-413.45 329.1,-666.31"
           style="fill:#626272;fill-opacity:1;fill-rule:nonzero;stroke:none"
           id="path150" /></g><g
         id="g152"
         transform="scale(1.11982)"><path
           d="m 16300,10305.2 c -653.1,134.7 -1230.2,347.4 -1688.3,615.8 100.2,332.2 240.4,630.5 431.6,875 L 16300,10305.2"
           style="fill:#626272;fill-opacity:1;fill-rule:nonzero;stroke:none"
           id="path154" /></g><g
         id="g156"
         transform="scale(1.0551)"><path
           d="m 16300,11509.5 c -15,2.6 -29.9,5.2 -44.5,8.4 6.4,-0.6 22.7,-2.5 44.5,-8.4"
           style="fill:#e23b3b;fill-opacity:1;fill-rule:nonzero;stroke:none"
           id="path158" /></g><g
         id="g160"
         transform="scale(1.49826)"><path
           d="m 14138.2,3829.17 246.9,-152.18 c 268.8,39.78 501.1,91.04 688.5,140.76 19.5,5.01 38.5,10.28 57,15.35 h 0.2 c 300.1,82.7 470.1,156.18 470.1,156.18 l 681.3,982.54 c -158.6,502.25 17.8,1413.31 -202.9,1733.94 -221.4,321.51 -1941.1,-2876.59 -1941.1,-2876.59"
           style="fill:#dfe8f4;fill-opacity:1;fill-rule:nonzero;stroke:none"
           id="path162" /></g><g
         id="g164"
         transform="scale(1.54875)"><path
           d="m 16007.1,5180.1 c 45.2,1370.45 -799.3,3212.32 -1701.4,4227.46 l 81.9,-35.19 h -1404.7 c 0.1,-0.06 0,56.43 -0.1,112.86 -0.1,56.63 -0.1,113.26 0.4,112.87 v -225.73 h -1404.7 l 81.8,35.19 c -361.9,-415.43 -661.6,-891.69 -914.6,-1382.92 -374.2,-730.46 -651.3,-1516.76 -758.9,-2331.87 -21.57,-170.59 -31.38,-339.18 -27.89,-512.67 -58.18,152.19 -86.72,316.25 -99.57,478.77 -49.59,691.78 188.46,1447.16 453.96,2080.38 118.4,275.84 254.4,545.99 407.3,804.19 225.6,382.64 492,741.38 808.7,1054.66 h 49.2 1404.7 v -225.73 c -1,-0.58 -0.1,225.66 -0.3,225.73 h 1404.7 49.1 c 438.5,-440.03 777.3,-966.84 1049.7,-1522.13 383.2,-790.7 813.6,-2034.6 520.7,-2895.87"
           style="fill:#000072;fill-opacity:1;fill-rule:nonzero;stroke:none"
           id="path166" /></g><g
         id="g168"
         transform="scale(1.43394)"><path
           d="m 11745.6,4168.1 c 391.2,-37.38 889,-158.51 1278.5,-225.81 246.7,-45.05 497.7,-62.91 747.9,-74.62 64.5,-1.67 185,-3.35 250.8,-4.74 47.4,0.9 169,3.07 214.9,3.9 214.7,7.81 429.6,22.11 642.4,52.79 65.7,8.16 146.4,23.71 212,34.87 70.1,11.86 140.6,28.18 210.6,41.01 116.7,24.2 233.5,47.91 350.4,71.2 115.4,24.34 236.6,48.54 353.2,66.46 94.5,14.65 197.3,28.87 293.7,34.94 -28.5,-25.73 -59.3,-47.56 -90.7,-68.83 -93.3,-61.3 -194.5,-112.07 -298,-153.08 -229.5,-89.33 -471.2,-145.96 -714.3,-181.31 -437.7,-59.63 -879.7,-101.33 -1321.5,-88.71 -245.1,3.28 -490.8,25.03 -734.4,51.88 -341.7,35.22 -685.6,92.55 -1005.7,221.98 -137.7,56.49 -273.6,123.85 -389.8,218.07"
           style="fill:#000072;fill-opacity:1;fill-rule:nonzero;stroke:none"
           id="path170" /></g><g
         id="g172"
         transform="scale(1.43603)"><path
           d="M 16290.8,5252.32 C 16280,3876.38 14002.3,3926.59 14002.3,3926.59 c 0,0 -2278,-50.21 -2288.8,1325.73 -8.9,1146.22 1899.2,999.43 1833.4,1355.96 -70.4,381.75 36.6,909.25 455.4,909.25 418.5,0 525.8,-527.5 455.3,-909.25 -66,-356.53 1842.4,-209.74 1833.2,-1355.96"
           style="fill:#ffd2dd;fill-opacity:1;fill-rule:nonzero;stroke:none"
           id="path174" /></g><g
         id="g176"
         transform="scale(1.37962)"><path
           d="m 16300,4453.62 c -705.2,-389.02 -1725.3,-366.55 -1725.3,-366.55 0,0 -1020.5,-22.47 -1725.7,366.55 l 461,2070.57 c 433.8,125.9 821.6,186.79 790.8,354.15 -17.9,96.77 -24.9,202.52 -18.7,307.12 25.8,-117.21 231,-1013.76 492.4,-1013.76 262.1,0 467.5,899.89 492.8,1014.48 6.2,-104.81 -0.7,-210.85 -18.7,-307.84 -31.1,-167.36 356.8,-228.25 790.6,-354.15 L 16300,4453.62"
           style="fill:#f7b5c8;fill-opacity:1;fill-rule:nonzero;stroke:none"
           id="path178" /></g><g
         id="g180"
         transform="scale(1.5275)"><path
           d="m 13566.5,3346.06 c 192.2,-406.15 718.1,-499.57 1047,-461.41 3,0.26 5.8,0.66 8.7,1.12 8.7,1.18 17.1,2.35 25.3,3.6 11.4,1.7 22.5,3.6 33.3,5.63 8.1,1.5 16.1,3.01 23.4,4.58 5.2,1.05 10.4,2.36 15.4,3.4 4.7,1.31 9.3,2.43 13.6,3.47 247.3,-43.99 518.3,-62.78 754.6,70.51 113.8,8.45 204.3,50.28 270.3,113.52 9.3,9.03 18.4,18.53 26.8,28.41 12.6,14.93 24.2,30.64 34.4,47.07 3.4,5.57 6.7,11.2 9.9,16.83 12.7,22.84 23.5,46.81 32,72.01 23.3,68.15 31.1,144.09 22.4,222.59 -0.8,6.74 -1.7,13.61 -2.6,20.49 -0.8,5.63 -1.7,11 -2.5,16.63 -0.5,2.81 -0.9,5.63 -1.5,8.44 -1.2,5.37 -2.2,10.54 -3.3,15.91 l -0.2,0.92 c -1.3,6.02 -2.6,12.04 -4.1,18.07 -1.7,7.59 -3.7,15.12 -6.1,22.65 v 0.45 c -54.4,191.56 -204.5,382.85 -460,498.27 0,0 896.7,3288.78 -103.9,4568.52 l -1678.3,-1990.9 c -5.4,-85.44 -10.8,-169.36 -16.2,-251.33 -114.4,-1704.42 -258.9,-2668.41 -38.4,-3059.45"
           style="fill:#ffffff;fill-opacity:1;fill-rule:nonzero;stroke:none"
           id="path182" /></g><g
         id="g184"
         transform="scale(1.46329)"><path
           d="m 16300,8360.89 c -349.4,-205.76 -790.1,-369.23 -1289.6,-472.83 l 960.5,1139.14 c 145.6,-186.22 252.7,-413.45 329.1,-666.31"
           style="fill:#dfe8f4;fill-opacity:1;fill-rule:nonzero;stroke:none"
           id="path186" /></g><g
         id="g188"
         transform="scale(1.48927)"><path
           d="m 13914.7,3431.95 c 197.2,-416.58 736.6,-512.4 1073.9,-473.25 3.1,0.27 6,0.67 8.9,1.14 31.7,4.16 59.8,9.06 84.1,14.17 5.6,1.27 10.7,2.41 15.8,3.49 4.8,1.34 9.5,2.48 14,3.56 253.6,-45.13 531.6,-64.39 773.9,72.32 116.8,8.66 209.6,51.56 277.3,116.43 9.5,9.26 18.9,19 27.5,29.14 12.9,15.31 24.6,31.43 35.2,48.28 3.6,5.71 6.9,11.48 10.2,17.25 13.1,23.44 23.9,48.01 32.8,73.87 23.7,69.9 31.7,147.79 23,228.3 -0.8,6.91 -1.8,13.96 -2.6,21.01 -0.9,5.78 -1.8,11.28 -2.7,17.06 -0.4,2.89 -0.8,5.77 -1.5,8.66 -1.2,5.51 -2.2,10.81 -3.4,16.32 l -0.2,0.94 c -1.3,6.18 -2.7,12.35 -4.2,18.53 -1.7,7.79 -3.8,15.51 -6.2,23.23 -19.3,-170.55 -99.4,-276.31 -302.3,-291.55 -152.9,-119.45 -465.7,-133.22 -642.6,-72.38 -357.6,-95.08 -890.3,-65.47 -1141.1,146.51 -387.6,283.83 1.4,2453.22 -230.3,3114.95 -117.4,-1748.17 -265.6,-2736.91 -39.5,-3137.98"
           style="fill:#dfe8f4;fill-opacity:1;fill-rule:nonzero;stroke:none"
           id="path190" /></g><g
         id="g192"
         transform="scale(1.50118)"><path
           d="m 13859.8,6773.46 c 28,-565.63 6.9,-1134.31 -19.5,-1698.93 -15.3,-349.66 -46.7,-698.98 -45.7,-1048.24 1.6,-132.9 8.5,-271.65 37.8,-400.02 15.1,-65.41 35.9,-125.23 65.6,-177.19 160.4,-329.88 575.5,-434.73 917.4,-411.08 60,4.8 116.2,14.52 171,30.18 69.8,-12.06 140.9,-22.78 209.9,-28.31 173.7,-14.86 354.6,1.26 505.7,90.46 l 25.9,13.45 22.6,1.27 c 230.3,10.39 336.1,207.24 299.5,417.07 -39,224.76 -211.7,404.55 -419.3,494.01 l -79.6,34.51 c 17.3,70.54 41.3,158.6 58.2,229.28 280,1181.07 648.7,3400.32 -123.3,4415.59 -35.3,45.09 -27.3,110.24 17.9,145.41 45,35.17 110.1,27.18 145.3,-17.85 65.5,-83.93 122,-173.8 170.7,-266.66 144.2,-275.78 224.2,-578.94 272.5,-884.03 62.2,-401.48 69.9,-807.5 51.9,-1211.44 -37.1,-753.48 -158.2,-1497.95 -333.4,-2230.24 -10.9,-43.9 -25.6,-103.79 -37.4,-147.29 l -57.5,121.91 c 64.7,-30.31 127.1,-65.75 185.5,-107.32 180.2,-128.23 318.2,-314.48 360.4,-537.84 38.1,-192.38 -10.8,-412.48 -162.2,-548.5 -90.4,-82.94 -211.4,-128.9 -331.9,-138.29 l 48.4,14.65 v 0 c -193.9,-108.11 -423.9,-129.43 -639.7,-107.05 -69.5,6.8 -137.4,17.39 -204.1,29.78 l 46.5,1.87 c -63.6,-16.19 -125.6,-24.52 -187.3,-29.05 -367.3,-21.71 -772.8,76.81 -1017.3,371.57 -41.1,50.5 -76.1,106.25 -103.9,165.14 -24.3,39.17 -67,154.28 -79.5,219.56 -17.1,75.21 -27.8,149.42 -35.1,222.96 -37.1,430.99 -5.3,861.52 35,1287.38 59.5,563.36 131.9,1125.11 229,1683.28"
           style="fill:#000072;fill-opacity:1;fill-rule:nonzero;stroke:none"
           id="path194" /></g><g
         id="g196"
         transform="scale(1.45464)"><path
           d="m 14810.4,4081.98 c 354.3,271.96 955.7,390.2 1393.8,304.4 58.1,-11.55 95.8,-67.92 84.3,-126.01 -12.1,-63.93 -80.8,-102.57 -141.7,-79.95 -395.3,138.73 -965.7,105.6 -1336.4,-98.44"
           style="fill:#000072;fill-opacity:1;fill-rule:nonzero;stroke:none"
           id="path198" /></g><g
         id="g200"
         transform="scale(1.47364)"><path
           d="m 15965.9,3893.07 c 248.5,-232.21 334.1,-677.57 66.4,-931.77 l -132.1,164.49 c 115,65.89 175.4,199.98 183.7,334.61 10,149.83 -33.4,305.3 -118,432.67"
           style="fill:#000072;fill-opacity:1;fill-rule:nonzero;stroke:none"
           id="path202" /></g><g
         id="g204"
         transform="scale(1.4159)"><path
           d="m 15927.8,4051.85 c 302.3,-240.06 372.2,-778.23 20.5,-1011.94 l -107.6,191.33 c 138.9,52.41 217.7,196.98 230.3,346.35 15.2,165.98 -34.4,342.4 -143.2,474.26"
           style="fill:#000072;fill-opacity:1;fill-rule:nonzero;stroke:none"
           id="path206" /></g><g
         id="g208"
         transform="scale(1.21654)"><path
           d="m 16023.1,4201.34 c -241.3,-509.97 -901.6,-627.27 -1314.6,-579.35 -3.8,0.33 -7.4,0.83 -10.8,1.4 -11,1.48 -21.7,2.96 -31.9,4.52 -14.3,2.14 -28.3,4.52 -41.9,7.07 -10.2,1.89 -20,3.78 -29.3,5.75 -6.5,1.32 -13,2.96 -19.2,4.28 -6,1.64 -11.7,3.04 -17.1,4.36 -310.5,-55.24 -650.8,-78.83 -947.5,88.53 -142.9,10.6 -256.5,63.12 -339.6,142.53 -11.6,11.35 -23,23.26 -33.6,35.67 -15.7,18.75 -30.3,38.48 -43,59.11 -4.4,6.99 -8.5,14.06 -12.5,21.12 -16.1,28.69 -29.6,58.78 -40.2,90.42 -29.3,85.58 -39,180.93 -28.2,279.48 1.1,8.47 2.2,17.1 3.3,25.73 1,7.07 2.2,13.81 3.2,20.88 0.5,3.54 1.1,7.07 1.9,10.6 1.3,6.75 2.7,13.24 4.1,19.98 l 0.3,1.15 c 1.6,7.57 3.2,15.13 5.1,22.69 2.2,9.54 4.6,18.99 7.6,28.44 v 0.58 c 68.3,240.51 256.8,480.7 577.6,625.62 0,0 -1125.9,4129.42 130.4,5736.3 l 2107.3,-2499.82 c 6.8,-107.27 13.6,-212.65 20.3,-315.57 143.8,-2140.08 325.2,-3350.48 48.3,-3841.47"
           style="fill:#ffffff;fill-opacity:1;fill-rule:nonzero;stroke:none"
           id="path210" /></g><g
         id="g212"
         transform="scale(1.11982)"><path
           d="m 16300,10305.2 c -653.1,134.7 -1230.2,347.4 -1688.3,615.8 100.2,332.2 240.4,630.5 431.6,875 L 16300,10305.2"
           style="fill:#dfe8f4;fill-opacity:1;fill-rule:nonzero;stroke:none"
           id="path214" /></g><g
         id="g216"
         transform="scale(1.21654)"><path
           d="m 16023.1,4201.34 c -241.3,-509.97 -901.6,-627.27 -1314.6,-579.35 -3.8,0.33 -7.4,0.83 -10.8,1.4 -38.8,5.1 -73.3,11.1 -103.1,17.34 -6.7,1.57 -13,2.96 -19.2,4.28 -6,1.64 -11.7,3.04 -17.1,4.36 -310.5,-55.24 -650.8,-78.83 -947.5,88.53 -142.9,10.6 -256.5,63.12 -339.6,142.53 -11.6,11.35 -23,23.26 -33.6,35.67 -15.7,18.75 -30.1,38.48 -43,59.11 -4.4,6.99 -8.5,14.06 -12.5,21.12 -16.1,28.69 -29.3,58.78 -40.2,90.42 -29,85.58 -38.8,180.93 -28.2,279.48 1.1,8.47 2.2,17.1 3.3,25.73 1,7.07 2.2,13.81 3.2,20.88 0.5,3.54 1.1,7.07 1.9,10.6 1.3,6.75 2.7,13.24 4.1,19.98 l 0.3,1.15 c 1.6,7.57 3.2,15.13 5.1,22.69 2.2,9.54 4.6,18.99 7.6,28.44 23.6,-208.79 121.8,-338.25 370.2,-356.91 187.1,-146.24 570,-163.09 786.6,-88.62 437.7,-116.39 1089.8,-80.14 1396.9,179.37 474.5,347.46 -1.7,3003.18 281.9,3813.27 143.8,-2140.08 325.2,-3350.48 48.3,-3841.47"
           style="fill:#dfe8f4;fill-opacity:1;fill-rule:nonzero;stroke:none"
           id="path218" /></g><g
         id="g220"
         transform="scale(1.21849)"><path
           d="m 15929,8344.91 c 119.6,-687.65 208.8,-1379.65 282.2,-2073.79 49.7,-524.67 88.8,-1055.08 43.1,-1586.06 -9,-90.61 -22.2,-182.03 -43.2,-274.69 -14.8,-80.1 -68.8,-223.31 -98,-270.5 -34.2,-72.54 -77.4,-141.23 -128,-203.44 -301.3,-363.24 -800.7,-484.38 -1253.3,-457.78 -76,5.58 -152.4,15.84 -230.7,35.78 l 57.2,-2.3 c -82,-15.26 -165.8,-28.31 -251.3,-36.68 -265.9,-27.58 -549.3,-1.32 -788.3,131.88 v 0 l 59.8,-18.05 c -148.5,11.65 -297.6,68.19 -408.9,170.37 -186.6,167.67 -247,438.66 -200,675.75 52.2,275.18 222,504.64 444.1,662.63 72,51.21 148.8,94.87 228.5,132.21 l -70.7,-150.19 c -14.5,53.35 -32.9,127.54 -46.2,181.46 -215.8,902.18 -365.1,1819.38 -410.7,2747.66 -32.3,863.2 0.8,1796.32 399.6,2581.63 60.1,114.4 129.6,225.1 210.4,328.5 43.3,55.5 123.5,65.4 179,22 55.6,-43.4 65.4,-123.6 21.9,-179.1 -950.9,-1250.6 -497,-3983.98 -151.9,-5440.04 21.2,-86.92 50.1,-195.9 71.9,-282.48 l -98.1,-42.52 c -255.9,-110.21 -468.7,-331.8 -516.6,-608.62 -45.1,-257.77 84.9,-501.27 368.9,-513.83 l 27.9,-1.56 31.8,-16.58 c 186.3,-109.81 409.1,-129.75 623.2,-111.44 84.8,6.81 172.5,19.94 258.6,34.88 67.4,-19.29 136.6,-31.27 210.6,-37.1 421.1,-29.3 932.7,100.04 1130.2,506.36 36.6,64.02 62.3,137.71 80.9,218.31 36,158.14 44.5,329.01 46.5,492.82 1.2,430.28 -37.4,860.65 -56.4,1291.43 -32.3,695.62 -58.4,1396.24 -24,2093.08"
           style="fill:#000072;fill-opacity:1;fill-rule:nonzero;stroke:none"
           id="path222" /></g><g
         id="g224"
         transform="scale(1.1455)"><path
           d="m 16300,5183.57 c -260.2,145.53 -557.9,204.19 -851,225.49 -284.1,17.46 -580.8,-5.41 -846,-100.48 -70.6,-25.66 -148.7,10.83 -174.4,81.54 -29.2,77.87 21.3,165.78 103.1,180.27 314.1,60.67 629.7,38.5 936.5,-27.06 296.3,-67.31 590.5,-172.42 831.8,-359.76"
           style="fill:#000072;fill-opacity:1;fill-rule:nonzero;stroke:none"
           id="path226" /></g><g
         id="g228"
         transform="scale(1.02971)"><path
           d="m 16206,5571.46 c -121.2,-182.28 -183.3,-404.77 -168.9,-619.2 11.9,-192.58 98.4,-384.67 262.9,-478.88 l -189,-235.4 c -383.2,363.89 -260.5,1001.06 95,1333.48"
           style="fill:#000072;fill-opacity:1;fill-rule:nonzero;stroke:none"
           id="path230" /></g><g
         id="g232"
         transform="scale(1.09121)"><path
           d="m 16186.9,5257.44 c -141.2,-171 -205.5,-400.01 -185.7,-615.37 16.3,-193.82 118.5,-381.5 298.8,-449.4 l -139.7,-248.26 c -456.3,303.33 -365.6,1001.55 26.6,1313.03"
           style="fill:#000072;fill-opacity:1;fill-rule:nonzero;stroke:none"
           id="path234" /></g><g
         id="g236"
         transform="scale(2.2628)"><path
           d="m 10021.6,10144.3 c -242.36,2008.9 9.3,3874.2 820.7,4953.4 791.3,1052.4 1786.8,1202.3 2157.9,916.2 1215.3,-981.3 -1962.9,-3863 -2460.8,-5960.9"
           style="fill:#ffffff;fill-opacity:1;fill-rule:nonzero;stroke:none"
           id="path238" /></g><g
         id="g240"
         transform="scale(2.26279)"><path
           d="m 11450.4,11968.9 c -411.8,-660.9 -769.5,-1319.9 -910.9,-1915.8 l -517.9,91.2 c -81.5,674.5 -107.08,1332.8 -74.51,1950.6 64.41,1222.3 356.31,2286 895.31,3002.7 791.2,1052.7 1786.7,1202.4 2157.8,916.4 870.1,-702.7 -511.9,-2379.3 -1549.8,-4045.1"
           style="fill:#ffffff;fill-opacity:1;fill-rule:nonzero;stroke:none"
           id="path242" /></g><g
         id="g244"
         transform="scale(1.80646)"><path
           d="m 14342.9,14992.4 c -515.9,-827.8 -963.9,-1653.3 -1141,-2399.8 l -648.7,114.3 c -102.1,844.8 -134.2,1669.4 -93.4,2443.3 267.1,-288.3 691.7,-508.8 1131.9,214.8 568.9,935 532.7,115.1 532.7,115.1 0,0 -5.6,-448.4 218.5,-487.7"
           style="fill:#dfe8f4;fill-opacity:1;fill-rule:nonzero;stroke:none"
           id="path246" /></g><g
         id="g248"
         transform="scale(2.25033)"><path
           d="m 10145.7,10208.8 c -58.5,485.1 -88.2,961.6 -88.2,1420.4 0,720.8 73.4,1397.7 222.8,1994.7 74.8,298.5 168.5,577 281.3,831.1 112.9,254.1 244.9,483.8 396,684.8 279.3,371.5 583,627.2 873,790 145,81.3 286.5,139.4 419.8,177.1 133.2,37.7 258.2,55 369.6,55 88.8,0 169,-11 238.1,-30.8 69.1,-19.8 127,-48.4 172,-83.1 l 42.1,54.7 -43.3,-53.8 c 44.6,-36 82.2,-74.3 113.8,-114.8 47.4,-60.9 81.2,-126.8 103.7,-198.9 22.4,-72.1 33.2,-150.4 33.2,-235.2 0.1,-149.9 -34.3,-319.8 -97.2,-505 -55,-162.1 -131.7,-335.8 -224.6,-518.2 -162.6,-319.2 -374.9,-665.2 -607,-1025.3 -348.2,-540.2 -741,-1112.4 -1077.8,-1678.6 -168.5,-283.2 -323,-564.9 -450.9,-841 -128,-276 -229.5,-546.4 -291.4,-807.3 -8.8,-37.1 14.1,-74.3 51.3,-83.1 37.1,-8.8 74.3,14.1 83.1,51.2 51.4,216.6 132.4,443.5 235.1,676.8 179.8,408.4 426.2,836.4 695,1265.6 201.5,322 415.6,644.7 623.5,961 311.9,474.6 609.8,934.6 831.1,1357.8 110.7,211.7 202.2,414.3 266.5,605.8 64.2,191.5 101.4,372.1 101.5,540.3 0,64.4 -5.6,126.9 -17.2,187.3 -17.6,90.6 -49.2,176.3 -96.5,255.2 -47.3,78.8 -110,150.6 -188.4,213.9 l -0.7,0.5 -0.6,0.5 c -61.2,47.1 -135,82.6 -218.3,106.5 -83.2,23.9 -176,36.1 -276.1,36.1 -125.6,0 -262.8,-19.3 -407.2,-60.2 -216.5,-61.2 -449.2,-170.9 -682.1,-337.5 -232.9,-166.7 -466.1,-390.3 -683.5,-679.5 -158.3,-210.5 -295.3,-449.3 -411.8,-711.7 -174.8,-393.6 -303.6,-840.3 -389,-1325.4 -85.29,-485.2 -127.02,-1008.9 -127.02,-1556.5 0,-464.7 30.09,-946.7 89.22,-1436.9 4.6,-37.9 39,-64.9 76.8,-60.3 37.9,4.5 64.9,38.9 60.3,76.8"
           style="fill:#000072;fill-opacity:1;fill-rule:nonzero;stroke:none"
           id="path250" /></g><g
         id="g252"
         transform="scale(2.22594)"><path
           d="m 13027,16026.8 c -1067.9,273.2 -1709.8,-1424.8 -1910.8,-3164.4 -217.4,-1725.7 -600.8,-2079.3 -541.2,-2101.6 21.9,-12.3 70.1,-23.3 118.3,49.7 215.9,637 559.9,1205 959.6,1813.1 516.8,786.3 972.7,1471.6 1235.7,1905.2 0,0 276.6,478.6 339.3,780.8 131.4,632.9 -200.9,717.2 -200.9,717.2"
           style="fill:#f9acbc;fill-opacity:1;fill-rule:nonzero;stroke:none"
           id="path254" /></g><g
         id="g256"
         transform="scale(2.21127)"><path
           d="m 13315.5,15411.1 c -63,-304.3 -341.5,-786 -341.5,-786 -264.7,-436.5 -723.6,-1126.2 -1243.8,-1917.8 -10.6,-16.1 -21.1,-32.1 -31.7,-48.3 -388.7,-594 -722.7,-1152.4 -934.3,-1776.8 -48.5,-73.5 -97,-62.4 -119.1,-50.2 -59.9,22.6 326,378.6 544.7,2115.6 196,1695.9 808.2,3352.4 1823,3205.5 l 0.5,0.1 c 32.9,-4.8 66.2,-11.4 100.1,-20.1 0,0 334.4,-84.9 202.1,-722"
           style="fill:#f9acbc;fill-opacity:1;fill-rule:nonzero;stroke:none"
           id="path258" /></g><g
         id="g260"
         transform="scale(2.21127)"><path
           d="m 11885.5,15019.3 c -357.4,-883.1 -723,-2435.7 -187,-2360.3 -388.7,-594 -722.7,-1152.4 -934.3,-1776.8 -48.5,-73.5 -97,-62.4 -119.1,-50.2 -59.9,22.6 326,378.6 544.7,2115.6 196,1695.9 808.2,3352.4 1823,3205.5 -21.2,-2.4 -705.7,-91.9 -1127.3,-1133.8"
           style="fill:#f46e94;fill-opacity:1;fill-rule:nonzero;stroke:none"
           id="path262" /></g><g
         id="g264"
         transform="scale(2.21638)"><path
           d="m 13083.2,16095.9 c -781.1,157.1 -1206.3,-702.6 -1428.5,-1313 -207.6,-581.9 -327.2,-1192.5 -406.5,-1804.6 -80.3,-623 -190,-1249.5 -416.1,-1838.1 -36.5,-93 -78.4,-185.4 -122.7,-274.7 -9.4,-19.8 -18.9,-37.6 -25.7,-56.4 -0.1,-0.5 0,-0.2 0.1,0.8 0.3,1.2 0.8,3.4 0.7,8.7 -0.2,22.6 -17.3,46.5 -39.3,54.2 l 9.7,-4.5 h 0.1 -0.5 c 9.2,4.1 18.8,16.3 26.4,27.5 l -7.9,-16.2 c 237.5,692.8 617.2,1326.2 1033,1925 408.7,598.7 829.5,1188.1 1238.2,1786.8 -86.4,-159.4 -177.6,-316.3 -269.8,-472.5 -368.8,-623.2 -761.1,-1233.1 -1144,-1847.1 -284.7,-455.9 -554.1,-925.8 -724.6,-1437.2 l -3,-8.6 -4.9,-7.5 c -37.2,-58.6 -103.6,-106 -178.6,-85.8 -11.6,3 -22.4,7.4 -33,13.3 l 9.7,-4.5 c -38.8,14.1 -58.4,56.1 -49.9,94.4 6.8,32.6 24.1,62.8 37.4,91.2 43.1,87.1 82.6,174.2 118.1,264.6 234.7,608 330.5,1259.4 407.3,1903.6 96.4,720.6 259.7,1444.5 586.6,2098.5 260.9,518.7 737.6,1106.2 1387.7,902.1"
           style="fill:#000072;fill-opacity:1;fill-rule:nonzero;stroke:none"
           id="path266" /></g><g
         id="g268"
         transform="scale(1.90849)"><path
           d="m 9190.34,12294.6 c 72.36,1319.4 -299.87,3166 -872.1,3694.6 -383.24,310.8 -2411.23,-956.8 -1421.7,-1896.7 397.48,-211.9 1198.12,-955 1611.01,-2150.9"
           style="fill:#ffffff;fill-opacity:1;fill-rule:nonzero;stroke:none"
           id="path270" /></g><g
         id="g272"
         transform="scale(1.84332)"><path
           d="m 9515.26,12729.3 -630.76,-326.2 c -30.49,1.5 -61.03,2.9 -91.52,4.3 -431.61,1212.6 -1246.01,1966.5 -1652.56,2183.4 -74.59,70.7 -132.42,143.4 -175.71,216.9 513.53,561.2 1424.87,1492.3 1539.06,1252.4 332.5,-698 350.51,-2620.3 965.98,-2043.9 50.18,-443.7 67.38,-888.4 45.51,-1286.9"
           style="fill:#dfe8f4;fill-opacity:1;fill-rule:nonzero;stroke:none"
           id="path274" /></g><g
         id="g276"
         transform="scale(1.88724)"><path
           d="m 9376.06,12428.5 c 6.2,112.8 9.16,229 9.16,347.9 -0.05,653.9 -90.82,1384.7 -248.99,2017.4 -79.21,316.3 -175.17,608.1 -286.29,854.2 -55.58,123.1 -114.92,234.8 -178.4,332.6 -63.48,97.8 -130.94,181.8 -203.79,249.1 l -3.98,3.5 c -15.36,12.4 -32,22.8 -49.49,31.4 -26.28,12.9 -54.31,21.7 -83.4,27.3 -29.2,5.6 -59.5,8.1 -90.93,8.1 -69.89,-0.1 -145.45,-12.2 -225.62,-33.7 -70.1,-18.9 -143.7,-45.1 -219.15,-77.7 -132.1,-57 -270.03,-133.6 -403.55,-225.3 -100.15,-68.8 -197.75,-146.2 -288.2,-230.5 -135.65,-126.4 -255.35,-268.3 -342.41,-421.3 -43.5,-76.5 -78.79,-155.9 -103.27,-237.5 -24.53,-81.6 -38.2,-165.5 -38.2,-250.4 -0.05,-108.2 22.41,-218 71.37,-324.6 48.86,-106.7 123.67,-209.9 226.58,-307.6 5.56,-5.3 11.18,-9.3 17.96,-12.9 46.52,-24.8 100.41,-58.2 159.49,-100 103.38,-73 222.55,-171.6 348.23,-294.4 188.64,-184.3 392.06,-423.2 581.8,-713.3 189.81,-290.3 365.93,-631.7 500.52,-1021.6 14.84,-43 61.73,-65.8 104.71,-51 43.02,14.9 65.81,61.8 50.97,104.7 -212.48,615.3 -524.47,1113.9 -835.03,1486.6 -155.3,186.4 -310.29,341.3 -452.88,463.9 -71.27,61.3 -139.52,114.5 -203.26,159.6 -63.8,45.1 -123.09,82 -177.08,110.8 l -38.74,-72.6 56.7,59.6 c -89.87,85.5 -151.17,171.5 -190.28,256.8 -39.05,85.4 -56.27,170.2 -56.38,256 0,78 14.57,156.9 41.86,235.9 23.85,69.2 57.44,138.3 99.14,206.1 72.91,118.9 170.62,233.9 281.95,338.7 166.86,157.4 364.39,291.8 551.54,385.6 93.53,46.9 184.4,83.7 266.9,108.4 41.22,12.3 80.28,21.6 116.36,27.8 36.03,6.2 69.1,9.2 97.97,9.2 30.15,0 55.8,-3.3 75.78,-8.9 10.01,-2.7 18.6,-6 25.91,-9.6 7.31,-3.6 13.3,-7.5 18.38,-11.6 l 51.88,64 -55.9,-60.5 c 59.82,-55.2 119.64,-128.7 177.4,-217.8 101.26,-155.9 196.05,-359.3 280.04,-593.5 126.11,-351.4 228.21,-772.3 298.42,-1209.9 70.26,-437.5 108.68,-892 108.68,-1311.1 0,-116.1 -2.92,-229.4 -8.96,-338.9 -2.49,-45.4 32.32,-84.2 77.73,-86.7 45.41,-2.5 84.25,32.3 86.75,77.7"
           style="fill:#000072;fill-opacity:1;fill-rule:nonzero;stroke:none"
           id="path278" /></g><g
         id="g280"
         transform="scale(1.83306)"><path
           d="m 7914.55,16300 c 935.38,-666.5 773.79,-2673.8 1155.72,-3591.7 l -85,-23.3 c 0,0 -545.04,1567.7 -1479.88,1980.8"
           style="fill:#f46e94;fill-opacity:1;fill-rule:nonzero;stroke:none"
           id="path282" /></g><g
         id="g284"
         transform="scale(1.69407)"><path
           d="m 9295.26,15598.2 c 32.76,-183.8 28.4,-351.6 -43.86,-387.1 -66.88,-32.8 -141.14,-13.4 -273.07,188.2 -135.23,206.7 -121.42,809.4 -63.75,828.7 214.04,72 350.1,-458.6 380.68,-629.8"
           style="fill:#f9acbc;fill-opacity:1;fill-rule:nonzero;stroke:none"
           id="path286" /></g><g
         id="g288"
         transform="scale(1.83841)"><path
           d="m 7916.01,16286.9 c 534.59,-382.2 700.54,-1115.1 821.41,-1724.7 90.08,-472.3 141.64,-948.1 246.57,-1414.8 35.03,-151.1 76.59,-302.4 137.02,-444.1 20.13,-45.8 -6.64,-100.3 -55.1,-112.7 l -84.48,-24.1 -2.01,-0.5 c -42.64,-10.9 -86.16,13.3 -100.19,54.3 -221.61,624.6 -617.33,1400.3 -1151.81,1805.7 -81.65,61.9 -169.17,115.4 -261.42,158.6 -21.11,9.9 -30.19,35.1 -20.29,56.2 9.68,20.7 34.05,29.8 54.88,20.9 99.82,-42.7 194.52,-96.4 282.69,-158.7 568.75,-403.7 992.98,-1168.7 1248.25,-1807.6 l 7.4,-19.6 -102.15,53.8 84.96,22.3 -55.1,-112.8 c -31.44,78.1 -56.84,157.1 -78.88,236.3 -264.35,951.8 -183.36,2438.7 -848.99,3188.3 -52.27,56.9 -109.71,108.9 -171.94,154.4 -18.82,13.8 -22.95,40.3 -9.14,59.1 13.6,18.6 39.55,22.8 58.32,9.7"
           style="fill:#000072;fill-opacity:1;fill-rule:nonzero;stroke:none"
           id="path290" /></g><g
         id="g292"
         transform="scale(1.11836)"><path
           d="m 12149.2,15591.7 c -267.8,211.1 -567.9,383.1 -891.8,486.9 -160.4,50.6 -326.6,83.3 -494.2,100.2 -110.5,9.8 -223.1,14.7 -334,13.3 -20.7,0.2 -41.3,-0.1 -62.3,0.5 78.4,28.7 159,51.2 241.6,64.3 250.1,43.1 510.8,16.6 750.3,-65.8 313.6,-111 611.3,-316.3 790.4,-599.4"
           style="fill:#000072;fill-opacity:1;fill-rule:nonzero;stroke:none"
           id="path294" /></g><g
         id="g296"
         transform="scale(1.05623)"><path
           d="m 12748,15813.7 c -499.9,202.2 -1033,317.5 -1573.2,312.4 -104.3,-0.2 -210.5,-4.3 -314.6,-10.3 -21.3,-0.8 -42.5,-2.3 -64.1,-2.6 78.6,34.2 160.2,61.8 243.7,82.4 420,104.4 873.7,57.8 1271.1,-110.9 157.4,-68.8 310.7,-153.5 437.1,-271"
           style="fill:#000072;fill-opacity:1;fill-rule:nonzero;stroke:none"
           id="path298" /></g><path
         d="m 13353.8,16058.6 c -482.6,58.6 -963.1,33.9 -1431.8,-91.3 -51.1,-12.4 -102.4,-26.4 -153.5,-40.3 -17.4,-4.2 -34.6,-9.2 -52.4,-13 54.9,46.9 114.3,88.3 177.1,124 315.6,180.8 699.1,237.4 1055.5,171 141.8,-28.1 283.1,-71.6 405.1,-150.4"
         style="fill:#000072;fill-opacity:1;fill-rule:nonzero;stroke:none"
         id="path300" /><g
         id="g302"
         transform="scale(1.75415)"><path
           d="m 15164.2,9945.06 c 113.9,180.64 303.6,311.84 503.4,382.84 152.7,52.7 318.9,69.7 478.4,42.5 52.6,-8.3 104.1,-22.6 154,-40.8 -13.3,-0.5 -26.5,-0.3 -39.7,-0.4 -70.7,0.8 -142.5,-2.4 -212.9,-8.7 -106.9,-10.9 -212.8,-31.9 -315,-64.3 -206.5,-66.5 -397.7,-176.3 -568.2,-311.14"
           style="fill:#000072;fill-opacity:1;fill-rule:nonzero;stroke:none"
           id="path304" /></g><g
         id="g306"
         transform="scale(1.76594)"><path
           d="m 15132.7,9462.92 c 75.5,70.33 167.1,121.13 261.3,162.41 237.5,101.19 508.8,129.39 760.1,67.21 50,-12.17 98.8,-28.7 145.9,-49.09 -13,0.22 -25.7,1.07 -38.4,1.53 -62.3,3.57 -125.8,5.89 -188.2,5.89 -323.1,2.66 -641.8,-66.65 -940.7,-187.95"
           style="fill:#000072;fill-opacity:1;fill-rule:nonzero;stroke:none"
           id="path308" /></g><g
         id="g310"
         transform="scale(1.74682)"><path
           d="m 15362.4,9197.73 c 69.7,45.23 150.6,70.24 231.7,86.39 204,38.29 423.6,6.12 604.5,-97.09 35.9,-20.44 70,-44.08 101.4,-70.88 -10.2,2.18 -20,4.98 -30.1,7.39 -29.2,7.9 -58.6,15.86 -87.8,22.95 -268.5,71.33 -543.5,85.13 -819.7,51.24"
           style="fill:#000072;fill-opacity:1;fill-rule:nonzero;stroke:none"
           id="path312" /></g><g
         id="g314"
         transform="scale(1.68414)"><path
           d="m 12497.2,7642.77 c 1616.3,98.74 2987,548.94 3466.3,1563.58 336.5,712.42 -51.1,1431.75 -51.2,1432.85 -8.8,42.4 165.8,3006.7 -2125.3,4042.3 -645.9,292 -1252.8,369.7 -1851.1,376.4 -598.4,-7.4 -1205.1,-85.9 -1850.7,-378.7 -2289.83,-1038.4 -2111.58,-4002.4 -2120.37,-4044.9 -0.12,-1 -386.84,-720.88 -49.4,-1432.87 480.54,-1014.05 1851.8,-1462.59 3468.17,-1559.37 l 1113.6,0.71"
           style="fill:#ffffff;fill-opacity:1;fill-rule:nonzero;stroke:none"
           id="path316" /></g><g
         id="g318"
         transform="scale(1.68415)"><path
           d="m 15963.4,9206.35 c -79,-167.21 -182.3,-319.27 -307.1,-456.67 C 15025.4,8052.65 13847,7725.19 12497,7642.77 l -1113.4,-0.65 c -1350.3,80.75 -2529.3,406.97 -3161.01,1103.22 -124.75,137.28 -227.95,288.99 -307.22,456.08 -337.44,711.87 49.17,1431.68 49.46,1432.68 8.79,42.7 -169.46,3006.6 2120.37,4045.1 645.5,292.8 1252.2,371.2 1850.6,378.6 598.4,-6.7 1205.2,-84.4 1851.1,-376.4 2291.1,-1035.6 2116.5,-3999.7 2125.3,-4042.4 0,-1 387.8,-720.37 51.2,-1432.65"
           style="fill:#ffffff;fill-opacity:1;fill-rule:nonzero;stroke:none"
           id="path320" /></g><g
         id="g322"
         transform="scale(1.61764)"><path
           d="M 16300,9109.42 C 15643.2,8383.73 14416.3,8042.81 13010.8,7957 l -1159.1,-0.68 c -1405.8,84.08 -2633.36,423.71 -3291.04,1148.59 642.41,-297.97 2009.74,-805.5 3870.44,-804.38 1860.1,1.11 3226.5,510.12 3868.9,808.89"
           style="fill:#dfe8f4;fill-opacity:1;fill-rule:nonzero;stroke:none"
           id="path324" /></g><g
         id="g326"
         transform="scale(1.67344)"><path
           d="m 12577.1,7691.63 c 168.4,36.7 338.1,66.21 506.9,99.68 193.2,37.05 392.2,76.61 584.1,119.75 504.7,109.9 1007.9,262.22 1456.1,523.83 153.8,90.59 299.4,195.89 431.4,315.34 l 58.8,56.77 14.7,14.16 c 21.3,22.17 48.7,52.29 69.8,74.28 17.3,21.27 48,56.17 65.7,77.74 19.6,26.83 41.5,54.2 61.1,81.15 16.5,24.03 52.7,77.27 66.7,101.83 11.1,18.7 30.5,50.67 41,70.03 l 18.6,36.04 18.7,35.97 4.7,9.03 4.1,9.08 8.1,18.23 c 21.7,46.55 41.8,100.09 57.4,148.97 14.2,43.38 25.3,90.95 35.3,135.53 l 3.6,19.72 7.1,39.5 5.3,39.85 2.7,19.9 1.9,20.02 3.8,40.1 c 19.3,290.57 -41.5,585.87 -164.6,849.27 l -4.3,8.7 -2.1,4.3 -1,2.1 c -4.8,7.1 -10.4,27 -11.2,37.4 l 1.7,-11.7 c -3,15.5 -2.3,31.3 -2.3,46.3 1.4,130.3 -0.7,261.5 -8.2,391.6 -80.7,1458.8 -673,2941.5 -2081.9,3567.3 -441.8,199.8 -919.1,313.5 -1402.3,349.7 -168.6,12.8 -350.5,21.1 -519.9,16.1 -536.2,-12.7 -1074.1,-101.9 -1571.4,-307 -628.77,-247.4 -1161.68,-690 -1522.91,-1261.1 -515.46,-815.8 -712.78,-1805.4 -705.43,-2761.4 0.24,-15.1 0.65,-30.7 -2.21,-46.3 l 1.67,11.7 c -0.72,-6.9 -2.15,-13.9 -4.3,-20.8 -1.44,-5.6 -6.46,-16.3 -6.82,-16.6 -47.56,-96.1 -83.66,-197.8 -112.16,-301.1 -53.42,-195.8 -75.53,-401.43 -54.98,-603.59 1.62,-22.29 7.17,-57.24 10.04,-79.71 l 7.17,-39.5 3.59,-19.72 c 6.93,-30.48 15,-67.47 24.08,-97.17 13.75,-50.55 32.87,-102.12 52.47,-150.82 8.19,-17.63 20.73,-46.55 28.74,-63.7 l 4.66,-9.03 18.77,-35.97 c 11.05,-21.39 26.11,-51.09 39.02,-71.11 12.37,-21.1 28.68,-49.3 42.13,-69.32 l 45.41,-67.29 c 19.48,-27.19 41.35,-54.08 61.25,-81.09 18.77,-21.81 46.73,-55.57 65.74,-77.68 20.97,-21.57 49.24,-52.65 69.91,-74.16 l 14.7,-14.16 58.92,-56.65 61.73,-53.9 c 104.82,-88.44 216.38,-168.46 334.76,-239.27 31.19,-20.14 75.53,-43.8 107.62,-62.27 108.58,-59.93 223.56,-114.67 337.39,-163.43 45.78,-18.77 110.13,-45.42 155.61,-62.09 73.02,-27.85 163.91,-59.82 237.89,-83.24 403.34,-129.85 822.34,-209.33 1237.94,-290.42 99.9,-19.66 239,-45.42 337.3,-65.26 56.4,-11.11 113,-21.93 169.5,-35.13 -229.2,-20.98 -463.1,-18.83 -692.6,-3.41 -346.9,22.95 -692,86.89 -1027.16,178.97 -19.24,6.28 -105.17,30.18 -125.97,36.75 -39.14,12.13 -88.68,28.75 -125.19,40.34 l -82.76,29.28 -41.35,14.7 c -37.53,15.06 -85.22,32.45 -122.92,47.99 -80.98,34 -162.66,69.61 -241.3,108.99 -19.72,11.42 -97.17,48.23 -117.73,61.49 l -38.72,21.58 -38.72,21.69 c -32.87,20.73 -80.73,48.34 -113.54,70.09 l -74.04,49.66 c -35.49,24.14 -73.56,53.6 -108.22,79 -22.82,18.76 -63.82,51.15 -87.12,70.33 l -16.8,14.88 -67.04,59.7 c -19.78,19.42 -77.03,74.58 -95.61,95.31 -13.57,15.42 -47.03,50.68 -60.96,66.45 -19.36,23.97 -52.28,62.69 -71.76,87.13 -21.76,30.06 -45.54,60.77 -66.99,91.07 l -49.6,75.71 c -19,28.44 -29.22,50.19 -46.01,77.98 -22.29,36.28 -43.27,82.71 -62.75,120.41 l -5.08,10.16 -4.6,10.46 -9.2,21.09 -18.23,42.13 -16.13,42.97 c -32.27,85.33 -55.58,175.45 -71.47,265.2 l -7.65,45.12 -5.74,45.29 -2.81,22.65 -1.97,22.71 -3.7,45.41 -1.98,45.48 c -9.68,308.92 58.98,618.72 189.61,897.92 l 5.2,10.6 2.69,5.3 1.38,2.7 c 0.06,0.4 -4.55,-9.5 -5.62,-14.2 -1.79,-6.1 -2.81,-12.4 -3.11,-18.5 l 1.67,11.7 c -0.83,-3.2 -1.31,-6.5 -1.55,-9.7 -0.12,-3.4 -0.06,-2.6 -0.06,-1.6 0,0.5 0,1 0,0.8 l 0.06,4.7 -0.12,12.6 c -6.99,565.2 62.51,1132.2 214.47,1677 429.95,1529 1437.28,2497 3014.6,2769.8 283.2,48.7 572.9,68.2 859.9,72.3 139.7,-1.9 292.3,-7.5 431.1,-18.8 539.7,-40.4 1074.9,-174.6 1562.4,-411.9 1406.7,-676.5 2012.3,-2196.1 2092.6,-3680.1 8.1,-139.6 9.9,-280.6 8.4,-420.6 0,0.2 0,-0.3 0,-0.8 0,-0.9 0,-1.8 -0.1,1.6 -0.2,3.3 -0.7,6.5 -1.5,9.7 l 1.7,-11.6 c -0.3,6 -1.4,12.3 -3.1,18.4 -1.1,4.8 -5.8,14.6 -5.6,14.2 l 1.3,-2.7 c 130,-267.5 200.7,-570.6 199.6,-868.09 0.6,-25.81 -2.1,-64.96 -2.9,-90.95 -2,-26.05 -4.8,-65.19 -8.4,-90.83 -3,-32.98 -11.6,-80.37 -17,-112.94 l -4.7,-22.41 -9.6,-44.76 c -17.1,-73.97 -41.8,-147.72 -69.1,-218.59 -9.1,-20.37 -23,-53.9 -32,-73.74 -21.1,-41.23 -43.9,-91.01 -67.6,-130.63 -14.4,-23.6 -30.8,-55.57 -46,-78.04 l -49.5,-75.77 c -21.2,-30.54 -45,-60.84 -66.8,-91.13 -19.6,-25.22 -51.5,-62.03 -71.7,-87.25 -22,-24.74 -54.1,-58.74 -76.2,-83.06 l -16,-15.77 -64.2,-63.05 c -14.1,-13.09 -71.3,-63.28 -83.7,-74.69 l -17.4,-14.11 c -18,-13.92 -51.9,-42.36 -69.7,-56.29 -34.4,-25.58 -72.9,-54.86 -108.2,-79.12 l -74,-49.72 c -33.8,-21.99 -78.7,-48.82 -113.4,-70.21 -36.7,-20.56 -79.6,-45.12 -116.3,-64.54 -232.6,-122.86 -482,-219.96 -734,-294.48 -582.2,-172.76 -1197.1,-250.08 -1803.4,-202.7"
           style="fill:#000072;fill-opacity:1;fill-rule:nonzero;stroke:none"
           id="path328" /></g><g
         id="g330"
         transform="scale(1.23772)"><path
           d="m 16300,13622.6 -13.8,-2.2 v 4.4 l 13.8,-2.2"
           style="fill:#512717;fill-opacity:1;fill-rule:nonzero;stroke:none"
           id="path332" /></g><g
         id="g334"
         transform="scale(1.23874)"><path
           d="m 16300,13613.5 v -4.4 l -13.5,2.2 13.5,2.2"
           style="fill:#512717;fill-opacity:1;fill-rule:nonzero;stroke:none"
           id="path336" /></g><g
         id="g338"
         transform="scale(1.62028)"><path
           d="m 16299.8,10182 c 0.2,-338.06 -364.8,-612.27 -815.3,-612.58 -450.5,-0.25 -815.8,273.53 -816,611.58 -0.3,337.9 364.8,612.2 815.3,612.5 450.5,0.3 815.8,-273.5 816,-611.5"
           style="fill:#ffabab;fill-opacity:1;fill-rule:nonzero;stroke:none"
           id="path340" /></g><g
         id="g342"
         transform="scale(1.07256)"><path
           d="m 15334.6,15375.8 c 0.2,-510.7 -551.2,-924.9 -1231.7,-925.4 -680.5,-0.4 -1232.4,413.2 -1232.7,923.9 -0.4,510.5 551.1,924.9 1231.6,925.2 680.5,0.5 1232.4,-413.1 1232.8,-923.7"
           style="fill:#ffabab;fill-opacity:1;fill-rule:nonzero;stroke:none"
           id="path344" /></g><g
         id="g346"
         transform="scale(1.64047)"><path
           d="m 9350.45,14368.5 c 1098.05,1115.5 2221.95,892.5 2365.95,1931.5 0,0 480.1,-320.2 396.3,-780 137.2,107.8 318.7,306.5 1002.2,210 603.3,-85.1 882.4,148.7 915,137.3 32.6,-11.5 33.4,-748.1 -820.1,-917.8"
           style="fill:#ffffff;fill-opacity:1;fill-rule:nonzero;stroke:none"
           id="path348" /></g><g
         id="g350"
         transform="scale(1.65255)"><path
           d="m 9215.02,14329.4 c 371.97,384.8 835.58,668.6 1318.08,892 467.5,229 931.9,390.7 1004.6,973.7 10.4,73.3 96.4,104.9 153.1,58.5 4.1,-2.9 15.3,-11.2 19.6,-14.4 190.3,-146.8 352.3,-344.9 403.2,-586.3 17.8,-86 18.8,-176.7 2.9,-263.3 l -150.5,90.9 c 53.9,43.5 115.3,94.6 179,130.4 265,150.5 582.8,136.4 873.8,99 31.9,-4.4 67.4,-9 99.5,-11.9 243.6,-23.9 492.4,6.3 711.4,116.5 l 24.7,11.7 c 4.5,2 9.3,4.2 14.9,6.6 16.3,6.6 35.3,13.8 60.6,12.7 19.4,-0.6 40.1,-8.3 55.3,-20 22.5,-16.6 36,-44.2 40.9,-70.5 6.9,-34.5 5.8,-70 4.6,-103 -4.5,-79.1 -18.9,-155 -43.6,-229.6 -122.1,-364.1 -504.8,-580.2 -873.9,-582.2 16.4,6.8 32.8,13 48.9,20 47.8,19.8 95.3,42 140.7,65.9 274.9,141.9 442.9,356.3 522.4,650.3 11.3,46.5 20.4,95.4 16.4,141.7 l 0.6,-2.4 0.6,-2 c 2.9,-7.8 6.2,-13.7 11.4,-20.8 13.2,-18.1 37.1,-32 59.1,-34.6 3.1,-0.4 5,-0.5 7,-0.6 2.2,-0.2 4.3,-0.2 5.6,-0.2 12.5,0.6 15,2 17.1,2.3 3.3,1.1 1.1,0.4 -1,-0.5 -2.3,-1 -5.4,-2.4 -8.8,-3.9 -255.1,-132.1 -550,-173.4 -832.6,-144.7 -26,2.4 -55.2,5.9 -81.3,9.4 -139.9,19.7 -282.8,32.1 -422.8,23.4 -157,-9 -310.5,-48.9 -434.2,-147 -25.3,-19.1 -50.6,-40.6 -80.2,-64 -67.6,-53.5 -165.8,5.8 -150.7,89.9 50.2,266.1 -131.8,511.7 -333.9,666.5 l -10.2,7.4 -8.8,6.2 145.4,65.4 c -37.6,-292.6 -172,-545.7 -407,-726.9 -321.4,-244.8 -701.7,-369.5 -1048.7,-563.3 -338.11,-180.6 -651.08,-406.3 -919.15,-680.2 -36.42,-37 -95.97,-37.5 -133,-1.2 -37.04,36.5 -37.52,96.1 -1.03,133.1"
           style="fill:#000072;fill-opacity:1;fill-rule:nonzero;stroke:none"
           id="path352" /></g><g
         id="g354"
         transform="scale(1.56818)"><path
           d="m 12291.3,15939.5 c 65.5,47.1 128.7,99.5 179.1,161.2 51,61.7 85.7,128.4 125.4,199.3 l 150.3,-129.2 c -32.4,-25.1 -66,-51.8 -101.7,-77.7 -103.8,-78 -227.5,-127 -353.1,-153.6"
           style="fill:#000072;fill-opacity:1;fill-rule:nonzero;stroke:none"
           id="path356" /></g><g
         id="g358"
         transform="scale(1.41379)"><path
           d="m 11810.6,15338.5 c 44,218.8 441.1,961.5 872.2,673.2 152,-101.6 139.9,-410.5 -60.4,-474.5 -292,-93.3 -357.6,-58.4 -811.8,-198.7"
           style="fill:#000072;fill-opacity:1;fill-rule:nonzero;stroke:none"
           id="path360" /></g><g
         id="g362"
         transform="scale(1.44236)"><path
           d="m 16300,15037.5 c -43.3,214.5 -433.5,942 -855.6,658.9 -148.9,-99.8 -136.7,-402.6 59.7,-465.1 286.3,-91 350.7,-56.8 795.9,-193.8"
           style="fill:#000072;fill-opacity:1;fill-rule:nonzero;stroke:none"
           id="path364" /></g><g
         id="g366"
         transform="scale(1.93862)"><path
           d="m 8085.86,15270.6 c 26.72,-790.7 -388.01,-2882 -1355.86,-2968.6 -1209.99,-108.4 -1465.01,2392.8 -1171.81,3077.7 287.78,672.1 1907.7,920.3 2630.79,361 l -103.12,-470.1"
           style="fill:#ffffff;fill-opacity:1;fill-rule:nonzero;stroke:none"
           id="path368" /></g><g
         id="g370"
         transform="scale(1.89483)"><path
           d="m 6719.39,12794.2 c -218.81,33.2 -411.01,195.7 -571.29,483 -395.97,710.1 -449.23,1965.4 -272.8,2377.4 164.87,385.1 1006.58,645.4 1731.98,535.6 210.36,-31.8 394.71,-92.6 540.73,-177.7 l -81.22,-370.3 0.9,-25.6 c 27.13,-804.6 -409.91,-2755.5 -1200.48,-2826.3 -50.87,-4.5 -100.59,-3.2 -147.82,3.9"
           style="fill:#ffffff;fill-opacity:1;fill-rule:nonzero;stroke:none"
           id="path372" /></g><g
         id="g374"
         transform="scale(1.77404)"><path
           d="m 7334.74,13661.2 c -54.34,-4.8 -107.33,-3.4 -157.83,4.2 -233.82,35.4 -439.06,209.1 -610.19,515.9 -37.77,67.9 -72.66,140.5 -104.73,216.6 173.33,-243.6 372.42,-383.5 593.44,-417 58.52,-8.9 120.12,-10.4 183.03,-4.9 686.01,61.3 1156.91,1265.8 1365.81,2324 -82.74,-976.1 -532.28,-2572.8 -1269.53,-2638.8"
           style="fill:#dfe8f4;fill-opacity:1;fill-rule:nonzero;stroke:none"
           id="path376" /></g><g
         id="g378"
         transform="scale(1.9195)"><path
           d="m 8166.39,15422.7 c 97.68,-861.8 -301.43,-2968 -1353.06,-3087.6 -373.95,-41 -682.94,158.8 -890.02,454.8 -442.62,627.6 -588.12,1776.4 -456.63,2524 21.88,111.3 52.25,226.6 110.39,326.1 276.22,457 978.38,628 1478.77,648.1 329.57,11.9 665.23,-27.5 971.45,-157.1 102.84,-44.1 202.24,-99.6 292.79,-169.5 35.37,-27.3 41.93,-78.2 14.58,-113.6 -27.3,-35.4 -78.14,-41.9 -113.52,-14.6 -158.42,121.9 -351.18,196.8 -546.75,241.2 -498.05,106 -1042.2,57.3 -1507.79,-150.4 -175.93,-82.4 -350.98,-198.6 -449.54,-365.5 -126.44,-226 -137.38,-632.7 -132.49,-892.8 18.91,-627.8 186.35,-1564.1 685.13,-1986.3 147.43,-123.2 335.56,-184.2 525.61,-164.2 895.75,85.9 1328.67,2158.4 1371.08,2907.4"
           style="fill:#000072;fill-opacity:1;fill-rule:nonzero;stroke:none"
           id="path380" /></g><g
         id="g382"
         transform="scale(1.22041)"><path
           d="m 15194.1,15092 c 0,-667.1 -468.8,-1208 -1047.3,-1208 -578.4,0 -1047.4,540.9 -1047.4,1208 0,667.2 469,1208 1047.4,1208 578.5,0 1047.3,-540.8 1047.3,-1208"
           style="fill:#000072;fill-opacity:1;fill-rule:nonzero;stroke:none"
           id="path384" /></g><g
         id="g386"
         transform="scale(1.18844)"><path
           d="m 15170.5,15856.6 c 0,-244.9 -157.1,-443.4 -350.8,-443.4 -193.7,0 -350.7,198.5 -350.7,443.4 0,244.9 157,443.4 350.7,443.4 193.7,0 350.8,-198.5 350.8,-443.4"
           style="fill:#ffffff;fill-opacity:1;fill-rule:nonzero;stroke:none"
           id="path388" /></g><g
         id="g390"
         transform="scale(1.12139)"><path
           d="m 14970.8,15664 c -113.7,0 -205.9,142.3 -205.9,318 0,175.6 92.2,318 205.9,318 113.6,0 205.8,-142.4 205.8,-318 0,-175.7 -92.2,-318 -205.8,-318"
           style="fill:#33338e;fill-opacity:1;fill-rule:nonzero;stroke:none"
           id="path392" /></g><g
         id="g394"
         transform="scale(1.49963)"><path
           d="m 16300,12653 c -147.8,39.1 -305.2,64.6 -456.3,50.9 -434.3,-35.9 -787.1,-348.7 -1004.5,-707.2 l -198.7,203.6 c 116.9,53.7 242.6,95.6 372.7,117.3 380.8,67.6 772.9,-67.7 1066.3,-305.7 -331.2,84.2 -678.4,147.3 -1007.9,44.9 -102.7,-30.4 -201.9,-73.3 -298.8,-125.1 -125.7,-66.3 -263.2,65.6 -203.8,193.2 39,84.4 87.4,163.1 142.9,235.2 262,343.3 701.7,594 1142.2,512.3 164.6,-29.8 323.3,-107.3 445.9,-219.4"
           style="fill:#000072;fill-opacity:1;fill-rule:nonzero;stroke:none"
           id="path396" /></g><g
         id="g398"
         transform="scale(1.55821)"><path
           d="m 10258.8,8760.48 c -223.6,1924.52 1331.5,2461.62 3611.1,2018.52 1981.8,-385.2 2363.2,-1034.13 2396.7,-1322.41 33.4,-288.27 -189,-1007.18 -2029.9,-1835.3 -2117.4,-952.63 -3754.3,-785.39 -3977.9,1139.19"
           style="fill:#ff7c1a;fill-opacity:1;fill-rule:nonzero;stroke:none"
           id="path400" /></g><g
         id="g402"
         transform="scale(1.55821)"><path
           d="m 14236.6,7621.16 c -2117.2,-952.63 -3754.2,-785.2 -3977.7,1139.32 -154.3,1328.22 538.3,1995.52 1731.9,2136.02 279.8,32.9 587.1,36.9 917.5,13.7 302.4,-21.4 624,-65.5 961.5,-131.3 14.3,-2.7 28.5,-5.5 42.7,-8.2 1944.6,-386.5 2320.9,-1027.95 2354.1,-1313.98 33.4,-288.34 -188.9,-1007.24 -2030,-1835.56"
           style="fill:#ff7c1a;fill-opacity:1;fill-rule:nonzero;stroke:none"
           id="path404" /></g><g
         id="g406"
         transform="scale(1.32998)"><path
           d="m 16300,12619 c -5,-670.3 -1013.2,-716.1 -1176.6,-100.4 v 142.7 c -0.3,-50.8 -0.3,-104.5 -0.3,-142.7 -167.5,-632.4 -1226.5,-567 -1174.5,156.2 0,0 32.4,38.2 99.9,91.6 327.8,38.6 687.9,43.3 1074.9,16.1 354.3,-25.1 731.1,-76.8 1126.6,-153.9 16.7,-3.2 33.3,-6.4 50,-9.6"
           style="fill:#ff5d1d;fill-opacity:1;fill-rule:nonzero;stroke:none"
           id="path408" /></g><g
         id="g410"
         transform="scale(1.4448)"><path
           d="m 14068.8,9333.66 c -180.6,0 -308.2,92.67 -355.7,384.62 -63.1,388.62 128.3,464.82 426.3,464.82 96.1,0 203.4,-7.9 316.9,-15.9 113.4,-8 232.9,-15.9 353.6,-15.9 89,0 178.6,4.3 266.9,16.2 387,52 684.2,147.5 882.5,147.5 159.2,0 254.6,-61.8 281.2,-257.5 59.5,-439.38 -389.6,-363.24 -1087.4,-456.89 -419.6,-56.34 -812.1,-266.95 -1084.3,-266.95"
           style="fill:#ffa45f;fill-opacity:1;fill-rule:nonzero;stroke:none"
           id="path412" /></g><g
         id="g414"
         transform="scale(1.19656)"><path
           d="m 15694.3,11052.1 c -307.2,0 -424.7,231 -473.5,510.8 -60.8,348.7 235.3,550.1 515.4,587.6 19.3,2.7 38.1,3.9 56.3,3.9 246.7,0 397.8,-227.8 442.6,-455.4 64.9,-330.4 -117.6,-578 -395,-631.8 -52.8,-10.2 -101.2,-15.1 -145.8,-15.1"
           style="fill:#ffa45f;fill-opacity:1;fill-rule:nonzero;stroke:none"
           id="path416" /></g><g
         id="g418"
         transform="scale(1.51954)"><path
           d="m 10683.4,8780.75 c 140.9,-751.21 533.9,-1207.86 1171.2,-1358.37 135.9,-32.25 284.4,-50.81 441.7,-55.22 123.9,-3.48 255.8,1.72 392.2,15.6 537.3,53.9 1162,239.68 1856.6,552.14 118.8,53.44 236.7,109.25 350.3,165.65 767.6,382.08 1182.2,724.36 1404.6,993.46 -301.4,-150.05 -679,-303.06 -1152.1,-451.79 -150.4,-47.12 -306.3,-92.66 -462.7,-135.17 -914.8,-248.89 -1718.7,-355.7 -2389.8,-317.07 -170.3,9.54 -333.5,28.69 -485,57.06 -192.3,36.06 -371.3,87.79 -532,153.86 -232.8,95.42 -431.1,222.17 -595,379.85"
           style="fill:#ff5d1d;fill-opacity:1;fill-rule:nonzero;stroke:none"
           id="path420" /></g><g
         id="g422"
         transform="scale(1.08306)"><path
           d="m 15356.5,11622.8 c 102.4,-97 756.8,-683.3 943.5,7.4 -168.7,43.2 -328.1,95.3 -476.4,156.3 -65.6,26.9 -129.6,55.6 -191.4,86.3 -49.2,-235.9 -149.4,-364.8 -275.7,-250"
           style="fill:#ff5d1d;fill-opacity:1;fill-rule:nonzero;stroke:none"
           id="path424" /></g><g
         id="g426"
         transform="scale(1.56245)"><path
           d="m 10231,8736.71 74.1,8.57 c -14,120.33 -20.8,234.76 -20.8,343.37 0,305.03 53.6,563.67 152.8,780.63 74.4,162.72 174.5,302.32 298.8,421.42 93.2,89.2 200.1,166.8 320.2,233.3 180.2,99.5 390.3,173.9 627,223.1 236.7,49.3 500,73.5 785.9,73.5 407.6,0 861.1,-49.2 1349,-144.1 490.7,-95.3 881.1,-206.8 1190.4,-324.2 464.1,-176.1 745.3,-365.32 911.4,-531.79 166.3,-166.53 218.2,-309.7 228.5,-398.22 1.6,-13.37 2.4,-28.22 2.4,-44.48 0,-67.39 -15.7,-158.72 -66.5,-270.66 -38.2,-83.97 -96.1,-179.46 -181.9,-284.75 -128.8,-157.89 -320.5,-337.67 -601.1,-532.24 -280.6,-194.56 -650.1,-403.98 -1133.7,-621.58 -401.8,-180.74 -785.4,-320.39 -1143.7,-414.67 -358.2,-94.27 -691.1,-143.11 -991.2,-143.11 -241.3,0 -461.3,31.49 -657,95.62 -146.9,48.07 -280.2,114.37 -399.5,199.88 -178.9,128.26 -326.8,299.65 -440.5,520.85 -113.7,221.12 -192.7,492.36 -230.5,818.13 l -74.1,-8.57 -74.2,-8.65 c 35.2,-302.08 104.7,-563.91 206.5,-787.22 76.2,-167.43 170.7,-313.1 281.9,-437.07 166.8,-185.92 371.3,-322.37 605,-411.27 233.7,-88.97 496.5,-130.89 782.4,-130.89 316.3,0 661.3,51.2 1029.2,148.04 368,96.83 758.9,239.37 1166.9,422.92 435.9,196.11 782.4,386.51 1057.6,567.57 412.7,271.56 665.1,521.94 815.6,739.35 150.2,217.35 198.1,402.25 198.1,538.32 0,21.89 -1.3,42.44 -3.5,61.7 -9.9,84.74 -44.5,190.15 -121.6,306.06 -57.8,86.91 -139.4,179.65 -252.2,274.23 -169.3,141.9 -408.7,288.2 -745.5,426.3 -336.8,138.1 -771,268.1 -1330.7,376.9 -495.5,96.3 -957.9,146.8 -1377.5,146.8 -348.8,0 -668.1,-34.9 -952,-108.2 -212.9,-54.9 -405.9,-131.6 -576,-231.6 -127.6,-75 -242.2,-163.2 -342.1,-265 -150,-152.7 -266.6,-336 -345,-548.97 -78.4,-212.99 -118.8,-455.37 -118.8,-727.38 0,-114.82 7.2,-235.01 21.7,-360.59 l 74.2,8.65"
           style="fill:#000072;fill-opacity:1;fill-rule:nonzero;stroke:none"
           id="path428" /></g><g
         id="g430"
         transform="scale(1.39449)"><path
           d="m 16300,10315.8 c -45.4,293.1 -109.4,584.4 -197.1,867.1 -66.4,207.9 -143,414.1 -263.1,594.5 -39,57.7 -83.2,110.5 -131.9,150.5 l 112.6,123.5 c 348.6,-356 446.4,-1246.6 479.5,-1735.6"
           style="fill:#000072;fill-opacity:1;fill-rule:nonzero;stroke:none"
           id="path432" /></g><g
         id="g434"
         transform="scale(1.3048)"><path
           d="m 16196.2,9756.03 c 76.6,-300.28 103.8,-623.32 18.2,-926.04 -13.4,-44.84 -30,-89.21 -49.7,-133.05 l -156,86.91 c 92.4,136.11 141.4,295.14 169.1,457.85 27.4,168.83 33.8,342.96 18.4,514.33"
           style="fill:#000072;fill-opacity:1;fill-rule:nonzero;stroke:none"
           id="path436" /></g><g
         id="g438"
         transform="scale(1.4756)"><path
           d="m 16155.5,9835.86 c 99.2,-348.54 144.5,-731.16 69.4,-1089.46 -11.7,-52.99 -26.9,-105.58 -45.1,-157.76 l -145.2,62.21 c 89.5,177.48 129.9,374.35 146,572.78 15.3,204.05 7.2,409.73 -25.1,612.23"
           style="fill:#000072;fill-opacity:1;fill-rule:nonzero;stroke:none"
           id="path440" /></g><g
         id="g442"
         transform="scale(1.19126)"><path
           d="m 16300,12600.6 c -98.9,469.8 -314.4,1138.1 -709.7,1431.4 -58.3,41.6 -120.9,73.8 -185.5,93.7 l 68,183.5 c 571.8,-247.5 767.7,-1147.5 827.2,-1708.6"
           style="fill:#000072;fill-opacity:1;fill-rule:nonzero;stroke:none"
           id="path444" /></g><g
         id="g446"
         transform="scale(1.18821)"><path
           d="m 16187.6,11128.1 c 112.4,-633.7 57.2,-1401.41 -448.4,-1861.51 -34.4,-31.22 -71,-60.01 -108.4,-87.78 l -107.8,163.95 c 591.5,352.04 716.2,1149.24 664.6,1785.34"
           style="fill:#000072;fill-opacity:1;fill-rule:nonzero;stroke:none"
           id="path448" /></g><g
         id="g450"
         transform="scale(1.08075)"><path
           d="m 15375.8,11660.7 c -286,325.7 -394.2,1752.1 -228.5,1927.2 165.7,175 791,-98.9 1006.9,-931.9 145.8,-1120.9 -631.2,-1162.9 -778.4,-995.3"
           style="fill:#ff5d1d;fill-opacity:1;fill-rule:nonzero;stroke:none"
           id="path452" /></g><g
         id="g454"
         transform="scale(1.05559)"><path
           d="m 16300,12382.3 c 0,0 -1416.4,-94.9 -1901.8,-1345.5 -358.1,-922.6 -730.2,-640.1 -868.8,-494.6 -144.3,151.5 -281.3,686.3 78.2,1108.3 682.1,800.6 2089.3,967.8 2644.2,1051.3 l 48.2,-319.5"
           style="fill:#5ae83d;fill-opacity:1;fill-rule:nonzero;stroke:none"
           id="path456" /></g><g
         id="g458"
         transform="scale(1.05558)"><path
           d="m 16251.8,12701.8 48.2,-319.4 c 0,0 -1096.1,-73.5 -1690.3,-942.7 -81.2,-118.8 -153.1,-252.4 -211.5,-402.9 -357.9,-922.7 -730,-640.2 -868.7,-494.6 -144.4,151.6 -281.3,686.5 78.2,1108.3 354.7,416.3 905.5,661.4 1430.4,812.3 484.7,139.6 947.4,198.9 1213.7,239"
           style="fill:#6de242;fill-opacity:1;fill-rule:nonzero;stroke:none"
           id="path460" /></g><g
         id="g462"
         transform="scale(1.04726)"><path
           d="m 13984.2,10889.6 c 119.5,-1.4 -142.6,1044.9 1957.1,1664.4 0,0 358.7,146 -13.3,57.5 -1948.2,-463.3 -2106.9,-1720 -1943.8,-1721.9"
           style="fill:#c2ffab;fill-opacity:1;fill-rule:nonzero;stroke:none"
           id="path464" /></g><g
         id="g466"
         transform="scale(1.04725)"><path
           d="m 15941.6,12554.2 c -313.1,-92.3 -573.5,-194.1 -790.6,-300.7 29.9,42.5 47.2,82.8 54.7,120.1 207.8,91.5 447.3,172.8 722.5,238.1 371.8,88.3 13.4,-57.5 13.4,-57.5"
           style="fill:#c2ffab;fill-opacity:1;fill-rule:nonzero;stroke:none"
           id="path468" /></g><path
         d="m 14601.9,10962.1 c -140.4,0 -255,97.5 -320.4,166.1 v 0 c -80.5,84.5 -158.8,282 -158.8,515.1 0,208.2 62.4,444.7 241.4,654.8 333.8,391.8 832.2,639.9 1329,802 25.1,0.4 50.1,0.9 74.8,1.5 -456,-162.2 -901.9,-400.9 -1208.8,-761.1 -379.5,-445.3 -235,-1009.8 -82.5,-1169.9 60.2,-63.1 161.7,-150.6 286.9,-164.2 -56.5,-31.5 -110.7,-44.3 -161.6,-44.3"
         style="fill:#b6f1a1;fill-opacity:1;fill-rule:nonzero;stroke:none"
         id="path470" /><g
         id="g472"
         transform="scale(1.05558)"><path
           d="m 16251.8,12701.8 48.2,-319.4 c 0,0 -1096.1,-73.5 -1690.3,-942.7 85.4,225.9 208.6,482.3 370.7,655.1 144,152.9 127.4,276 57.7,368 484.7,139.6 947.4,198.9 1213.7,239"
           style="fill:#57c134;fill-opacity:1;fill-rule:nonzero;stroke:none"
           id="path474" /></g><g
         id="g476"
         transform="scale(1.04725)"><path
           d="m 15941.6,12554.2 c -313.1,-92.3 -573.5,-194.1 -790.6,-300.7 29.9,42.5 47.2,82.8 54.7,120.1 207.8,91.5 447.3,172.8 722.5,238.1 371.8,88.3 13.4,-57.5 13.4,-57.5"
           style="fill:#9bef78;fill-opacity:1;fill-rule:nonzero;stroke:none"
           id="path478" /></g><g
         id="g480"
         transform="scale(1.05609)"><path
           d="m 16284.9,12486.6 c -3.8,-0.2 -97,-6.6 -243.3,-36.3 -109.7,-22.2 -249.1,-57.5 -403.3,-113.3 -231.1,-83.7 -495.5,-213.7 -739.4,-416.4 -122,-101.3 -238.6,-220.9 -342.8,-361.6 -104.2,-140.6 -195.7,-302.4 -267.6,-487.5 -47.8,-123.2 -95.3,-222.7 -141.2,-301.5 -34.3,-59.2 -67.8,-106.8 -99.3,-144.4 -47.3,-56.6 -90.3,-90.3 -126.7,-109.7 -18.2,-9.7 -34.8,-16 -50.5,-20 -15.5,-3.9 -30.1,-5.7 -44.4,-5.7 -20.4,0 -40.4,3.5 -60.8,10.2 -30.3,9.7 -61,26.9 -89.2,47.5 -28.1,20.7 -53.4,44.4 -73.4,65.4 -10.5,11 -24.8,30.3 -38.9,55.9 -21.1,38.5 -41.9,91 -56.8,152 -14.9,61 -24.3,130.4 -24.3,203.9 0,87.5 13.2,180.7 44.8,273.6 31.8,93 81.9,186 157.4,274.7 159.4,187.2 363.9,340.2 591.6,464.8 341.2,187.1 733.4,309.6 1091.8,391.8 179.3,41.2 350,72.6 502,97.5 152,24.9 285,43.4 390,59.2 l -32.8,218.2 c -137.4,-20.6 -331.2,-46.9 -554.4,-87.4 -334.9,-60.7 -736.8,-152.8 -1123.6,-307.9 -193.6,-77.6 -383.3,-171.1 -559.1,-285 -175.7,-113.9 -337.5,-248.4 -473.5,-408 -94,-110.3 -158.2,-228.7 -198.3,-346.7 -40.2,-118 -56.6,-235.3 -56.6,-344.8 0.1,-122.8 20.4,-235.8 52.2,-331.6 16,-47.9 34.9,-91.5 56.1,-130.3 21.4,-38.9 44.9,-73 72.5,-102 35.3,-37 84.3,-82.8 147.7,-121.4 31.9,-19.2 67.4,-36.7 106.8,-49.4 39.4,-12.8 82.8,-20.9 128.8,-20.9 57,-0.1 117.7,12.7 176.9,40.6 44.4,20.9 88.1,49.9 130.4,87.3 63.6,56.3 124.8,131 184.6,228.3 59.8,97.5 118.4,217.6 176,365.9 115,296 283.6,521.5 473.5,696.2 142.4,130.9 297.1,232.8 449.2,312 228.2,118.7 451,185.9 615.8,222.9 82.4,18.5 150.2,29.5 196.8,35.9 23.4,3.1 41.5,5.1 53.4,6.3 6,0.6 10.5,1 13.3,1.2 1.3,0.1 2.4,0.2 2.9,0.2 h 0.6 v 0 l 0.2,0.1 -6.3,91 6,-91.1 0.3,0.1 -6.3,91 6,-91.1 -14.8,220.3"
           style="fill:#000072;fill-opacity:1;fill-rule:nonzero;stroke:none"
           id="path482" /></g><g
         id="g484"
         transform="scale(1.05473)"><path
           d="m 16237.2,12896.2 c 0,0 -2323.2,423.2 -2364.1,1762.1 -12.9,425.8 154.6,541.2 298.4,537.7 257.7,-6.2 311.8,-417.7 427.9,-666.1 390.7,-836 1085.6,-981.1 1700.6,-1260.2 l -62.8,-373.5"
           style="fill:#5ae83d;fill-opacity:1;fill-rule:nonzero;stroke:none"
           id="path486" /></g><g
         id="g488"
         transform="scale(1.05472)"><path
           d="m 14171.7,15196.1 c 216.5,-5.3 289.3,-296.9 375.8,-537.2 16.6,-45.5 33.5,-89.3 51.9,-128.8 390.7,-836.2 1085.7,-981.2 1700.6,-1260.2 l -62.8,-373.6 c 0,0 -601.5,109.7 -1197.9,393.6 -575.4,274.3 -1146,711.1 -1166,1368.6 -13,425.6 154.5,541.2 298.4,537.6"
           style="fill:#6de242;fill-opacity:1;fill-rule:nonzero;stroke:none"
           id="path490" /></g><g
         id="g492"
         transform="scale(1.03335)"><path
           d="m 16269.8,13386.9 c -1804.9,609.8 -1960.9,1755.2 -1840.8,1773.3 120.1,18.1 84.6,-1064.2 1871,-1721.6"
           style="fill:#c2ffab;fill-opacity:1;fill-rule:nonzero;stroke:none"
           id="path494" /></g><g
         id="g496"
         transform="scale(1.03335)"><path
           d="m 15353.8,13925.8 c 239.2,-172.2 547.4,-340.4 946.2,-487.3 l -30.2,-51.5 c -348.9,117.7 -636.1,255.6 -871.6,401.6 -5,30.5 -14,63.7 -28.2,99.8 -4.8,12 -10.1,24.6 -16.2,37.4"
           style="fill:#c2ffab;fill-opacity:1;fill-rule:nonzero;stroke:none"
           id="path498" /></g><path
         d="m 15054.1,15998.9 c 0,0.1 -0.1,0.1 -0.1,0.1 l 0.1,-0.1 m -0.6,0.4 c -18,9.9 -37.2,17.5 -57.8,22.3 20.6,-4.8 39.8,-12.4 57.8,-22.3 m -58.1,22.4 c -0.2,0 -0.4,0.1 -0.6,0.1 0.2,0 0.4,-0.1 0.6,-0.1"
         style="fill:#ffd5d5;fill-opacity:1;fill-rule:nonzero;stroke:none"
         id="path500" /><path
         d="m 15084.8,15978.7 c -39,29.8 -84.1,47.7 -137.6,49 16.7,-0.4 32.5,-2.4 47.6,-5.9 0.2,0 0.4,-0.1 0.6,-0.1 0.1,0 0.2,-0.1 0.3,-0.1 20.6,-4.8 39.8,-12.4 57.8,-22.3 0.1,-0.1 0.3,-0.2 0.5,-0.3 0,0 0.1,0 0.1,-0.1 10.7,-5.9 20.9,-12.7 30.7,-20.2"
         style="fill:#adf49e;fill-opacity:1;fill-rule:nonzero;stroke:none"
         id="path502" /><path
         d="m 15611.6,14182.9 c -73.5,30.3 -143.8,62.3 -211.4,95.7 -418.5,283.1 -752.1,668.8 -767.7,1182.1 -0.5,16.4 -0.7,32.3 -0.7,47.9 -0.1,403.4 164,519.2 308.6,519.2 2.3,0 4.6,-0.1 6.8,-0.1 v 0 c 53.5,-1.3 98.6,-19.2 137.6,-49 11.3,-8.7 22.2,-18.5 32.5,-29.1 -148.3,-4.1 -313.3,-132.2 -300,-566.9 15.9,-524.1 363.5,-915.2 794.3,-1199.8"
         style="fill:#b6f1a1;fill-opacity:1;fill-rule:nonzero;stroke:none"
         id="path504" /><g
         id="g506"
         transform="scale(1.05472)"><path
           d="m 14547.5,14658.9 c 16.6,-45.5 33.5,-89.3 51.9,-128.8 390.7,-836.2 1085.7,-981.2 1700.6,-1260.2 l -62.8,-373.6 c 0,0 -601.5,109.7 -1198,393.6 48,64.1 79.3,165.5 19.4,317.1 -107.4,273.8 -574.6,781 -511.1,1051.9"
           style="fill:#57c134;fill-opacity:1;fill-rule:nonzero;stroke:none"
           id="path508" /></g><g
         id="g510"
         transform="scale(1.03335)"><path
           d="m 15353.8,13925.8 c 239.2,-172.2 547.4,-340.4 946.2,-487.3 l -30.2,-51.5 c -348.9,117.7 -636.1,255.6 -871.6,401.6 -5,30.5 -14,63.7 -28.2,99.8 -4.8,12 -10.1,24.6 -16.2,37.4"
           style="fill:#9bef78;fill-opacity:1;fill-rule:nonzero;stroke:none"
           id="path512" /></g><g
         id="g514"
         transform="scale(1.05768)"><path
           d="m 16211.7,12968.7 -2.3,-12.7 2.3,12.7 v 0 l -2.3,-12.7 2.3,12.7 c -1.9,0.3 -145.9,26.8 -360.4,86.7 -160.9,44.8 -361.5,108.4 -571.3,193.5 -157.3,63.8 -319.7,139.6 -474.5,228.2 -116,66.5 -227.7,140.1 -329.6,221 -153,121.3 -283.6,258.7 -376.5,411.5 -46.4,76.4 -83.5,156.9 -109.9,241.7 -26.4,84.9 -42,174.3 -44.8,269.6 -0.5,14.4 -0.7,28.5 -0.7,42.1 -0.1,88 9,157.2 22.8,209.7 10.3,39.6 23.1,69.8 36.6,92.5 10,17 20.2,30 30.3,40 15.1,15 29.6,23.8 44.6,29.8 15.1,5.8 30.9,8.6 47.4,8.6 1.1,0 2.2,0 3.2,-0.1 h 0.4 c 17.5,-0.5 30.4,-3.9 43.3,-9.9 11.3,-5.2 22.7,-12.9 34.8,-24.2 10.6,-9.9 21.7,-22.6 32.7,-38 19.4,-26.8 38.6,-62.1 56.7,-102.5 27.5,-60.8 52.5,-133.2 78,-207 25.6,-74 51.5,-149.4 84,-219.3 102.2,-218.6 225.8,-394.6 363.3,-538.3 103.2,-107.9 214.1,-197.4 328.9,-274 172.1,-115 353,-200.8 532.4,-277.5 179.3,-76.6 357.4,-144.1 525.6,-220.4 l 91,200.7 c -157.1,71.3 -316.4,132.9 -472,197.8 -116.6,48.7 -231,99.4 -341.1,156.9 -165.1,86.4 -319.9,188 -459.5,322.7 -139.5,134.7 -264.6,302.6 -368.9,525.5 -25.4,54.4 -49.8,123.5 -75.1,196.7 -18.9,55 -38.6,112.3 -61,168.6 -16.9,42.1 -35.2,83.7 -56.7,123.6 -16.1,29.7 -33.9,58.7 -54.5,85.8 -15.4,20.4 -32.3,39.9 -51.3,57.9 -28.5,26.9 -61.7,50.5 -99.9,67.5 -38.1,17 -81,26.7 -125.3,27.8 h 0.3 c -3.1,0.1 -6.3,0.1 -9.3,0.1 -48.8,0 -101,-9.9 -151,-33.9 -37.4,-17.9 -73.2,-43.8 -104.6,-77 -23.7,-25.1 -44.8,-54.1 -62.9,-87 -27.3,-49.4 -48.1,-107.1 -62.2,-173.7 -14,-66.8 -21.5,-142.7 -21.5,-229.4 0,-16 0.3,-32.2 0.8,-48.9 5.5,-182.7 50.5,-351.4 123.9,-503.4 64.2,-133 149.9,-253.5 249.5,-362.3 174.6,-190.4 391.5,-345.8 618,-473.7 339.8,-191.5 702.2,-321.3 980.6,-404.1 278.5,-82.7 473,-118.3 475.9,-118.8 l 39.5,216.9"
           style="fill:#000072;fill-opacity:1;fill-rule:nonzero;stroke:none"
           id="path516" /></g><g
         id="g518"
         transform="scale(1.04833)"><path
           d="m 16260.5,12634.6 c 0,0 -2562.9,-568.9 -3548.4,594.9 -819.8,968.3 297.2,1652.2 998.9,1070 649.3,-538.7 1192.5,-957.1 2589,-1083.4 l -39.5,-581.5"
           style="fill:#5ae83d;fill-opacity:1;fill-rule:nonzero;stroke:none"
           id="path520" /></g><g
         id="g522"
         transform="scale(1.04833)"><path
           d="m 13711.1,14299.6 c 429.4,-356.3 812.5,-659.8 1426.6,-861.2 314.4,-103.1 689.4,-179.3 1162.3,-222.2 l -39.5,-581.7 c 0,0 -542.7,-120.3 -1224.4,-136.9 -800.1,-19.6 -1791.8,103.7 -2323.8,732.1 -819.9,968.3 297.1,1652.1 998.8,1069.9"
           style="fill:#6de242;fill-opacity:1;fill-rule:nonzero;stroke:none"
           id="path524" /></g><path
         d="m 14407.1,13239 c -420.4,113 -805.6,307.2 -1077.3,626.3 271.8,-319 656.9,-513.3 1077.3,-626.3 m -1077.7,626.7 c -0.4,0.5 -0.8,1 -1.2,1.4 0.4,-0.4 0.8,-0.9 1.2,-1.4"
         style="fill:#adf49e;fill-opacity:1;fill-rule:nonzero;stroke:none"
         id="path526" /><path
         d="m 14651.1,13182.9 c -82.3,16 -163.8,34.6 -244,56.1 -420.4,113 -805.5,307.3 -1077.3,626.3 -0.1,0.1 -0.3,0.3 -0.4,0.4 -0.4,0.5 -0.8,1 -1.2,1.4 -0.5,0.7 -1.1,1.3 -1.6,1.9 v 0 0 c -640.1,756.1 -153.9,1346.7 439.8,1346.7 95.9,0 194.5,-15.4 291.7,-48 -34.2,3.9 -68.4,5.8 -102.2,5.8 -593.6,0 -1079.9,-590.6 -439.7,-1346.5 283.5,-334.9 691.7,-533.1 1134.9,-644.1"
         style="fill:#b6f1a1;fill-opacity:1;fill-rule:nonzero;stroke:none"
         id="path528" /><g
         id="g530"
         transform="scale(1.04833)"><path
           d="m 15137.7,13438.4 c 314.4,-103.1 689.4,-179.3 1162.3,-222.1 l -39.5,-581.8 c 0,0 -542.7,-120.3 -1224.4,-136.9 224.7,223.7 476.7,600.8 101.6,940.8"
           style="fill:#57c134;fill-opacity:1;fill-rule:nonzero;stroke:none"
           id="path532" /></g><g
         id="g534"
         transform="scale(1.04214)"><path
           d="m 15420.3,13148.6 c 247,-35.9 515.8,-62.9 807.6,-76.7 72.1,-126.1 -15.9,-98.1 -15.9,-98.1 -281.4,2.5 -549.4,24.4 -801.6,60.8 7.9,37.6 11.4,75.7 9.9,114"
           style="fill:#389113;fill-opacity:1;fill-rule:nonzero;stroke:none"
           id="path536" /></g><g
         id="g538"
         transform="scale(1.04898)"><path
           d="m 16226.4,12735.3 v 0 c -2.6,-0.6 -157.7,-34.8 -403.9,-68.8 -246.2,-33.9 -583.5,-67.5 -949.7,-67.5 -377.6,-0.1 -785.9,36 -1155.4,141.9 -184.7,52.9 -359.6,123.1 -516.7,213.9 -157.1,91 -296.3,202.3 -411.6,338.5 -96,113.4 -161.8,220.4 -203.2,318.3 -41.5,98 -58.7,186.5 -58.7,265.6 0.1,78.5 16.8,147.9 46.6,209.8 22.3,46.3 52,88.4 88.3,125.7 54.3,56 123.3,101.5 202.2,132.9 78.9,31.4 167.4,48.5 259.6,48.5 84.2,0 171.6,-14.3 257.5,-45.1 86,-30.7 170.7,-77.7 250.3,-143.8 162.6,-134.9 320.3,-263.8 488.2,-383.5 251.6,-179.5 526.9,-338.1 871.5,-462.1 344.7,-124.2 758.1,-214.2 1288.6,-262.2 l 20,221.3 c -344.1,31.2 -633.9,80.1 -884.5,143.8 -376.1,95.6 -664.1,223.7 -919.7,377.6 -127.9,76.9 -247.7,160.5 -365.9,250.1 -118.2,89.6 -234.9,185.3 -356.3,286 -99.3,82.5 -207.1,142.7 -317.3,182.1 -110.2,39.5 -222.9,58.2 -332.4,58.1 -106.4,0 -210.1,-17.6 -306.1,-51 -72,-25.1 -139.9,-59.2 -201.5,-101.8 -92.2,-63.7 -170.3,-146.9 -225.3,-246.4 -55,-99.4 -86.1,-215.2 -86,-340 0,-111.8 24.6,-230.4 76.2,-352.3 51.7,-121.9 130.1,-247.5 238.4,-375.3 133.7,-158 293.9,-285.3 469.8,-387.1 264.1,-152.7 563.5,-248.5 869.7,-306.7 306.3,-58.3 620,-79.1 913.7,-79.1 382.8,0 731.9,35.3 986,70.6 254.3,35.2 413.5,70.4 415.7,71 l -48.1,217"
           style="fill:#000072;fill-opacity:1;fill-rule:nonzero;stroke:none"
           id="path540" /></g><g
         id="g542"
         transform="scale(1.04214)"><path
           d="m 13007.9,14023.5 c -32.3,-88.4 1268.8,-1032.6 3204.1,-1049.6 0,0 88,-28.1 15.7,97.7 -2337.8,111.8 -3187.5,1040.4 -3219.8,951.9"
           style="fill:#c2ffab;fill-opacity:1;fill-rule:nonzero;stroke:none"
           id="path544" /></g><g
         id="g546"
         transform="scale(1.04214)"><path
           d="m 15420.3,13148.6 c 247,-35.9 515.8,-62.9 807.6,-76.7 72.1,-126.1 -15.9,-98.1 -15.9,-98.1 -281.4,2.5 -549.4,24.4 -801.6,60.8 7.9,37.6 11.4,75.7 9.9,114"
           style="fill:#9bef78;fill-opacity:1;fill-rule:nonzero;stroke:none"
           id="path548" /></g><g
         id="g550"
         transform="scale(1.10129)"><path
           d="m 15089,11443.2 c 241.1,-248.5 391.2,397.5 281,995.4 -112.2,609 -351.9,1143.2 -537.5,854.5 0,0 36.7,86.9 180.6,102.2 294.9,31.3 847.9,-97.7 1030,-953.3 256.9,-2211.7 -954.1,-998.8 -954.1,-998.8"
           style="fill:#ff7c1a;fill-opacity:1;fill-rule:nonzero;stroke:none"
           id="path552" /></g><g
         id="g554"
         transform="scale(1.08306)"><path
           d="m 15356.5,11622.8 c 102.4,-97 756.8,-683.3 943.5,7.4 -168.7,43.2 -328.1,95.3 -476.4,156.3 -65.6,26.9 -129.6,55.6 -191.4,86.3 -49.2,-235.9 -149.4,-364.8 -275.7,-250"
           style="fill:#ff5d1d;fill-opacity:1;fill-rule:nonzero;stroke:none"
           id="path556" /></g><g
         id="g558"
         transform="scale(1.04909)"><path
           d="m 15839.9,12012.6 c 111.2,-74.5 162,-20.8 195.7,92.6 27.4,95.8 35.2,199.4 39.1,299.7 3.3,102.6 0.2,205.8 -7.5,308.4 -11,154.3 -35.9,308.1 -67.6,459.1 -41.5,203.7 -87.4,407.5 -157,603.1 -28.8,73.3 -73.9,199.4 -147.6,231.9 -47.5,15.9 -89.9,-20.9 -124.3,-52.8 36.2,107.5 127.8,148.7 227.4,84.2 119.1,-80.2 195.5,-221.2 256.6,-347.3 93.9,-201.5 153.5,-416.2 193.2,-634.7 52.1,-312.4 44.2,-714.9 -114.5,-996.3 -70.2,-122 -200.6,-197.1 -293.5,-47.9"
           style="fill:#000072;fill-opacity:1;fill-rule:nonzero;stroke:none"
           id="path560" /></g><g
         id="g562"
         transform="scale(1.26929)"><path
           d="m 16300,13375.4 -107.1,-680 c -13.1,-83.6 -85.3,-145.1 -170,-145.1 l -176.8,0.1 -176.7,0.1 c -84.7,0 -156.8,61.7 -169.8,145.3 l -106.5,680"
           style="fill:#ffffff;fill-opacity:1;fill-rule:nonzero;stroke:none"
           id="path564" /></g><g
         id="g566"
         transform="scale(1.23915)"><path
           d="m 16294.7,13660 -63,-519.8 -62.4,519.9 c -4.2,34.6 20.5,66.1 55.2,70.2 40,5.4 75.5,-30.4 70.2,-70.3"
           style="fill:#000072;fill-opacity:1;fill-rule:nonzero;stroke:none"
           id="path568" /></g><g
         id="g570"
         transform="scale(1.27953)"><path
           d="m 16049.6,13287.2 -106.2,-674.5 c -1,-6.1 -3,-11.5 -5.8,-16.4 -4.1,-7.4 -10.4,-13.8 -17.8,-18.1 -7.4,-4.4 -15.6,-6.8 -25,-6.8 v -120.1 l 1.9,120 c 0,0 -0.7,0.1 -1.9,0.1 v -120.1 l 1.9,120 c 0,0 -1.5,0.1 -4.5,0 -3.1,-0.1 -7.9,-0.3 -14.7,-1.2 l 17.2,-120.3 0.1,121.6 h -175.4 l -175.3,0.1 c -6.3,0 -12,1.1 -17.4,3.1 -7.9,3 -15.2,8.2 -20.7,14.9 -5.4,6.6 -9,14.3 -10.5,23.4 l -105.5,674.7 c -10.4,66.2 -72.5,111.6 -138.8,101.2 -66.3,-10.4 -111.6,-72.6 -101.2,-138.8 l 105.5,-674.6 c 5.5,-35.3 17.4,-68.7 34.3,-98.5 25.3,-44.8 61.8,-81.8 105.5,-107.6 43.7,-25.9 94.9,-40.7 148.6,-40.7 l 175.3,-0.1 184.1,-0.1 8.6,1.2 -17.2,120 v -121.2 c 2.7,0.1 8.1,0 17.2,1.2 l -17.2,120 v -121.2 120.1 l -2,-120 c 0,0 0.7,-0.1 2,-0.1 v 120.1 l -2,-120 c 0.1,0 0.7,-0.1 2.1,-0.1 35.7,0 70.5,6.5 102.5,18.6 48.2,18 90.4,48.3 122.7,87.4 32.4,39.1 55,87.5 63.3,140.5 l 106.2,674.5 c 10.5,66.3 -34.7,128.4 -101,138.9 -66.3,10.4 -128.5,-34.9 -138.9,-101.1"
           style="fill:#000072;fill-opacity:1;fill-rule:nonzero;stroke:none"
           id="path572" /></g><g
         id="g574"
         transform="scale(1.34196)"><path
           d="m 16244.5,12860.6 c 55.5,-773 -1076.8,-842.9 -1256,-166.9 0,82 -0.2,228.9 -0.1,288.5 h -0.1 c 0,-59.6 -0.1,-206.5 -0.1,-288.5 -179.3,-676 -1311.5,-606.1 -1256,166.9 0,0 386.8,453.8 1255.9,453.8 869,0 1256.4,-453.8 1256.4,-453.8"
           style="fill:#ffffff;fill-opacity:1;fill-rule:nonzero;stroke:none"
           id="path576" /></g><g
         id="g578"
         transform="scale(1.34196)"><path
           d="m 16244.5,12860.6 c 55.5,-773 -1076.8,-842.9 -1256,-166.9 0,82 -0.2,228.9 -0.1,288.5 h -0.1 c 0,-59.6 -0.1,-206.5 -0.1,-288.5 -179.3,-676 -1311.5,-606.1 -1256,166.9 0,0 386.8,453.8 1255.9,453.8 869,0 1256.4,-453.8 1256.4,-453.8"
           style="fill:#ffffff;fill-opacity:1;fill-rule:nonzero;stroke:none"
           id="path580" /></g><g
         id="g582"
         transform="scale(1.2176)"><path
           d="m 15234,14062.5 c -10.5,-53 164.4,-370 530.8,-381.3 355.2,-11 535.2,239.8 514.8,356.7 -22.6,129.5 -195,37.9 -309.3,-15.9 -528.8,-249.2 -728.9,78.1 -736.3,40.5"
           style="fill:#dfe8f4;fill-opacity:1;fill-rule:nonzero;stroke:none"
           id="path584" /></g><g
         id="g586"
         transform="scale(1.33071)"><path
           d="m 16290.5,12867.2 c 9.5,-48.4 -150.6,-338.5 -485.7,-348.9 -325.1,-10 -489.8,219.5 -471.2,326.5 20.7,118.5 178.5,34.6 283.1,-14.6 483.9,-228 666.9,71.5 673.8,37"
           style="fill:#dfe8f4;fill-opacity:1;fill-rule:nonzero;stroke:none"
           id="path588" /></g><g
         id="g590"
         transform="scale(1.24409)"><path
           d="m 16276.7,14003.5 c 8.1,-77.6 12.4,-155.4 15.8,-233.4 -0.3,-36.5 7.5,-74.7 -1.6,-110.6 -97.6,-406.4 -505.2,-634 -906.7,-580.9 -289.7,34.3 -562.9,228.1 -601.2,530.8 -11.3,91.5 -0.4,181.7 29.5,263 9.7,-42.5 19.5,-83.1 32.1,-122 122.5,-418.2 611.3,-551.8 963.6,-337.7 115.9,71.8 197.5,181.4 235.5,312.4 l -4.4,-32.8 c 2.3,77.9 5.9,155.6 11.7,233.4 2.3,25.9 4.1,51.9 7.1,77.8 18,129.8 200.9,128.9 218.6,0"
           style="fill:#000072;fill-opacity:1;fill-rule:nonzero;stroke:none"
           id="path592" /></g><g
         id="g594"
         transform="scale(1.34051)"><path
           d="m 15106.1,12996.2 c 9.9,-96 14.4,-192.3 17.3,-288.7 l -3.9,30.4 c 35.2,-121.6 110.9,-223.3 218.5,-289.9 327,-198.7 780.6,-74.6 894.2,313.4 11.7,36.1 20.8,73.8 29.9,113.2 27.7,-75.4 37.9,-159.1 27.3,-244 -50.9,-382.8 -477,-555.6 -823.8,-484 -278.2,51.2 -512.2,255.8 -576.7,534.8 -6.6,32.4 -0.2,65.5 -0.5,98.3 1.2,24.1 2.2,48.1 3.6,72.2 2.7,48.2 6.1,96.4 11.2,144.4 17,120.7 186.7,119.5 202.9,-0.1"
           style="fill:#000072;fill-opacity:1;fill-rule:nonzero;stroke:none"
           id="path596" /></g><g
         id="g598"
         transform="scale(1.29076)"><path
           d="m 16214.5,13812.6 c -119.7,-334.3 -632.3,-522.6 -632.3,-522.6 0,0 -512.2,188.8 -631.7,523.2 -85.2,239.3 517.7,277.9 632.2,277.9 114.5,0 717.3,-39.4 631.8,-278.5"
           style="fill:#000072;fill-opacity:1;fill-rule:nonzero;stroke:none"
           id="path600" /></g><g
         id="g602"
         transform="scale(1.2575)"><path
           d="m 15995.6,14253.5 c -0.7,0 -1,0 -1,0 0,0 -0.2,0 -0.7,0 -13.5,0 -219,1.4 -268.1,85.2 -36.3,62 219.8,72 268.8,72 h 0.1 c 48.8,0 305.3,-10.3 269,-72.3 -49,-83.3 -252.7,-84.9 -268.1,-84.9"
           style="fill:#8080b9;fill-opacity:1;fill-rule:nonzero;stroke:none"
           id="path604" /></g><g
         id="g606"
         transform="scale(1.24264)"><path
           d="m 16227.7,14138.6 62.8,-399.1 c 9.5,-60.4 -31.8,-117.2 -92.2,-126.7 -72.8,-12.7 -139.2,54.1 -126.7,126.5 l 62.3,399.3 c 9.1,53.2 84.8,52.8 93.8,0"
           style="fill:#000072;fill-opacity:1;fill-rule:nonzero;stroke:none"
           id="path608" /></g></g></g></svg>
