<?xml version="1.0" encoding="UTF-8" standalone="no"?>
<!-- Created with Inkscape (http://www.inkscape.org/) -->

<svg
   version="1.1"
   id="svg2"
   xml:space="preserve"
   width="5333.3379"
   height="5333.3379"
   viewBox="0 0 5333.3379 5333.3379"
   sodipodi:docname="935b7437075efdc02d4b3a4b63ffb221.eps"
   xmlns:inkscape="http://www.inkscape.org/namespaces/inkscape"
   xmlns:sodipodi="http://sodipodi.sourceforge.net/DTD/sodipodi-0.dtd"
   xmlns="http://www.w3.org/2000/svg"
   xmlns:svg="http://www.w3.org/2000/svg"><defs
     id="defs6" /><sodipodi:namedview
     id="namedview4"
     pagecolor="#ffffff"
     bordercolor="#666666"
     borderopacity="1.0"
     inkscape:pageshadow="2"
     inkscape:pageopacity="0.0"
     inkscape:pagecheckerboard="0" /><g
     id="g8"
     inkscape:groupmode="layer"
     inkscape:label="ink_ext_XXXXXX"
     transform="matrix(1.3333333,0,0,-1.3333333,0,5333.3381)"><g
       id="g10"
       transform="scale(0.1)"><g
         id="g12"
         transform="scale(2.45399)"><path
           d="M 16300,0 H 0 V 16300 H 16300 V 0"
           style="fill:#fda8f3;fill-opacity:0;fill-rule:nonzero;stroke:none"
           id="path14" /></g><g
         id="g16"
         transform="scale(1.7819)"><path
           d="m 15979.4,8229.41 c -551.4,-1393.62 -1726.1,-1293 -2401.7,-868.45 -217.9,136.82 -383.8,307.53 -460.1,472.47 l 310.1,1737.35 139.9,784.32 32.5,182.1 c 0,0 104.1,-413.1 314.9,-790.25 231.7,-413.33 591.9,-783.32 1083.9,-515.63 0,0 1301.1,-191.43 980.5,-1001.91"
           style="fill:#ffffff;fill-opacity:1;fill-rule:nonzero;stroke:none"
           id="path18" /></g><g
         id="g20"
         transform="scale(1.7142)"><path
           d="m 15092.4,7460.23 c -317.5,0 -631.2,101.86 -881.5,248.63 30.4,157.33 56.4,315.43 78,474.1 20,148.41 35.8,297.34 48.2,446.39 5.1,74.67 10.9,149.17 14.2,223.9 2.2,36.81 3.6,73.62 4.9,110.49 311.8,-536.35 658.9,-1089.5 1077.8,-1089.5 86.5,0 176.1,23.57 269,75.78 66.7,3.27 141.8,12.25 220.6,31.21 0.1,0 0.2,0.06 0.4,0.06 0.1,0.06 0.3,0.06 0.4,0.12 122.2,29.52 253.4,83.19 375.6,177.34 -353,-548.48 -812.3,-687.9 -1165.6,-697.93 -14,-0.41 -28,-0.59 -42,-0.59"
           style="fill:#cccce3;fill-opacity:1;fill-rule:nonzero;stroke:none"
           id="path22" /></g><g
         id="g24"
         transform="scale(1.76573)"><path
           d="m 14652.6,7050.06 c -306,0 -628.5,86.14 -913.4,244.6 -278.1,154.67 -492.7,362.51 -588.8,570.25 -22.3,48.19 -1.3,105.39 46.9,127.71 48.3,22.31 105.5,1.3 127.8,-46.9 160.1,-346.14 761.3,-719.98 1367.6,-702.65 419.6,11.89 993.3,211.86 1343.4,1096.99 63.1,159.37 59.6,296.09 -10.8,417.9 -105.2,181.86 -342.2,297.67 -522.5,362.8 -153.6,55.44 -292,84.05 -350.8,94.75 -211.3,-106.08 -418.2,-116.1 -615.3,-29.79 -607.2,266.01 -893.6,1377.18 -905.5,1424.38 -13,51.6 18.3,103.8 69.8,116.9 51.6,13 103.8,-18.3 116.9,-69.8 2.6,-10.7 275.1,-1067.17 796.2,-1295.23 151.2,-66.16 306.9,-53.64 476.1,38.34 l 28.2,15.34 31.8,-4.64 c 32.1,-4.76 789.7,-120.69 1041.7,-556.77 100.3,-173.58 108.1,-370.38 23.2,-584.97 -162.3,-410.31 -387.7,-723.38 -669.7,-930.55 -248.2,-182.25 -533.2,-279.15 -847.2,-287.98 -15.2,-0.46 -30.3,-0.68 -45.6,-0.68"
           style="fill:#000072;fill-opacity:1;fill-rule:nonzero;stroke:none"
           id="path26" /></g><g
         id="g28"
         transform="scale(1.52325)"><path
           d="m 15032.6,8845.98 c 0,0 1009.8,-399.93 1117.4,-1388.61 C 16300,6079.45 15144.3,5301.9 15144.3,5301.9 h -2320.6 v 3651.49 l 2208.9,-107.41"
           style="fill:#ffffff;fill-opacity:1;fill-rule:nonzero;stroke:none"
           id="path30" /></g><g
         id="g32"
         transform="scale(1.48848)"><path
           d="m 15193.9,5539.86 h -35.6 l -29.2,13.57 c 40.2,65.78 78.2,132.35 114.8,199.4 21.2,38.23 41.2,76.72 61.7,115.22 13.8,27 27.8,53.95 41.7,81.02 379.9,135.71 714.3,381.19 952.7,710.05 -73.7,-201.88 -179.5,-397.25 -317,-585.09 -120.5,-164.46 -245.8,-294.46 -346.2,-387.04 -20.1,-1.07 -40.1,-2.62 -60.1,-4.77 -69.8,-7.99 -138.7,-22.77 -204.3,-46.62 -64.1,-22.98 -125.3,-54.76 -178.5,-95.74"
           style="fill:#cccce3;fill-opacity:1;fill-rule:nonzero;stroke:none"
           id="path34" /></g><g
         id="g36"
         transform="scale(1.52295)"><path
           d="m 15181.3,5191.37 h -2466.8 v 3763.75 c 0,61.65 50,111.62 111.7,111.62 61.5,0 111.5,-49.97 111.5,-111.62 V 5414.49 h 2173.6 c 75.3,56.21 300.2,235.66 510,522.08 338.1,461.8 479.7,969.89 420.9,1510.16 -41.2,378.41 -227.8,710.66 -554.7,987.42 -249.3,211.17 -490.8,308.88 -493.2,309.86 -57.1,22.85 -85.1,87.66 -62.3,144.85 22.7,57.19 87.4,85.23 144.7,62.58 10.9,-4.4 272.4,-109.4 549.1,-341.97 163.4,-137.43 298.7,-291.34 402,-457.53 130.4,-209.6 209.9,-438.69 236.3,-681.05 35.9,-330.21 2.7,-654.91 -98.8,-965.03 -80.9,-247.29 -205.1,-485.51 -369.1,-707.97 -278.5,-377.95 -574.2,-579.14 -586.7,-587.48 l -28.2,-19.04"
           style="fill:#000072;fill-opacity:1;fill-rule:nonzero;stroke:none"
           id="path38" /></g><g
         id="g40"
         transform="scale(1.48377)"><path
           d="m 15248.1,5538.13 c 340.2,194.84 895.4,72.79 982.3,-152.92 69.6,-180.69 46,-507.69 -189.7,-656.37 -188.7,-118.95 -462.4,-118.68 -1140,-116.73 H 11541.5 V 7259.9 l 3706.6,-1721.77"
           style="fill:#ffffff;fill-opacity:1;fill-rule:nonzero;stroke:none"
           id="path42" /></g><g
         id="g44"
         transform="scale(1.47025)"><path
           d="m 14483.2,4772.06 10.7,6.67 c 18.7,11.63 37.4,23.8 56.1,35.77 74.8,48.7 149.5,100.26 221,158 36,28.44 70.6,58.97 104.7,89.92 1,0.89 2,1.84 2.8,2.72 h 200 c 79.9,-0.27 154.3,-0.47 223.6,-0.47 523.8,0 758.8,12.17 926.9,118.07 26.2,16.46 49.8,35.23 71,55.71 -0.4,-29.93 -3.1,-59.86 -8.1,-89.04 -9.2,-53.93 -26.5,-105.42 -51.5,-149.7 -24.9,-44.55 -57.5,-81.69 -96.4,-109.71 -19.1,-13.81 -41.6,-26.53 -64.9,-37.2 -23.5,-10.48 -48.6,-19.25 -75.4,-26.53 -53.6,-14.76 -113.2,-23.67 -175.1,-29.66 -62,-6.18 -126.1,-9.38 -190.9,-11.83 -129.8,-4.29 -262.2,-5.78 -394.9,-6.26 l -199.5,-1.22 -199.8,-2.04 -360.3,-3.2"
           style="fill:#b2b2d4;fill-opacity:1;fill-rule:nonzero;stroke:none"
           id="path46" /></g><g
         id="g48"
         transform="scale(1.49121)"><path
           d="m 15162.5,5526.97 c 54,42.18 116.3,74.84 181.8,98.31 65.4,23.81 134.2,38.56 203.9,46.54 34.8,3.69 69.9,5.83 105.2,6.1 35.2,0 70.6,-1.47 106,-4.96 35.4,-3.55 70.8,-9.12 106.2,-16.5 35.3,-7.57 70.5,-17.43 105.6,-29.77 35.1,-12.27 69.9,-27.7 104.2,-46.94 34.2,-19.38 68.2,-42.72 99.7,-73.63 15.8,-15.5 30.9,-32.86 44.6,-52.71 3.4,-5.03 6.9,-9.99 10,-15.36 3.2,-5.3 6.4,-10.66 9.3,-16.3 3,-5.56 5.7,-11.33 8.4,-17.23 1.2,-2.82 2.8,-6.24 3.7,-8.58 l 2.9,-7.24 c 14.8,-38.56 24.5,-76.99 31.3,-115.35 13.2,-76.71 14.7,-153.7 4.3,-230.41 -10.5,-76.52 -32.5,-153.1 -70.1,-225.19 -37.4,-71.75 -91.4,-138.41 -158.3,-189.24 -16.6,-12.74 -34.4,-24.61 -51.6,-34.87 -17.4,-10.6 -35.3,-20.05 -53.4,-28.91 -36.4,-17.43 -73.6,-31.04 -110.3,-41.91 -36.7,-10.73 -73.1,-18.71 -108.8,-25.08 -35.7,-6.37 -70.9,-11.26 -105.7,-14.82 -69.5,-7.24 -137.5,-11.26 -204.7,-13.54 -268.7,-8.18 -529.4,-1.08 -792.3,0.74 l -393.8,3.48 c -131.3,1.14 -262.5,1.01 -393.8,1.55 l -393.8,-0.95 -393.8,-2.54 c -525.2,-4.16 -1050.3,-11.54 -1575.3,-6.64 l -125.1,1.21 1,122.85 2.6,329.33 4.1,329.33 c 3,219.55 6.8,439.1 13.8,658.65 6.9,219.56 16.7,439.11 30.1,658.66 6.5,109.78 14.4,219.55 23,329.33 8.9,109.77 18.7,219.49 31.5,329.26 1.2,10.53 10.6,18.04 21.2,16.83 9,-1.07 15.7,-8.18 16.7,-16.83 12.8,-109.77 22.6,-219.49 31.5,-329.26 8.6,-109.78 16.5,-219.55 23,-329.33 13.4,-219.55 23.2,-439.1 30.1,-658.66 7,-219.55 10.8,-439.1 13.8,-658.65 l 4,-329.33 2.7,-329.33 -124,124.13 c 525.1,4.89 1050.2,-2.49 1575.4,-6.64 l 393.8,-2.55 393.9,-0.94 c 131.3,0.53 262.6,0.4 393.9,1.54 l 393.9,3.49 196.9,2.01 196.8,1.21 c 130.8,0.46 261.3,1.94 389.3,6.17 63.9,2.41 127.1,5.56 188.2,11.66 61.1,5.91 119.8,14.69 172.7,29.24 26.3,7.18 51.1,15.83 74.3,26.16 23,10.52 45.2,23.06 64,36.68 38.4,27.63 70.4,64.24 95,108.16 24.7,43.66 41.8,94.42 50.8,147.6 9,53.11 10.7,108.91 3.7,161.95 -3.4,26.42 -9.1,52.17 -16.7,75.24 l -2.4,7.18 c -0.4,1.67 -1,3.35 -1.8,5.16 -0.5,1.74 -1.4,3.55 -2.2,5.43 -0.8,1.88 -1.8,3.76 -2.9,5.63 -4,7.72 -9.7,15.97 -16.6,24.21 -13.9,16.5 -32.4,33.4 -53.9,48.69 -21.5,15.42 -45.7,29.3 -71.1,42.18 -25.5,12.87 -52.7,23.94 -80.5,34.06 -28,10.06 -56.7,18.85 -86.1,26.09 -29.3,7.65 -59.2,13.75 -89.4,18.51 -30.2,5.03 -60.8,8.52 -91.6,10.73 -123,8.85 -249.4,-2.68 -369.9,-48.02 l -0.3,-0.13 c -9.9,-3.76 -21,1.27 -24.7,11.2 -3.1,8.05 -0.3,16.83 6.1,21.86"
           style="fill:#000072;fill-opacity:1;fill-rule:nonzero;stroke:none"
           id="path50" /></g><g
         id="g52"
         transform="scale(1.78343)"><path
           d="m 15575.7,9647.25 c 0,97.46 92.2,512.75 366.4,420.05 357.9,-120.96 -30.6,-771.84 -50.4,-941.01"
           style="fill:#ffffff;fill-opacity:1;fill-rule:nonzero;stroke:none"
           id="path54" /></g><g
         id="g56"
         transform="scale(1.77746)"><path
           d="m 15945.2,9061.36 c -3.7,0 -7.5,0.22 -11.3,0.67 -52.4,6.13 -89.9,53.62 -83.8,106.05 6.4,54.8 35.9,130.92 73.3,227.24 67.2,173.39 168.8,435.39 111.9,557.08 -13.2,28.3 -34.9,46.25 -70.3,58.2 -41.8,14.1 -74.1,10.6 -104.9,-11.5 -88.6,-63.58 -136.4,-255.14 -136.4,-319.45 0,-52.82 -42.8,-95.58 -95.7,-95.58 -52.7,0 -95.6,42.76 -95.6,95.58 0,85.35 51.3,356.45 216.3,474.85 81.2,58.3 177.2,71.1 277.5,37.2 84.1,-28.4 147.1,-83.2 182.3,-158.3 91.5,-195.65 -23.2,-491.3 -106.9,-707.17 -28.5,-73.65 -58,-149.77 -61.6,-180.37 -5.7,-48.66 -47,-84.5 -94.8,-84.5"
           style="fill:#000072;fill-opacity:1;fill-rule:nonzero;stroke:none"
           id="path58" /></g><g
         id="g60"
         transform="scale(1.23813)"><path
           d="M 6591.63,9981.92 C 6652,9778.87 6720.91,9585.84 6797.22,9402.09 8325.71,5716.45 12859.7,5799.8 12859.7,5799.8 l 138.2,1038.75 c -141.2,24.06 -283.4,50.39 -426.3,80.04 -1734.5,354.16 -3544.59,1103.92 -4292.57,2498.36 -339.32,632.75 -460.46,1372.85 -409.33,2033.05 75.93,983.6 534.6,1790.1 1224.75,1799.7 437.11,5.9 492.68,-500.5 498.98,-631.3 34.49,-763.5 343.02,-1197.7 1035.77,-1126.5 216.4,22.2 464.6,210.8 625,520.8 202.3,390.5 264.9,973.9 -50.4,1662.3 C 10002,16300 5102.39,14991.2 6591.63,9981.92"
           style="fill:#ffffff;fill-opacity:1;fill-rule:nonzero;stroke:none"
           id="path62" /></g><g
         id="g64"
         transform="scale(1.17041)"><path
           d="m 7647.01,15026.7 c -143.32,-535 -305.87,-1699.3 936.77,-1844.5 226.25,497.7 584.5,827.8 1036.91,834.1 462.41,6.4 521.21,-529.3 527.81,-667.8 36.5,-807.6 362.9,-1267 1095.7,-1191.7 228.9,23.5 491.5,223 661.2,551 214,413 280.2,1030.3 -53.3,1758.5 -762.2,1664.8 -2930.15,1833.7 -4205.09,560.4"
           style="fill:#f9744b;fill-opacity:1;fill-rule:nonzero;stroke:none"
           id="path66" /></g><g
         id="g68"
         transform="scale(1.05871)"><path
           d="m 7842.63,15396.7 c 142.38,348.8 328.32,649.4 542.89,903.3 -8.71,-51.7 -16.44,-105.4 -22.65,-160.3 -197.93,-214.2 -373.9,-462 -520.24,-743"
           style="fill:#ffffff;fill-opacity:1;fill-rule:nonzero;stroke:none"
           id="path70" /></g><g
         id="g72"
         transform="scale(1.12869)"><path
           d="m 12208.8,14809.3 c -467.3,861.3 -1322.1,1287.9 -2210.07,1287.9 -770.36,0 -1565.85,-321.3 -2154.42,-958.3 5.82,51.5 13.07,101.9 21.25,150.4 338.62,400.6 753.28,677.2 1177.55,836.4 302.56,113.7 630.56,174.3 959.49,174.3 854.3,0 1714.7,-409.1 2150.8,-1361.7 20.1,-43.6 38.5,-86.7 55.4,-129"
           style="fill:#fcbaa5;fill-opacity:1;fill-rule:nonzero;stroke:none"
           id="path74" /></g><path
         d="m 9806.29,15292.8 c 8.69,56.6 18.37,113.6 29.12,171 12.12,-2.7 24.34,-5.3 36.74,-7.8 -23.18,-53 -45.14,-107.5 -65.86,-163.2"
         style="fill:#cccce3;fill-opacity:1;fill-rule:nonzero;stroke:none"
         id="path76" /><g
         id="g78"
         transform="scale(1.05371)"><path
           d="m 12320,13655.5 c -223.1,0 -398.8,57.5 -534.3,174.3 -211.7,182.6 -330.3,520.5 -352.3,1004.3 -18.8,414.7 -223.6,895.8 -737.9,895.8 -3.9,0 -7.8,-0.1 -11.7,-0.1 -241.9,-3.4 -469.3,-78.4 -675.7,-222.8 -189.32,-132.5 -356.54,-320.4 -496.81,-558.7 -51.76,-87.9 -99.24,-181.5 -142.31,-280.1 -11.77,2.4 -23.36,4.9 -34.86,7.4 42,224.5 101.21,454.9 182.87,685 229.28,646.4 754.61,939.4 1220.21,939.4 428.8,0 807.1,-248.6 856.6,-698.7 88.3,-805.2 215,-1572.2 842.2,-1623.2 50.9,-4.2 101.9,-6.4 152.8,-6.4 132.1,0 263.2,14.8 388.3,48.2 -146.6,-203.1 -335.2,-338.8 -503.8,-356.1 -53.4,-5.5 -104.5,-8.3 -153.3,-8.3"
           style="fill:#c75d53;fill-opacity:1;fill-rule:nonzero;stroke:none"
           id="path80" /></g><path
         d="m 14098.7,7552.2 c -435.8,88.1 -920.3,214.8 -1419.1,396.6 -1627.5,593.1 -2843.86,1539.8 -3633.49,2824.1 507.24,-616.3 1095.79,-1143.6 1769.99,-1478 997.1,-495 1898.4,-730.2 2662.6,-821.5 l 11.1,-23.7 31.9,-63.5 16,-31.7 16.9,-31.3 33.8,-62.4 c 93.2,-164.5 197.9,-321.8 312.6,-470.4 57.8,-73.9 116.7,-146.8 178.7,-216.6 l 19,-21.6"
         style="fill:#cccce3;fill-opacity:1;fill-rule:nonzero;stroke:none"
         id="path82" /><g
         id="g84"
         transform="scale(1.15412)"><path
           d="m 13767.3,6074.4 c -96.2,0 -404.9,4.68 -847.8,57.44 -485.7,57.89 -1231.3,187.33 -2024.9,475.52 -895.4,325.09 -1668.2,781.72 -2296.79,1357.13 -787.83,721.16 -1348.85,1630.24 -1667.49,2702.01 -211.22,710.5 -313.81,1386.6 -304.88,2009.6 8.24,575.6 111.21,1106.7 306.05,1578.4 350.67,849.1 993.06,1485.3 1808.83,1791.6 641.7,240.9 1333.78,253.9 1948.78,36.7 316.7,-111.9 601.5,-280.6 846.5,-501.4 258.5,-233 466.3,-518.9 617.8,-849.6 173.6,-379.3 257,-754.7 247.7,-1115.7 -8,-311.9 -87.2,-607.8 -228.9,-855.6 -187.8,-328.3 -476.7,-550 -754.1,-578.5 -351.7,-36.2 -637.7,38.4 -850.1,221.4 -257,221.8 -399.6,600.8 -423.5,1126.7 -2.1,44.7 -13.8,201.4 -79.5,335.9 -67.71,139 -165.1,202.7 -306.59,200.8 -405.16,-5.6 -670.03,-312.3 -820.97,-568.5 -433.9,-736.7 -555.49,-2152.9 73.82,-3326.2 949.03,-1769.53 3513.44,-2445.36 4957.54,-2690.83 80.1,-13.61 134.1,-89.59 120.4,-169.74 -13.6,-80.24 -89.6,-134.22 -169.7,-120.53 -1130.5,192.1 -2165.3,508.79 -2992.6,915.85 -1029.51,506.62 -1761.32,1154.64 -2175.14,1926.05 -300.22,559.8 -466.69,1243 -468.71,1923.9 -1.94,648.4 140.37,1248.9 400.69,1690.9 128.06,217.5 280.73,389.1 453.59,510.1 188.46,131.8 396.06,200.3 616.92,203.4 3.55,0 7.1,0.1 10.66,0.1 469.49,0 656.49,-439.3 673.69,-817.9 20.1,-441.7 128.4,-750.2 321.7,-916.9 150.7,-129.9 356,-179.6 627.7,-151.6 181.8,18.7 389.3,188.1 528.6,431.8 125,218.5 372.2,821.9 -30.9,1702.5 -590.8,1290.3 -1977.48,1560.9 -3041.84,1161.2 -1296.31,-486.7 -2501.34,-2093.3 -1631.31,-5020 550.42,-1851.43 1820.11,-3151.12 3773.85,-3863.09 1468.7,-535.3 2793.7,-518.58 2806.9,-518.32 81.1,1.48 148.4,-63.25 149.8,-144.52 1.5,-81.28 -63.2,-148.34 -144.5,-149.9 -2.2,0 -12.9,-0.17 -31.3,-0.17"
           style="fill:#000072;fill-opacity:1;fill-rule:nonzero;stroke:none"
           id="path86" /></g><g
         id="g88"
         transform="scale(1.50663)"><path
           d="m 16283.7,10330.7 c -31.6,-586.18 -115.7,-1132.3 -225.3,-1624.86 -232.9,-1049.95 -580.8,-1857.38 -777,-2293.59 -516.3,-1149.19 -777.1,-1388 -1224.8,-1668.49 -481,-301.13 -1879.1,-399.5 -1879.1,-399.5 h -1072.8 c -431.4,0 -1175.4,123.46 -1320.63,249.76 -144.89,126.57 -196.19,331.27 -327.02,476.49 -1116.79,1239.99 -489.17,2561.41 228.66,3972.51 435.29,856.54 836.19,1773.38 1135.09,2495.78 323.9,782.7 528.6,1336.7 528.6,1336.7 0,0 4264.1,536.5 4489.4,0 64.5,-154.3 121.4,-307.1 170.8,-458.7 l 36.9,-169.8 175.7,-810.3 35.5,-163.2 c 35.8,-324 42.3,-638.6 26,-942.8"
           style="fill:#ffffff;fill-opacity:1;fill-rule:nonzero;stroke:none"
           id="path90" /></g><g
         id="g92"
         transform="scale(1.43636)"><path
           d="m 12768.6,4674.95 h -454 c 30.3,26.25 58.5,56.05 82.5,89.68 15.3,20.68 28.3,43.02 40.2,65.79 11.7,22.9 21.2,46.64 29.3,70.59 7.7,24.02 13.8,48.25 18.4,72.41 4.2,24.16 7.2,48.25 8.7,71.99 1.4,23.74 1.7,47.27 0.8,70.38 -0.9,23.05 -2.7,45.81 -5.5,68.16 -5.5,44.63 -14,87.72 -24.3,129.5 -10.3,41.77 -22.3,82.29 -35.1,121.41 l -5.5,16.44 c -2.3,7.03 -5,13.92 -7.8,20.67 -5.7,13.44 -12.3,26.39 -19.7,38.57 -14.5,24.44 -31.8,45.81 -49.9,64.68 -36.8,37.59 -77.2,65.17 -117.8,87.58 -40.8,22.21 -82.1,39.34 -123.4,53.54 -20.1,6.89 -40.2,13.02 -60.4,18.59 l 117.2,638.56 h 611 c 0,0 1169.4,2419.73 1434.2,2419.73 26.7,0 44.2,-24.57 50.4,-78.74 136.2,-1192.81 545,-1601.34 995.4,-1601.41 361.8,-0.07 750.5,263.37 1046.7,595.46 -116.3,-309.88 -244.7,-614.75 -381.5,-917.39 l -54.5,-120.09 -55.5,-119.47 c -18.8,-39.61 -37.2,-79.44 -56.4,-118.77 l -28.5,-59.18 -29,-58.76 c -19.2,-39.34 -39.3,-77.97 -59,-116.89 -20.2,-38.57 -40.1,-77.35 -60.9,-115.36 -41.4,-76.38 -83.6,-151.85 -128.3,-225.16 -44.6,-73.38 -91.3,-144.95 -140.8,-213.39 -49.5,-68.57 -101.8,-133.95 -158.3,-194.79 l -21.2,-22.77 -21.8,-22.14 c -14.2,-15.04 -29.6,-28.96 -44.3,-43.44 -30.4,-28.13 -61.2,-55.84 -93.7,-81.95 -15.8,-13.43 -32.6,-25.97 -49,-38.98 -16.9,-12.54 -33.4,-25.34 -50.7,-37.53 -34.1,-24.85 -69.6,-48.73 -105.2,-72.47 -18.1,-11.77 -36,-23.6 -54.4,-35.23 l -27.4,-17.41 c -8.2,-4.87 -16,-9.95 -24.4,-14.69 -33.3,-19.14 -69.5,-36.83 -106.9,-53.19 -75.1,-32.65 -155.2,-60.15 -236.9,-84.52 -163.8,-48.66 -333.9,-85.98 -505.2,-117.66 -171.6,-31.53 -344.9,-57.22 -518.9,-79.22 -87,-10.93 -174.2,-20.89 -261.5,-29.87 -43.6,-4.46 -87.2,-8.7 -130.9,-12.74 l -65.3,-5.71 -61,-4.81"
           style="fill:#cccce3;fill-opacity:1;fill-rule:nonzero;stroke:none"
           id="path94" /></g><g
         id="g96"
         transform="scale(1.51025)"><path
           d="m 15955,12381.7 c -42,96.3 -84.5,192 -128.8,286.5 -22.1,47.2 -44.5,94.4 -67.6,141 l -4.3,8.9 c -1.4,2.7 -3.1,6.4 -3.9,7.4 -1.8,3.3 -4,6.5 -6.5,9.6 -5,6.3 -11.3,12.6 -18.6,18.6 -14.7,12 -33.6,22.6 -53.9,32 -40.9,18.8 -88.1,31.9 -136.1,42.5 -48.2,10.7 -98,18.4 -148.2,24.6 -100.6,12.4 -203.1,18.9 -306.1,22.9 -103,3.9 -206.5,5.2 -310.1,4.9 -103.7,-0.1 -207.6,-2 -311.5,-4.6 -207.9,-5.4 -416.3,-14.2 -624.6,-25.1 -208.3,-11 -416.8,-25.3 -625.1,-41.3 -208.4,-16.1 -416.7,-34.1 -624.9,-53.9 -208.2,-19.6 -416.3,-40.7 -624.3,-63.3 -103.9,-11.4 -207.9,-22.8 -311.8,-34.8 -103.8,-12 -208,-24.4 -310.8,-37.3 l 102,80.9 c -41.9,-113.3 -84.5,-224.6 -127.5,-336.5 -43.1,-111.7 -86.5,-223.1 -130.6,-334.4 -88.2,-222.4 -177.9,-444.2 -269.9,-665 -183.8,-441.9 -373.9,-881.1 -573.4,-1316.4 -99.8,-217.73 -201.6,-434.45 -306.1,-650.11 -52.37,-107.73 -105.14,-215.26 -158.84,-322.47 -53.63,-107.13 -108.39,-214.2 -162.42,-319.94 -108.07,-212.02 -214.4,-424.11 -313,-638.64 -98.79,-214.34 -190.03,-431.19 -266.18,-651.75 -75.82,-220.5 -135.67,-445.36 -167.46,-672.47 -31.85,-226.92 -34.03,-456.22 3.51,-678.77 9.6,-55.55 20.66,-110.84 35.29,-165.27 l 5.24,-20.46 5.82,-20.33 c 3.98,-13.51 7.62,-27.08 11.86,-40.52 8.67,-26.82 17.01,-53.7 26.88,-80.12 9.07,-26.68 19.86,-52.77 29.99,-79.06 5.37,-13.11 11.06,-25.96 16.56,-39 l 8.34,-19.47 8.87,-19.2 17.88,-38.47 19.07,-37.87 9.54,-18.94 10.13,-18.67 20.26,-37.35 c 55.95,-98.66 119.05,-193.68 188.91,-284.19 35.22,-45.09 71.24,-89.66 109.38,-132.63 l 29.01,-32.97 c 11.72,-13.31 23.04,-26.89 33.5,-40.59 21.26,-27.42 39.86,-55.42 57.08,-83.1 34.36,-55.36 62.64,-109.72 90.91,-159.51 28.07,-49.86 56.08,-95.29 87.14,-132.5 7.68,-9.47 15.69,-18.07 23.77,-26.48 4.04,-4.11 8.14,-8.15 12.31,-12.06 l 6.29,-5.69 1.59,-1.46 1.26,-1.06 1.26,-0.99 c 3.64,-3.04 11.72,-8.34 20.99,-13.31 9.34,-5.1 20.13,-10.26 31.52,-15.23 22.84,-10 48.14,-19.27 74.09,-27.94 26.02,-8.67 52.95,-16.62 80.15,-24.17 109.4,-30.13 223.8,-53.3 338.6,-72.97 115,-19.46 231,-35.16 347.1,-46.94 115.9,-11.59 232.4,-19.6 346.1,-20 h 357.7 715.9 l -8,-0.26 61.6,4.83 62.1,5.43 c 41.5,3.84 83.1,7.88 124.5,12.12 83.1,8.54 165.9,18.01 248.7,28.4 165.5,20.93 330.4,45.36 493.5,75.35 163,30.13 324.7,65.62 480.5,111.91 77.7,23.17 153.9,49.33 225.3,80.38 35.6,15.56 70,32.38 101.7,50.59 8,4.5 15.4,9.34 23.2,13.97 l 26.1,16.56 c 17.4,11.05 34.5,22.31 51.7,33.5 33.9,22.58 67.6,45.29 100,68.93 16.5,11.59 32.2,23.77 48.3,35.69 15.6,12.38 31.5,24.3 46.6,37.08 30.9,24.83 60.1,51.18 89.1,77.93 14,13.77 28.6,27.02 42.1,41.32 l 20.8,21.05 20.1,21.66 c 53.7,57.87 103.5,120.05 150.6,185.26 47.1,65.09 91.4,133.16 133.9,202.95 42.5,69.73 82.7,141.5 122,214.14 19.8,36.15 38.7,73.04 57.9,109.72 18.8,37.01 37.9,73.76 56.1,111.17 l 27.6,55.89 27.1,56.28 c 18.3,37.41 35.8,75.28 53.7,112.96 l 52.7,113.62 51.9,114.22 c 137.9,305.25 267,612.82 382.7,926.01 29,78.27 57.3,156.73 84.6,235.59 13.6,39.47 27.5,78.8 40.6,118.46 13.2,39.53 26.7,79.06 39.3,118.79 51.3,158.85 99.7,318.62 144.5,479.52 44.8,160.84 86,322.74 123.3,485.62 37.7,162.76 71.7,326.44 101.8,490.92 29.8,164.54 56.2,329.74 78.8,495.67 10.5,82.97 21.8,166.01 30.2,249.34 10,83.2 17,166.7 25,250.1 l 0.1,1.3 c 2.9,29.9 29.4,51.8 59.3,48.9 28.7,-2.8 50.1,-27.5 49.2,-56 -2.9,-84.7 -4.7,-169.6 -9.7,-254.3 -3.8,-84.79 -10.4,-169.34 -16.2,-254.1 -14.1,-169.18 -32,-338.22 -54.7,-506.67 -45.8,-336.84 -109.3,-671.48 -189.8,-1002.16 -40.3,-165.27 -84.4,-329.74 -132.9,-492.9 -11.8,-40.85 -24.4,-81.51 -36.9,-122.23 -12.3,-40.72 -25.2,-81.25 -38.2,-121.77 -26,-81.04 -53.3,-161.69 -81.1,-242.08 -111.6,-321.53 -239.9,-637.78 -378.5,-947.33 l -52.3,-116.07 -53.7,-115.68 c -36.3,-77 -73.1,-153.81 -111.7,-230.09 -18.9,-38.28 -38.9,-76.15 -58.4,-114.22 -20.1,-37.94 -39.9,-75.88 -60.8,-113.56 -41.2,-75.42 -84.1,-150.31 -130.1,-224 -45.8,-73.83 -94.3,-146.67 -146.6,-217.58 -52.3,-70.99 -108.7,-140.05 -170.3,-205.2 l -23.1,-24.37 -23.7,-23.84 c -15.7,-16.02 -32.4,-31.12 -48.6,-46.61 -33.3,-30.13 -67,-59.86 -102,-87.54 -69.7,-56.21 -142.4,-106.4 -215.1,-153.81 -18.3,-11.66 -36.5,-23.51 -54.7,-34.83 l -27.4,-17.15 c -10.3,-6.16 -20.7,-12.65 -31.1,-18.41 -41.5,-23.44 -83.2,-43.24 -125,-61.05 -83.5,-35.42 -167.1,-63.63 -250.9,-88.46 -167.7,-49.33 -335.8,-85.15 -504.2,-116.34 -168.4,-30.92 -337.1,-55.89 -506.1,-77.21 -84.5,-10.66 -169.1,-20.26 -253.7,-29 -42.4,-4.37 -84.7,-8.47 -127.1,-12.38 l -63.8,-5.56 -64.5,-5.1 -3.5,-0.26 h -4.4 -715.9 -358.1 c -125,0.46 -246.9,9.06 -368.3,21.12 -121.4,12.31 -241.9,28.6 -362.2,49 -120.4,20.65 -240.1,44.76 -360.92,77.93 -30.19,8.34 -60.52,17.35 -91.11,27.55 -30.59,10.19 -61.45,21.38 -93.23,35.22 -15.96,7.02 -32.18,14.7 -49,23.84 -16.95,9.27 -34.43,19.66 -54.03,35.22 l -7.41,6.09 c -1.4,1.13 -2.13,1.79 -2.99,2.59 l -2.58,2.32 -10.26,9.33 c -6.69,6.29 -13.24,12.72 -19.67,19.2 -12.58,13.05 -24.83,26.42 -36.02,40.06 -45.29,54.63 -79.46,111.71 -109.98,165.61 -30.52,54.09 -57.47,105.61 -86.15,151.56 -14.3,22.98 -28.86,44.63 -44.16,64.43 -7.61,10 -15.43,19.33 -23.44,28.4 l -30.06,34.24 c -41.05,46.22 -80.05,94.48 -118.33,143.42 -75.94,98.39 -145.27,202.55 -206.98,311.47 l -22.38,41.32 -11.19,20.72 -10.6,20.99 -21.12,42.05 -19.86,42.71 -9.87,21.38 -9.27,21.66 c -6.16,14.43 -12.51,28.8 -18.47,43.37 -11.39,29.33 -23.31,58.4 -33.51,88.2 -21.52,59.19 -39.79,119.51 -55.82,180.43 -16.35,60.78 -28.87,122.56 -39.72,184.54 l -7.55,46.61 -6.23,46.75 c -2.18,15.56 -3.77,31.19 -5.29,46.81 -1.46,15.63 -3.51,31.26 -4.51,46.88 -5.36,62.58 -7.48,125.22 -8.01,187.79 -0.2,62.57 2.32,124.94 6.42,187.12 4.64,62.11 11.06,123.95 19.4,185.4 33.97,245.85 97.67,484.29 175.47,715.32 78.53,231.02 171.7,455.02 271.55,674.52 99.85,219.5 206.12,434.83 313.39,648.64 53.9,107.13 107.14,212.81 159.64,319.42 52.51,106.47 104.22,213.47 155.47,320.67 102.31,214.47 202.18,430.26 299.78,647.16 195,433.8 383.2,871 564.3,1311.1 90.5,220.1 180.2,440.6 267.7,661.9 43.8,110.7 87.4,221.3 130.4,332.2 42.9,110.7 85.6,222.2 127,332.6 l 26.9,71.9 75.1,9.1 c 105.3,12.8 209.5,24.6 314.2,36.2 104.6,11.5 209.2,22.7 313.9,33.2 209.3,21.2 418.8,40.8 628.5,58.7 209.7,17.6 419.6,33.6 629.8,47.4 210.1,13.6 420.5,24.9 631.3,33.2 210.8,8.5 421.9,13 633.6,10.7 211.6,-2.6 423.8,-11.4 636.3,-34 106.2,-11.7 212.7,-26.6 318.9,-49.4 53.1,-11.6 106.2,-25 159.2,-42.1 53,-17.4 105.8,-38.1 157.5,-68.7 25.9,-15.5 51.3,-33.8 74.6,-58.1 11.6,-12.1 22.5,-25.9 31.7,-41.7 4.6,-7.9 8.8,-16.1 12.3,-24.9 2,-4.9 2.7,-7.3 3.9,-10.6 l 3.3,-9.4 c 17.2,-50.1 33.9,-100.3 49.5,-150.9 31.4,-101.1 59.4,-203.2 82.6,-306.3 2.2,-9.3 -3.7,-18.6 -13,-20.7 -8.2,-1.9 -16.4,2.5 -19.7,10"
           style="fill:#000072;fill-opacity:1;fill-rule:nonzero;stroke:none"
           id="path98" /></g><g
         id="g100"
         transform="scale(1.68927)"><path
           d="m 16299,11773.1 c -1,-2 -2.2,-3.7 -3.1,-5.6 l 4.1,6.8 -1,-1.2"
           style="fill:#000072;fill-opacity:1;fill-rule:nonzero;stroke:none"
           id="path102" /></g><g
         id="g104"
         transform="scale(1.68884)"><path
           d="m 16300,11770.4 -120.4,-193.1 c 41.5,62.5 82,126.5 120.4,193.1"
           style="fill:#000072;fill-opacity:1;fill-rule:nonzero;stroke:none"
           id="path106" /></g><g
         id="g108"
         transform="scale(1.68919)"><path
           d="m 16300,11835.8 c -0.8,-0.8 -1.5,-1.6 -2,-2.1 -1,-1.3 -1.9,-2.7 -2.9,-4 l 4.9,6.1"
           style="fill:#000072;fill-opacity:1;fill-rule:nonzero;stroke:none"
           id="path110" /></g><g
         id="g112"
         transform="scale(1.68868)"><path
           d="m 16183.3,11690.1 c 40.2,46.2 79.3,93.7 116.7,143.2 l -116.7,-143.2"
           style="fill:#000072;fill-opacity:1;fill-rule:nonzero;stroke:none"
           id="path114" /></g><g
         id="g116"
         transform="scale(1.22584)"><path
           d="m 11258.2,16104 -160.4,196 c 51.1,-67.6 104.6,-132.7 160.4,-196"
           style="fill:#000072;fill-opacity:1;fill-rule:nonzero;stroke:none"
           id="path118" /></g><g
         id="g120"
         transform="scale(1.69828)"><path
           d="m 16299.1,11826.3 c -1.7,-1.9 -3.3,-4 -4.9,-5.8 l 5.8,6.5 -0.9,-0.7"
           style="fill:#000072;fill-opacity:1;fill-rule:nonzero;stroke:none"
           id="path122" /></g><g
         id="g124"
         transform="scale(1.69767)"><path
           d="m 16300,11824.7 -119.2,-133.2 1.2,0.9 c 40.8,42.7 80.2,86.8 118,132.3"
           style="fill:#000072;fill-opacity:1;fill-rule:nonzero;stroke:none"
           id="path126" /></g><g
         id="g128"
         transform="scale(1.30708)"><path
           d="m 16054.6,9914.54 c -350.9,-1773.57 -339.1,-4064.7 -325.6,-4102.43 4.5,-12.92 571,-237.01 262.3,-557.73 -430,-446.87 -1820.9,-275.72 -1958.6,-73.14 -201.3,296.39 -767.2,3777.51 -589.5,5389.36"
           style="fill:#ffffff;fill-opacity:1;fill-rule:nonzero;stroke:none"
           id="path130" /></g><g
         id="g132"
         transform="scale(1.30021)"><path
           d="m 16182.2,9958.48 c 11.4,-35.15 17.4,-69.07 22.3,-102.75 4.7,-33.61 7.1,-66.76 8.4,-99.6 1,-32.84 0.7,-65.38 -1,-97.68 -1.9,-32.22 -5,-64.22 -8,-96.29 -6.2,-63.99 -14.3,-127.67 -24.3,-191.13 -9.9,-63.45 -21.8,-126.67 -32.8,-190.04 l -8.2,-47.53 -7.7,-47.69 c -5.2,-31.76 -9.9,-63.6 -14.1,-95.52 -8.5,-63.76 -15.9,-127.75 -23.4,-191.66 -14.7,-127.98 -28.3,-256.12 -40.6,-384.4 -49.2,-513.23 -81.2,-1028.84 -99.7,-1544.75 -9,-257.81 -15,-516.15 -15.3,-773.26 -0.1,-64.07 0.2,-128.68 1.6,-191.05 l 0.7,-22.84 c 0.3,-7.23 0.6,-14.77 1,-19.62 0.1,-0.69 0.2,-2.07 0,-0.77 0.1,-0.69 -0.4,3.7 -0.8,5.77 17.2,-11.84 -44.5,88.91 -47.5,77.53 -6.2,4.69 -8,5.61 -8.7,6.15 -1.1,0.62 -1.2,0.62 -1,0.62 l 2.4,-1.39 20.3,-10.61 c 30,-15.61 61.5,-32.92 92.2,-51.68 61.8,-37.92 123.2,-81.38 180.1,-141.06 28.2,-29.99 55.4,-64.52 77.8,-106.44 22.3,-41.61 39.3,-92.14 42.4,-145.9 1.7,-26.77 0,-53.84 -4.7,-79.68 -4.7,-25.92 -12.2,-50.46 -21.6,-73.14 -18.8,-45.54 -44.2,-83.15 -70.9,-115.68 -53.3,-64.22 -115.8,-113.52 -180.5,-153.28 -64.9,-39.61 -132.1,-69.76 -199.7,-94.14 -67.6,-24.38 -135.6,-42.84 -203.6,-57.61 -136.2,-29.37 -272.3,-43.91 -407.7,-49.91 -135.5,-5.85 -270.4,-2.77 -404.9,8 -134.6,11.08 -268.5,29.22 -403.2,59.84 -67.5,15.68 -134.9,33.99 -204.7,61.06 -17.5,6.84 -35.2,14.31 -53.3,22.92 -18.1,8.69 -36.5,18.31 -56,30.53 -9.7,6.08 -19.6,12.77 -30,20.85 -10.4,7.92 -21.1,16.92 -32.3,28.46 l -8.5,9.15 c -2.9,3.23 -5.8,6.84 -8.6,10.3 -2.9,3.69 -5.9,7.77 -8.7,11.77 -2.3,3.54 -4.1,6.31 -6.2,9.54 l -3,4.77 -2.4,4.23 -4.8,8.46 c -2.9,5.45 -5.4,10.38 -8.1,15.61 -9.8,19.92 -17,37.69 -23.8,55.22 -6.8,17.54 -12.8,34.46 -18.4,51.14 -11.3,33.54 -21.2,66.23 -30.5,98.83 -18.6,65.07 -34.9,129.45 -50.3,193.82 -30.7,128.6 -57.6,256.88 -83,385.33 -50.5,256.8 -94.4,513.91 -134.7,771.49 -40.2,257.65 -76.5,515.68 -109.2,774.18 -32.9,258.5 -61.5,517.53 -87.2,776.95 l -19.8,194.59 -18.9,194.81 c -12.2,129.9 -23.6,260.03 -32.1,390.4 -17.2,260.8 -22.9,522.84 -12.3,785.33 5.7,131.21 16.8,262.47 34.8,393.37 9,65.3 19.8,130.6 33.1,195.5 13.2,65 28.6,129.6 48.3,193.3 7.2,23.4 32,36.5 55.5,29.3 17.7,-5.4 29.6,-21.1 31.1,-38.5 v -0.3 c 5.6,-65.2 9.6,-129.8 13.8,-194.2 l 12.1,-192.8 c 7.7,-128.4 15.3,-256.46 22.1,-384.59 l 41.2,-769.64 c 13.4,-256.96 28.5,-514.46 51.9,-771.34 24.1,-256.88 53.5,-513.3 85.7,-769.41 32.4,-256.04 68.3,-511.69 108.1,-766.58 39.9,-254.88 83.4,-509.15 133,-761.26 24.9,-125.98 51.3,-251.57 80.7,-375.25 14.8,-61.76 30.4,-123.06 47.4,-182.66 8.5,-29.84 17.4,-59.14 26.8,-87.14 4.7,-14 9.6,-27.61 14.5,-40.38 4.9,-12.69 10.1,-24.92 14.6,-34.07 l 3.1,-5.92 1.2,-2.16 0.6,-1 0.3,-0.38 0.3,-0.69 c -0.4,0.69 -1.1,1.54 -1.4,2 l -0.9,1 -0.2,0.23 c 0.4,-0.46 6.1,-5.46 14.2,-10.38 8,-5.08 18.3,-10.54 29.4,-15.85 11.2,-5.38 23.3,-10.54 36,-15.53 51.2,-19.92 109.1,-36.15 167.9,-49.69 118.3,-26.92 242,-43.91 365.8,-54.07 124,-9.92 248.9,-12.69 372.5,-7.38 123.6,5.38 246.2,18.84 363.8,44.23 58.6,12.68 115.9,28.45 170.3,48.07 54.4,19.6 106,43.06 151.8,71.14 45.7,27.84 85.7,60.83 115.3,96.67 14.5,17.46 25.1,34.54 31,49.07 5.9,14.77 7.7,26 7.1,37.07 -0.7,11.08 -4.1,23.77 -12.3,39.23 -8.2,15.38 -20.9,32.61 -37.2,49.68 -32.5,34.54 -77.2,67.68 -125.9,97.37 -24.6,15 -49.9,28.92 -77.4,43.22 l -22.8,12 -8.2,4.54 -6.3,3.69 c -2.4,1.54 -6,3.54 -13.8,9.46 -4.8,-10.3 -67.4,92.37 -50.4,82.53 -0.8,4.15 -1.6,10.46 -1.7,11.77 -0.6,5.3 -0.8,8.07 -1,11.38 -0.9,11.3 -1.2,19.99 -1.6,28.92 l -0.7,25.84 c -1.6,67.22 -1.9,132.29 -1.9,197.89 0.5,261.57 6.5,521.92 15.6,782.41 18.7,520.77 51,1041.07 100.7,1560.52 12.6,129.83 26.2,259.57 41.2,389.32 l 23.3,194.51 c 3.8,32.38 7.4,64.84 10.7,97.37 3.6,32.53 6.9,64.99 10.1,97.6 6.8,65.07 13.3,130.21 22.7,194.97 9.4,64.76 21.4,129.21 36.2,193.12 7.6,31.92 15.2,63.84 24.4,95.52 9.3,31.61 20.1,62.92 32.8,93.91 12.7,30.92 27,61.53 43.7,91.68 16.8,29.99 35.1,59.68 59,88.14 17.7,21.07 49.1,23.76 70.2,6.07 7.3,-6.15 12.4,-13.99 15.2,-22.53 l 0.1,-0.46"
           style="fill:#000072;fill-opacity:1;fill-rule:nonzero;stroke:none"
           id="path134" /></g><g
         id="g136"
         transform="scale(1.27292)"><path
           d="m 15374.6,5923.23 c 60.1,28.91 122.9,53.42 187,75.18 64.1,21.61 130,39.67 197.5,54.21 l 50.9,10.29 51.7,8.09 c 17.3,2.98 34.8,4.48 52.3,6.36 17.6,1.57 35.2,4.24 53.1,4.72 l 53.7,2.51 c 18,0.63 36.1,-0.23 54.4,-0.31 l 27.4,-0.55 c 9.2,-0.31 18.4,-1.42 27.6,-2.13 l 55.7,-5.02 c 65.6,-5.97 114.1,-64.03 108.2,-129.78 -6,-65.68 -64,-114.15 -129.8,-108.18 -11.9,1.02 -23.2,3.85 -33.8,8.09 l -4.9,2.05 -40.9,16.65 c -6.9,2.67 -13.7,5.81 -20.8,8.25 l -21.4,6.99 c -14.4,4.48 -28.7,9.74 -43.5,13.75 l -44.7,11.39 c -60.5,13.59 -123.2,24.43 -187.3,29.3 -64.1,5.34 -129.3,7.23 -194.9,5.34 -65.6,-2.04 -131.6,-7.07 -197.5,-17.2"
           style="fill:#000072;fill-opacity:1;fill-rule:nonzero;stroke:none"
           id="path138" /></g><g
         id="g140"
         transform="scale(1.68858)"><path
           d="m 16182,11641.2 c 40.5,46.5 80,94.6 118,144.1 l -118,-144.1"
           style="fill:#ffffff;fill-opacity:1;fill-rule:nonzero;stroke:none"
           id="path142" /></g><g
         id="g144"
         transform="scale(1.22086)"><path
           d="m 11315,16101 -162.5,199 c 51.8,-68.6 106.5,-134.7 162.5,-199"
           style="fill:#ffffff;fill-opacity:1;fill-rule:nonzero;stroke:none"
           id="path146" /></g><g
         id="g148"
         transform="scale(1.51143)"><path
           d="m 16170.7,11400.4 v 0 l -75,346 c 7.4,2 14.8,4 22.2,6 9.7,2.7 19.3,5.4 29,8.1 44.2,-101.3 95.2,-207.1 153.1,-311.2 -43,-16.8 -86.1,-33.1 -129.3,-48.9"
           style="fill:#cccce3;fill-opacity:1;fill-rule:nonzero;stroke:none"
           id="path150" /></g><g
         id="g152"
         transform="scale(1.52117)"><path
           d="m 16195.6,11376 c -57.5,103.4 -108.2,208.6 -152.1,309.1 36.3,10.2 72.6,20.5 108.8,31.2 42.9,-97.7 92.2,-199.3 147.7,-298.7 -34.7,-14.2 -69.6,-28.1 -104.4,-41.6"
           style="fill:#000072;fill-opacity:1;fill-rule:nonzero;stroke:none"
           id="path154" /></g><g
         id="g156"
         transform="scale(1.49944)"><path
           d="m 13717.8,11022.5 c -917,0 -1834.5,174.6 -2727.6,524.5 0.1,0.3 0.2,0.6 0.3,0.9 43.5,104.5 86.6,209.2 129.2,314.1 22.8,-6.5 45.7,-12.9 68.6,-19.3 91.1,-25 182.5,-49 274.4,-71 45.8,-11.3 91.9,-21.6 137.9,-32.1 46.1,-10.5 92.9,-20.1 139.3,-30 l 9.6,-2 8.8,-1.6 17.5,-3.2 34.8,-6.3 69.6,-12.2 c 46.4,-8 92.7,-15.7 139.2,-23 92.9,-14.8 186,-28.2 279.3,-40.6 186.5,-24.4 374,-44.3 562.6,-53.8 1,-0.1 1.9,-0.1 2.9,-0.1 26.2,0 49.7,18.2 55.5,44.9 0.4,1.9 0.7,3.8 0.9,5.7 122.6,-12.7 446.1,-42.3 794.3,-42.3 348,0 675.7,29.6 800.1,42.3 3.1,-28.8 27.5,-50.6 56.4,-50.6 1.1,0 2.2,0 3.4,0.1 188.3,11.1 375.6,31.8 562,56.9 46.6,6.3 93.2,12.8 139.7,19.8 46.5,6.9 93,14 139.4,21.5 46.4,7.6 92.8,15 139.2,23.2 l 69.5,12.3 34.8,6.3 17.4,3.2 8.8,1.7 c 3.3,0.6 6.9,1.2 9.6,1.8 46.4,10 93.1,19.6 139.2,30.1 46,10.5 92.1,20.8 137.9,32.1 84.4,20.1 168.3,41.9 252.1,64.5 l 75.6,-348.8 v 0 c -113.9,-42.2 -228.4,-81.5 -342.8,-117.8 -736.9,-234 -1488,-351.2 -2239.4,-351.2"
           style="fill:#cccce3;fill-opacity:1;fill-rule:nonzero;stroke:none"
           id="path158" /></g><g
         id="g160"
         transform="scale(1.09451)"><path
           d="m 15056.2,15819.1 c -53.8,21 -107.4,42.4 -161,64.5 60,144.9 116.9,284 170.7,416.4 55.8,-16.9 111.7,-33.3 167.7,-49.4 -58.4,-143.7 -117.3,-287.2 -177,-430.4 -0.2,-0.4 -0.3,-0.8 -0.4,-1.1"
           style="fill:#000072;fill-opacity:1;fill-rule:nonzero;stroke:none"
           id="path162" /></g><g
         id="g164"
         transform="scale(1.99516)"><path
           d="m 5992.31,10684 c 19.14,-166.7 359.37,-8.8 433.5,27.7 5.91,2.9 12.33,-3.2 10.62,-10.5 -6.81,-28.7 -25.11,-93.4 -71.52,-196.9 -57.49,-127.8 -104.35,-226.8 -78.39,-293.8 27.92,-71.2 143.55,-98.6 287.64,-82.4 80.7,9.1 167.16,-61.3 244.2,-146.49 l 0.25,-0.2 0.6,-0.65 5.11,-6.61 c -1.25,1.9 -2.76,3.6 -4.01,5.56 37.69,-41.75 73.03,-87.11 104.3,-128.21 129.47,-147.96 275.52,-279.08 434.76,-394.91 205.44,-144.35 431.99,-258.27 670.87,-347.49 v 1.71 c 0,0 327.64,-120.9 812.22,-231.82 0,0 433.04,-92.62 828.85,-143.74 0,0 302.99,-35.99 635.99,-35.99 332.7,0 640.8,35.99 640.8,35.99 395.6,51.12 828.9,143.74 828.9,143.74 484.3,110.92 812.2,231.82 812.2,231.82 v -1.71 c 238.9,89.22 465.4,203.14 670.9,347.49 159,115.83 305,246.95 434.5,394.91 31.7,41.55 67.3,87.11 105.4,129.26 -1.5,-2.15 -3.2,-4.26 -4.7,-6.41 l 5.7,7.26 -0.8,-0.65 c 77.3,85.34 163.9,156.24 244.8,147.14 144.1,-16.2 259.8,11.2 287.6,82.4 26.3,67 -20.8,166 -78.1,293.8 -46.6,103.5 -64.9,168.2 -71.7,196.9 -1.5,7.3 4.6,13.4 10.6,10.5 74.1,-36.5 414.3,-194.4 433.5,-27.7 10.8,92.4 -139,371.7 -191.2,657.9 -151.4,829.2 -195.2,993 -195.2,993 -1.1,5.5 -147.8,599.9 -367.1,1037.7 219.1,583.7 362.6,2286.3 -4,2641.9 -294.2,285.5 -1400.7,-313.6 -1815.9,-732.8 -627.8,262.3 -1601.7,301.7 -1743.9,301.4 -49,0 -196.3,-4.4 -394.1,-21.2 -377.26,-32 -938.07,-108.2 -1349.61,-280.2 -415.16,419.2 -1521.64,1018.3 -1816.05,732.8 -366.64,-355.6 -223.14,-2058.2 -4.06,-2641.9 -138.58,-276.6 -248.25,-615.8 -310.2,-829.3 -36.19,-124.6 -56.44,-206.3 -56.84,-208.4 0,0 -43.65,-163.8 -195.02,-993 -52.18,-286.2 -202.04,-565.5 -191.41,-657.9"
           style="fill:#ffffff;fill-opacity:1;fill-rule:nonzero;stroke:none"
           id="path166" /></g><g
         id="g168"
         transform="scale(1.85825)"><path
           d="m 7156.67,14655.5 c -102.62,444.4 -170.32,1100.9 -145.62,1644.5 22.66,-567.2 117.75,-1153.9 231.78,-1458.2 -29.92,-59.9 -58.71,-122.5 -86.16,-186.3"
           style="fill:#ffffff;fill-opacity:1;fill-rule:nonzero;stroke:none"
           id="path170" /></g><g
         id="g172"
         transform="scale(1.33524)"><path
           d="m 15401.5,12998.6 c -391,0 -754.3,33.2 -892,47.5 v 0 c 137.8,-14.1 501,-47.4 891.9,-47.4 390.9,0 758.9,33.3 898.5,47.5 0,-0.1 0,-0.1 0.1,-0.1 -139.7,-14.3 -507.7,-47.5 -898.5,-47.5"
           style="fill:#a3a3cc;fill-opacity:1;fill-rule:nonzero;stroke:none"
           id="path174" /></g><g
         id="g176"
         transform="scale(1.74437)"><path
           d="m 11789.1,9949.93 c -299.2,0 -577.3,25.45 -682.7,36.29 2.7,24.68 -13.6,47.78 -38.3,53.08 l -0.2,0.1 c -156.7,33.7 -313.2,66.7 -469.5,101.4 l -234.2,52.3 -117,26.5 -58.3,13.4 -29.2,6.7 -14.5,3.4 -7.1,1.7 -6.5,1.6 -114.9,29.7 c -38.45,10.3 -77.03,20.2 -115.33,30.9 -76.87,20.5 -153.35,42.4 -229.82,64.3 -76.36,22.2 -152.49,45 -228.22,68.8 -37.84,11.8 -75.56,24.2 -113.11,36.6 l -56.06,19 -27.81,9.7 -26.94,9.7 -67.82,24.3 c -93.67,37.2 -185.68,77.9 -275.63,122.6 -111.61,55.5 -219.73,117.3 -323.5,185.4 -12.84,8.6 -25.97,17.1 -38.57,25.7 l -37.61,26.1 -36.81,27.3 c -12.32,9.5 -24.88,18.7 -37.03,28.3 -49.07,38.1 -97,77.8 -143.6,118.7 -46.61,41 -91.73,83.5 -135.53,127.4 -11,10.9 -21.78,22 -32.5,33.1 -10.89,11.1 -21.38,22.4 -31.99,33.7 -10.66,11.2 -20.92,22.8 -31.41,34.2 -5.22,5.7 -10.26,11.6 -15.43,17.3 l -7.68,8.6 -2.12,2.5 0.17,0.1 c -51.59,67.7 -105.65,136.7 -170.89,202.2 -32.85,32.6 -68.45,64.7 -111.67,93.6 -21.73,14.4 -45.46,28 -72.69,39.4 -27.06,11.3 -58.13,20.3 -92.76,22.8 -6.25,0.5 -12.55,0.7 -18.91,0.7 -2.47,0 -4.99,0 -7.46,-0.1 -4.47,-0.2 -8.94,-0.3 -13.47,-0.7 l -10.15,-1 c -9.17,-1 -18.34,-1.8 -27.4,-2.4 -15.08,-1.1 -29.98,-1.6 -44.66,-1.6 -3.04,0 -6.13,0 -9.17,0.1 -17.54,0.2 -34.74,1.3 -50.9,3.5 -16.17,2 -31.48,5.1 -44.66,9.1 -13.25,3.9 -24.2,8.9 -31.13,13.3 -3.38,2.2 -5.74,4.2 -7,5.5 -1.08,1.1 -1.49,1.7 -1.6,1.8 -0.23,0.8 -1.2,3.9 -1.26,10.1 -0.06,8.4 1.66,21.5 5.33,36.3 3.61,14.9 8.88,31.4 15.19,48.6 6.31,17.2 13.53,35.1 21.27,53.3 15.48,36.5 32.68,73.8 50.1,112.7 17.09,38.2 33.25,77 48.16,117.2 1.72,-0.1 3.49,-0.1 5.22,-0.1 27.8,0 57.09,1.7 87.59,5.1 5.39,0.6 10.89,0.9 16.34,0.9 87.54,0 180,-76.7 262.96,-168.4 l 0.23,-0.3 0.74,-0.7 5.85,-7.5 c -1.49,2.1 -3.21,4.1 -4.64,6.3 43.11,-47.7 83.52,-99.6 119.29,-146.6 148.08,-169.2 315.13,-319.3 497.26,-451.7 235.04,-165.1 494.1,-295.4 767.32,-397.4 v 1.9 c 0,0 374.81,-138.3 929.02,-265.2 0,0 495.3,-105.9 948,-164.4 0,0 346.5,-41.1 727.4,-41.1 380.6,0 732.9,41.1 732.9,41.1 452.5,58.5 948.1,164.4 948.1,164.4 554,126.9 928.9,265.2 928.9,265.2 v -1.9 c 273.3,102 532.4,232.3 767.4,397.4 181.9,132.4 348.9,282.5 497,451.7 36.3,47.5 76.9,99.6 120.6,147.8 -1.8,-2.4 -3.7,-4.8 -5.4,-7.3 l 6.6,8.3 -1,-0.7 c 83.2,91.9 175.9,169.1 263.7,169.1 5.4,0 10.9,-0.3 16.3,-0.9 30.5,-3.4 59.8,-5.1 87.6,-5.1 2.7,0 5.5,0.1 8.2,0.1 14.8,-39.8 30.9,-78.2 47.7,-115.9 17.4,-39 34.6,-76.4 50.2,-112.9 7.7,-18.2 15,-36.1 21.2,-53.4 6.4,-17.3 11.7,-33.9 15.4,-49 3.7,-14.9 5.4,-28.2 5.3,-36.9 0,-8 -1.5,-11.5 -1.6,-11.5 0,0 0,0.1 0.1,0.1 -0.2,-0.3 -2.4,-3.7 -9.6,-8.4 -7.3,-4.6 -18.4,-9.7 -31.9,-13.7 -13.3,-4 -28.8,-7.1 -45.1,-9.2 -16.3,-2.2 -33.6,-3.2 -51.2,-3.5 -3.1,-0.1 -6.1,-0.1 -9.2,-0.1 -14.7,0 -29.7,0.6 -44.9,1.6 -9.1,0.6 -18.3,1.4 -27.5,2.4 l -10.1,1 c -4.5,0.4 -8.9,0.6 -13.3,0.7 -2.5,0.1 -5,0.2 -7.5,0.2 -6.2,0 -12.4,-0.3 -18.6,-0.7 -34.2,-2.6 -65,-11.5 -91.9,-22.7 -26.9,-11.3 -50.5,-24.8 -72.1,-39.1 -43,-28.8 -78.5,-60.7 -111.3,-93.2 -65,-65.3 -119,-134.2 -170.6,-201.9 l 0.2,-0.2 -2.3,-2.5 -7.7,-8.7 c -5.1,-5.8 -10.2,-11.6 -15.4,-17.3 -10.5,-11.4 -20.8,-23 -31.5,-34.2 -10.6,-11.3 -21.1,-22.7 -31.9,-33.7 -10.8,-11.2 -21.7,-22.3 -32.7,-33.2 -43.8,-44 -88.9,-86.5 -135.6,-127.5 -46.7,-41 -94.6,-80.6 -143.7,-118.8 -12.2,-9.6 -24.7,-18.9 -37.1,-28.4 l -36.8,-27.3 -37.7,-26.1 c -12.6,-8.7 -25.8,-17.2 -38.7,-25.8 -103.8,-68.2 -212.1,-130 -323.8,-185.6 -90,-44.6 -182.1,-85.5 -275.8,-122.7 l -67.9,-24.3 -27,-9.6 -27.8,-9.8 -56.1,-18.9 c -37.5,-12.5 -75.2,-24.8 -113.1,-36.7 -75.8,-23.9 -151.9,-46.9 -228.2,-69.3 -76.5,-22 -152.9,-44.1 -229.8,-64.6 -38.3,-10.8 -76.9,-20.6 -115.4,-30.9 l -115,-29.7 -13.7,-3.3 -14.5,-3.4 -29.1,-6.7 -58.3,-13.4 -117,-26.4 -234.5,-51.6 c -156.4,-34.1 -313.1,-66.5 -469.9,-98.7 l -0.3,-0.1 c -23.3,-4.8 -40.3,-26.1 -38.8,-50.68 0,-0.8 0.1,-1.6 0.2,-2.35 -106.9,-10.89 -388.6,-36.34 -687.8,-36.34 m 3791.6,1373.87 c 0,0 0.6,0.9 1.5,2.2 -0.7,-1 -1.1,-1.7 -1.3,-2 -0.1,-0.1 -0.2,-0.2 -0.2,-0.2 m -7575.36,1.6 c 0,0 -0.06,0.1 -0.18,0.2 -0.17,0.3 -0.68,1 -1.37,2 0.91,-1.2 1.6,-2.2 1.55,-2.2 m 7715.76,168.3 v 0 l 2.8,2.2 -2.8,-2.2 m -8433.21,222.8 c 0,0 0,0 0,0.1 0,-0.1 0,-0.1 0,-0.1"
           style="fill:#cccce3;fill-opacity:1;fill-rule:nonzero;stroke:none"
           id="path178" /></g><g
         id="g180"
         transform="scale(1.99516)"><path
           d="m 6435.58,12543.3 c 125.4,-15.6 253.16,-23.4 382.58,-23.4 1692.19,0 3067.57,1356.8 3097.34,3042 -377.26,-32 -938.07,-108.2 -1349.61,-280.2 -415.16,419.2 -1521.64,1018.3 -1816.05,732.8 -366.64,-355.6 -223.14,-2058.2 -4.06,-2641.9 -138.58,-276.6 -248.25,-615.8 -310.2,-829.3"
           style="fill:#f9744b;fill-opacity:1;fill-rule:nonzero;stroke:none"
           id="path182" /></g><g
         id="g184"
         transform="scale(1.68848)"><path
           d="m 16300,11785.1 -117.1,-143.1 c 40.5,46.1 79.6,93.7 117.1,143.1"
           style="fill:#000072;fill-opacity:1;fill-rule:nonzero;stroke:none"
           id="path186" /></g><g
         id="g188"
         transform="scale(1.2208)"><path
           d="m 11315.6,16102 -162,198 c 51.9,-68.4 106.3,-134.2 162,-198"
           style="fill:#000072;fill-opacity:1;fill-rule:nonzero;stroke:none"
           id="path190" /></g><g
         id="g192"
         transform="scale(1.9186)"><path
           d="m 13571.4,15110.2 c 302,-306.5 491.8,-734.9 518.8,-685 2.6,4.8 5.3,10.6 7.9,17.3 57.6,140 153.5,695.6 153.2,1190.7 -0.2,79.9 -2.4,150.4 -6.7,212.6 -11.4,167.8 -36.5,275.4 -67.4,344.2 -38.2,84.2 -124.3,110 -200.5,81.8 -202.8,-75.3 -778.7,-433.9 -966.4,-663.9 -33.4,-40.9 258.9,-191.3 561.1,-497.7"
           style="fill:#fa508e;fill-opacity:1;fill-rule:nonzero;stroke:none"
           id="path194" /></g><g
         id="g196"
         transform="scale(1.91657)"><path
           d="m 14099.3,14436.5 c -42.1,0 -227.6,399.4 -513.5,689.6 -286.6,290.7 -564.3,441.1 -564.3,490.9 0,2.8 0.8,5.2 2.6,7.4 187.9,230.2 764.4,589.2 967.4,664.6 19.7,7.3 40,11 60.1,11 57.5,0 112.3,-30.4 140.6,-92.8 30.9,-69 56,-176.6 67.5,-344.7 -55.1,90.5 -137.1,200.1 -211.1,200.1 -8.2,0 -16.4,-1.4 -24.4,-4.3 -232.4,-84.2 -500.4,-366.1 -306.1,-721 142.2,-259.9 327.7,-619.4 394.9,-879.5 -2.6,-6.8 -5.2,-12.5 -7.9,-17.3 -1.5,-2.7 -3.4,-4 -5.8,-4"
           style="fill:#c84088;fill-opacity:1;fill-rule:nonzero;stroke:none"
           id="path198" /></g><g
         id="g200"
         transform="scale(1.92915)"><path
           d="m 13037,15515.8 c 24.3,-20.2 58.9,-46.4 90.9,-70.7 105.4,-79.9 264.7,-200.8 424.6,-363.1 179.2,-181.9 317.6,-401.7 409.2,-547.2 6.6,-10.5 13.4,-21.2 20.1,-31.8 49.4,207.3 114,632 113.7,1044.6 -0.2,248.1 -22.7,423.7 -66.9,521.9 -22.3,49.1 -68.5,52.4 -101.4,40.2 -176.2,-65.3 -679.6,-373.6 -890.2,-593.9 z m 970.2,-1251.2 c -51.1,0 -82.6,44.4 -103.5,74 -19.9,28.1 -44.8,67.6 -73.5,113.3 -88.1,139.8 -221.1,351.1 -388.5,521 -152.1,154.3 -299.9,266.5 -407.8,348.4 -118.8,90.1 -168,127.4 -174.6,183 -2.9,24.5 4,48.5 19.5,67.4 198.3,242.8 788.5,607.5 994.4,683.8 120,44.5 245,-6.8 297.2,-122 54.1,-120.2 80.4,-311.8 80.6,-585.8 0.4,-509.8 -102.3,-1114 -169.4,-1238.3 -14.7,-27 -41.4,-43.8 -71.5,-44.8 -1,0 -1.9,0 -2.9,0"
           style="fill:#000072;fill-opacity:1;fill-rule:nonzero;stroke:none"
           id="path202" /></g><g
         id="g204"
         transform="scale(1.9186)"><path
           d="m 7894.36,15110.2 c -301.94,-306.5 -491.76,-734.9 -518.76,-685 -2.66,4.8 -5.27,10.6 -7.88,17.3 -57.64,140 -153.49,695.6 -153.28,1190.7 0.26,79.9 2.39,150.4 6.72,212.6 11.47,167.8 36.59,275.4 67.39,344.2 38.26,84.2 124.31,110 200.62,81.8 202.7,-75.3 778.64,-433.9 966.28,-663.9 33.46,-40.9 -258.89,-191.3 -561.09,-497.7"
           style="fill:#fa508e;fill-opacity:1;fill-rule:nonzero;stroke:none"
           id="path206" /></g><g
         id="g208"
         transform="scale(1.91657)"><path
           d="m 7389.19,14436.5 c -2.39,0 -4.32,1.3 -5.79,4 -2.66,4.8 -5.27,10.5 -7.88,17.3 67.21,260.1 252.7,619.6 394.88,879.5 194.3,354.9 -73.73,636.8 -306.12,721 -7.99,2.9 -16.12,4.3 -24.37,4.3 -73.93,0 -156.01,-109.6 -211.11,-200.1 11.48,168.1 36.63,275.7 67.47,344.7 28.38,62.4 83.12,92.8 140.67,92.8 20.03,0 40.38,-3.7 60.16,-11 202.91,-75.4 779.46,-434.4 967.3,-664.6 1.77,-2.2 2.61,-4.6 2.61,-7.4 0,-49.8 -277.74,-200.2 -564.29,-490.9 -285.93,-290.2 -471.42,-689.6 -513.53,-689.6"
           style="fill:#c84088;fill-opacity:1;fill-rule:nonzero;stroke:none"
           id="path210" /></g><g
         id="g212"
         transform="scale(1.92916)"><path
           d="m 7388.57,16115.7 c -26.18,0 -53.39,-12 -68.99,-46.4 -44.06,-98 -66.56,-273.6 -66.77,-521.7 -0.31,-412.7 64.33,-837.3 113.73,-1044.6 6.74,10.6 13.48,21.3 20.06,31.8 91.6,145.5 230,365.3 409.25,547.2 159.91,162.3 319.2,283.2 424.59,363.1 31.93,24.3 66.55,50.5 90.92,70.7 -210.61,220.3 -714.04,528.6 -890.29,593.9 -9.95,3.7 -21.1,6 -32.5,6 z m 15.03,-1732.4 h 0.06 z m -62.46,-118.7 c -0.98,0 -1.97,0 -2.95,0 -30.12,1 -56.82,17.8 -71.43,44.8 -67.18,124.3 -169.82,728.5 -169.46,1238.3 l 77.76,-0.1 -77.76,0.1 c 0.21,274 26.54,465.6 80.56,585.6 52.3,115.4 177.33,166.7 297.28,122.2 205.89,-76.3 796.1,-441 994.37,-683.8 15.5,-18.9 22.39,-42.9 19.49,-67.4 -6.63,-55.6 -55.78,-92.9 -174.58,-183 -107.93,-81.9 -255.71,-194.1 -407.8,-348.4 -167.43,-169.9 -300.39,-381.2 -388.41,-521 -28.82,-45.7 -53.65,-85.2 -73.6,-113.3 -20.94,-29.6 -52.36,-74 -103.47,-74"
           style="fill:#000072;fill-opacity:1;fill-rule:nonzero;stroke:none"
           id="path214" /></g><g
         id="g216"
         transform="scale(1.98147)"><path
           d="m 11018.2,8838.08 c 138,28.41 276,56.92 413.7,86.95 l 206.4,45.37 103,23.27 51.3,11.75 25.7,5.91 12.8,3.03 12,2.88 101.3,26.14 c 33.8,9.13 67.8,17.76 101.5,27.2 67.7,18.12 135,37.55 202.3,56.93 67.2,19.73 134.2,39.97 200.9,61.01 33.3,10.45 66.5,21.25 99.6,32.25 l 49.4,16.7 24.4,8.58 23.8,8.48 115.7,41.44 0.1,-122.14 v -1.71 l -116.1,80.65 c 103.3,38.81 204.5,82.36 302.9,131.16 98.3,48.95 193.7,103.36 285,163.36 11.4,7.57 23,15.09 34.1,22.71 l 33.2,22.97 32.4,24.07 c 10.9,8.33 21.9,16.5 32.6,24.98 43.3,33.61 85.5,68.49 126.5,104.57 41.1,36.09 80.9,73.58 119.5,112.24 9.6,9.59 19.2,19.38 28.7,29.22 9.5,9.74 18.8,19.73 28.1,29.68 9.4,9.89 18.4,20.08 27.7,30.13 4.6,4.99 9.1,10.14 13.6,15.24 l 6.8,7.62 3.4,3.83 1.7,1.92 0.8,0.96 c -0.3,0 -7.8,-9.89 -6.5,-8.43 -0.4,-0.6 0.5,0.86 2.4,3.38 1.9,2.53 4.7,6.21 9.2,10.6 4.4,4.34 10.5,9.44 18.2,13.88 l -22.5,-18.47 c 35.4,40.61 69.3,82.01 101.2,124.51 l 2.1,2.9 2,2.1 c 5.5,6.1 8.4,8.5 10.4,10.1 l 2.9,2.3 -2.4,-1.9 c -1.9,-1.6 -4.7,-3.8 -10.1,-9.8 l 134.7,-113.81 -107,-131.22 -138.7,109.57 c 45.4,59.56 93,120.26 150.2,177.66 28.8,28.7 60.1,56.8 97.9,82.1 19.1,12.6 39.9,24.5 63.6,34.4 23.6,9.9 50.7,17.7 80.9,20 7.5,0.6 15.2,0.8 22.9,0.5 3.9,-0.1 7.8,-0.3 11.7,-0.7 l 8.9,-0.8 c 8.1,-0.9 16.2,-1.6 24.3,-2.1 16.1,-1.1 32,-1.6 47.5,-1.4 15.6,0.3 30.8,1.2 45.2,3.1 14.3,1.9 27.9,4.6 39.7,8.2 11.8,3.4 21.6,7.9 28,12 6.3,4.1 8.3,7.1 8.5,7.3 -0.2,-0.4 1.3,2.5 1.3,10.1 0.1,7.7 -1.4,19.4 -4.7,32.5 -3.2,13.3 -7.9,27.9 -13.5,43.1 -5.5,15.2 -11.9,31 -18.7,47.1 -13.7,32.1 -28.8,65 -44.2,99.3 -15.7,35.1 -30.6,70.9 -44.1,108 -6.8,18.5 -13.3,37.4 -19.3,56.9 -2.9,9.8 -5.8,19.7 -8.5,30 l -2,7.9 -1,4 -0.5,2 c 0.2,-0.8 -0.9,4 -1.2,6 -0.4,2.7 -0.8,5.3 -1,8.1 -2.1,22.2 3.3,46.8 18.4,67.7 7.7,10.5 17.5,20 30.6,27.6 13,7.5 29,12.5 45.8,13 16.8,0.4 32.7,-3.7 45.5,-9.9 l 3.1,-1.5 5.8,-2.9 11.7,-5.5 c 7.8,-3.7 15.7,-7.3 23.7,-10.8 15.8,-7.1 31.7,-14 47.7,-20.4 32,-12.9 64.1,-24.5 95.7,-33.8 31.4,-9.3 62.9,-16.3 89.5,-18.4 13,-1 24.9,-0.6 31.8,0.8 3.4,0.6 5.4,1.4 5.6,1.5 0.2,0.1 -1.6,-0.7 -3.6,-2.7 -2.1,-1.9 -3.9,-4.9 -4.4,-6.2 -0.7,-1.3 -0.3,-1.1 -0.1,1.1 -0.1,-1.7 0.2,1.3 -0.5,6.3 -0.6,4.8 -1.7,11.2 -3.3,18.1 -3.1,13.9 -7.5,29.6 -12.6,45.7 -5,16.1 -10.6,32.7 -16.5,49.4 -23.7,67.3 -50.4,137.1 -74.8,208.2 -24.6,71.2 -47.6,144.2 -66,219.6 -4.6,18.8 -8.9,37.9 -12.9,57.1 -1.9,9.5 -3.9,19.2 -5.6,28.9 l -5.1,27.2 -20.1,108.5 c -26.9,144.5 -54.2,289 -82.3,433 -14.1,72.1 -28.4,144 -43.2,215.7 -7.3,35.8 -14.8,71.6 -22.5,107.1 l -11.7,53.1 -6,26.2 -3,12.7 -2.8,11.2 -1.5,6.7 -15.9,60.5 c -5.9,22 -11.9,44 -18.1,65.9 -12.3,43.9 -25.1,87.8 -38.3,131.5 -26.3,87.4 -54.3,174.3 -84.2,260.4 -29.8,86 -61.5,171.3 -95.6,255.2 -17,42 -34.8,83.5 -53.1,124.6 -18.4,41.1 -37.6,81.6 -57.5,121.6 l -18.5,37 14.4,38.8 c 16.2,43.4 30.5,88.9 43.4,135.1 12.9,46.3 24.6,93.4 35.4,140.9 21.5,94.9 39.4,191.4 55,288.4 31.1,194.1 52.7,390.5 66.1,587.1 13.3,196.6 18.4,393.8 11.4,589.4 -3.5,97.7 -10.2,195.1 -21.7,291 -11.5,95.7 -27.7,190.5 -52.3,280 -12.5,44.7 -27.1,88 -44.8,127.8 -17.7,39.6 -38.7,76.1 -62.4,103.2 -2.9,3.4 -5.9,6.7 -8.9,9.7 l -4.5,4.5 -3.7,3.5 c -5.1,4.5 -10.7,8.6 -17,12.5 -12.4,7.6 -27.3,14 -44.2,19 -34,9.8 -75.2,13.2 -118.1,11.7 -43,-1.5 -87.9,-7.5 -133,-16.4 -45.2,-8.9 -90.7,-20.7 -136,-34.3 -90.7,-27.5 -180.8,-62.3 -269.3,-101.3 -88.7,-39 -176,-82.4 -261.6,-128.9 -85.7,-46.6 -169.8,-96.4 -251.8,-149.1 -82.1,-52.7 -162.2,-108.3 -239.1,-167.1 -76.6,-58.9 -150.7,-121 -216.4,-187.2 l -46.8,-47.1 -61.4,25.5 c -65.7,27.2 -133.4,51.2 -202.1,73 -17.4,5.3 -34.4,11 -51.9,15.9 l -52.1,15.1 c -35.1,9.4 -70.1,19 -105.5,27.5 -141.3,35 -285.4,62.3 -430.5,85 -145.1,22.4 -291.4,40 -438,53.4 -73.4,6.7 -146.8,12.3 -220.2,16.7 -36.7,2.3 -73.3,4.2 -109.9,5.7 -18.3,0.8 -36.5,1.5 -54.6,2 -18,0.5 -36.2,0.9 -53,1 -16.9,-0.1 -35.1,-0.5 -53.1,-1 -18.1,-0.6 -36.4,-1.2 -54.6,-2 -36.6,-1.6 -73.2,-3.5 -109.9,-5.7 -73.4,-4.5 -146.9,-10.1 -220.19,-16.8 -146.66,-13.4 -292.86,-31.1 -438.01,-53.5 -144.99,-22.8 -289.13,-50.1 -430.43,-85.2 -35.38,-8.5 -70.4,-18.1 -105.43,-27.5 l -52.18,-15.1 c -17.47,-4.8 -34.52,-10.6 -51.78,-15.9 -68.74,-21.8 -136.42,-45.8 -202.07,-73.1 l -61.73,-25.5 -47.03,47.3 c -65.71,66.2 -139.75,128.2 -216.41,187.1 -76.86,58.8 -156.95,114.3 -239.01,167 -82.06,52.7 -166.19,102.4 -251.84,149 -85.69,46.5 -172.95,89.8 -261.52,128.8 -88.62,39 -178.6,73.8 -269.29,101.1 -45.32,13.6 -90.79,25.5 -135.91,34.3 -45.07,8.9 -89.93,14.9 -132.93,16.4 -42.8,1.5 -83.93,-2 -117.74,-11.8 -16.86,-4.9 -31.7,-11.2 -44.06,-18.9 -6.16,-3.8 -11.76,-7.9 -16.81,-12.4 l -3.68,-3.4 -4.44,-4.5 c -2.98,-3 -5.96,-6.2 -8.89,-9.6 -23.61,-27.1 -44.56,-63.5 -62.22,-103 -17.66,-39.8 -32.3,-83 -44.66,-127.6 -24.63,-89.5 -40.73,-184.2 -52.24,-280 -11.45,-95.8 -18.12,-193.2 -21.7,-290.9 -6.91,-195.5 -1.72,-392.6 11.56,-589.2 13.47,-196.6 35.12,-392.9 66.21,-587 15.6,-96.9 33.61,-193.4 55.16,-288.3 10.8,-47.4 22.46,-94.5 35.43,-140.7 12.92,-46.2 27.2,-91.6 43.35,-135 l 14.69,-39.5 -18.78,-37.7 c -19.88,-39.9 -39.06,-80.4 -57.48,-121.4 -18.27,-41.2 -36.03,-82.7 -53.04,-124.6 -34.01,-83.9 -65.71,-169.2 -95.48,-255.2 -29.83,-86.1 -57.79,-173 -84.13,-260.4 -13.18,-43.7 -25.95,-87.5 -38.21,-131.4 -6.16,-22 -12.21,-43.9 -18.07,-65.9 l -15.84,-60.4 -1.57,-6.8 -2.72,-11.2 -3.03,-12.7 -6.01,-26.1 -11.65,-53.1 c -7.68,-35.5 -15.14,-71.3 -22.51,-107.1 -14.74,-71.7 -29.02,-143.6 -43.05,-215.7 -28.16,-144.1 -55.36,-288.5 -82.21,-433 l -20.04,-108.5 -5.05,-27.3 c -1.81,-9.7 -3.68,-19.3 -5.7,-28.9 -3.93,-19.2 -8.22,-38.3 -12.87,-57.1 -18.42,-75.6 -41.38,-148.6 -65.96,-219.9 -24.42,-71.2 -51.12,-140.9 -74.74,-208.2 -5.9,-16.8 -11.51,-33.4 -16.5,-49.4 -5.05,-16.1 -9.49,-31.7 -12.52,-45.5 -1.51,-6.8 -2.67,-13.1 -3.23,-17.8 -0.66,-4.9 -0.3,-7.7 -0.5,-5.7 0.2,-2 0.5,-2 -0.26,-0.3 -0.65,1.5 -2.62,4.7 -4.94,6.9 -2.27,2.3 -4.34,3.2 -4.34,3.2 -0.05,0 0.45,-0.2 1.26,-0.5 0.4,-0.1 1.06,-0.2 1.56,-0.4 l 2.17,-0.4 c 6.62,-1.3 18.27,-1.7 31.14,-0.7 26.35,2 57.69,9 88.98,18.2 31.49,9.3 63.59,20.9 95.43,33.8 15.95,6.4 31.9,13.2 47.69,20.3 7.93,3.5 15.8,7.1 23.57,10.8 l 11.71,5.5 5.75,2.8 3.18,1.6 c 13.07,6.4 29.42,10.6 46.63,10.1 17.21,-0.5 33.67,-5.6 46.99,-13.3 13.42,-7.8 23.52,-17.6 31.39,-28.3 15.54,-21.4 21.09,-46.7 18.98,-69.4 -0.26,-2.9 -0.66,-5.5 -1.11,-8.3 -0.31,-2.1 -1.42,-7 -1.27,-6.2 l -0.45,-2 -1.01,-4 -2.02,-7.9 c -2.67,-10.4 -5.6,-20.3 -8.58,-30.1 -6,-19.6 -12.46,-38.5 -19.23,-57.1 -13.62,-37.1 -28.51,-72.9 -44.26,-108.2 -15.34,-34.2 -30.48,-67.1 -44.11,-99.2 -6.81,-16 -13.17,-31.8 -18.72,-46.9 -5.55,-15.2 -10.19,-29.7 -13.37,-42.9 -3.23,-13 -4.74,-24.5 -4.7,-31.9 0.1,-7.3 1.52,-9.8 1.11,-8.8 0,0 0.26,-0.5 1.42,-1.7 1.11,-1.1 3.18,-2.8 6.15,-4.8 6.11,-3.8 15.75,-8.3 27.41,-11.7 11.61,-3.5 25.08,-6.2 39.31,-8 14.24,-2 29.38,-2.9 44.82,-3.1 15.49,-0.3 31.34,0.2 47.39,1.3 7.97,0.6 16.04,1.3 24.12,2.1 l 8.93,0.9 c 3.99,0.4 7.93,0.5 11.86,0.6 7.83,0.3 15.6,0.1 23.22,-0.5 30.48,-2.2 57.83,-10.2 81.65,-20.1 23.98,-10 44.87,-22 64,-34.6 38.05,-25.5 69.39,-53.7 98.31,-82.4 57.43,-57.7 105.02,-118.4 150.44,-178.05 l -142.72,-112.69 -106.89,131.21 138.48,117.13 c -5.5,6.2 -8.43,8.4 -10.34,10 l -2.48,2 2.93,-2.3 c 2.02,-1.8 5.1,-4.1 10.7,-10.4 l 2.02,-2.3 2.17,-2.8 c 31.89,-42.5 65.76,-83.9 101.09,-124.45 l -23.17,18.98 c 7.97,-4.59 14.23,-9.79 18.78,-14.28 4.54,-4.49 7.51,-8.28 9.48,-10.9 1.87,-2.53 2.83,-4.04 2.42,-3.44 1.37,-1.51 -6.4,8.68 -6.66,8.68 l 0.81,-0.95 1.72,-1.92 3.38,-3.84 6.76,-7.62 c 4.54,-5.04 8.98,-10.19 13.58,-15.24 9.23,-9.99 18.27,-20.19 27.65,-30.08 9.34,-9.94 18.57,-19.93 28.16,-29.67 9.44,-9.79 18.93,-19.58 28.62,-29.17 38.56,-38.61 78.27,-76.06 119.3,-112.14 41.03,-36.03 83.23,-70.91 126.42,-104.47 10.7,-8.48 21.76,-16.6 32.61,-24.93 l 32.4,-24.07 33.1,-22.92 c 11.11,-7.57 22.66,-15.09 33.97,-22.66 91.34,-59.95 186.53,-114.3 284.79,-163.21 98.31,-48.8 199.49,-92.35 302.65,-131.11 l -119.46,-82.97 v 1.71 l 0.16,125.67 119,-42.65 23.72,-8.47 24.47,-8.53 49.36,-16.76 c 33.06,-10.95 66.27,-21.8 99.57,-32.2 66.67,-20.99 133.69,-41.03 200.92,-60.61 67.32,-19.23 134.64,-38.5 202.32,-56.62 33.71,-9.39 67.68,-18.07 101.49,-27.15 l 101.19,-26.2 5.7,-1.41 6.31,-1.46 12.77,-2.98 25.63,-5.91 51.38,-11.81 102.95,-23.36 206.21,-45.98 c 137.58,-30.53 275.35,-59.65 413.28,-89.32 l 0.2,-0.06 c 23.22,-4.99 38.01,-27.85 33.01,-51.07 -4.49,-20.89 -23.52,-34.97 -44.21,-33.91 -142.67,7.16 -284.53,22.25 -425.69,40.72 -70.61,9.34 -141.06,19.49 -211.36,30.69 -35.18,5.55 -70.25,11.35 -105.38,17.41 l -52.63,9.24 -26.35,4.74 -13.22,2.47 -6.66,1.21 -7.27,1.47 c -35.13,7.52 -70.5,14.78 -105.38,22.71 -34.82,7.97 -69.74,15.74 -104.41,24.32 -69.55,16.61 -138.69,34.82 -207.63,53.75 -68.99,19.03 -137.52,39.42 -205.95,60.71 -34.22,10.6 -68.34,21.6 -102.45,32.86 l -51.23,17.21 -25.69,8.88 -26.24,9.34 119.15,83.06 0.05,-1.71 0.16,-127.48 -119.66,44.56 c -108.56,40.43 -215.5,86.05 -319.87,137.48 -104.31,51.57 -205.95,109.16 -303.81,173 -12.21,8.12 -24.38,15.99 -36.59,24.32 l -36.69,25.24 -35.73,26.34 c -11.61,8.83 -23.37,17.51 -34.82,26.5 -46.18,35.68 -91.3,72.72 -135.26,111.18 -44,38.4 -86.7,78.42 -128.13,119.71 -10.45,10.29 -20.69,20.74 -30.84,31.23 -10.29,10.45 -20.29,21.15 -30.33,31.75 -10.09,10.6 -19.88,21.55 -29.78,32.3 l -14.68,16.35 -7.32,8.23 -3.63,4.08 -1.87,2.07 -0.91,1.01 c -0.4,0.15 -8.33,10.55 -7.07,9.19 -0.5,0.8 0.31,-0.51 2.07,-2.88 1.77,-2.42 4.6,-6.06 9.04,-10.4 4.34,-4.34 10.45,-9.43 18.22,-13.88 l -23.12,18.98 c -37.9,43.25 -74.69,87.91 -109.71,134.3 l 4.14,-5.15 c 5.55,-6.21 8.47,-8.43 10.34,-10.05 l 2.52,-2.01 -2.97,2.37 c -1.97,1.71 -5.05,4.09 -10.7,10.39 l 138.48,117.05 107.3,-130.82 -142.73,-112.7 c -22,28.77 -43.85,56.73 -66.21,83.48 -22.31,26.74 -45.07,52.34 -68.43,75.54 -23.22,23.1 -47.29,43.9 -70.56,59.3 -11.55,7.6 -22.86,13.8 -32.95,17.9 -10.1,4.3 -18.68,6.2 -24.93,6.6 -1.57,0.1 -3.03,0.1 -4.39,0.1 -0.66,-0.1 -1.32,-0.1 -1.92,-0.2 h -1.01 l -3.84,-0.4 c -10.19,-1.1 -20.44,-2.1 -30.83,-2.8 -20.65,-1.5 -41.64,-2.2 -62.94,-2 -21.34,0.3 -43.04,1.6 -65.3,4.4 -22.26,2.8 -45.07,7.1 -68.74,14.1 -23.57,7.1 -48.3,16.8 -73.38,32.6 -12.51,7.9 -25.13,17.5 -37.04,29.3 -11.96,11.7 -23.17,25.9 -32.2,41.9 -18.82,33 -24.68,67.8 -25.03,97.2 -0.2,29.5 4.24,54.6 9.59,77.3 5.5,22.7 12.21,43.2 19.22,62.6 7.02,19.5 14.49,37.9 22.01,55.8 15.04,35.7 30.63,69.7 45.27,102.6 14.23,32.1 27.5,64.3 39.11,96.3 5.8,16 11.15,32 15.9,47.6 2.37,7.8 4.59,15.6 6.51,23 l 1.41,5.5 0.61,2.7 0.35,1.3 c 0.3,1.4 -0.76,-2.9 -0.96,-4.4 -0.4,-2.2 -0.66,-4.3 -0.86,-6.6 -1.71,-18.2 2.73,-38.7 15.55,-56.4 6.46,-8.9 14.89,-17 26.34,-23.7 11.31,-6.5 25.49,-11 40.38,-11.4 14.93,-0.4 29.01,3.2 39.97,8.6 l -3.03,-1.4 -6.61,-3.3 -13.28,-6.3 c -8.83,-4.2 -17.66,-8.3 -26.54,-12.3 -17.77,-8 -35.68,-15.7 -53.85,-23.1 -36.34,-14.8 -73.48,-28.4 -112.59,-40.1 -39.27,-11.5 -79.99,-21.6 -127.08,-25.6 -23.77,-1.8 -49.26,-2.2 -78.93,2.9 -14.84,2.7 -30.89,6.9 -47.8,14.4 -16.8,7.4 -34.57,18.5 -50.06,33.6 -15.54,14.9 -28.16,33.6 -36.08,52.1 -8.03,18.5 -12.17,36.6 -14.13,52.9 -2.27,20.3 -1.11,36 0.4,49.4 1.56,13.5 3.79,25.3 6.21,36.5 4.94,22.2 10.65,42 16.55,61.1 5.9,19 12.11,37.4 18.32,55.3 25.08,71.7 50.87,139.5 74.09,207.6 23.26,68 44.26,135.7 60.61,203.2 4.04,16.9 7.82,33.8 11.25,50.6 1.72,8.5 3.38,16.9 4.9,25.3 l 4.94,27 19.84,108.8 c 26.64,145 53.64,290 81.6,435 13.98,72.5 28.26,145 43,217.6 7.37,36.3 14.89,72.6 22.66,109 l 11.91,54.8 6.31,27.7 3.28,14.1 3.89,15.7 -1.57,-6.8 1.47,6.5 0.6,2.6 1.16,4.6 2.17,8.8 4.44,17.2 8.94,34.3 c 6.05,22.7 12.21,45.3 18.52,67.9 12.56,45.3 25.53,90.3 38.96,135.2 26.85,89.8 55.41,179.1 85.95,268 30.53,88.8 63.13,177.1 98.46,264.8 17.66,43.8 36.18,87.4 55.36,130.9 19.38,43.4 39.67,86.5 60.96,129.4 l -4.08,-77.1 c -18.83,50.3 -34.57,100.4 -48.75,150.4 -14.14,49.9 -26.65,99.9 -38.16,150 -22.91,100 -41.74,200.1 -58.04,300.5 -32.4,200.7 -54.85,402.2 -68.99,604.5 -13.93,202.4 -19.63,405.4 -12.66,609.6 3.63,102.1 10.39,204.4 22.51,307.1 12.31,102.7 29.32,205.7 57.63,309.1 14.28,51.7 31.49,103.5 54.3,155.2 23.17,51.5 51.33,103.5 93.27,152.2 5.25,6 10.75,12 16.45,17.9 l 8.78,8.8 10.04,9.3 c 13.68,12.1 28.32,22.9 43.36,32.2 30.17,18.8 61.92,31.8 93.01,40.9 62.42,17.8 122.33,21.3 179.21,19.6 56.97,-1.9 111.53,-9.4 164.47,-19.7 52.99,-10.4 104.42,-23.7 154.83,-38.8 100.79,-30.3 197.64,-67.7 292.06,-109.1 94.43,-41.5 186.38,-87.2 276.41,-136.1 90.04,-48.8 178.1,-100.9 264.3,-156.2 86.2,-55.3 170.53,-113.8 252.49,-176.4 81.91,-62.9 161.65,-129.3 236.89,-205 l -108.75,21.7 c 72.22,30 145.24,56 218.72,79.3 18.42,5.6 36.74,11.8 55.16,16.9 l 55.37,16.1 c 36.99,9.9 73.93,20 111.08,29 148.37,36.8 297.75,65.1 447.49,88.7 149.79,23.2 299.98,41.4 450.52,55.2 75.26,6.9 150.56,12.7 226.16,17.3 37.8,2.3 75.6,4.3 113.6,5.9 19,0.8 38,1.5 57.2,2.1 19.3,0.6 38.4,1 58.9,1 20.4,0 39.5,-0.5 58.8,-1 19.1,-0.6 38.2,-1.3 57.2,-2.1 38,-1.7 75.8,-3.6 113.6,-6 75.5,-4.6 150.9,-10.4 226.2,-17.3 150.5,-13.9 300.6,-32.1 450.4,-55.3 149.7,-23.7 299.1,-52 447.5,-88.8 37.1,-9 74.1,-19.1 111.1,-29.1 l 55.3,-16 c 18.5,-5.2 36.8,-11.4 55.2,-17 73.4,-23.3 146.4,-49.3 218.6,-79.3 l -108.2,-21.6 c 75.2,75.6 155,142 236.8,204.9 82,62.6 166.3,121 252.5,176.3 86.2,55.2 174.3,107.3 264.4,156.2 90,48.8 182,94.4 276.3,135.9 94.5,41.3 191.3,78.7 292,109 50.4,15.1 101.8,28.4 154.8,38.7 52.9,10.3 107.4,17.8 164.3,19.7 56.9,1.7 116.7,-1.8 178.9,-19.6 31.1,-9.1 62.7,-22.1 92.8,-40.8 15,-9.3 29.6,-20 43.2,-32.1 l 10,-9.3 8.8,-8.8 c 5.7,-5.8 11.2,-11.8 16.4,-17.9 41.9,-48.6 70,-100.5 93.1,-151.9 22.8,-51.6 40,-103.4 54.2,-155.1 28.3,-103.3 45.3,-206.3 57.5,-308.9 12.1,-102.7 18.9,-205 22.5,-307.1 6.9,-204.1 1.1,-407.1 -12.8,-609.4 -14.2,-202.2 -36.7,-403.7 -69.1,-604.4 -16.3,-100.3 -35.2,-200.5 -58.2,-300.4 -11.5,-50 -24,-100 -38.1,-149.9 -14.2,-50 -29.9,-100 -48.8,-150.2 l -4,75.8 c 21.3,-42.9 41.5,-86 60.9,-129.4 19.1,-43.4 37.7,-87 55.3,-130.8 35.3,-87.7 67.8,-176 98.3,-264.8 30.6,-88.9 59.1,-178.2 85.9,-268 13.4,-44.8 26.4,-89.8 38.9,-135.1 6.2,-22.6 12.5,-45.2 18.5,-67.9 l 8.9,-34.3 4.4,-17.2 2.2,-8.8 1.2,-4.6 0.6,-2.5 1.4,-6.5 -1.5,6.7 3.8,-15.6 3.3,-14.1 6.3,-27.8 11.9,-54.7 c 7.8,-36.4 15.3,-72.8 22.6,-109.1 14.7,-72.5 29,-145 42.9,-217.5 28,-145 54.9,-290 81.5,-435 l 19.8,-108.8 4.9,-27 c 1.6,-8.4 3.2,-16.9 4.9,-25.3 3.5,-16.9 7.3,-33.8 11.3,-50.7 16.3,-67.7 37.3,-135.4 60.6,-203.4 23.2,-68.2 49,-136.1 74,-207.7 6.2,-17.9 12.4,-36.3 18.3,-55.3 5.9,-19 11.6,-38.8 16.5,-60.8 2.4,-11.1 4.6,-22.9 6.2,-36.3 1.4,-13.3 2.6,-28.8 0.3,-48.8 -1.9,-16.1 -6,-33.9 -13.9,-52.2 -7.8,-18.1 -20.2,-36.6 -35.5,-51.3 -15.3,-14.8 -32.8,-25.7 -49.3,-33.1 -16.7,-7.3 -32.6,-11.5 -47.2,-14.1 -29.5,-5.1 -54.7,-4.7 -78.3,-3 -46.8,4.1 -87.4,14.1 -126.6,25.6 -39,11.6 -76.1,25.2 -112.4,40 -18.1,7.4 -36,15 -53.7,23 -8.9,4 -17.7,8.1 -26.5,12.3 l -13.3,6.3 -6.6,3.3 -3,1.5 c 10.6,-5.3 24.3,-8.9 38.8,-8.4 14.4,0.3 28.2,4.6 39.2,11 11.1,6.5 19.2,14.4 25.5,23 12.4,17.2 16.7,37 15.1,54.7 -0.2,2.2 -0.5,4.2 -0.9,6.3 -0.2,1.5 -1.2,5.7 -0.8,4.4 l 0.3,-1.4 0.6,-2.7 1.4,-5.5 c 1.9,-7.5 4.2,-15.3 6.5,-23.1 4.8,-15.7 10.2,-31.7 16,-47.7 11.6,-32.1 24.9,-64.4 39.2,-96.5 14.6,-33 30.2,-67 45.2,-102.6 7.5,-17.9 15,-36.2 22,-55.6 7,-19.4 13.7,-39.9 19.1,-62.4 5.4,-22.5 9.7,-47.5 9.5,-76.6 -0.3,-29.2 -6.1,-63.5 -24.6,-96.1 -9,-15.8 -20,-29.7 -31.8,-41.3 -11.8,-11.6 -24.3,-21.1 -36.7,-29 -24.8,-15.6 -49.3,-25.3 -72.7,-32.2 -23.5,-7 -46.2,-11.3 -68.3,-14.1 -22.2,-2.8 -43.8,-4 -65,-4.3 -21.3,-0.3 -42.2,0.4 -62.8,1.9 -10.3,0.7 -20.6,1.7 -30.7,2.8 l -3.8,0.4 -1.1,0.1 c -0.6,0.1 -1.4,0.1 -2.1,0.1 -1.4,0.1 -2.9,0.1 -4.6,-0.1 -6.6,-0.5 -15.4,-2.4 -25.7,-6.7 -10.3,-4.2 -21.7,-10.5 -33.4,-18.2 -23.5,-15.5 -47.6,-36.5 -71,-59.7 -23.4,-23.2 -46.2,-48.83 -68.5,-75.63 -22.4,-26.8 -44.3,-54.81 -66.3,-83.57 l -138.8,109.56 107.3,130.94 134.6,-113.88 c -5.5,-6.16 -8.4,-8.43 -10.4,-10.14 l -2.9,-2.28 2.5,1.92 c 1.8,1.62 4.6,3.79 10,9.79 l 4.1,5 c -35,-46.33 -71.8,-90.94 -109.6,-134.14 l -22.5,-18.48 c 7.5,4.35 13.4,9.29 17.7,13.48 4.3,4.24 7,7.77 8.8,10.09 1.7,2.33 2.5,3.59 2,2.83 1.2,1.31 -6.5,-8.78 -6.9,-8.93 l -0.9,-1.06 -1.9,-2.02 -3.6,-4.09 -7.3,-8.23 -14.7,-16.35 c -9.9,-10.75 -19.6,-21.65 -29.7,-32.2 -10.1,-10.64 -20.1,-21.34 -30.3,-31.74 -10.2,-10.5 -20.4,-20.94 -30.8,-31.19 -41.4,-41.28 -84.1,-81.25 -128,-119.66 -44,-38.4 -89.1,-75.45 -135.2,-111.08 -11.4,-8.98 -23.2,-17.61 -34.8,-26.44 l -35.7,-26.34 -36.6,-25.19 c -12.2,-8.33 -24.4,-16.2 -36.6,-24.27 -97.7,-63.79 -199.3,-121.38 -303.5,-172.86 -104.3,-51.42 -211.1,-96.99 -319.6,-137.42 l -116.3,-43.3 0.1,123.9 v 1.71 l 115.9,-80.74 -26.2,-9.34 -25.7,-8.88 -51.2,-17.16 c -34.1,-11.25 -68.2,-22.26 -102.4,-32.86 -68.4,-21.19 -137.1,-41.38 -206,-60.3 -69,-18.83 -138.1,-36.89 -207.6,-53.45 -34.8,-8.53 -69.6,-16.35 -104.4,-24.27 -34.9,-7.93 -70.2,-15.2 -105.3,-22.77 -2.1,-0.45 -4.8,-0.95 -7.3,-1.41 l -6.7,-1.26 -13.1,-2.42 -26.4,-4.8 -52.6,-9.28 c -35.1,-6.16 -70.2,-11.81 -105.3,-17.51 -35.2,-5.71 -70.3,-11.11 -105.5,-16.31 -35.2,-5.29 -70.4,-10.24 -105.7,-14.99 -141.1,-18.97 -282.8,-34.67 -425.3,-43.04 -23.7,-1.42 -44,16.7 -45.4,40.37 -1.3,21.6 13.6,40.42 34.2,44.61 l 0.2,0.06"
           style="fill:#000072;fill-opacity:1;fill-rule:nonzero;stroke:none"
           id="path218" /></g><g
         id="g220"
         transform="scale(1.30494)"><path
           d="m 11764.8,16005.4 c 0,-162.7 274.7,-294.6 613.7,-294.6 339,0 613.8,131.9 613.8,294.6 0,162.6 -274.8,294.6 -613.8,294.6 -339,0 -613.7,-132 -613.7,-294.6"
           style="fill:#f27e80;fill-opacity:1;fill-rule:nonzero;stroke:none"
           id="path222" /></g><g
         id="g224"
         transform="scale(1.58198)"><path
           d="m 15287.5,13202.5 c 0,-134.2 226.6,-243 506.2,-243 279.6,0 506.3,108.8 506.3,243 0,134.2 -226.7,243 -506.3,243 -279.6,0 -506.2,-108.8 -506.2,-243"
           style="fill:#f27e80;fill-opacity:1;fill-rule:nonzero;stroke:none"
           id="path226" /></g><g
         id="g228"
         transform="scale(1.34186)"><path
           d="m 16223.7,16010.3 c 0,0 -156.7,-411 -523.5,-316.2 -417.4,108 -367.3,605.9 -367.3,605.9"
           style="fill:#ffffff;fill-opacity:1;fill-rule:nonzero;stroke:none"
           id="path230" /></g><g
         id="g232"
         transform="scale(1.34186)"><path
           d="m 14426.8,16010.3 c 0,0 156.6,-411 523.4,-316.2 417.5,108 367.3,605.9 367.3,605.9"
           style="fill:#ffffff;fill-opacity:1;fill-rule:nonzero;stroke:none"
           id="path234" /></g><g
         id="g236"
         transform="scale(1.3471)"><path
           d="m 16219.5,15925.4 -4,-13.6 -4,-12.1 c -2.7,-8.1 -5.4,-15.9 -8.4,-23.6 -6.1,-15.6 -12.7,-30.7 -19.7,-45.8 -14.4,-29.9 -31.1,-59.1 -50.3,-87 -38.3,-55.8 -87.2,-107.9 -148.8,-148.1 -61,-40.6 -136.1,-66.3 -211.5,-71.5 -37.6,-2.2 -75.1,-0.2 -111.2,5.8 -9.2,1.1 -17.8,3.5 -26.7,5.3 -8.8,2.2 -17.9,3.6 -26.2,6.4 l -25.4,7.6 -12.7,3.9 -12.6,4.7 -25.1,9.7 c -8.3,3.3 -16.3,7.6 -24.4,11.4 -8.1,4.1 -16.5,7.5 -24.3,12.3 l -23.6,13.7 c -31,19.2 -60.4,41.6 -86.5,67.2 -13.6,12.2 -25.2,26.3 -37.4,39.8 -11.1,14.3 -22.7,28.3 -32.3,43.4 -10.3,14.8 -18.9,30.3 -27.8,45.7 -7.9,15.7 -16.1,31.4 -22.5,47.5 -27.7,64.1 -42.7,130.8 -49.5,196.5 -3.1,32.9 -4.8,65.7 -3.7,98.4 0.4,16.3 1.3,32.7 2.7,49 0.9,8.2 1.8,16.4 2.9,24.6 l 1.7,12.5 2.3,13.7 c 5.7,34.2 38,57.2 72.1,51.6 27.5,-4.6 47.8,-26.5 51.7,-52.7 l 1.7,-11.5 c 0.2,-1.8 0.4,-5.6 0.6,-8.7 l 0.7,-10 c 0.5,-6.7 1.2,-13.5 1.8,-20.3 1.5,-13.7 2.8,-27.3 4.9,-40.9 4.2,-27.2 8.7,-54.1 15.3,-80.3 12.9,-52.5 30.5,-102.6 54.3,-146.9 5.7,-11.2 12.4,-21.7 18.7,-32.3 7,-10.1 13.5,-20.5 21.2,-29.7 7.1,-9.8 15.4,-18.4 23,-27.4 8.6,-8.2 16.5,-17 25.6,-24.4 34.9,-31.2 76.3,-54 121.9,-70.4 l 8.4,-3.2 8.9,-2.5 17.7,-5.2 c 5.9,-2 11.7,-2.6 17.5,-4.1 5.8,-1.1 11.7,-3.1 17.4,-3.7 l 17.2,-2.6 c 5.8,-1.1 11.4,-0.9 17.1,-1.4 11.3,-1.3 22.4,-0.7 33.6,-0.9 44.2,2.3 87.2,13 128.1,35.7 41.1,22.1 80.4,54 116.1,92.3 17.9,19.2 34.9,39.9 51.1,61.5 8.1,10.8 16,21.9 23.5,33.2 3.8,5.5 7.5,11.2 11.1,16.8 l 5.3,8.4 c 1.6,2.5 3.5,5.9 4.6,7.1 l 9.8,12 c 21.7,26.6 60.9,30.6 87.6,8.9 20,-16.3 27.2,-42.5 20.5,-65.8"
           style="fill:#000072;fill-opacity:1;fill-rule:nonzero;stroke:none"
           id="path238" /></g><g
         id="g240"
         transform="scale(1.34707)"><path
           d="m 14429.9,15970.8 c 1.1,-1.3 3,-4.6 4.6,-7.2 l 5.3,-8.3 c 3.6,-5.7 7.4,-11.3 11.1,-16.9 7.4,-11.3 15.3,-22.3 23.5,-33.2 16.2,-21.6 33.3,-42.3 51.1,-61.4 35.7,-38.4 75,-70.3 116.1,-92.4 41,-22.6 83.9,-33.3 128.1,-35.7 11.2,0.2 22.2,-0.4 33.6,0.9 5.8,0.6 11.3,0.4 17.1,1.5 l 17.2,2.6 c 5.8,0.6 11.6,2.5 17.4,3.6 5.8,1.5 11.6,2.1 17.5,4.1 l 17.7,5.2 8.8,2.5 8.5,3.3 c 45.7,16.3 87,39.1 121.9,70.4 9.1,7.3 17,16.1 25.6,24.3 7.6,9.1 16,17.6 23,27.5 7.7,9.2 14.2,19.6 21.2,29.7 6.3,10.6 13,21 18.8,32.3 23.8,44.3 41.3,94.4 54.2,146.8 6.6,26.2 11.2,53.1 15.3,80.3 2.2,13.6 3.4,27.3 4.9,40.9 0.7,6.8 1.3,13.7 1.8,20.4 l 0.7,9.9 c 0.3,3.1 0.4,7 0.6,8.8 l 1.7,11.4 c 5.1,34.2 36.9,57.9 71.2,52.9 27.6,-4.1 48.3,-25.7 52.7,-51.7 l 2.3,-13.7 1.7,-12.5 c 1,-8.3 2,-16.5 2.8,-24.7 1.4,-16.3 2.4,-32.6 2.7,-49 1.2,-32.6 -0.6,-65.4 -3.8,-98.4 -6.7,-65.7 -21.7,-132.4 -49.3,-196.4 -6.5,-16.2 -14.6,-31.9 -22.7,-47.6 -8.8,-15.4 -17.3,-30.9 -27.6,-45.7 -9.8,-15 -21.3,-29.1 -32.4,-43.4 -12.2,-13.4 -23.8,-27.5 -37.4,-39.8 -26.1,-25.6 -55.5,-47.9 -86.5,-67.2 l -23.6,-13.6 c -7.8,-4.8 -16.1,-8.3 -24.2,-12.3 -8.2,-3.8 -16.2,-8.1 -24.5,-11.5 l -25.1,-9.6 -12.6,-4.8 -12.7,-3.8 -25.3,-7.7 c -8.4,-2.7 -17.6,-4.2 -26.2,-6.4 -9,-1.8 -17.6,-4.1 -26.8,-5.2 -36,-6.1 -73.5,-8.1 -111.2,-5.8 -75.5,5.2 -150.4,30.8 -211.5,71.4 -61.6,40.2 -110.5,92.3 -148.9,148.2 -19.2,27.9 -35.8,57 -50.2,87 -7,15 -13.6,30.2 -19.7,45.7 -3,7.7 -5.7,15.6 -8.4,23.6 l -4,12.2 -3.9,13.6 c -9.7,33 9.2,67.6 42.3,77.2 24.8,7.3 50.4,-1.5 65.7,-20.3 l 9.8,-12"
           style="fill:#000072;fill-opacity:1;fill-rule:nonzero;stroke:none"
           id="path242" /></g><g
         id="g244"
         transform="scale(1.39258)"><path
           d="m 14282.5,15957.7 c 0,-113.5 148,-213.7 283.9,-281.8 142.1,-71.3 301.4,-71.3 443.5,0 135.8,68.1 283.9,168.3 283.9,281.8 0,342.3 -1011.3,342.3 -1011.3,0"
           style="fill:#000072;fill-opacity:1;fill-rule:nonzero;stroke:none"
           id="path246" /></g><g
         id="g248"
         transform="scale(1.3754)"><path
           d="m 14972.9,16127.2 c -30.3,0 -60.5,5.2 -89.1,15.6 -54.5,19.9 -113.9,49.2 -113.9,82.2 0,50.1 101.5,75 203,75 101.5,0 203,-24.9 203,-75 0,-33 -59.5,-62.3 -114,-82.2 -28.5,-10.4 -58.8,-15.6 -89,-15.6"
           style="fill:#8080b9;fill-opacity:1;fill-rule:nonzero;stroke:none"
           id="path250" /></g><g
         id="g252"
         transform="scale(1.77626)"><path
           d="m 15011,7673.38 c 230.9,-14.92 749.1,15.14 1019.1,582.07 269.9,566.92 -122.9,1675.37 -637,1814.55 -74.4,20.2 -213,-12.8 -254.6,-128.14 -82,-227.39 135.7,-593.1 135.7,-593.1 0,0 -796.5,-227.78 -794.7,-749.11 1.2,-346.74 60.7,-895.92 531.5,-926.27"
           style="fill:#ffffff;fill-opacity:1;fill-rule:nonzero;stroke:none"
           id="path254" /></g><g
         id="g256"
         transform="scale(1.75627)"><path
           d="m 16300,8862.7 c 0,0.06 0,0.06 -0.1,0.12 -1.7,43.61 -5.2,87.68 -10.4,132.15 0,0.12 0,0.17 0,0.29 5.3,-44.53 8.8,-88.83 10.5,-132.56"
           style="fill:#ca86d9;fill-opacity:1;fill-rule:nonzero;stroke:none"
           id="path258" /></g><g
         id="g260"
         transform="scale(1.7142)"><path
           d="m 15924.4,7981.41 c 122.3,29.52 253.4,83.24 375.6,177.4 v -0.06 c -122.2,-94.15 -253.4,-147.82 -375.6,-177.34"
           style="fill:#a3a3cc;fill-opacity:1;fill-rule:nonzero;stroke:none"
           id="path262" /></g><g
         id="g264"
         transform="scale(1.75708)"><path
           d="m 15902.2,7959.63 v 0.05 c 114,87.88 219.9,211.83 302.8,385.87 68.8,144.45 95,323.66 87.4,513.18 0.1,-0.05 0.1,-0.05 0.1,-0.11 7.5,-189.41 -18.6,-368.57 -87.4,-512.95 -82.8,-174.1 -188.9,-298.11 -302.9,-386.04"
           style="fill:#000072;fill-opacity:1;fill-rule:nonzero;stroke:none"
           id="path266" /></g><g
         id="g268"
         transform="scale(1.57827)"><path
           d="m 16296.6,9707.66 c 0.6,13.81 1.8,27.43 3.4,40.8 -1.6,-13.43 -2.8,-26.99 -3.4,-40.8"
           style="fill:#cccce3;fill-opacity:1;fill-rule:nonzero;stroke:none"
           id="path270" /></g><g
         id="g272"
         transform="scale(1.75708)"><path
           d="m 15258,7754.51 c -30.6,0 -58.5,1.08 -83.2,2.74 -475.8,30.67 -536,585.74 -537.2,936.26 0,8.83 0.2,17.59 0.6,26.24 0.5,12.41 1.6,24.59 3,36.66 2.4,18.89 5.8,37.33 10.2,55.37 35,-315.01 203.4,-486.43 571.3,-529.12 42.2,-4.89 89,-7.68 138.5,-7.68 296.7,0 696.7,99.71 843.9,446.14 34.9,82.01 63.3,171.65 76.9,269.71 5.2,-44.45 8.7,-88.5 10.4,-132.1 7.6,-189.52 -18.6,-368.73 -87.4,-513.18 -82.9,-174.04 -188.8,-297.99 -302.8,-385.87 -119.2,-91.85 -247.1,-144.27 -366.5,-173.07 -0.1,-0.05 -0.3,-0.05 -0.4,-0.11 -0.1,0 -0.2,-0.06 -0.4,-0.06 -102.2,-24.64 -198.2,-31.93 -276.9,-31.93"
           style="fill:#cccce3;fill-opacity:1;fill-rule:nonzero;stroke:none"
           id="path274" /></g><g
         id="g276"
         transform="scale(1.76851)"><path
           d="m 15082.9,7802.84 c 245.8,-15.83 693.4,31.95 930.6,530.05 131.9,276.74 93.3,753.92 -93.6,1160.42 -130.5,283.91 -311.6,481.31 -484.4,528.09 -30.5,8.3 -117.5,-5.5 -140.3,-68.55 -54.3,-150.86 77.9,-428.67 128.5,-514.05 l 63.5,-107.15 -119.7,-34.33 c -7.2,-2.03 -730,-215.32 -728.4,-659.65 0.7,-228.44 28.7,-413.17 83.1,-548.94 72.6,-181.39 190.6,-274.92 360.7,-285.89 z m 75.2,-194.57 c -31.6,0 -60.9,1.13 -87.5,2.83 -244.5,15.78 -426.7,156.23 -526.8,406.16 -64.3,160.64 -96,363.36 -96.9,619.73 -1.6,467.4 522.5,718.52 757.4,807.52 -16.7,35.34 -35.2,77.75 -52.3,124.17 -66.9,181.57 -79.6,332.71 -37.5,449.32 27.9,77.4 88,138.4 169.4,171.8 66,27 141.5,33.4 201.8,17.1 230.5,-62.4 452.5,-293.3 608.8,-633.35 97.3,-211.71 162.2,-452.7 182.8,-678.66 22.7,-250.04 -8.5,-472.94 -90.3,-644.55 -128.4,-269.72 -322.7,-457.9 -577.6,-559.46 -163.7,-65.13 -325.2,-82.61 -451.3,-82.61"
           style="fill:#000072;fill-opacity:1;fill-rule:nonzero;stroke:none"
           id="path278" /></g><g
         id="g280"
         transform="scale(1.15612)"><path
           d="m 14630.2,11473.9 c 0,0 1330.4,-527 1472.2,-1829.51 C 16300,7828.93 14777.3,6804.47 14777.3,6804.47"
           style="fill:#ffffff;fill-opacity:1;fill-rule:nonzero;stroke:none"
           id="path282" /></g><g
         id="g284"
         transform="scale(1.15467)"><path
           d="m 14675.6,11556.7 23.7,-7.6 c 7.5,-2.6 15,-5.2 22.3,-7.8 14.8,-5.3 29.4,-10.9 43.9,-16.4 29.2,-11 57.6,-23.3 86.2,-35.5 56.9,-24.6 112.4,-52.2 167.3,-80.9 109.9,-57.8 215.7,-123.5 317.1,-196.3 202.6,-145.7 387.6,-321.6 539,-527.1 19.7,-25.1 37.3,-51.8 55.2,-78.2 8.9,-13.3 18,-26.4 26.7,-39.9 l 25,-40.9 24.9,-41.2 6.3,-10.2 5.8,-10.6 11.4,-21.2 22.7,-42.5 c 7.5,-14.1 15.2,-28.2 21.7,-42.9 l 40.9,-87.5 36.1,-89.6 c 3,-7.6 6.2,-14.9 8.9,-22.6 l 7.7,-22.8 15.6,-45.8 c 5.1,-15.4 10.4,-30.6 15.3,-45.9 l 12.8,-46.72 12.7,-46.68 6.4,-23.38 5.1,-23.64 20,-94.75 c 5.4,-31.78 9.8,-63.74 14.6,-95.61 2.2,-15.85 5.1,-32.04 6.7,-47.63 l 4.9,-46.94 c 13,-125.23 17.5,-251.59 14.6,-377.86 -3.4,-126.27 -14.7,-252.54 -33.6,-377.59 -4.3,-31.35 -10.4,-62.44 -15.7,-93.62 -5.9,-31.09 -12.2,-62.1 -18.8,-93.02 -7.1,-30.83 -13.8,-61.75 -22.1,-92.31 l -11.9,-45.91 -13,-45.64 c -70.5,-242.84 -170.6,-476.67 -296.7,-694.13 -31.3,-54.56 -64.4,-108 -98.7,-160.57 -34.1,-52.56 -69.9,-104.09 -106.8,-154.67 -73.8,-101.24 -153.5,-197.72 -237.2,-290.47 -83.6,-92.84 -172.3,-180.83 -265.3,-264.41 -23.1,-20.96 -46.7,-41.48 -70.5,-61.83 -23.9,-20.18 -48.2,-40.1 -72.8,-59.67 -24.6,-19.58 -49.5,-38.89 -75,-57.86 -12.7,-9.52 -25.7,-18.96 -38.8,-28.32 l -20,-14.11 -22.2,-15.07 c -67.2,-45.64 -158.7,-28.15 -204.3,39.06 -44.5,65.56 -29,154.07 34.1,200.75 l 5.9,4.41 14.5,10.66 16.2,12.38 c 11,8.4 22,17.06 32.9,25.81 21.9,17.67 43.8,35.77 65.3,54.3 43.1,37.15 85.7,75.43 127.2,114.75 83.3,78.72 162.5,161.86 238.1,248.04 75.4,86.26 146.6,176.15 212.9,269.16 33.3,46.42 65.6,93.54 96.2,141.6 30.8,47.98 60.4,96.74 88.3,146.28 14.2,24.59 27.5,49.79 41.2,74.74 12.9,25.28 26.4,50.31 38.7,75.86 25.7,50.58 49.2,102.28 71.9,154.24 44.4,104.27 83.5,210.71 114.7,319.31 31.4,108.52 57.3,218.68 75.2,330.23 18.3,111.54 29.5,224.13 33.9,337.24 3.9,113.19 0.6,226.64 -8.3,339.92 l -3.5,42.43 c -1.1,14.21 -3.4,27.55 -5,41.4 -3.7,27.37 -6.7,54.91 -10.8,82.19 l -15.5,81.41 -3.8,20.35 -5.1,20.09 -10,40.1 -10.2,40.18 c -3.8,13.25 -8.2,26.42 -12.3,39.58 l -12.4,39.54 -6.2,19.8 c -2.2,6.6 -4.8,12.9 -7.3,19.4 l -29.2,77.7 -33.7,75.9 c -5.3,12.8 -11.7,25.1 -18,37.5 l -18.9,37.2 -9.3,18.6 -4.7,9.3 -5.2,9.1 -20.5,36.3 -20.6,36.4 c -7.2,12 -14.8,23.6 -22.3,35.5 -15.1,23.5 -29.1,47.7 -45.5,70.4 -125.4,185.8 -280.6,354.3 -454.3,504.6 -86.7,75.2 -178.5,145.6 -273.2,212.6 -47.6,33.1 -96.1,64.9 -145.2,96 l -37.2,22.7 -37.3,22.3 c -12.5,7.3 -24.9,14.5 -37.5,21.5 l -36.5,20.2 -4.2,2.4 c -35.6,19.6 -48.4,64.4 -28.8,100 17.4,31.4 54.3,45.1 87.2,34.4"
           style="fill:#000072;fill-opacity:1;fill-rule:nonzero;stroke:none"
           id="path286" /></g><g
         id="g288"
         transform="scale(1.1154)"><path
           d="m 13753.5,7512.97 c 921.5,101.57 1988.3,-72.53 2126.2,-536.94 132.2,-445.49 420.3,-1340.5 -1768.8,-1028.41 l -357.4,1565.35"
           style="fill:#ffffff;fill-opacity:1;fill-rule:nonzero;stroke:none"
           id="path290" /></g><g
         id="g292"
         transform="scale(1.10109)"><path
           d="m 13932.3,7224.83 c 82,65.21 176.9,114.61 274.4,155.48 98,40.5 199.9,71.75 303.3,96.36 206.8,48.86 419.7,72.38 634.1,72.93 107.2,0.27 214.9,-6.09 323,-19.89 107.9,-14.62 216.4,-35.88 324.3,-72.84 54,-18.53 107.8,-40.87 161,-69.84 53,-29.24 105.7,-65.21 153.6,-114.25 23.7,-24.61 46.2,-52.49 65.2,-84.37 9.6,-15.89 18.2,-32.79 25.6,-50.32 3.8,-8.8 7.2,-17.79 10.3,-26.97 l 7.1,-21.43 c 16.7,-51.04 32.4,-103.9 45.7,-158.39 13.5,-54.49 24.6,-110.71 31.7,-168.92 3.7,-29.16 6,-58.85 7.3,-88.91 1.1,-30.15 0.7,-60.85 -1.1,-91.82 -2,-30.97 -5.8,-62.39 -11.3,-93.91 -6,-31.51 -13.9,-63.12 -24,-94.45 -10.6,-31.24 -23,-62.21 -38.2,-92.09 -15.6,-29.7 -32.6,-58.85 -52.5,-85.82 -39,-54.77 -86.9,-101.72 -137.4,-141.77 -50.8,-40.14 -105.5,-71.57 -160.4,-98.18 -55.2,-26.34 -111.1,-47.32 -167,-64.48 -56.1,-16.8 -112,-29.7 -167.8,-40.41 -111.4,-21.25 -222,-30.79 -331.5,-35.7 -109.4,-4.72 -217.9,-3.81 -325.3,1.91 -107.4,5.45 -214.1,14.44 -319.8,27.15 -105.8,12.27 -210.8,27.62 -315.1,45.6 -84,14.44 -140.4,94.27 -125.9,178.27 14,81.65 89.7,137.14 171,126.97 l 1.1,-0.09 c 101.2,-12.81 202.2,-24.79 302.9,-34.88 100.8,-9.53 201.3,-18.07 301.4,-22.7 l 75,-2.73 74.6,-1.54 c 49.6,-0.55 99.1,-0.55 148.1,1.18 l 36.8,1.27 36.6,2.09 c 24.4,1.09 48.4,3.45 72.6,5.36 12.1,1 24,2.54 35.9,3.72 12,1.28 24,2.55 35.7,4.27 l 35.5,4.54 35,5.54 c 92.9,15.53 182.5,38.69 260.7,73.38 78.5,34.51 144.1,80.47 189.3,138.23 22.9,28.88 40.7,61.03 54.6,96.45 6.6,17.8 12.4,36.42 17,55.77 4.3,19.43 7.8,39.5 10.2,60.21 8.9,83.19 1.2,175.28 -16.8,268.91 -8.9,47.05 -20.3,94.54 -32.9,143.13 l -4.1,15.9 c -0.8,3.17 -1.8,6.44 -3,9.71 -2.2,6.45 -5,13.08 -8.4,19.71 -6.7,13.26 -16,26.79 -27.5,40.32 -23.1,26.98 -55.2,52.95 -92,75.93 -36.6,23.25 -77.7,43.77 -121,61.85 -86.8,35.69 -181.1,63.39 -277.9,83.82 -96.8,21.16 -196.2,35.33 -296.4,45.5 -200.7,19.44 -405,20.71 -608.1,1.91 -101.6,-9.44 -202.8,-24.52 -302.8,-47.32 -50,-11.35 -99.6,-24.52 -148.4,-41.05 -49,-16.16 -97.1,-35.41 -144,-58.3"
           style="fill:#000072;fill-opacity:1;fill-rule:nonzero;stroke:none"
           id="path294" /></g><g
         id="g296"
         transform="scale(1.07594)"><path
           d="m 16294.1,6083.25 h -122.4 c 24.6,9.66 49,20.26 73.4,31.88 18.4,8.92 36.8,18.3 54.9,28.44 l -5.9,-60.32"
           style="fill:#000072;fill-opacity:1;fill-rule:nonzero;stroke:none"
           id="path298" /></g><path
         d="m 15635.3,6823.6 c -158.8,28 -316.6,60.9 -468,102.6 -41.2,11.4 -81.8,23.4 -121.1,36.5 -39.2,13.1 -77.4,27.1 -111.9,42.2 -17.2,7.5 -33.5,15.3 -47.6,23 -14,7.5 -26.2,15.5 -31.7,20.1 l -1.9,1.5 -1.9,1.6 -2.4,2.2 -9.5,8.6 c -6.3,5.9 -12.5,12 -18.6,18.2 -12.2,12.7 -24.3,25.7 -35.9,40 -46.9,56.2 -89.2,124.8 -131.6,200.1 -42.7,75.2 -85.4,157.3 -137.3,240.9 -26,41.8 -54.1,84.1 -86.2,125.5 -15.8,20.7 -32.9,41.2 -50.6,61.3 l -43.8,49.8 c -57.6,64.9 -112,132.2 -165.2,200.3 -105.5,136.7 -200.8,280.2 -285.3,429.2 l -30.6,56.4 -15.3,28.2 -14.4,28.6 -28.8,57.2 -27,58.1 -13.4,29 -12.6,29.4 c -8.3,19.7 -16.9,39.1 -25,58.9 -15.3,39.7 -31.6,79.1 -45.3,119.4 -14.9,39.9 -27.5,80.5 -40.6,121 -6.4,20.3 -11.9,40.8 -17.9,61.2 l -8.8,30.7 -7.9,30.9 c -22.1,82.2 -38.8,165.7 -53.3,249.6 -19.1,112.9 -31.3,227 -37.4,341.7 456.9,-1118.6 1247.5,-871.4 1397.3,-1173.3 131.6,-266.5 -234.9,-665.6 380.2,-1067.8 92.2,-60.3 190.9,-107.8 293.8,-144.7 l 113.9,-499.2 c -20,-2.9 -39.1,-9.4 -56.4,-18.9"
         style="fill:#cccce3;fill-opacity:1;fill-rule:nonzero;stroke:none"
         id="path300" /><path
         d="m 15546.8,6666.9 c -377.1,69.7 -699,161.7 -805.9,254.8 -218.3,190.4 -295.8,499.1 -492.6,717.9 -757.2,840.7 -982,1706.7 -901.3,2598.8 46.1,-196.2 100,-365.2 159.5,-510.9 6.1,-114.7 18.3,-228.8 37.4,-341.7 14.5,-83.9 31.2,-167.4 53.3,-249.6 l 7.9,-30.9 8.8,-30.7 c 6,-20.4 11.5,-40.9 17.9,-61.2 13.1,-40.5 25.7,-81.1 40.6,-121 13.7,-40.3 30,-79.7 45.3,-119.4 8.1,-19.8 16.7,-39.2 25,-58.9 l 12.6,-29.4 13.4,-29 27,-58.1 28.8,-57.2 14.4,-28.6 15.3,-28.2 30.6,-56.4 c 84.5,-149 179.8,-292.5 285.3,-429.2 53.2,-68.1 107.6,-135.4 165.2,-200.3 l 43.8,-49.8 c 17.7,-20.1 34.8,-40.6 50.6,-61.3 32.1,-41.4 60.2,-83.7 86.2,-125.5 51.9,-83.6 94.6,-165.7 137.3,-240.9 42.4,-75.3 84.7,-143.9 131.6,-200.1 11.6,-14.3 23.7,-27.3 35.9,-40 6.1,-6.2 12.3,-12.3 18.6,-18.2 l 9.5,-8.6 2.4,-2.2 1.9,-1.6 1.9,-1.5 c 5.5,-4.6 17.7,-12.6 31.7,-20.1 14.1,-7.7 30.4,-15.5 47.6,-23 34.5,-15.1 72.7,-29.1 111.9,-42.2 39.3,-13.1 79.9,-25.1 121.1,-36.5 151.4,-41.7 309.2,-74.6 468,-102.6 -44,-24 -77,-67.2 -86.1,-120.4 -2.1,-12.2 -2.9,-24.4 -2.4,-36.3"
         style="fill:#000072;fill-opacity:1;fill-rule:nonzero;stroke:none"
         id="path302" /><g
         id="g304"
         transform="scale(1.08118)"><path
           d="m 15379.8,6265.76 c -18.3,0 -36.7,0.19 -55,0.37 l -76.1,1.57 -76.3,2.78 c -101.9,4.71 -204.3,13.41 -306.9,23.12 -102.6,10.27 -205.5,22.47 -308.5,35.51 l -1.1,0.1 c -6.5,0.83 -13.1,1.29 -19.4,1.29 -7.8,0 -15.5,-0.64 -23,-1.75 l -105.3,461.71 c 205.7,-73.71 429.3,-101.09 648.5,-101.09 641.1,0 1243.3,234.93 1243.3,234.93 l -34.5,-354.61 c -10.9,-21.18 -23.5,-41.07 -38.2,-59.57 -46.1,-58.82 -112.8,-105.62 -192.8,-140.77 -79.7,-35.33 -170.9,-58.92 -265.5,-74.73 l -35.6,-5.65 -36.2,-4.62 c -11.9,-1.76 -24.1,-3.05 -36.3,-4.35 -12.2,-1.2 -24.3,-2.77 -36.6,-3.79 -24.6,-1.94 -49.1,-4.35 -73.9,-5.46 l -37.3,-2.12 -37.5,-1.3 c -31.7,-1.11 -63.7,-1.57 -95.8,-1.57"
           style="fill:#cccce3;fill-opacity:1;fill-rule:nonzero;stroke:none"
           id="path306" /></g><g
         id="g308"
         transform="scale(1.07889)"><path
           d="m 16127.5,6066.61 h -620.2 c -308.2,0 -730.9,45.04 -1097.3,112.8 -0.5,11.03 0.3,22.34 2.2,33.64 8.5,49.31 39,89.36 79.8,111.6 16.1,8.81 33.8,14.83 52.3,17.52 7.5,1.11 15.2,1.76 23,1.76 6.4,0 13,-0.47 19.5,-1.3 l 1.1,-0.09 c 103.2,-13.07 206.3,-25.3 309.1,-35.59 102.9,-9.74 205.5,-18.45 307.6,-23.18 l 76.5,-2.78 76.2,-1.57 c 18.3,-0.19 36.8,-0.37 55.1,-0.37 32.2,0 64.3,0.46 96,1.57 l 37.6,1.3 37.3,2.13 c 25,1.12 49.4,3.53 74.1,5.47 12.3,1.02 24.5,2.6 36.7,3.8 12.2,1.3 24.5,2.6 36.4,4.36 l 36.3,4.63 35.7,5.66 c 94.8,15.85 186.2,39.48 266.1,74.89 80,35.22 147,82.12 193.1,141.07 14.8,18.54 27.4,38.47 38.3,59.69 l -44.6,-456.86 c -18.1,-10.1 -36.4,-19.47 -54.8,-28.36 -24.2,-11.59 -48.6,-22.15 -73.1,-31.79"
           style="fill:#000072;fill-opacity:1;fill-rule:nonzero;stroke:none"
           id="path310" /></g><g
         id="g312"
         transform="scale(1.5597)"><path
           d="m 12079.9,14691.9 c -196.4,-539.7 -662.8,-795.2 -1041.7,-570.8 -378.9,224.5 -526.8,844 -330.4,1383.7 196.4,539.6 662.7,795.2 1041.6,570.7 379,-224.4 526.9,-843.9 330.5,-1383.6"
           style="fill:#000072;fill-opacity:1;fill-rule:nonzero;stroke:none"
           id="path314" /></g><g
         id="g316"
         transform="scale(1.4989)"><path
           d="m 12368.9,15854.1 c -29.5,-208.3 -147.4,-357.4 -263.4,-332.9 -116.1,24.4 -186.2,213.1 -156.8,421.5 29.5,208.3 147.4,357.3 263.4,332.9 116.1,-24.5 186.2,-213.2 156.8,-421.5"
           style="fill:#ffffff;fill-opacity:1;fill-rule:nonzero;stroke:none"
           id="path318" /></g><g
         id="g320"
         transform="scale(1.44043)"><path
           d="m 12012.9,16063.3 c -20.6,-107.6 -85.8,-182.8 -145.5,-167.8 -59.7,14.8 -91.5,114.2 -70.9,221.8 20.5,107.6 85.7,182.7 145.4,167.8 59.8,-14.9 91.5,-114.2 71,-221.8"
           style="fill:#ffffff;fill-opacity:1;fill-rule:nonzero;stroke:none"
           id="path322" /></g><g
         id="g324"
         transform="scale(1.5597)"><path
           d="m 14416.4,14691.9 c 196.4,-539.7 662.7,-795.2 1041.6,-570.8 378.9,224.5 526.8,844 330.4,1383.7 -196.4,539.6 -662.7,795.2 -1041.6,570.7 -378.9,-224.4 -526.9,-843.9 -330.4,-1383.6"
           style="fill:#000072;fill-opacity:1;fill-rule:nonzero;stroke:none"
           id="path326" /></g><g
         id="g328"
         transform="scale(1.4989)"><path
           d="m 15202.1,15854.1 c 29.5,-208.3 147.3,-357.4 263.4,-332.9 116,24.4 186.2,213.1 156.7,421.5 -29.5,208.3 -147.4,357.3 -263.4,332.9 -116,-24.5 -186.2,-213.2 -156.7,-421.5"
           style="fill:#ffffff;fill-opacity:1;fill-rule:nonzero;stroke:none"
           id="path330" /></g><g
         id="g332"
         transform="scale(1.49471)"><path
           d="m 16071.6,15480 c 19.9,-103.7 82.6,-176.2 140.2,-161.8 57.6,14.3 88.2,110.1 68.4,213.8 -19.9,103.7 -82.6,176 -140.2,161.7 -57.6,-14.4 -88.2,-110 -68.4,-213.7"
           style="fill:#ffffff;fill-opacity:1;fill-rule:nonzero;stroke:none"
           id="path334" /></g><g
         id="g336"
         transform="scale(2.01275)"><path
           d="m 16177,9779.44 v 0 c -123.1,200.07 -391.9,233.56 -591.9,110.54 l -31.2,-19.13 -19.2,31.15 c -123,200.1 -378,291.4 -578.1,168.4 -200.1,-122.99 -262.5,-384.92 -139.5,-584.99 l 19.2,-31.15 386.8,-628.99 c 32.4,-52.76 101.5,-69.21 154.2,-36.82 l 629,386.84 31.2,19.13 c 200,123.01 262.5,384.94 139.5,585.02"
           style="fill:#ff0660;fill-opacity:1;fill-rule:nonzero;stroke:none"
           id="path338" /></g><g
         id="g340"
         transform="scale(1.89661)"><path
           d="m 16256.8,9309.01 c -19.4,0 -38.6,4.75 -55.8,13.82 17.2,-9.07 36.4,-13.82 55.8,-13.82 14.5,0 29.2,2.64 43.2,8.18 -14,-5.54 -28.7,-8.18 -43.2,-8.18 m -101.5,56.68 v 0 l -410.5,667.51 -20.4,33.1 c -0.2,0.3 -0.4,0.7 -0.6,1.1 0.2,-0.4 0.4,-0.8 0.6,-1.1 l 20.4,-33.1 410.5,-667.51 v 0 m -431.8,702.11 c -0.1,0.2 -0.3,0.5 -0.4,0.7 0.1,-0.2 0.2,-0.5 0.4,-0.7 m -0.8,1.4 c 0,0.1 -0.2,0.2 -0.2,0.3 0,-0.1 0.2,-0.2 0.2,-0.3"
           style="fill:#b175cc;fill-opacity:1;fill-rule:nonzero;stroke:none"
           id="path342" /></g><g
         id="g344"
         transform="scale(2.00536)"><path
           d="m 15375.2,8804.22 c -18.3,0 -36.5,4.49 -52.7,13.07 -17.2,9.07 -32.3,22.74 -43.3,40.54 v 0 l -388.2,631.31 -19.2,31.27 c -0.2,0.34 -0.4,0.69 -0.7,1.04 0,0.15 -0.1,0.3 -0.2,0.45 -0.2,0.2 -0.3,0.4 -0.4,0.6 -0.1,0.2 -0.2,0.4 -0.4,0.65 0,0.1 -0.1,0.2 -0.2,0.3 -16,26.58 -28.7,54.15 -38.4,82.38 5,-14.42 10.8,-28.63 17.3,-42.64 -1.9,14.56 -3.1,29.17 -3.5,43.78 l 322.1,-523.84 c 21.3,-34.56 58.2,-53.61 96,-53.61 20.1,0 40.5,5.39 58.8,16.71 l 631.4,388.2 31.2,19.21 c 122.2,75.14 193.2,201.85 202.3,334.8 33.1,-26.38 62.3,-58.84 86.1,-97.49 8.6,-14.01 16.2,-28.28 23,-42.79 v 0 0 c -7.6,57.2 -26.8,113.75 -58.8,166.11 42.4,-69.47 62.6,-146.31 62.5,-222.21 0,-143.31 -72.3,-283.19 -203.3,-363.72 v 0 l -31.2,-19.2 -631.4,-388.26 c -5.8,-3.54 -11.7,-6.53 -17.9,-8.93 -13.2,-5.23 -27.1,-7.73 -40.9,-7.73 m -543.7,801.71 c 0,0.05 0,0.15 -0.1,0.2 0.1,-0.05 0.1,-0.15 0.1,-0.2"
           style="fill:#b20465;fill-opacity:1;fill-rule:nonzero;stroke:none"
           id="path346" /></g><g
         id="g348"
         transform="scale(1.99766)"><path
           d="m 16300,9852.1 c -0.3,0.44 -0.5,0.85 -0.8,1.25 v 0 0 c 0.3,-0.4 0.5,-0.81 0.8,-1.25"
           style="fill:#b20465;fill-opacity:1;fill-rule:nonzero;stroke:none"
           id="path350" /></g><g
         id="g352"
         transform="scale(1.99748)"><path
           d="m 16300,9855.38 c 0,0.05 0,0.05 0,0.1 0,-0.05 0,-0.05 0,-0.1"
           style="fill:#b175cc;fill-opacity:1;fill-rule:nonzero;stroke:none"
           id="path354" /></g><g
         id="g356"
         transform="scale(1.82469)"><path
           d="m 16300,10556.9 c 0,0 0,0.1 0,0.1 0,0 0,-0.1 0,-0.1"
           style="fill:#ffb4cf;fill-opacity:1;fill-rule:nonzero;stroke:none"
           id="path358" /></g><g
         id="g360"
         transform="scale(1.99747)"><path
           d="m 16300,9855.51 c -2.4,3.85 -4.9,7.66 -7.4,11.41 0,0.05 -0.1,0.1 -0.1,0.15 -0.1,0.1 -0.2,0.25 -0.2,0.35 -76.9,114.5 -203.2,170.68 -334.6,170.68 v 0 c 135.9,0 266.3,-60.09 342.3,-182.59 m -646.4,122.25 c -85.4,138.94 -234.1,225.84 -384.3,225.84 -31.7,0 -63.4,-3.8 -94.7,-11.9 31.3,8.1 63,11.9 94.7,11.9 150.2,0 298.9,-86.9 384.3,-225.84 m -610.2,151.24 v 0 0 m 1,0.7 c 0,0 0.1,0.1 0.1,0.1 -0.1,0 -0.1,-0.1 -0.1,-0.1 m 1,0.7 c 0,0.1 0.1,0.1 0.2,0.1 -0.1,0 -0.2,-0.1 -0.2,-0.1 m 1,0.7 c 0,0.1 0.1,0.2 0.2,0.2 -0.1,0 -0.2,-0.1 -0.2,-0.2 m 1,0.7 c 0.1,0.1 0.2,0.2 0.3,0.3 -0.1,-0.1 -0.2,-0.2 -0.3,-0.3 m 1,0.8 c 0.2,0.1 0.3,0.2 0.4,0.2 -0.1,0 -0.3,-0.1 -0.4,-0.2 m 1.1,0.7 c 0.1,0.1 0.2,0.2 0.4,0.3 -0.2,-0.1 -0.3,-0.2 -0.4,-0.3 m 1.1,0.8 c 0.1,0.1 0.2,0.2 0.4,0.3 -0.2,-0.1 -0.3,-0.2 -0.4,-0.3 m 1,0.7 c 0.2,0.1 0.3,0.2 0.4,0.3 -0.1,-0.1 -0.2,-0.2 -0.4,-0.3 m 1.1,0.8 c 0.1,0 0.3,0.1 0.4,0.2 -0.1,-0.1 -0.3,-0.1 -0.4,-0.2 m 1.1,0.7 c 0.1,0.1 0.1,0.1 0.2,0.1 -0.1,0 -0.1,0 -0.2,-0.1 m 2.8,1.9 c 0.2,0.1 0.3,0.2 0.4,0.3 -0.1,-0.1 -0.2,-0.2 -0.4,-0.3 m 1.1,0.7 c 0.1,0.1 0.3,0.2 0.4,0.3 -0.1,-0.1 -0.3,-0.2 -0.4,-0.3 m 1,0.7 c 0.2,0.1 0.4,0.3 0.6,0.4 -0.2,-0.2 -0.4,-0.3 -0.6,-0.4 m 1.1,0.7 c 0.2,0.2 0.4,0.3 0.5,0.4 -0.1,-0.1 -0.3,-0.2 -0.5,-0.4 m 1.1,0.8 c 0.2,0.1 0.4,0.2 0.6,0.3 -0.2,-0.1 -0.4,-0.2 -0.6,-0.3 m 1.1,0.7 c 0.2,0.1 0.4,0.2 0.6,0.3 -0.2,-0.1 -0.4,-0.2 -0.6,-0.3 m 1.2,0.7 c 0.1,0.1 0.3,0.3 0.5,0.4 -0.2,-0.1 -0.4,-0.3 -0.5,-0.4 m 1.1,0.7 c 0.2,0.2 0.4,0.3 0.5,0.4 -0.2,-0.1 -0.3,-0.2 -0.5,-0.4 m 1.1,0.7 c 0.2,0.2 0.4,0.3 0.6,0.4 -0.2,-0.1 -0.4,-0.2 -0.6,-0.4 m 1.1,0.8 c 0.2,0.1 0.4,0.2 0.6,0.3 -0.2,-0.1 -0.4,-0.2 -0.6,-0.3 m 1.1,0.7 c 0.3,0.1 0.5,0.2 0.7,0.4 -0.2,-0.2 -0.4,-0.3 -0.7,-0.4 m 1.2,0.7 c 0.2,0.1 0.5,0.3 0.7,0.4 -0.2,-0.1 -0.5,-0.3 -0.7,-0.4 m 1.1,0.7 c 0.4,0.2 0.8,0.4 1.1,0.7 -0.3,-0.3 -0.7,-0.5 -1.1,-0.7 m 99.7,43.6 c 0.8,0.2 1.6,0.4 2.4,0.6 -0.8,-0.2 -1.6,-0.4 -2.4,-0.6 m 2.6,0.7 c 0.1,0 0.2,0 0.3,0 -0.1,0 -0.2,0 -0.3,0 m 0.8,0.2 c 0,0 0.1,0 0.1,0 0,0 -0.1,0 -0.1,0 m 0.8,0.2 c 0,0 0,0 0,0 0,0 0,0 0,0"
           style="fill:#fee5fb;fill-opacity:1;fill-rule:nonzero;stroke:none"
           id="path362" /></g><g
         id="g364"
         transform="scale(1.99657)"><path
           d="m 14896.7,9648.4 c -60,175.29 -0.2,373.6 153.5,485.2 v 0 c 0.3,0.2 0.6,0.4 1,0.6 0,0.1 0,0.1 0.1,0.1 0.3,0.2 0.6,0.4 0.9,0.7 0,0 0.1,0.1 0.2,0.1 0.2,0.2 0.5,0.4 0.8,0.6 0,0 0.1,0.1 0.2,0.2 0.3,0.2 0.5,0.3 0.8,0.5 0.1,0.1 0.2,0.2 0.3,0.2 0.3,0.2 0.5,0.4 0.7,0.5 0.1,0.1 0.3,0.2 0.4,0.3 0.2,0.2 0.5,0.3 0.7,0.5 0.1,0.1 0.2,0.2 0.4,0.2 0.2,0.2 0.4,0.4 0.7,0.5 0.1,0.1 0.2,0.2 0.4,0.3 0.2,0.2 0.4,0.3 0.6,0.5 0.2,0.1 0.3,0.2 0.4,0.3 0.3,0.1 0.5,0.3 0.7,0.4 0.1,0.1 0.3,0.2 0.4,0.3 0.2,0.1 0.5,0.3 0.7,0.5 0.1,0 0.1,0 0.2,0.1 0.9,0.6 1.7,1.2 2.6,1.8 0.2,0.1 0.3,0.1 0.4,0.2 0.2,0.2 0.4,0.3 0.7,0.5 0.1,0.1 0.3,0.2 0.4,0.3 0.2,0.1 0.4,0.2 0.6,0.4 0.2,0.1 0.4,0.2 0.6,0.3 0.1,0.1 0.3,0.3 0.5,0.4 0.2,0.1 0.4,0.2 0.5,0.3 0.2,0.2 0.4,0.3 0.6,0.4 0.2,0.1 0.4,0.3 0.6,0.4 0.2,0.1 0.3,0.2 0.5,0.3 0.2,0.2 0.4,0.3 0.6,0.4 0.2,0.1 0.4,0.2 0.6,0.4 0.1,0.1 0.3,0.3 0.5,0.4 0.2,0 0.4,0.2 0.6,0.3 0.2,0.2 0.3,0.3 0.5,0.4 0.2,0.1 0.4,0.2 0.6,0.3 0.2,0.2 0.4,0.3 0.6,0.4 0.2,0.1 0.3,0.2 0.5,0.4 0.2,0.1 0.4,0.2 0.6,0.3 0.2,0.1 0.4,0.3 0.5,0.4 0.3,0.1 0.5,0.2 0.7,0.4 0.2,0.1 0.3,0.2 0.5,0.3 0.2,0.1 0.5,0.3 0.8,0.4 0.1,0.1 0.2,0.2 0.4,0.3 0.3,0.2 0.7,0.4 1.1,0.7 v 0 c 31.7,19.5 64.8,33.6 98.5,42.9 0.8,0.2 1.7,0.4 2.4,0.6 0.1,0 0.2,0 0.3,0.1 0,0 0.1,0 0.2,0 0.2,0.1 0.4,0.1 0.5,0.2 0.1,0 0.1,0 0.2,0 0.2,0.1 0.4,0.1 0.6,0.2 0.1,0 0.1,0 0.1,0 0.2,0.1 0.5,0.1 0.7,0.2 31.3,8.1 63.1,12 94.8,12 150.3,0 299,-87 384.5,-226.03 v 0 l 19.3,-31.41 31.4,19.29 c 78.3,48.15 167,72.55 253.5,72.55 131.4,0 257.8,-56.28 334.7,-170.82 -13.7,20.38 -29,38.91 -45.5,55.59 5,-31.95 6.4,-64.16 4.2,-95.96 -72.3,57.6 -163.3,86 -256.7,86 -86.6,0 -175.3,-24.35 -253.5,-72.48 l -31.5,-19.28 -19.2,31.35 c -85.5,139.04 -234.3,226 -384.5,226 -67.7,0 -135.7,-17.6 -198.4,-56.2 v 0 c -135.3,-83.2 -208.1,-229.45 -203.9,-377.65 l -26.2,42.67 c 3.3,-14.63 7.4,-29.15 12.3,-43.52 m 1403.3,222.98 c -0.1,0.05 -0.1,0.1 -0.1,0.15 0,-0.05 0,-0.1 0.1,-0.15"
           style="fill:#ffb4cf;fill-opacity:1;fill-rule:nonzero;stroke:none"
           id="path366" /></g><g
         id="g368"
         transform="scale(1.99756)"><path
           d="m 16300,9853.8 c -0.3,0.4 -0.5,0.75 -0.7,1.15 0.2,-0.35 0.4,-0.75 0.7,-1.15"
           style="fill:#fee5fb;fill-opacity:1;fill-rule:nonzero;stroke:none"
           id="path370" /></g><g
         id="g372"
         transform="scale(1.82682)"><path
           d="m 16300,10497.8 c -7.2,15.4 -13.5,31 -18.9,46.8 0,0 0,0.1 0,0.1 -0.1,0.1 -0.1,0.2 -0.2,0.3 -5.3,15.7 -9.8,31.5 -13.4,47.5 l 28.7,-46.6 c 0.4,-16 1.7,-32.1 3.8,-48.1"
           style="fill:#e8b3d0;fill-opacity:1;fill-rule:nonzero;stroke:none"
           id="path374" /></g><g
         id="g376"
         transform="scale(1.99756)"><path
           d="m 16300,9853.8 v 0 c -2.7,4.3 -5.4,8.51 -8.1,12.67 2.5,-3.76 4.9,-7.56 7.3,-11.42 0,-0.05 0,-0.05 0.1,-0.1 0.2,-0.4 0.4,-0.75 0.7,-1.15 v 0 m -8.2,12.82 c -0.1,0.09 -0.2,0.25 -0.3,0.35 0.1,-0.1 0.2,-0.26 0.3,-0.35"
           style="fill:#e7d5f0;fill-opacity:1;fill-rule:nonzero;stroke:none"
           id="path378" /></g><g
         id="g380"
         transform="scale(2.00488)"><path
           d="m 16300,9650.44 c -6.8,14.51 -14.4,28.78 -23,42.79 -23.8,38.66 -53,71.13 -86.1,97.51 2.2,31.68 0.8,63.75 -4.2,95.57 16.5,-16.61 31.7,-35.06 45.4,-55.36 0,-0.1 0.1,-0.26 0.2,-0.35 0,-0.05 0.1,-0.1 0.1,-0.15 2.8,-4.14 5.5,-8.33 8.1,-12.62 v 0 0 c 0.2,-0.4 0.5,-0.8 0.7,-1.25 v 0 c 32,-52.37 51.2,-108.93 58.8,-166.14"
           style="fill:#e8b3d0;fill-opacity:1;fill-rule:nonzero;stroke:none"
           id="path382" /></g><g
         id="g384"
         transform="scale(2.02148)"><path
           d="m 15088.4,10020.6 c -57.9,0 -114,-15.6 -163.9,-46.32 -82.3,-50.55 -139.9,-130.2 -162.3,-224.14 -22.4,-93.94 -6.9,-191 43.6,-273.26 l 404.3,-657.35 c 14.4,-23.34 45.1,-30.67 68.5,-16.32 l 657.3,404.21 c 169.8,104.43 223,327.58 118.6,497.41 -48.5,78.85 -127.8,131.09 -223.5,147.12 -93.7,15.68 -196.1,-5.2 -280.8,-57.29 l -31,-19.09 c -14,-8.61 -30.8,-11.28 -46.8,-7.47 -15.9,3.81 -29.7,13.8 -38.3,27.75 l -19,31.02 c -52.2,84.74 -134.1,149.54 -224.8,177.83 -34,10.6 -68.3,15.9 -101.9,15.9 z m 164.3,-1348.38 c -58.3,0 -115.3,29.33 -148,82.56 l -404.2,657.29 c -140.2,227.95 -68.7,527.44 159.2,667.63 109.7,67.4 240.2,82.8 367.4,43.1 112.9,-35.2 211.5,-109.4 279.8,-210.25 106.4,59.11 227.8,80.88 344.5,61.34 131.4,-21.97 240.9,-94.54 308.4,-204.26 v 0 c 140.2,-227.95 68.8,-527.39 -159.1,-667.58 l -657.4,-404.16 c -28.2,-17.41 -59.6,-25.67 -90.6,-25.67"
           style="fill:#000072;fill-opacity:1;fill-rule:nonzero;stroke:none"
           id="path386" /></g></g></g></svg>
