<?xml version="1.0" encoding="utf-8"?>
<!-- Generator: Adobe Illustrator 27.5.0, SVG Export Plug-In . SVG Version: 6.00 Build 0)  -->
<svg version="1.1" id="Layer_1" xmlns="http://www.w3.org/2000/svg" xmlns:xlink="http://www.w3.org/1999/xlink" x="0px" y="0px"
	 viewBox="0 0 4000 4000" style="enable-background:new 0 0 4000 4000;" xml:space="preserve">
<g>
	<g>
		<rect style="fill-rule:evenodd;clip-rule:evenodd;fill:#66FEFF00;" width="4000" height="4000"/>
	</g>
	<g>
		<g>
			<path style="fill:#5E71B7;" d="M1161.533,1622.104c-273.645,201.407-260.963,485.852,78.007,780.318
				c407.369,335.782,956.82,479.215,1478.087,395.779c392.743-62.873,520.554-239.039,397.056-457.571l-1.047,3.491
				c-17.189,188.026-194.761,267.061-361.372,300.312c-565.006,100.127-1881.099-288.519-1590.776-1021.357L1161.533,1622.104z"/>
		</g>
		<g>
			<defs>
				<path id="SVGID_1_" d="M2358.766,1259.555c683.445,228.152,773.658,517.516,764.177,702.862c0,0-0.108,1.209-0.108,3.263
					c1.362,135.021,3.728,270.12-8.681,379.683l-0.518-1.242c-20.357,156.2-140.818,256.292-361.372,300.312
					c-574.759,101.856-1926.893-302.075-1574.375-1059.615c43.879-65.576,101.141-134.289,172.09-202.351
					C1349.98,1382.468,1675.308,1031.389,2358.766,1259.555"/>
			</defs>
			<use xlink:href="#SVGID_1_"  style="overflow:visible;fill-rule:evenodd;clip-rule:evenodd;fill:#0291E9;"/>
			<clipPath id="SVGID_00000181064122801840371020000010463826192378168748_">
				<use xlink:href="#SVGID_1_"  style="overflow:visible;"/>
			</clipPath>
		</g>
		<g>
			<path style="fill:#000072;" d="M2554.949,2681.091c-184.492,0-402.441-32.759-609.639-93.965
				c-330.542-97.646-588.941-250.762-727.593-431.142c-64.443-83.843-103.115-173.506-114.937-266.497
				c-12.827-100.925,5.962-206.448,55.84-313.635l0.693-1.487l0.913-1.365c46.968-70.19,105.718-139.319,174.629-205.479
				c7.666-8.103,91.05-93.457,256.104-152.1c155.303-55.176,415.752-95.803,774.536,23.975
				c532.183,177.656,794.165,421.279,778.672,724.102l-0.054,0.796c0,0.029-0.024,0.586-0.024,1.387l0.269,26.006
				c1.313,124.038,2.671,252.295-9.087,356.069l-9.238,81.553l-6.689-16.084c-44.028,128.042-165.752,212.695-362.92,252.046
				C2696.419,2675.91,2628.323,2681.091,2554.949,2681.091z M1196.468,1595.273c-88.789,191.931-70.303,371.853,54.951,534.807
				c297.759,387.378,1100.996,563.653,1497.134,493.423c212.114-42.339,324.79-134.653,344.009-282.134l2.91-22.334
				c8.818-96.846,7.583-213.652,6.387-326.899l-0.273-26.24c-0.005-2.427,0.093-4.092,0.146-4.863
				c14.199-281.277-238.032-510.51-749.692-681.318c-345.908-115.479-595.703-77.402-744.341-25.125
				c-160.845,56.565-241.362,141.499-242.158,142.351l-0.85,0.864C1298.264,1461.531,1241.673,1527.959,1196.468,1595.273z"/>
		</g>
		<g style="opacity:0.5;">
			<path style="fill-rule:evenodd;clip-rule:evenodd;fill:#FFFFFF;" d="M2348.799,1272.841c11.274,3.405,22.344,6.832,33.296,10.28
				c64.495,27.374,124.113,61.706,178.869,103.003l0,0c309.436,169.949,461.583,330.724,456.448,482.305
				c-58.994-132.513-162.612-246.639-310.822-342.387l2.876,3.491c-26.616-17.816-53.955-34.669-82.008-50.549
				c-24.874-13.642-50.766-26.854-77.717-39.641l-2.183-2.055c-171.756-82.322-368.029-131.541-588.855-147.639
				c-378.342-19.339-566.034,77.987-563.102,291.968c285.793,479.184,847.666,701.046,1370.576,569.937
				c-12.097,7.188-24.517,14.692-37.35,22.552c-218.402,67.035-455.215,64.927-710.46-6.314
				c-220.598-80.073-428.039-211.689-570.597-381.218l-0.033,0.075c-33.004-38.485-71.261-38.497-114.719-0.022
				c-70.721,81.122-111.392,185.259-113.229,294.596c12.152,29.457,28.757,58.796,49.803,88.019l-0.387-0.401l-48.096-57.253h0.011
				l-0.075-0.064l-34.323-40.864c-39.187-52.905-62.895-111.13-71.122-174.696c11.913-165.8,121.78-359.273,329.641-580.466
				C1585.474,1236.215,1882.469,1131.602,2348.799,1272.841"/>
		</g>
		<g>
			<path style="fill:#000072;" d="M2488.816,2215.368c-142.71,0-284.121-22.329-411.548-65.18
				c-191.401-64.365-381.23-175.049-520.811-303.682c-145.41-134.004-211.704-267.063-181.88-365.054
				c30.503-100.234,155.781-173.936,343.706-202.205c185.625-27.93,411.45-7.91,619.556,54.917l0,0
				c302.163,91.213,572.993,279.297,673.921,468.022c37.461,70.051,48.32,136.458,31.401,192.034
				c-16.206,53.267-62.773,100.986-134.663,138.003c-94.097,48.447-227.749,77.734-376.328,82.456
				C2517.722,2215.139,2503.25,2215.368,2488.816,2215.368z M1892.371,1309.392c-58.394,0-114.79,3.918-167.764,11.887
				c-168.55,25.356-284.199,89.861-309.365,172.551c-24.517,80.557,39.043,200.713,170.024,321.418
				c135.342,124.729,319.609,232.122,505.547,294.646c301.831,101.514,636.533,67.798,798.228-15.464
				c61.44-31.635,100.674-70.566,113.457-112.583c13.56-44.546,3.799-99.739-28.223-159.614
				c-79.849-149.314-311.406-345.554-648.721-447.375l0,0C2182.923,1331.799,2031.965,1309.392,1892.371,1309.392z"/>
		</g>
		<g>
			<path style="fill:#000072;" d="M2531.326,2214.026c-145.791,0-311.484-23.008-453.135-63.55
				c-247.603-70.864-518.052-255.342-602.871-411.231c-25.693-47.217-33.071-89.717-21.934-126.316
				c23.965-78.748,131.309-120.901,310.435-121.907c145.63-0.872,329.761,26.438,492.139,72.91l0,0
				c121.938,34.905,258.843,97.229,375.61,170.994c122.739,77.542,211.919,159.917,251.118,231.956
				c22.705,41.733,28.984,80.088,18.662,114.009c-30.503,100.224-190.869,127.207-320.029,132.192
				C2564.973,2213.713,2548.284,2214.026,2531.326,2214.026z M1771.741,1533.899c-147.246,0-258.423,28.103-277.69,91.406
				c-7.695,25.291-1.436,56.792,18.604,93.625c78.769,144.763,343.11,323.674,577.236,390.676
				c151.724,43.433,339.395,66.816,489.795,61.001c160.723-6.201,263.145-43.413,281.001-102.09
				c6.88-22.612,1.719-49.971-15.337-81.318c-73.481-135.054-348.75-310.173-601.089-382.402
				C2086.345,1559.602,1912.552,1533.899,1771.741,1533.899z"/>
		</g>
		<g style="opacity:0.5;">
			<path style="fill-rule:evenodd;clip-rule:evenodd;fill:#FFFFFF;" d="M1862.546,2427.393
				c79.986-21.555,26.366-131.628-37.166-159.692c-59.868-26.43-169.055-0.691-129.52,73.285
				c25.782,48.225,62.678,18.657,84.795,29.501C1804.309,2382.064,1802.753,2443.521,1862.546,2427.393"/>
		</g>
		<g style="opacity:0.5;">
			<path style="fill-rule:evenodd;clip-rule:evenodd;fill:#FFFFFF;" d="M1670.563,2165.608c14.809,0,26.809,18.518,26.809,41.382
				c0,22.864-12,41.395-26.809,41.395c-14.8,0-26.8-18.531-26.8-41.395C1643.763,2184.126,1655.763,2165.608,1670.563,2165.608"/>
		</g>
		<g style="opacity:0.5;">
			<path style="fill-rule:evenodd;clip-rule:evenodd;fill:#FFFFFF;" d="M2015.729,2313.57
				c-5.318-13.815-26.917-18.367-48.258-10.173c-21.327,8.216-34.323,26.065-29.003,39.88c5.307,13.815,26.906,18.367,48.247,10.162
				C2008.053,2345.234,2021.038,2327.385,2015.729,2313.57"/>
		</g>
		<g style="opacity:0.5;">
			<path style="fill-rule:evenodd;clip-rule:evenodd;fill:#FFFFFF;" d="M1805.833,2103.956
				c23.698,3.363,39.123,32.691,34.476,65.522c-4.649,32.831-27.61,56.722-51.307,53.37c-23.685-3.35-39.123-32.689-34.474-65.509
				C1759.186,2124.506,1782.147,2100.606,1805.833,2103.956"/>
		</g>
		<g style="opacity:0.5;">
			<path style="fill-rule:evenodd;clip-rule:evenodd;fill:#FFFFFF;" d="M1875.907,2257.636
				c-18.746-14.874-17.231-47.988,3.361-73.965c20.605-25.976,52.496-34.994,71.241-20.129
				c18.757,14.865,17.254,47.977-3.352,73.956C1926.554,2263.486,1894.653,2272.501,1875.907,2257.636"/>
		</g>
		<g>
			<path style="fill-rule:evenodd;clip-rule:evenodd;fill:#000072;" d="M1882.035,2422.27
				c79.975-21.546,26.368-131.627-37.166-159.68c-59.868-26.444-169.052-0.704-129.52,73.282
				c25.784,48.216,62.68,18.648,84.797,29.492C1823.801,2376.952,1822.234,2438.398,1882.035,2422.27z"/>
		</g>
		<g>
			<path style="fill:#000072;" d="M1863.816,2430.242c-29.033,0-40.796-21.924-49.795-38.687
				c-5.044-9.404-9.81-18.286-16.211-21.421c-6.089-2.983-14.155-2.168-23.501-1.206c-19.995,2.041-44.858,4.57-63.643-30.552
				c-16.846-31.528-7.207-52.344,3.843-64.258c28.228-30.415,93.232-33.735,132.51-16.387
				c45.327,20.01,83.618,77.329,80.337,120.254c-1.895,24.741-17.495,42.29-43.941,49.414v-0.005
				C1876.121,2429.368,1869.622,2430.242,1863.816,2430.242z M1786.717,2357.424c5.547,0,10.835,0.747,15.771,3.169
				c9.468,4.639,15.019,14.986,20.898,25.938c11.104,20.684,21.577,40.24,57.266,30.611v-0.005
				c22.392-6.03,34.541-19.477,36.108-39.961c2.93-38.306-33.052-91.631-74.033-109.727c-39.209-17.31-97.725-10.561-120.43,13.897
				c-12.656,13.643-13.418,31.147-2.261,52.021c15.425,28.843,33.774,26.987,53.193,24.99
				C1777.854,2357.888,1782.366,2357.424,1786.717,2357.424z"/>
		</g>
		<g>
			<path style="fill-rule:evenodd;clip-rule:evenodd;fill:#000072;" d="M1690.055,2160.483c14.798,0,26.798,18.531,26.798,41.384
				c0,22.864-12,41.393-26.798,41.393c-14.811,0-26.811-18.529-26.811-41.393
				C1663.244,2179.014,1675.244,2160.483,1690.055,2160.483z"/>
		</g>
		<g>
			<path style="fill:#000072;" d="M1690.056,2248.572c-18.013,0-32.124-20.513-32.124-46.704c0-26.187,14.111-46.699,32.124-46.699
				c18.003,0,32.109,20.513,32.109,46.699C1722.166,2228.059,1708.059,2248.572,1690.056,2248.572z M1690.056,2165.793
				c-11.655,0-21.499,16.519-21.499,36.074c0,19.555,9.844,36.079,21.499,36.079c11.646,0,21.484-16.524,21.484-36.079
				C1711.541,2182.312,1701.702,2165.793,1690.056,2165.793z"/>
		</g>
		<g>
			<path style="fill-rule:evenodd;clip-rule:evenodd;fill:#000072;" d="M2035.209,2308.445
				c-5.318-13.815-26.906-18.365-48.247-10.16c-21.34,8.205-34.323,26.052-29.014,39.867c5.318,13.817,26.906,18.378,48.247,10.162
				C2027.533,2340.12,2040.527,2322.262,2035.209,2308.445z"/>
		</g>
		<g>
			<path style="fill:#000072;" d="M1985.169,2357.717c-3.525,0-6.948-0.337-10.2-1.025c-10.933-2.3-18.74-8.208-21.978-16.631
				c-6.46-16.806,7.627-37.334,32.061-46.733c24.429-9.404,48.647-3.594,55.112,13.208l0,0c3.242,8.423,1.406,18.042-5.171,27.08
				c-6.079,8.35-15.63,15.332-26.895,19.658C2000.462,2356.213,1992.59,2357.717,1985.169,2357.717z M2008.03,2299.539
				c-6.006,0-12.627,1.191-19.165,3.706c-18.247,7.017-30.137,22.134-25.957,33.003c1.899,4.941,6.963,8.516,14.253,10.049
				c8.11,1.704,17.749,0.669,27.124-2.94c9.38-3.603,17.231-9.282,22.114-15.996c4.385-6.021,5.752-12.065,3.853-17.007l0,0
				C2027.566,2303.376,2018.792,2299.539,2008.03,2299.539z"/>
		</g>
		<g>
			<path style="fill-rule:evenodd;clip-rule:evenodd;fill:#000072;" d="M1825.324,2098.832
				c23.685,3.361,39.123,32.689,34.474,65.521c-4.647,32.833-27.619,56.724-51.304,53.383
				c-23.696-3.363-39.123-32.692-34.476-65.523C1778.667,2119.383,1801.628,2095.48,1825.324,2098.832z"/>
		</g>
		<g>
			<path style="fill:#000072;" d="M1812.864,2223.357c-1.699,0-3.403-0.117-5.112-0.361c-26.548-3.77-44.038-35.854-38.994-71.524
				c5.049-35.679,30.752-61.699,57.31-57.9h0.005c26.548,3.77,44.038,35.854,38.984,71.528
				C1860.335,2198.469,1837.522,2223.357,1812.864,2223.357z M1820.838,2103.826c-19.399,0-37.588,21.05-41.563,49.135
				c-4.224,29.868,9.219,56.573,29.966,59.517c20.742,2.925,41.069-18.994,45.298-48.872c4.229-29.868-9.209-56.567-29.956-59.517
				l0,0C1823.333,2103.914,1822.083,2103.826,1820.838,2103.826z"/>
		</g>
		<g>
			<path style="fill-rule:evenodd;clip-rule:evenodd;fill:#000072;" d="M1895.399,2252.513
				c-18.757-14.865-17.245-47.977,3.361-73.965c20.594-25.979,52.495-34.994,71.241-20.129s17.243,47.977-3.363,73.965
				C1946.046,2258.36,1914.142,2267.378,1895.399,2252.513z"/>
		</g>
		<g>
			<path style="fill:#000072;" d="M1917.063,2265.007c-9.429,0-18.008-2.817-24.966-8.33l0,0
				c-10.444-8.276-15.801-21.494-15.088-37.217c0.688-15.073,6.934-30.776,17.583-44.214c10.649-13.433,24.517-23.086,39.038-27.192
				c15.132-4.273,29.233-2.075,39.673,6.206c21.011,16.655,19.888,53.184-2.5,81.426c-10.649,13.433-24.512,23.086-39.033,27.193
				C1926.721,2264.304,1921.785,2265.007,1917.063,2265.007z M1948.279,2156.56c-3.74,0-7.686,0.566-11.763,1.719
				c-12.388,3.501-24.321,11.87-33.594,23.569c-9.282,11.704-14.712,25.235-15.298,38.096c-0.557,12.217,3.379,22.305,11.074,28.403
				l0,0c7.691,6.104,18.418,7.632,30.181,4.302c12.393-3.501,24.326-11.87,33.594-23.564c18.75-23.647,20.65-53.482,4.229-66.499
				C1961.673,2158.591,1955.344,2156.56,1948.279,2156.56z"/>
		</g>
		<g style="opacity:0.3;">
			<path style="fill-rule:evenodd;clip-rule:evenodd;fill:#000072;" d="M1538.956,1409.58
				c25.233,67.057,80.485,101.965,165.747,104.732c158.988-10.486,370.958,20.129,545.406,70.052
				c260.749,74.624,566.565,267.353,624.907,416.081l0.033,0.086c0.518,1.309,0.952,2.606,1.417,3.903
				c1.534,4.335,2.929,8.714,4.182,13.166c4.012,15.071,5.265,29.61,3.363,43.405l4.162-2.28c1.751,19.188,1.34,39.349-1.277,60.506
				c86.117-85.468,118.926-134.094,28.691-330.205c-29.067-40.44-63.098-76.409-89.369-101.132
				c-139.033-130.848-327.912-227.634-509.863-282.563c-183.572-55.414-396.622-81.206-587.015-52.571
				C1679.169,1360.308,1601.149,1377.582,1538.956,1409.58"/>
		</g>
		<g style="opacity:0.3;">
			<path style="fill-rule:evenodd;clip-rule:evenodd;fill:#000072;" d="M1584.825,1533.49c-44.55-23.307-76.3-53.943-95.283-91.909
				c-13.177,10.992-24.312,23.165-32.539,36.593c16.95,30.106,42.386,55.338,76.322,75.705
				C1548.297,1545.846,1565.583,1539.08,1584.825,1533.49"/>
		</g>
		<g style="opacity:0.5;">
			<path style="fill-rule:evenodd;clip-rule:evenodd;fill:#FFFFFF;" d="M1462.408,1470.097c1.331-1.838,2.725-3.653,4.173-5.449
				c6.615-8.205,14.355-15.89,22.961-23.067c14.389-12.022,31.222-22.638,49.414-32.001c49.318-29.599,102.766-46.83,160.352-51.672
				c10.758-2.066,20.865-3.764,30.033-5.147c190.393-28.636,403.444-2.843,587.015,52.571
				c181.951,54.929,370.83,151.715,509.863,282.563c26.271,24.723,60.302,60.692,89.369,101.132
				c8.054,10.995,15.31,21.956,21.783,32.906l0.531,0.888h0.009l0.078,0.128c4.388,7.331,8.528,14.747,12.356,22.195l0.064,0.12
				c22.432,39.034,40.885,80.245,55.372,123.606c22.031-109.198-86.387-237.03-157.735-304.173
				c-142.504-134.125-336.172-233.614-522.48-289.86c-187.636-56.647-406.158-82.882-600.961-53.576
				c-99.802,15.015-275.352,60.723-309.394,172.555c-3.286,10.811-4.995,21.936-5.34,33.254
				c-1.072,34.691,10.616,71.261,28.658,106.483c-3.686-51.707-2.01-92.301,4.995-121.78c0.584-2.931,1.297-5.827,2.163-8.681
				c0.788-2.562,1.665-5.081,2.637-7.568C1452.095,1485.145,1456.797,1476.659,1462.408,1470.097"/>
		</g>
		<g style="opacity:0.5;">
			<path style="fill-rule:evenodd;clip-rule:evenodd;fill:#FFFFFF;" d="M1393.914,1831.978
				c-26.043-86.409-140.342,135.81-68.852,136.361C1353.861,1968.567,1399.513,1850.571,1393.914,1831.978"/>
		</g>
		<g style="opacity:0.5;">
			<path style="fill-rule:evenodd;clip-rule:evenodd;fill:#FFFFFF;" d="M1317.007,2038.942c-26.03-86.396-99.239,46.161-27.75,46.69
				C1318.045,2085.858,1322.597,2057.526,1317.007,2038.942"/>
		</g>
		<g style="opacity:0.3;">
			<path style="fill-rule:evenodd;clip-rule:evenodd;fill:#000072;" d="M2997.38,2068.671
				c-100.483,112.277-254.164,170.804-429.456,183.961c120.363,603.297-764.924,232.704-1019.974,124.664
				c384.063,212.134,748.363,305.471,1092.913,280.054l1.231-0.086c39.123-2.509,76.019-6.777,110.169-12.832
				c10.908-2.183,21.566-4.486,31.977-6.939c50.811-11.958,95.792-27.178,134.968-45.663
				c108.093-71.177,166.156-211.452,158.458-420.451c-2.67-72.494-6.874-137.939-12.345-196.36
				c-4.984-32.388-13.156-68.235-24.518-107.564v-0.011c-0.93,31.394-5.017,62.786-12.323,93.693
				c-1.114,9.201-2.996,18.183-5.655,26.898c-2.216,7.317-5.081,14.464-8.539,21.447c-17.816,35.935-51.632,67.533-97.382,93.965
				C2943.944,2092.864,2970.775,2081.287,2997.38,2068.671"/>
		</g>
		<g>
			<path style="fill:#000072;" d="M2555.144,2681.091c-184.497,0-402.446-32.759-609.644-93.965
				c-330.542-97.642-588.94-250.762-727.593-431.142c-64.448-83.843-103.115-173.506-114.937-266.494
				c-12.827-100.928,5.957-206.45,55.835-313.638l1.602-2.852c46.938-70.151,105.693-139.28,174.634-205.479
				c7.666-8.103,91.055-93.457,256.108-152.1c155.303-55.178,415.757-95.801,774.526,23.975
				c532.202,177.659,794.185,421.282,778.677,724.106l-0.054,0.791c0,0.029-0.024,0.586-0.024,1.387
				c0.366,36.289,0.371,130.679-0.786,217.353c-0.635,47.842-1.528,86.021-2.646,113.487c-1.299,31.855-2.026,49.643-7.231,59.404
				c-24.995,160.342-151.772,264.394-376.992,309.346C2696.609,2675.91,2628.518,2681.091,2555.144,2681.091z M1196.653,1595.273
				c-88.789,191.931-70.298,371.853,54.956,534.807c297.759,387.378,1100.977,563.653,1497.139,493.423
				c212.104-42.339,324.78-134.653,344.009-282.134l5.479-42.036c3.33-79.131,4.326-254.473,3.535-333.438
				c-0.005-2.427,0.093-4.092,0.146-4.863c14.214-281.272-238.018-510.508-749.697-681.318l0,0
				c-345.889-115.471-595.688-77.405-744.331-25.125c-160.85,56.565-241.367,141.499-242.163,142.351l-0.85,0.864
				C1298.421,1461.567,1241.829,1527.998,1196.653,1595.273z"/>
		</g>
		<g style="opacity:0.3;">
			<path style="fill-rule:evenodd;clip-rule:evenodd;fill:#000072;" d="M3149.212,2420.549
				c-246.608,607.114-1638.903,195.994-2015.777-121.476c30.898,34.237,66.247,68.722,106.105,103.348
				c407.369,335.782,956.82,479.215,1478.087,395.779C3061.227,2743.198,3202.042,2601.484,3149.212,2420.549"/>
		</g>
		<g style="opacity:0.5;">
			<path style="fill-rule:evenodd;clip-rule:evenodd;fill:#FFFFFF;" d="M1134.031,1709.764
				c-72.16,482.967,365.651,799.475,1313.411,949.492c-640.744,4.616-1203.114-272.952-1345.541-635.794l-0.011,0.042
				c-28.516-71.759-53.899-69.457-76.136,6.888c-5.632,61.478,19.35,138.307,74.97,230.51
				C916.968,2069.039,928.071,1885.337,1134.031,1709.764"/>
		</g>
		<g>
			<path style="fill:#42569D;" d="M2250.109,1584.365c307.125,87.91,676.765,339.652,630.907,490.338
				c-45.858,150.688-489.853,143.248-796.976,55.338c-307.136-87.899-656.182-360.236-610.324-510.921
				C1519.575,1468.443,1942.986,1496.465,2250.109,1584.365z"/>
		</g>
		<g>
			<path style="fill:#000072;" d="M2425.017,2842.497c-166.27,0-333.535-21.601-494.609-64.438
				c-259.385-68.984-502.959-193.208-704.39-359.238l-0.415-0.357c-187.466-162.851-283.262-330.556-277.021-484.98
				c5.005-123.806,72.412-234.329,200.352-328.496l35.84-26.379l-2.217,48.984l-1.308,3.311
				c-73.184,184.731-45.42,357.888,82.524,514.656c137.817,168.862,388.384,312.441,705.552,404.292
				c279.8,81.021,578.389,109.262,779.229,73.652c214.917-42.896,330.776-137.573,343.916-281.319l0.195-2.134l16.016-53.252
				l24.507,43.374c53.398,94.482,62.31,184.517,25.776,260.366c-54.126,112.378-205.576,191.445-437.979,228.648
				C2623.733,2834.753,2524.549,2842.497,2425.017,2842.497z M1253.269,2386.194c397.617,327.632,943.775,473.813,1460.996,391.021
				c218.052-34.907,358.584-105.835,406.401-205.117c23.477-48.74,24.146-103.755,2.114-164.121
				c-39.375,128.662-164.57,217.026-366.357,257.295c-207.295,36.748-513.257,8.13-798.926-74.595
				c-325.371-94.224-583.438-242.759-726.655-418.242c-122.178-149.702-159.873-313.311-112.51-487.273
				c-80.845,75-123.594,158.867-127.28,250.037C985.359,2076.223,1076.018,2232.16,1253.269,2386.194z"/>
		</g>
		<g style="opacity:0.3;">
			<path style="fill-rule:evenodd;clip-rule:evenodd;fill:#000072;" d="M2884.499,2039.148
				c-20.519,170.317-303.135,195.636-847.861,75.997c975.811,153.886,988.936-215.885,1.654-578.412
				C2528.5,1657.377,2810.576,1824.853,2884.499,2039.148"/>
		</g>
		<g style="opacity:0.5;">
			<path style="fill-rule:evenodd;clip-rule:evenodd;fill:#FFFFFF;" d="M1943.309,2074.14
				c-709.995-381.401-593.33-691.672,237.128-482.414C1450.408,1434.877,1245.411,1642.849,1943.309,2074.14"/>
		</g>
		<g>
			<path style="fill:#000072;" d="M2531.326,2214.026c-145.791,0-311.484-23.008-453.135-63.55
				c-247.603-70.864-518.052-255.342-602.871-411.231c-25.693-47.217-33.071-89.717-21.934-126.316
				c23.965-78.748,131.309-120.901,310.435-121.907c145.63-0.872,329.761,26.438,492.139,72.91l0,0
				c121.938,34.905,258.843,97.229,375.61,170.994c122.739,77.542,211.919,159.917,251.118,231.956
				c22.705,41.733,28.984,80.088,18.662,114.009c-30.503,100.224-190.869,127.207-320.029,132.192
				C2564.973,2213.713,2548.284,2214.026,2531.326,2214.026z M1771.741,1533.899c-147.246,0-258.423,28.103-277.69,91.406
				c-7.695,25.291-1.436,56.792,18.604,93.625c78.769,144.763,343.11,323.674,577.236,390.676
				c151.724,43.433,339.395,66.816,489.795,61.001c160.723-6.201,263.145-43.413,281.001-102.09
				c6.88-22.612,1.719-49.971-15.337-81.318c-73.481-135.054-348.75-310.173-601.089-382.402
				C2086.345,1559.602,1912.552,1533.899,1771.741,1533.899z"/>
		</g>
		<g>
			<g>
				<path style="fill:#000072;" d="M2113.311,522.776c-4.59,37.813-13.352,74.153-23.12,110.142
					c-9.976,35.913-21.648,71.228-34.453,106.147c-12.764,34.932-26.345,69.575-41.265,103.748
					c-14.907,34.177-30.796,68.01-49.417,100.879c-2.449,4.321-7.939,5.84-12.261,3.391c-3.364-1.904-5.024-5.669-4.443-9.275
					c6.086-37.285,14.91-73.604,24.709-109.58c9.792-35.979,20.918-71.487,32.864-106.709
					c11.904-35.234,24.939-70.071,39.673-104.309c14.941-34.165,30.889-67.976,51.008-100.317c2.646-4.253,8.237-5.554,12.49-2.91
					C2112.188,515.903,2113.716,519.39,2113.311,522.776z"/>
			</g>
			<g>
				<path style="fill:#000072;" d="M1660.977,333.198c17.373,52.546,30.386,105.84,42.349,159.316
					c11.746,53.513,21.716,107.329,30.503,161.35c8.833,54.014,16.809,108.171,23.391,162.571c3.354,27.19,6.326,54.443,8.84,81.777
					c2.51,27.331,4.832,54.7,6.028,82.258c0.215,4.924-3.606,9.092-8.53,9.304c-4.153,0.181-7.764-2.512-8.926-6.309
					c-8.062-26.379-15-52.954-21.748-79.56c-6.746-26.607-13.032-53.291-18.938-80.042c-11.936-53.479-22.48-107.2-32.166-161.064
					c-9.729-53.86-18.279-107.92-25.051-162.288c-6.558-54.402-12.063-108.987-13.208-164.319c-0.1-4.944,3.823-9.036,8.77-9.138
					C1656.313,326.973,1659.773,329.568,1660.977,333.198z"/>
			</g>
			<g>
				<path style="fill:#000072;" d="M1283.372,722.544c30.757,20.212,58.318,43.484,85.107,67.495
					c26.631,24.16,51.963,49.568,76.428,75.806c24.497,26.206,48.367,53.013,71.213,80.798
					c22.854,27.778,44.958,56.274,64.971,86.777c2.729,4.158,1.57,9.741-2.59,12.471c-3.201,2.1-7.263,1.882-10.2-0.222
					c-29.609-21.309-57.124-44.624-83.889-68.66c-26.772-24.026-52.524-49.031-77.646-74.639
					c-25.154-25.576-49.443-51.98-72.432-79.631c-22.83-27.803-44.89-56.343-63.752-87.944c-2.573-4.309-1.165-9.885,3.145-12.458
					C1276.812,720.496,1280.554,720.701,1283.372,722.544z"/>
			</g>
		</g>
	</g>
	<g style="opacity:0.2;">
		<path style="fill-rule:evenodd;clip-rule:evenodd;fill:#000072;" d="M2086.912,3210c493.242,0,893.088,52.193,893.088,116.612
			c0,64.387-399.846,116.612-893.088,116.612c-493.239,0-893.1-52.225-893.1-116.612C1193.812,3262.193,1593.672,3210,2086.912,3210
			"/>
	</g>
</g>
</svg>
