<?xml version="1.0" encoding="utf-8"?>
<!-- Generator: Adobe Illustrator 27.5.0, SVG Export Plug-In . SVG Version: 6.00 Build 0)  -->
<svg version="1.1" id="Layer_1" xmlns="http://www.w3.org/2000/svg" xmlns:xlink="http://www.w3.org/1999/xlink" x="0px" y="0px"
	 viewBox="0 0 4000 4000" style="enable-background:new 0 0 4000 4000;" xml:space="preserve">
<g>
	<g>
		<rect style="fill:#FFD55300;" width="4000" height="4000"/>
	</g>
	<g>
		<g>
			<path style="fill:#FFCA9F;" d="M1497.881,3221.985c0,0,148.95,28.918,131.97,90.295c-11.594,41.909-114.889,8.926-114.889,8.926
				s-101.602,74.507-222.734,63.156c-78.781-7.382-40.89-49.453-43.712-53.035c-2.822-3.582-63.116,25.617-85.21,13.745
				c-29.086-15.628-8.357-40.264-8.357-40.264c-0.326-1.424-21.345,1.606-28.109-6.449c-19.877-23.67,59.377-55.717,106.792-66.591
				C1349.107,3205.288,1497.881,3221.985,1497.881,3221.985z"/>
		</g>
		<g>
			<path style="fill:#650000;" d="M1317.855,3401.53c-8.904,0-17.947-0.398-27.119-1.257c-31.533-2.954-51.157-11.753-59.993-26.895
				c-3.801-6.511-5-13.147-4.839-19.297c-27.439,8.652-52.876,14.353-70.161,5.068c-16.382-8.801-21.704-20.496-23.286-28.76
				c-0.793-4.138-0.803-8.118-0.325-11.821c-6.421-1.506-12.869-4.382-17.529-9.934c-6.687-7.961-8.591-17.651-5.364-27.283
				c13.447-40.112,119.751-64.912,120.823-65.159c116.78-26.78,263.418-10.786,269.602-10.09l1.265,0.193
				c11.116,2.158,109.443,22.422,138.01,68.542c8.074,13.032,10.256,27.454,6.316,41.702c-2.981,10.776-10.027,19.431-20.374,25.029
				c-30.22,16.343-86.064,3.079-107.156-2.866C1494.564,3354.04,1414.991,3401.528,1317.855,3401.53z M1248.299,3315.034
				c5.073,0,9.128,1.782,12.769,6.404c6.516,8.269,2.502,17.236,0.347,22.056c-1.687,3.762-4.822,10.769-3.066,13.777
				c0.496,0.852,5.713,8.403,35.371,11.182c113.394,10.63,210.837-59.434,211.807-60.144l6.545-4.778l7.744,2.451
				c27.112,8.623,72.92,16.648,89.866,7.473c3.376-1.829,4.287-3.694,4.768-5.435c1.589-5.745,0.764-10.784-2.673-16.34
				c-15.906-25.703-79.465-46.602-116.292-53.879c-10.52-1.111-150.583-15.151-258.279,9.546
				c-42.034,9.639-84.016,29.07-95.115,40.566c3.052,0.339,6.675,0.396,8.259,0.422c4.731,0.073,17.295,0.271,20.181,12.92
				l1.768,7.756l-5.122,6.086c-1.37,1.726-3.914,6.428-3.318,9.333c0.408,1.997,2.964,4.39,7.012,6.565
				c8.833,4.749,43.435-6.682,54.802-10.432C1235.199,3317.419,1242.43,3315.034,1248.299,3315.034z"/>
		</g>
		<g>
			<path style="fill:#650000;" d="M1334.059,3293.389c-6.832,3.136-13.862,6.772-20.56,10.519
				c-6.725,3.787-13.306,7.762-19.581,12.023c-12.478,8.462-24.166,18.182-31.835,28.583c-5.264,7.139-15.32,8.659-22.459,3.394
				c-7.139-5.264-8.659-15.319-3.395-22.459c0.61-0.826,1.283-1.577,2.009-2.251l0.155-0.138
				c14.013-12.842,29.158-20.764,44.366-27.559c7.625-3.348,15.33-6.253,23.076-8.911c7.798-2.642,15.455-4.986,23.592-7.044
				c3.918-0.991,7.898,1.381,8.889,5.3c0.88,3.477-0.89,7.003-4.038,8.445L1334.059,3293.389z"/>
		</g>
		<g>
			<path style="fill:#650000;" d="M1236.758,3270.64c-13.275,7.582-26.504,15.631-39.316,23.927
				c-12.776,8.327-25.349,17.024-36.506,26.252c-6.83,5.648-16.945,4.69-22.593-2.139c-5.648-6.829-4.69-16.945,2.139-22.592
				c0.735-0.609,1.604-1.19,2.405-1.646c14.504-8.118,28.966-14.614,43.548-20.765c14.604-6.091,29.177-11.699,44.073-16.963
				c3.988-1.409,8.363,0.681,9.772,4.668c1.254,3.547-0.262,7.401-3.419,9.201L1236.758,3270.64z"/>
		</g>
		<g>
			<path style="fill:#FFCA9F;" d="M2463.925,3221.985c0,0-148.95,28.918-131.97,90.295c11.594,41.909,114.889,8.926,114.889,8.926
				s101.602,74.507,222.735,63.156c78.781-7.382,40.89-49.453,43.712-53.035s63.116,25.617,85.21,13.745
				c29.086-15.628,8.357-40.264,8.357-40.264c0.326-1.424,21.345,1.606,28.109-6.449c19.877-23.67-59.377-55.717-106.792-66.591
				C2612.699,3205.288,2463.925,3221.985,2463.925,3221.985z"/>
		</g>
		<g>
			<path style="fill:#650000;" d="M2643.951,3401.53c-97.148,0.005-176.709-47.488-199.871-62.827
				c-21.094,5.95-76.938,19.216-107.156,2.866c-10.347-5.598-17.393-14.253-20.374-25.029c-3.94-14.248-1.758-28.669,6.316-41.702
				c28.567-46.121,126.895-66.384,138.01-68.542l1.265-0.193c6.182-0.698,152.817-16.697,269.602,10.09
				c1.072,0.247,107.375,25.046,120.823,65.159c3.228,9.631,1.323,19.321-5.366,27.285c-4.661,5.549-11.108,8.425-17.527,9.932
				c0.479,3.706,0.466,7.683-0.325,11.824c-1.582,8.262-6.907,19.956-23.286,28.757c-17.288,9.285-42.725,3.584-70.161-5.068
				c0.161,6.15-1.038,12.786-4.839,19.297c-8.835,15.142-28.459,23.94-59.993,26.895
				C2661.908,3401.132,2652.848,3401.53,2643.951,3401.53z M2449.735,3303.515l6.56,4.805c0.957,0.698,98.428,70.769,211.792,60.132
				c29.658-2.778,34.875-10.33,35.371-11.182c1.755-3.008-1.379-10.015-3.066-13.777c-2.156-4.819-6.169-13.787,0.347-22.056
				c7.849-9.963,17.634-6.738,35.396-0.874c11.372,3.752,45.979,15.161,54.802,10.432c4.045-2.175,6.602-4.568,7.012-6.565
				c0.596-2.905-1.948-7.61-3.442-9.482l-4.8-6.016l1.57-7.678c2.886-12.649,15.449-12.847,20.181-12.92
				c1.584-0.027,5.208-0.083,8.259-0.422c-11.099-11.497-53.081-30.928-95.115-40.566c-107.695-24.697-247.754-10.657-258.279-9.546
				c-36.826,7.278-100.386,28.176-116.292,53.879c-3.438,5.557-4.263,10.596-2.673,16.34c0.481,1.741,1.392,3.606,4.768,5.435
				c16.943,9.177,62.751,1.15,89.866-7.473L2449.735,3303.515z"/>
		</g>
		<g>
			<path style="fill:#650000;" d="M2632.38,3279.545c8.136,2.058,15.794,4.402,23.592,7.044c7.746,2.657,15.451,5.562,23.075,8.911
				c15.208,6.795,30.353,14.717,44.366,27.559l0.089,0.081c6.54,5.993,6.983,16.153,0.99,22.693
				c-5.993,6.54-16.153,6.983-22.693,0.99c-0.757-0.694-1.482-1.516-2.075-2.309c-7.669-10.4-19.357-20.12-31.834-28.583
				c-6.275-4.26-12.857-8.236-19.581-12.023c-6.698-3.747-13.728-7.382-20.56-10.519l-0.216-0.099
				c-3.673-1.686-5.284-6.031-3.597-9.704C2625.431,3280.326,2629.023,3278.693,2632.38,3279.545z"/>
		</g>
		<g>
			<path style="fill:#650000;" d="M2731.298,3256.713c14.896,5.264,29.469,10.873,44.073,16.963
				c14.582,6.152,29.044,12.647,43.548,20.765c7.738,4.32,10.51,14.094,6.191,21.833c-4.32,7.738-14.095,10.51-21.833,6.191
				c-0.833-0.465-1.691-1.064-2.406-1.646c-11.157-9.227-23.73-17.925-36.507-26.252c-12.813-8.296-26.041-16.345-39.316-23.927
				l-0.101-0.058c-3.673-2.098-4.949-6.775-2.851-10.448C2723.962,3256.868,2727.872,3255.499,2731.298,3256.713z"/>
		</g>
		<g>
			<g>
				<path style="fill:#B74729;" d="M2495.311,2550.161c0,0,221.882,49.41,334.455-155.052
					c110.069-199.915-91.724-446.937-90.906-630.952c1.107-249.105,175.231-467.645,458.736-388.386
					c287.606,80.405,244.667,432.8,100.385,519.392c-84.993,51.01-156.632,27.599-179.576-66.112
					c-22.945-93.711,96.856-150.634,56.64-224.765s-197.309-74.54-233.5,77.62s89.67,417.608,95.338,587.185
					c5.3,158.541-92.405,313.087-232.396,385.832c-166.919,86.737-303.514,64.629-303.514,64.629L2495.311,2550.161z"/>
			</g>
			<g style="opacity:0.35;">
				<path style="fill:#FFFFFF;" d="M3408.598,1690.653c-3.896-112.431-64.28-226.318-212.641-267.772
					c-268.101-74.94-438.326,116.396-457.017,348.034c-0.051-2.265-0.059-4.529-0.068-6.749
					c1.109-249.098,175.206-467.676,458.736-388.408C3366.83,1423.078,3421.59,1564.537,3408.598,1690.653z"/>
			</g>
			<g style="opacity:0.3;">
				<path style="fill:#650000;" d="M3037.003,2274.015c3.168,156.801-93.998,308.912-232.536,380.924
					c-166.91,86.731-303.5,64.623-303.5,64.623l-2.864-85.975c54.631,1.043,166.442-6.27,294.865-67.842
					C2914.708,2507.334,3007.324,2396.892,3037.003,2274.015z"/>
			</g>
			<g style="opacity:0.3;">
				<path style="fill:#650000;" d="M2941.533,1681.908c-0.769,3.324-1.497,6.694-2.138,10.11
					c-3.292-36.502-2.197-70.239,5.541-99.783c39.85-152.291,210.775-152.353,254.318-78.315
					c20.582,34.932,2.296,66.151-20.103,99.229c-1.116-2.912-2.449-5.875-4.086-8.848
					C3134.833,1530.161,2977.722,1529.75,2941.533,1681.908z"/>
			</g>
			<g style="opacity:0.3;">
				<path style="fill:#650000;" d="M3399.097,1743.203c-17.392,66.593-53.816,123.554-101.122,151.973
					c-85.006,50.993-156.612,27.593-179.574-66.137c-8.571-34.902,2.701-64.671,18.114-92.161c0.108,0.657,0.259,1.315,0.453,1.974
					c24.662,93.659,102.543,116.844,195.175,65.596C3357.709,1790.283,3380.431,1769.099,3399.097,1743.203z"/>
			</g>
			<g>
				<path style="fill:#650000;" d="M2544.31,2738.168c-27.444,0-43.965-2.529-45.891-2.842l-12.979-2.1l-6.79-203.149l20.115,4.48
					c8.645,1.897,211.746,44.019,317-147.156c64.883-117.844,14.81-254.968-33.618-387.578
					c-30.645-83.921-59.592-163.188-59.27-235.737c0.657-147.517,60.037-280.139,158.838-354.761
					c87.534-66.108,198.257-83.032,320.183-48.945c124.143,34.707,204.866,125.283,221.472,248.506
					c16.323,121.13-34.045,250.093-117.168,299.978c-48.577,29.158-94.077,36.299-131.582,20.657
					c-35.022-14.604-59.829-48.032-71.738-96.67c-12.908-52.72,12.966-94.009,35.793-130.439
					c23.735-37.876,37.51-62.51,22.324-90.505c-15.386-28.359-53.965-44.49-93.787-39.202
					c-53.838,7.136-95.005,49.343-110.122,112.9c-20.134,84.661,13.367,210.322,45.764,331.846
					c24.463,91.758,47.571,178.428,50,251.106c5.41,161.863-91.44,322.832-241.001,400.547
					C2698.585,2727.963,2599.432,2738.166,2544.31,2738.168z M2516.478,2705.083c37.153,2.681,149.773,3.667,280.64-64.338
					c138.867-72.161,228.804-221.301,223.794-371.118c-2.307-69.036-24.958-153.994-48.938-243.943
					c-33.42-125.352-67.976-254.973-45.977-347.476c18.303-76.956,69.524-128.24,137.014-137.185
					c53.523-7.092,104.175,15.269,126.079,55.644c24.856,45.816,0.359,84.91-23.333,122.717
					c-21.355,34.08-41.526,66.27-31.831,105.864c9.397,38.379,27.722,64.236,52.993,74.773
					c27.759,11.585,63.315,5.161,102.837-18.559c71.643-42.998,116.421-160.852,101.938-268.308
					c-8.711-64.626-46.067-179.404-198.401-221.992c-111.968-31.301-213.044-16.201-292.317,43.667
					c-90.896,68.652-145.527,191.792-146.138,329.399c-0.298,66.821,27.695,143.476,57.329,224.631
					c48.508,132.832,103.486,283.386,31.594,413.958c-61.15,111.064-153.638,149.504-220.459,162.192
					c-47.327,8.984-88.235,6.709-111.377,3.94L2516.478,2705.083z"/>
			</g>
		</g>
		<g>
			<path style="fill:#FFCA9F;" d="M3008.301,1715.674c0,0,219.738,51.384,210.656,3.691c-9.082-47.693-81.159-66.935-81.159-66.935
				s118.173-134.078,113.308-204.099c-5.521-79.468-83.835-6.766-110.426,14.316c0,0,46.701-102.783,16.522-118.363
				c-25.476-13.152-106.041,83.133-106.041,83.133s33.552-104.113-7.669-109.498c-54.229-7.085-132.321,185.268-233.019,230.124
				L3008.301,1715.674z"/>
		</g>
		<g>
			<path style="fill:#650000;" d="M3169.388,1755.463c-53.367,0-126.75-15.349-164.724-24.229c-2.468-0.578-4.761-1.733-6.694-3.369
				l-197.827-167.632c-4.192-3.555-6.265-9.011-5.488-14.453c0.779-5.442,4.297-10.1,9.319-12.336
				c48.12-21.436,92.332-81.524,131.338-134.539c41.714-56.692,74.653-101.501,110.251-96.831
				c10.972,1.431,19.927,7.173,25.898,16.599c8.63,13.628,9.631,34.289,7.642,54.417c31.589-31.121,64.307-53.919,85.432-43.005
				c24.761,12.783,21.035,50.571,10.889,85.603c23.513-15.654,46.282-24.856,65.532-16.572
				c15.562,6.697,24.341,22.881,26.094,48.105c4.241,61.082-68.796,157.402-102.205,198.018
				c25.071,10.847,62.568,33.106,69.81,71.138c1.873,9.827-0.989,18.972-8.054,25.752
				C3216.468,1751.848,3195.279,1755.463,3169.388,1755.463z M3015.68,1700.981c85.327,19.622,169.734,28.188,187.09,19.199
				c-7.588-29.578-52.166-47.734-69.116-52.319c-5.332-1.44-9.553-5.537-11.145-10.825c-1.589-5.288-0.349-11.028,3.301-15.171
				c31.638-35.92,112.961-140.51,109.355-192.427c-0.952-13.711-4.282-19.861-6.843-20.964c-9.084-3.921-32.388,9.46-69.211,39.773
				c-3.198,2.632-6.062,4.988-8.503,6.921c-5.781,4.583-13.953,4.612-19.763,0.068c-5.815-4.541-7.764-12.478-4.714-19.197
				c20.239-44.609,29.214-87.412,24.097-96.856c-13.567,2.608-53.059,38.174-86.812,78.489c-4.907,5.862-13.279,7.419-19.968,3.733
				c-6.694-3.691-9.836-11.606-7.498-18.884c8.613-26.809,17.275-72.922,8.508-86.75c-0.957-1.511-1.68-1.829-3.035-2.007
				c-16.899-2.19-52.085,45.642-80.369,84.084c-35.913,48.809-75.981,103.274-122.483,133.054L3015.68,1700.981z"/>
		</g>
		<g>
			<path style="fill:#B74729;" d="M1423.697,2328.095c-24.25-9.349-39.791-16.46-40.75-16.86l-0.04-0.04
				c-338.705-15.101-478.454-189.408-521.122-264.795c-0.04-0.04-0.04-0.04-0.04-0.04c-1.997-3.556-3.755-6.872-5.353-9.948
				c-70.274-136.273-35.637-327.08,88.891-415.491c75.108-53.295,172.309-85.735,269.07-92.487
				c74.029-5.153,147.819,4.754,211.261,31.841c68.117,29.084,94.245,108.747,89.331,156.848
				c-14.782,144.543-131.359,182.057-278.499,224.206c-14.342,4.115-25.648,8.909-34.318,14.302
				c-75.108,46.303,47.782,133.117,114.859,152.653c0,0,2.317-1.878,6.672-5.194c41.869-31.641,270.389-192.284,380.414-14.702
				c19.336,31.241,34.997,72.95,45.344,127.724c0.919,4.674,1.758,9.428,2.557,14.302
				C1788.051,2448.587,1526.97,2367.886,1423.697,2328.095z"/>
		</g>
		<g>
			<path style="fill:#650000;" d="M1630.226,2392.202c-103.357,0.007-229.448-55.303-251.16-65.188
				c-154.336-7.356-284.968-47.837-388.333-120.342c-91.294-64.038-134.307-135.278-148.562-162.935
				c-35.603-69.065-46.548-155.159-30.032-236.206c17.156-84.19,61.155-155.086,123.894-199.624
				c139.714-99.185,348.257-125.41,495.874-62.341c77.095,32.932,104.268,121.089,98.943,173.169
				c-16.323,159.573-149.255,197.639-289.99,237.942c-21.089,6.038-46.235,16.899-46.274,34.351
				c-0.076,31.838,68.323,82.947,121.982,100.413c35.935-12.817,238.494-79.717,361.533-7.146
				c50.005,29.492,80.181,77.886,89.688,143.831c9.304,64.556-4.541,111.055-41.157,138.206
				C1701.302,2385.112,1667.208,2392.197,1630.226,2392.202z M1251.549,1543.11c-104.128,0-213.552,31.607-297.014,90.857
				c-114.143,81.035-152.59,261.98-83.955,395.127c13.171,25.552,53.032,91.455,138.508,151.414
				c99.001,69.446,225.017,108.044,374.543,114.722c2.097,0.093,4.158,0.601,6.06,1.489
				c64.333,30.095,246.858,96.646,317.915,43.931c26.443-19.614,36.047-55.94,28.547-107.964
				c-8.052-55.854-33.03-96.509-74.246-120.835c-119.268-70.388-337.068,10.566-339.255,11.392
				c-3.24,1.228-6.802,1.365-10.122,0.396c-52.388-15.266-150.044-74.292-149.907-132.686c0.049-20.596,12.134-48.594,69.438-65.002
				c157.339-45.056,253.821-81.704,266.992-210.466c4.209-41.143-18.21-114.258-79.7-140.527
				C1369.076,1553.476,1311.178,1543.11,1251.549,1543.11z"/>
		</g>
		<g>
			<path style="fill:#B74729;" d="M3088.658,1676.252c-0.4,66.878-30.243,135.115-64.441,183.575
				c-167.915,238.508-589.198,349.253-589.198,349.253s42.548,81.94,121.571,249.734c17.698,37.594,37.234,79.542,58.528,125.806
				c88.052,191.206,153.932,506.699,63.083,626.033c-50.298,66.119-253.889,65.56-299.353,17.059
				c-35.157-37.514-52.136-62.244-106.27-150.177c-95.163-154.571-273.026-156.568-432.83-162.88
				c-99.997-3.956-204.47-2.637-226.483,109.546c-18.577,94.724-23.611,178.821-76.187,214.537
				c-26.607,18.058-69.075,22.053-123.569,20.655c-118.095-2.996-210.462-93.525-240.905-211.461
				c-17.778-68.835-25.968-130.72-10.667-217.014c32.48-183.176,218.652-226.043,218.652-226.043s25.849-135.594,2.357-293.64
				l-0.04-0.04c-3.076-20.974-7.071-42.388-12.105-63.882l126.126-60.166l207.146-98.759l358.561-170.991
				c130.52-18.697,241.704-64.042,338.146-118.176c30.842-17.259,60.126-35.436,88.092-53.934
				c146.141-96.801,255.127-202.192,347.974-233.234c128.563-42.987,202.752,28.405,224.765,63.642
				c2.637,4.275,5.074,8.59,7.311,12.944C3083.025,1616.286,3088.818,1646.13,3088.658,1676.252z"/>
		</g>
		<g style="opacity:0.35;">
			<path style="fill:#FFFFFF;" d="M3088.658,1676.252c-50.738-140.188-206.627-167.675-327.04-75.787
				c-93.845,71.632-175.984,113.062-272.746,144.823c146.141-96.801,255.127-202.192,347.974-233.234
				c128.563-42.987,202.752,28.405,224.765,63.642c2.637,4.275,5.074,8.59,7.311,12.944
				C3083.025,1616.286,3088.818,1646.13,3088.658,1676.252z"/>
		</g>
		<g style="opacity:0.3;">
			<path style="fill:#650000;" d="M3024.217,1859.828c-167.915,238.508-589.198,349.253-589.198,349.253
				s42.548,81.94,121.571,249.734c-160.483-222.168-187.291-113.142-250.493-131.32c-50.378-14.542,75.707-70.593,57.13-101.755
				c-18.537-31.201-192.964-28.725-65.8-80.741c98.719-40.35,227.801,25.409,611.411-223.446
				c159.804-103.673,165.637-265.116,160.084-332.913C3114.347,1677.731,3073.756,1789.514,3024.217,1859.828z"/>
		</g>
		<g>
			<path style="fill:#650000;" d="M2513.424,3278.347c-54.363,0-118.516-10.127-146.25-39.709
				c-36.414-38.838-54.727-65.872-108.191-152.71c-87.749-142.52-248.992-148.728-404.924-154.734l-14.954-0.579
				c-103.821-4.119-191.27,0.344-210.154,96.655c-3.171,16.184-5.959,32.141-8.657,47.571
				c-13.481,77.144-25.125,143.767-74.255,177.129c-26.663,18.105-66.423,25.125-132.944,23.418
				c-119.368-3.035-222.236-92.837-255.977-223.459c-18.005-69.7-26.748-134.436-10.901-223.818
				c29.338-165.464,179.036-222.996,220.283-235.83c5.95-38.584,24.729-187.483-11.255-341.345
				c-2.009-8.594,3.328-17.19,11.921-19.202c8.604-1.997,17.19,3.33,19.202,11.921c43.21,184.773,11.316,356.965,9.937,364.207
				c-1.187,6.223-5.938,11.16-12.112,12.583c-7.166,1.67-176.321,43.005-206.506,213.247c-14.89,83.982-7.068,142.71,10.378,210.244
				c30.132,116.66,120.891,196.833,225.84,199.504c58.538,1.462,93.75-4.038,114.18-17.91
				c37.932-25.757,48.494-86.201,60.725-156.189c2.725-15.591,5.542-31.711,8.779-48.218
				c25.686-131.018,156.331-125.857,242.776-122.446l14.924,0.581c156.658,6.033,334.216,12.869,430.911,169.912
				c55.471,90.1,71.067,112.173,104.29,147.607c18.887,20.149,79.043,32.417,143.044,29.099
				c62.764-3.22,113.323-20.422,131.943-44.89c87.742-115.283,18.706-428.159-64.863-609.695
				c-114.805-249.387-179.16-373.599-179.797-374.824c-2.236-4.309-2.395-9.404-0.427-13.843s5.847-7.744,10.544-8.979
				c4.158-1.094,417.646-112.1,580.22-342.996c49.683-70.566,89.153-182.703,36.882-266.497
				c-24.124-38.677-94.69-94.197-206.106-56.953c-55.884,18.679-120.308,67.344-194.905,123.694
				c-144.773,109.36-324.951,245.464-582.114,282.327c-8.76,1.25-16.836-4.817-18.086-13.55c-1.252-8.738,4.814-16.833,13.55-18.086
				c249.009-35.696,425.54-169.045,567.385-276.194c76.836-58.042,143.196-108.167,204.038-128.503
				c130.281-43.555,214.275,23.728,243.357,70.351c60.549,97.066,17.444,223.25-37.869,301.809
				c-150.803,214.185-493.64,325.2-579.185,350.169c21.426,42.336,80.808,161.604,171.545,358.711
				c83.625,181.66,160.93,511.462,61.265,642.415c-35.359,46.455-120.691,55.654-155.74,57.454
				C2528.189,3278.154,2520.897,3278.347,2513.424,3278.347z M1380.606,2604.865h0.051H1380.606z"/>
		</g>
		<g>
			<path style="fill:#FFCA9F;" d="M2232.572,2598.148c0,166.074-168.491,280.537-380.247,280.537
				c-219.58,0-357.039-118.47-367.852-275.482c-11.436-166.053,130.458-357.565,328.557-385.423
				C2055.657,2183.66,2232.572,2400.83,2232.572,2598.148z"/>
		</g>
		<g>
			<g>
				<path style="fill:#FFC83E;" d="M2161.375,1985.517c0,0-151.401,381.954-388.842,398.035
					c-275.576,18.664-342.531-426.141-342.531-426.141l-29.561-2.817c0,0,37.298,487.679,371.686,473.512
					c301.115-12.757,429.419-453.794,429.419-453.794L2161.375,1985.517z"/>
			</g>
			<g style="opacity:0.3;">
				<path style="fill:#650000;" d="M2201.53,1974.318c0,0-128.283,441.02-429.395,453.804
					c-334.39,14.143-371.705-473.54-371.705-473.54l14.263,1.358c10.907,100.837,69.914,459.637,357.442,447.492
					c253.65-10.787,378.976-325.442,412.216-424.32L2201.53,1974.318z"/>
			</g>
			<g>
				<path style="fill:#650000;" d="M1758.221,2440.39c-135.295,0.007-241.692-82.351-308.359-239.036
					c-51.304-120.576-60.981-240.789-61.37-245.847c-0.269-3.525,1.033-6.99,3.555-9.468c2.524-2.478,6.013-3.726,9.534-3.377
					l29.561,2.817c5.476,0.523,9.893,4.707,10.713,10.144c0.654,4.338,68.572,433.738,329.868,415.969
					c227.122-15.383,377.024-386.746,378.513-390.496c1.379-3.482,4.312-6.118,7.92-7.127l40.171-11.204
					c4.182-1.164,8.684,0.027,11.743,3.118c3.057,3.093,4.199,7.6,2.986,11.775c-1.328,4.568-33.34,113.135-103.127,225.105
					c-93.406,149.863-210.039,231.926-337.292,237.317C1767.801,2440.288,1762.982,2440.39,1758.221,2440.39z M1413.873,1967.915
					c4.165,35.373,18.411,131.123,58.257,224.551c65.698,154.05,166.46,229.333,299.49,223.667
					c251.831-10.669,381.548-337.537,411.57-424.255l-12.93,3.606c-20.505,49.443-167.739,384.504-396.917,400.027
					c-118.044,8.032-217.012-65.635-286.262-212.93c-43.403-92.314-62.188-184.902-67.378-214.111L1413.873,1967.915z"/>
			</g>
			<g>
				<circle style="fill:#FFC83E;" cx="1750.249" cy="2519.283" r="135.717"/>
			</g>
			<g>
				<path style="fill:#FC9E17;" d="M1857.606,2517.903c0,59.302-48.063,107.366-107.366,107.366
					c-59.303,0-107.366-48.063-107.366-107.366c0-9.931,1.349-19.495,3.883-28.609c12.547,45.407,54.112,78.716,103.483,78.716
					c49.371,0,90.936-33.309,103.483-78.716C1856.257,2498.408,1857.606,2507.971,1857.606,2517.903z"/>
			</g>
			<g>
				<path style="fill:#650000;" d="M1750.25,2383.566c74.954,0,135.715,60.762,135.715,135.718
					c0,74.954-60.762,135.715-135.715,135.715c-74.956,0-135.718-60.762-135.718-135.715
					C1614.532,2444.328,1675.294,2383.566,1750.25,2383.566 M1750.25,2353.566c-91.377,0-165.718,74.341-165.718,165.718
					c0,91.375,74.341,165.715,165.718,165.715s165.715-74.341,165.715-165.715
					C1915.965,2427.907,1841.627,2353.566,1750.25,2353.566L1750.25,2353.566z"/>
			</g>
			<g>
				<g>
					<path style="fill:#FFFFFF;" d="M1794.246,2492.664l-34.851-4.786l0.794-5.78c0.845-6.153,0.995-10.234,0.451-12.243
						c-0.545-2.008-2.14-3.194-4.785-3.558c-2.128-0.292-3.836,0.308-5.125,1.801c-1.289,1.493-2.159,3.878-2.609,7.156
						c-0.75,5.463-0.183,9.438,1.703,11.923c1.828,2.478,7.512,7.594,17.052,15.35c8.122,6.564,13.598,11.491,16.427,14.78
						c2.83,3.289,4.994,7.688,6.493,13.197c1.499,5.509,1.716,12.145,0.65,19.908c-1.706,12.422-6.035,21.759-12.987,28.011
						s-16.524,9.391-28.715,9.416l-1.801,13.112l-16.045-2.204l1.86-13.543c-9.19-2.2-16.836-6.897-22.938-14.093
						c-6.102-7.195-8.086-18.557-5.954-34.084l0.936-6.815l34.851,4.786l-1.173,8.54c-1.287,9.374-1.728,15.246-1.32,17.616
						c0.407,2.37,1.99,3.745,4.751,4.124c2.358,0.324,4.22-0.226,5.588-1.65c1.367-1.423,2.264-3.688,2.691-6.793
						c1.074-7.821,1.296-13.489,0.665-17.003c-0.631-3.514-3.865-7.694-9.704-12.539c-9.723-8.132-16.282-14.028-19.676-17.687
						s-6.095-8.527-8.102-14.604s-2.517-12.709-1.53-19.898c1.429-10.409,5.498-18.171,12.206-23.285s16.052-7.552,28.031-7.313
						l1.528-11.128l16.045,2.204l-1.528,11.128c10.565,2.857,18.12,7.572,22.667,14.143c4.547,6.572,6.113,15.005,4.7,25.299
						C1795.294,2487.593,1794.879,2489.763,1794.246,2492.664z"/>
				</g>
			</g>
		</g>
		<g>
			<g>
				<path style="fill:#FFCA9F;" d="M2372.118,1394.85c0,0,4.919-121.328,132.518-137.947
					c122.564-15.964,193.145,95.86,190.766,187.19c-2.499,95.959-45.279,152.427-115.865,185.011
					c-73.732,34.036-156.171,26.182-156.171,26.182"/>
			</g>
			<g style="opacity:0.35;">
				<path style="fill:#FFFFFF;" d="M2504.635,1256.902c-65.789,8.569-98.92,44.965-115.624,78.223
					c19.629-22.617,49.626-42.232,95.624-48.223c122.564-15.964,193.145,95.86,190.766,187.191
					c-1.055,40.497-9.36,73.889-23.827,101.493c26.837-32.301,42.356-75.013,43.827-131.493
					C2697.78,1352.762,2627.199,1240.939,2504.635,1256.902z"/>
			</g>
			<g>
				<path style="fill:#F28475;" d="M2378.903,1447.357c0,0,3.354-65.942,76.917-75.519c70.66-9.199,110.833,51.256,109.071,100.889
					c-1.851,52.148-26.733,83.013-67.527,101.019c-42.613,18.809-90.061,14.895-90.061,14.895"/>
			</g>
			<g>
				<path style="fill:#650000;" d="M2418.346,1604.965c-7.231,0-11.753-0.349-12.356-0.4c-8.796-0.725-15.339-8.442-14.612-17.239
					c0.723-8.796,8.406-15.376,17.239-14.612c0.415,0.027,44.104,3.267,82.295-13.589c38.066-16.802,56.499-44.436,58.01-86.965
					c0.857-24.158-9.871-49.412-27.996-65.911c-11.741-10.686-32.197-22.568-63.042-18.564
					c-57.957,7.544-62.681,55.181-63.027,60.588c-0.564,8.765-8.059,15.474-16.87,14.983c-8.77-0.505-15.491-7.937-15.044-16.711
					c1.394-27.412,22.17-81.616,90.815-90.554c42.996-5.601,71.943,11.392,88.679,26.624c24.883,22.646,39.607,57.393,38.423,90.679
					c-1.938,54.646-27.859,93.362-77.043,115.071C2471.136,1602.79,2436.356,1604.965,2418.346,1604.965z"/>
			</g>
			<g>
				<path style="fill:#650000;" d="M2445.514,1672.084c-13.831,0-22.573-0.786-23.665-0.891
					c-8.787-0.837-15.229-8.638-14.392-17.424c0.837-8.784,8.657-15.232,17.424-14.392c0.771,0.073,79.224,6.948,147.959-24.783
					c70.53-32.556,104.399-86.868,106.587-170.916c1.301-49.988-21.357-103.472-57.722-136.255
					c-31.484-28.384-71.245-40.376-115.007-34.673c-112.939,14.71-118.435,118.342-118.613,122.747
					c-0.359,8.818-7.876,15.681-16.614,15.32c-8.818-0.356-15.679-7.795-15.32-16.614c0.054-1.348,7.078-134.998,146.421-153.147
					c53.303-6.943,101.899,7.798,140.535,42.627c43.667,39.37,69.827,100.994,68.269,160.825
					c-2.505,96.262-43.44,161.389-125.142,199.104C2533.138,1668.122,2476.537,1672.084,2445.514,1672.084z"/>
			</g>
			<g>
				<path style="fill:#FFCA9F;" d="M1117.194,1557.028c0,0-35.602-116.091-163.233-99.726
					c-122.595,15.719-162.429,141.813-136.911,229.537c26.812,92.171,82.542,135.908,159.092,149.477
					c79.962,14.173,157.696-14.38,157.696-14.38"/>
			</g>
			<g style="opacity:0.35;">
				<path style="fill:#FFFFFF;" d="M842.05,1716.839c-25.518-87.724,14.316-213.818,136.911-229.537
					c57.346-7.354,96.068,12.048,121.375,35.631c-21.219-32.816-65.134-76.048-146.375-65.631
					c-122.595,15.719-162.429,141.813-136.911,229.537c12.672,43.564,31.877,76.193,56.615,100.046
					C860.706,1767.507,850.061,1744.378,842.05,1716.839z"/>
			</g>
			<g style="opacity:0.3;">
				<path style="fill:#650000;" d="M817.054,1686.826c26.818,92.192,82.543,135.937,159.081,149.503
					c79.959,14.151,157.706-14.412,157.706-14.412l-3.566-56.721c-29.926,8.201-91.014,20.925-153.352,9.858
					c-77.746-13.791-135.855-55.973-167.205-142.637C809.605,1651.252,812.077,1669.79,817.054,1686.826z"/>
			</g>
			<g style="opacity:0.3;">
				<path style="fill:#650000;" d="M2695.396,1444.081c-2.499,95.981-45.273,152.455-115.848,185.033
					c-73.734,34.013-156.188,26.154-156.188,26.154l-10.97-55.764c31.028,0.324,93.344-2.901,150.82-29.452
					c71.686-33.103,117.161-88.672,125.45-180.458C2693.557,1407.782,2695.879,1426.339,2695.396,1444.081z"/>
			</g>
			<g>
				<path style="fill:#F28475;" d="M1123.98,1609.535c0,0-20.008-62.923-93.589-53.484c-70.677,9.067-94.161,77.748-79.84,125.302
					c15.047,49.965,46.958,73.49,90.99,80.534c45.995,7.358,90.889-8.49,90.889-8.49"/>
			</g>
			<g>
				<path style="fill:#F28475;" d="M950.557,1681.359c15.047,49.952,46.944,73.47,90.969,80.518c5.045,0.792,10.056,1.324,15,1.635
					c40.311,2.432,75.911-10.115,75.911-10.115l-8.442-143.877c0,0-5.255-16.544-20.331-31.401
					c-14.295-14.121-37.4-26.684-73.267-22.087C959.716,1565.128,936.234,1633.785,950.557,1681.359z"/>
			</g>
			<g style="opacity:0.3;">
				<path style="fill:#650000;" d="M1040.728,1717.954c7.248,20.192,19.685,34.347,36.482,43.711
					c40.069,0.561,75.921-10.04,75.921-10.04l-3.854-108.375c0,0-4.71-12.326-19.254-23.067c-1.918,0.163-3.829,0.381-5.81,0.637
					C1053.528,1629.898,1027.973,1682.512,1040.728,1717.954z"/>
			</g>
			<g style="opacity:0.3;">
				<path style="fill:#650000;" d="M2505.264,1528.687c-1.876,21.371-10.306,38.222-24.172,51.55
					c-38.61,10.729-75.979,9.59-75.979,9.59l-23.823-105.794c0,0,1.422-13.118,12.757-27.204c1.896-0.33,3.8-0.605,5.781-0.861
					C2470.499,1446.778,2508.59,1491.166,2505.264,1528.687z"/>
			</g>
			<g>
				<path style="fill:#650000;" d="M1067.152,1779.816c-9.092,0-18.569-0.62-28.135-2.151
					c-53.086-8.491-87.998-39.346-103.767-91.707c-9.604-31.892-4.197-69.241,14.111-97.468
					c12.312-18.987,36.013-42.776,78.997-48.289c68.684-8.806,102.537,38.335,110.852,64.492
					c2.673,8.411-1.978,17.395-10.388,20.071c-8.376,2.668-17.336-1.948-20.044-10.303c-1.738-5.217-18.433-49.998-76.353-42.561
					c-30.842,3.958-47.612,20.662-56.25,33.98c-13.337,20.564-17.292,47.717-10.32,70.862c12.27,40.752,37.122,62.791,78.21,69.365
					c41.223,6.587,82.654-7.644,83.069-7.788c8.328-2.893,17.441,1.47,20.361,9.788c2.92,8.318-1.433,17.424-9.746,20.359
					C1136.144,1769.033,1105.055,1779.814,1067.152,1779.816z"/>
			</g>
			<g>
				<path style="fill:#650000;" d="M1023.197,1856.264c-16.05,0.002-32.864-1.204-49.846-4.214
					c-88.604-15.703-144.748-68.284-171.646-160.747c-16.716-57.468-7.082-123.721,25.142-172.896
					c28.513-43.508,71.765-70.12,125.081-76.956c139.399-17.878,180.149,109.6,180.544,110.891
					c2.588,8.438-2.156,17.376-10.593,19.964c-8.43,2.585-17.351-2.144-19.954-10.559c-1.375-4.382-33.73-103.003-145.933-88.596
					c-43.765,5.613-79.18,27.319-102.412,62.774c-26.836,40.952-35.154,98.438-21.186,146.453
					c23.484,80.732,70.046,124.646,146.536,138.203c74.556,13.22,148.674-13.381,149.414-13.65
					c8.296-3.035,17.461,1.235,20.493,9.512c3.035,8.281-1.208,17.454-9.487,20.493
					C1136.69,1837.912,1085.826,1856.264,1023.197,1856.264z"/>
			</g>
			<g>
				<path style="fill:#B17E4F;" d="M1828.202,737.682l-27.247-1.838C1810.024,736.244,1819.133,736.843,1828.202,737.682z"/>
			</g>
			<g>
				<path style="fill:#B17E4F;" d="M1829.999,737.842c-0.599-0.08-1.198-0.12-1.798-0.16l2.357,0.16H1829.999z"/>
			</g>
			<g>
				<path style="fill:#B74729;" d="M2495.625,1784.36c-11.346,86.894-77.106,144.463-174.227,190.846l-149.777,19.336
					l-851.957,110.105c-105.71-20.135-183.935-59.128-216.974-140.268c-23.651-57.969-23.331-168.394,50.938-192.165
					c-61.804-67.118-104.152-173.227-123.049-275.822c-46.902-254.688,82.579-497.91,296.037-637.06
					c-3.675-22.532-5.114-43.267-5.114-61.884c0-41.03,6.992-71.872,12.305-89.53c2.637-8.59,12.625-12.505,20.415-7.95
					c22.492,13.104,47.622,37.314,62.763,43.466c8.27,3.356,17.499-1.758,19.017-10.547c6.832-39.552,20.375-90.17,30.243-111.024
					c4.075-8.669,15.421-10.747,22.333-4.115c24.969,24.091,84.217,69.515,161.602,89.251
					c72.072,18.417,121.691,25.808,150.416,28.805h0.04c0.12,0,0.2,0,0.32,0.04c16.779,1.758,26.368,1.958,29.044,1.998
					c0.2,0,0.4,0.04,0.599,0.04c0.12,0,0.16,0,0.16,0c318.171,28.165,591.915,260.161,615.606,575.535
					c7.791,104.033-6.153,217.454-48.86,298.035c49.26,2.597,78.743,46.304,91.647,93.805
					C2496.663,1732.784,2498.621,1761.588,2495.625,1784.36z"/>
			</g>
			<g style="opacity:0.3;">
				<path style="fill:#650000;" d="M2495.625,1784.36c-11.346,86.894-77.106,144.463-174.227,190.846l-149.777,19.336
					c189.688-63.522,288.167-163.719,317.531-289.286C2496.663,1732.784,2498.621,1761.588,2495.625,1784.36z"/>
			</g>
			<g style="opacity:0.35;">
				<path style="fill:#FFFFFF;" d="M1030.598,1491.39c0.029,0.225,0.091,0.407,0.12,0.632
					c-17.236-231.632,109.107-460.793,328.814-597.941c-11.768-72.237-14.678-112.453-10.048-129.47
					c2.357-8.664,5.052-11.567,12.826-7.021c22.495,13.138,47.631,37.302,62.763,43.482c8.264,3.342,17.526-1.77,19.052-10.561
					c6.827-39.548,20.319-90.184,30.213-111.006c4.089-8.664,15.454-10.741,22.32-4.1c24.972,24.071,83.44,72.86,161.631,89.216
					c65.731,13.784,114.84,23.102,145.201,28.569c0.005,0.037,0.042,0.033,0.08,0.028c311.572,12.657,588.43,221.23,642.858,515.883
					c-0.029-0.225-0.021-0.454-0.05-0.679c-24.584-327.023-317.925-564.3-650.903-577.841c-0.037,0.005-0.075,0.01-0.08-0.028
					c-30.362-5.467-79.47-14.785-145.201-28.569c-78.191-16.357-136.659-65.146-161.631-89.216c-6.866-6.641-18.231-4.564-22.32,4.1
					c-9.894,20.821-23.386,71.458-30.213,111.006c-1.525,8.79-10.788,13.903-19.052,10.561
					c-15.132-6.18-40.268-30.344-62.763-43.482c-7.773-4.546-17.761-0.632-20.377,7.957c-7.787,25.643-19.004,79.179-7.236,151.416
					C1113.162,993.499,983.694,1236.714,1030.598,1491.39z"/>
			</g>
			<g>
				<path style="fill:#650000;" d="M1319.698,2120.627c-0.991,0-1.997-0.093-3.008-0.286
					c-124.053-23.63-196.76-71.274-228.816-149.937c-16.555-40.576-23.621-107.288-0.01-157.864
					c9.338-20.007,22.898-35.576,39.822-45.928c-52.537-64.895-93.208-160.867-112.803-267.329
					c-23.096-125.403-5.22-253.933,51.699-371.694c52.969-109.587,136.76-204.817,242.71-275.969
					c-9.661-70.291,1.47-122.722,9.243-148.335c2.668-8.799,9.116-15.774,17.688-19.138c8.579-3.372,18.079-2.642,26.047,2.009
					c11.379,6.641,23.191,15.745,33.613,23.779c9.155,7.056,18.584,14.326,24.836,17.615c6.658-37.407,19.868-88.879,31.064-112.534
					c4.121-8.708,12.234-14.937,21.702-16.667c9.46-1.724,19.253,1.23,26.184,7.915c10.793,10.405,68.972,63.433,154.46,85.249
					c70.239,17.922,118.914,25.266,147.09,28.274l0.12,0.012c0.137,0.015,0.278,0.029,0.413,0.044
					c9.973,0.493,19.209,1.128,28.13,1.931l2.275,0.176c160.601,14.229,312.451,79.634,427.581,184.165
					c119.082,108.122,191.025,252.349,202.573,406.113c8.079,108.003-6.863,211.16-41.14,287.224
					c18.975,5.708,36.03,17.307,50.137,34.258c35.698,42.9,45.852,109.236,40.176,152.715
					c-11.001,84.219-69.221,148.782-183.218,203.186c-7.966,3.804-17.505,0.422-21.304-7.539
					c-3.801-7.964-0.427-17.502,7.539-21.304c104.717-49.978,155.696-105.022,165.293-178.481
					c4.834-37.048-5.107-94.548-33.054-128.132c-13.911-16.716-30.754-25.713-50.061-26.736l-24.99-1.323l11.714-22.114
					c38.245-72.205,55.391-177.676,47.039-289.365c-22.202-295.569-274.158-531.133-599.414-560.679l-0.032,0.005l-1.528-0.117
					c-3.635-0.041-13.838-0.337-30.955-2.134l-1.121-0.12c-29.692-3.176-79.507-10.806-151.165-29.092
					c-88.828-22.668-150.781-76.355-166.699-91.267c-8.867,20.391-21.294,66.899-27.771,104.377
					c-1.55,8.977-7.009,16.665-14.973,21.086c-7.971,4.419-17.388,4.985-25.837,1.553c-10.088-4.104-21.436-12.851-34.578-22.981
					c-9.358-7.214-19.011-14.656-27.998-20.166c-7.285,25.105-16.86,74.895-5.991,141.667l0.828,5.098l-4.246,8.491l-3.633,2.375
					c-218.755,142.634-332.2,386.306-289.016,620.781c19.966,108.469,64.473,208.618,119.055,267.898l16.953,18.413l-23.835,7.632
					c-18.438,5.903-32.454,18.897-41.663,38.621c-18.484,39.592-13.462,97.703,0.647,132.278
					c27.961,68.623,91.248,108.901,205.2,130.608c8.669,1.653,14.358,10.02,12.708,18.689
					C1333.919,2115.292,1327.22,2120.627,1319.698,2120.627z"/>
			</g>
			<g style="opacity:0.3;">
				<path style="fill:#650000;" d="M2400.781,1799.222c-58.888,284.771-401.509,394.997-578.811,415.411
					c-16.579,0.04-41.629,1.199-72.551,1.479c-66.159,0.639-159.125-2.637-252.491-28.965
					c-59.887-16.859-119.933-43.188-173.268-84.057c41.869-31.641,270.389-192.284,380.414-14.702l358.561-170.991
					C2193.155,1898.7,2304.339,1853.356,2400.781,1799.222z"/>
			</g>
			<g>
				<path style="fill:#FFCA9F;" d="M1719.376,1269.334c-21.617-167.268-374.482-269.981-524.879,48.405
					c-0.932,1.907-1.78,3.88-2.669,5.82c-109,240.38,61.286,480.404,61.286,480.404s-101.554,41.753-87.027,141.807
					c8.629,59.412,74.743,136.183,153.795,160.375c42.1,13.037,95.226,22.254,151.226,28.703
					c239.031,27.66,481.434-3.895,705.929-90.469c54.142-20.875,105.169-43.78,144.548-67.688
					c70.304-43.494,114.767-134.556,107.971-194.204c-11.386-100.459-120.18-115.028-120.18-115.028s103.634-275.424-62.895-480.196
					c-1.316-1.655-2.675-3.342-4.061-4.95c-226.359-269.696-541.557-80.647-519.94,86.621"/>
			</g>
			<g>
				<path style="fill:#F9D6B6;" d="M1737.073,1207.027c-0.599-4.714-1.478-9.388-2.637-13.983c1.518-3.516,3.156-7.031,4.954-10.507
					c-0.479,8.07-0.24,16.1,0.799,24.091L1737.073,1207.027z"/>
			</g>
			<g style="opacity:0.15;">
				<path style="fill:#650000;" d="M2429.505,1808.411c-6.032,366.032-1418.223,501.825-1247.153,55.892
					c13.504-117.856,414.412-182.736,414.412-182.736s-26.666,173.068-170.746,274.18c-46.379,32.548-29.518,105.583,26.345,115.057
					C1804.234,2130.475,2380.17,1983.6,2429.505,1808.411z"/>
			</g>
			<g>
				<path style="fill:#650000;" d="M1639.293,2160.49c-56.836,0-113.616-3.24-170.022-9.768
					c-62.817-7.236-114.673-17.097-154.116-29.312c-87.437-26.76-155.862-111.24-164.883-173.345
					c-11.179-77.012,40.276-127.761,79.663-150.413c-14.739-23.826-42.524-73.442-63.552-138.86
					c-39.109-121.67-35.344-239.876,10.891-341.836l0.837-1.853c0.662-1.472,1.326-2.947,2.031-4.387
					c39.375-83.359,94.365-144.116,163.352-180.381c59.285-31.165,125.605-42.114,191.829-31.685
					c78.804,12.427,144.138,53.276,177.38,106.848c18.535-60.264,71.348-116.387,144.414-148.438
					c61.379-26.924,128.32-33.193,193.582-18.12c75.935,17.539,144.558,62.319,203.962,133.096c1.382,1.599,2.878,3.455,4.329,5.278
					c70.525,86.719,104.224,200.08,97.344,327.693c-3.699,68.618-17.954,123.67-26.147,150.457
					c43.838,11.895,106.484,47.896,115.249,125.22c7.1,62.331-37.593,161.431-115.442,209.592
					c-36.724,22.297-86.213,45.493-147.207,69.011C2009.161,2126.245,1824.01,2160.488,1639.293,2160.49z M1488.59,1127.084
					c-72.51,0-199.192,27.166-279.644,197.481c-0.645,1.326-1.162,2.483-1.682,3.64l-0.911,2.012
					c-103.792,228.899,58.152,462.178,59.8,464.507l11.587,16.379l-18.55,7.639c-3.638,1.516-89.807,38.504-77.288,124.732
					c7.456,51.345,67.876,124.504,142.654,147.39c37.61,11.646,87.515,21.099,148.379,28.108
					c234.636,27.151,476.111-3.799,698.352-89.502c59.231-22.839,107.009-45.193,142.004-66.441
					c66.426-41.096,106.257-127.202,100.386-178.735c-9.868-87.075-105.459-100.867-106.423-100.996l-19.91-2.666l7.075-18.801
					c0.996-2.661,98.279-269.443-60.337-464.487c-1.294-1.626-2.512-3.144-3.76-4.59
					c-150.569-179.395-313.889-126.804-360.366-106.423c-84.973,37.275-140.332,113.211-131.628,180.554
					c1.13,8.753-5.049,16.765-13.801,17.898c-0.525,0.066-1.047,0.107-1.565,0.125c-0.503,0.115-1.016,0.208-1.538,0.276
					c-8.796,1.084-16.768-5.051-17.898-13.801c-8.701-67.341-81.536-126.709-173.181-141.157
					C1520.567,1128.681,1506.163,1127.084,1488.59,1127.084z"/>
			</g>
			<g>
				
					<ellipse transform="matrix(0.9918 -0.1282 0.1282 0.9918 -217.9151 276.4279)" style="fill:#F28475;" cx="2038.907" cy="1831.43" rx="78.936" ry="43.865"/>
			</g>
			<g>
				
					<ellipse transform="matrix(0.9918 -0.1282 0.1282 0.9918 -230.0126 214.4504)" style="fill:#F28475;" cx="1551.295" cy="1894.446" rx="78.936" ry="43.865"/>
			</g>
			<g>
				
					<ellipse transform="matrix(0.9918 -0.1282 0.1282 0.9918 -205.2431 209.616)" style="fill:#650000;" cx="1526.109" cy="1699.561" rx="114.022" ry="117.929"/>
			</g>
			<g>
				
					<ellipse transform="matrix(0.9918 -0.1282 0.1282 0.9918 -209.6475 208.5038)" style="fill:#FFFFFF;" cx="1515.47" cy="1733.434" rx="51.915" ry="53.695"/>
			</g>
			<g>
				
					<ellipse transform="matrix(0.9918 -0.1282 0.1282 0.9918 -197.6158 212.6964)" style="fill:#FFFFFF;" cx="1553.855" cy="1641.834" rx="31.162" ry="32.23"/>
			</g>
			<g>
				
					<ellipse transform="matrix(0.9918 -0.1282 0.1282 0.9918 -193.2393 271.1245)" style="fill:#650000;" cx="2010.008" cy="1637.025" rx="107.892" ry="117.929"/>
			</g>
			<g>
				<path style="fill:#650000;" d="M1817.258,1809.975c-3.23,1.396-6.788-1-6.745-4.518c0.127-10.557,2.531-28.995,17.296-33.316
					c19.557-5.722,23.958,11.327,22.835,16.726c-1.31,6.293-5.881,10.721-15.569,14.096
					C1829.13,1805.034,1822.243,1807.821,1817.258,1809.975z"/>
			</g>
			<g>
				<path style="fill:#650000;" d="M1762.572,1817.043c3.479,0.529,6.31-2.693,5.375-6.085
					c-2.807-10.177-9.819-27.399-25.198-27.824c-20.369-0.563-20.291,17.046-17.832,21.982c2.866,5.753,8.413,8.874,18.641,9.675
					C1749.833,1815.282,1757.202,1816.226,1762.572,1817.043z"/>
			</g>
			<g>
				<path style="fill:#650000;" d="M1738.891,1902.434c10.516,6.34,21.026,10.848,31.932,13.381
					c10.898,2.433,22.039,3.021,32.925,1.635c10.883-1.365,21.417-4.666,31.008-9.733c9.564-5.176,18.018-12.128,25.459-21.182
					l0.455-0.554c4.174-5.078,11.674-5.812,16.753-1.638c3.779,3.106,5.146,8.063,3.881,12.485
					c-4.445,15.453-15.018,29.274-28.229,38.876c-13.185,9.787-28.994,15.604-45.063,17.44c-16.08,1.83-32.618-0.284-47.491-6.446
					c-14.884-6.011-28.113-16.08-36.973-28.829c-3.483-5.013-2.244-11.901,2.769-15.385c3.688-2.563,8.392-2.57,12.008-0.397
					L1738.891,1902.434z"/>
			</g>
			<g>
				
					<ellipse transform="matrix(0.9918 -0.1281 0.1281 0.9918 -197.7198 269.5366)" style="fill:#FFFFFF;" cx="1995.85" cy="1671.352" rx="51.915" ry="53.694"/>
			</g>
			<g>
				
					<ellipse transform="matrix(0.9918 -0.1282 0.1282 0.9918 -185.6898 273.7416)" style="fill:#FFFFFF;" cx="2034.234" cy="1579.753" rx="31.162" ry="32.23"/>
			</g>
			<g>
				<g>
					<path style="fill:#650000;" d="M1679.379,1775.077c-30.503,55.992-72.825,100.117-115.605,131.669
						c-24.306,17.924-47.747,33.172-86.973,39.988c-5.82,0.979-11.977,1.809-18.552,2.426c-12.506,1.173-24.97,0.865-37.344-0.785
						l-0.036,0.003c-14.158-1.844-28.12-5.436-41.651-10.582c-6.2-2.302-12.361-4.968-18.371-7.936
						c-25.545-12.562-46.348-27.983-63.105-45.227c-88.684-91.199-64.474-233.072-36.199-269.787
						c41.831-54.352,93.212-62.237,119.545-64.707l117.41-11.016c8.075-0.758,13.077-1.227,13.077-1.227
						c10.54-0.989,21.203-1.449,31.857-1.223c17.975,0.26,35.945,2.395,53.347,6.925c7.534,1.925,14.965,4.291,22.264,7.175
						c31.702,12.489,71.75,34.792,83.422,54.314C1716.792,1629.081,1728.811,1684.183,1679.379,1775.077z"/>
				</g>
				<g>
					<path style="fill:#650000;" d="M2236.704,1847.679c-27.275,20.474-58.74,33.951-92.112,37.082
						c-12.184,1.143-23.159,1.344-33.2,0.736c-20.183-1.134-36.659-5.391-52.06-11.263c-8.967-3.376-17.592-7.325-26.312-11.517
						c-4.379-2.112-8.766-4.296-13.129-6.626c-27.37-14.337-54.979-32.761-80.793-55.498
						c-15.486-13.686-30.359-28.907-44.158-45.743c-65.512-80.109-63.953-136.485-54.305-162.73
						c7.837-21.353,43.001-50.713,71.827-68.88c31.07-19.604,67.11-29.257,103.197-32.643c0,0,6.253-0.587,16.043-1.505
						l114.444-10.738c8.182-0.768,18.821-1.478,31.111-0.72c15.228,0.95,32.967,4.08,51.816,12.115
						c15.091,6.406,30.87,15.919,46.604,29.942C2316.78,1556.313,2379.98,1740.087,2236.704,1847.679z"/>
				</g>
				<g style="opacity:0.5;">
					<path style="fill:#FFFFFF;" d="M2131.818,1479.699l-111.927,376.393c-27.37-14.337-54.979-32.761-80.793-55.498l92.604-311.502
						L2131.818,1479.699z"/>
				</g>
				<g style="opacity:0.5;">
					<path style="fill:#FFFFFF;" d="M2229.073,1489.749l-117.681,395.748c-20.183-1.134-36.659-5.391-52.06-11.263l117.925-396.6
						L2229.073,1489.749z"/>
				</g>
				<g style="opacity:0.5;">
					<path style="fill:#FFFFFF;" d="M1498.499,1539.121l-119.28,398.674c-6.2-2.302-12.361-4.968-18.371-7.936
						c-25.545-12.562-46.348-27.983-63.105-45.227l100.639-336.117L1498.499,1539.121z"/>
				</g>
				<g style="opacity:0.5;">
					<path style="fill:#FFFFFF;" d="M1596.78,1543.597l-119.979,403.137c-5.82,0.979-11.977,1.809-18.552,2.426
						c-12.506,1.173-24.97,0.865-37.344-0.785l122.528-411.703C1561.408,1536.931,1579.378,1539.066,1596.78,1543.597z"/>
				</g>
				<g>
					<path style="fill:#650000;" d="M1443.17,1965.832c-29.8,0-60.386-7.366-89.39-21.628
						c-83.835-41.23-115.281-109.312-126.897-159.165c-16.721-71.772-1.611-149.285,21.98-179.939
						c48.596-63.147,110.422-68.953,130.74-70.859l130.483-12.244c42.686-3.999,81.313,0.674,114.822,13.896
						c33.086,13.057,76.841,36.86,91.26,60.979c12.336,20.635,34.812,80.051-22.769,185.842
						c-36.321,66.736-85.391,111.284-120.161,136.904c-29.602,21.814-58.574,40.288-113.503,45.442
						C1454.251,1965.576,1448.724,1965.832,1443.17,1965.832z M1539.002,1552.57c-8.418,0-17.063,0.415-25.93,1.247l-130.483,12.244
						c-29.314,2.751-72.446,11.814-108.398,58.53c-16.274,21.148-31.399,87.869-16.179,153.193
						c10.049,43.127,37.268,102.029,109.875,137.737c29.109,14.316,59.841,20.44,88.862,17.717
						c46.843-4.395,70.92-19.741,97.529-39.348c32.161-23.701,77.534-64.875,111.05-126.455
						c51.106-93.894,30.837-141.736,23.408-154.163c-7.957-13.308-40.439-33.792-75.559-47.649h-0.002
						C1591.168,1556.938,1566.3,1552.57,1539.002,1552.57z"/>
				</g>
				<g>
					<path style="fill:#650000;" d="M2122.306,1901.823c-40.999,0.002-68.157-11.214-96.208-24.692
						c-38.931-18.709-95.435-53.355-143.533-112.166c-76.252-93.235-65.222-155.794-56.941-178.362
						c9.683-26.382,48.245-57.908,78.328-76.892c30.466-19.226,67.554-31.008,110.227-35.012l130.486-12.241
						c20.313-1.9,82.141-7.71,141.638,45.3c28.882,25.73,58.147,99.08,55.068,172.71c-2.139,51.143-20.369,123.887-95.073,179.993
						c-30.662,23.027-65.32,36.929-100.229,40.203C2137.638,1901.454,2129.74,1901.823,2122.306,1901.823z M2166.454,1493.342
						c-6.76,0-13.064,0.398-18.804,0.938l-130.486,12.241c-37.625,3.53-69.976,13.699-96.157,30.22v0.002
						c-31.931,20.149-60.037,46.318-65.378,60.872c-4.988,13.591-16.001,64.368,51.677,147.117
						c44.382,54.268,96.624,86.286,132.634,103.591c29.79,14.316,56.301,24.9,103.142,20.52
						c29.031-2.722,58.083-14.458,84.021-33.938c64.697-48.591,80.483-111.531,82.334-155.771
						c2.803-67.017-24.47-129.761-44.395-147.512C2229.642,1500.083,2194.215,1493.342,2166.454,1493.342z M1912.479,1523.227h0.049
						H1912.479z"/>
				</g>
				<g>
					<path style="fill:#650000;" d="M1511.561,1553.889c-8.152,0-15.115-6.208-15.891-14.49c-0.825-8.787,5.63-16.577,14.419-17.402
						l485.977-45.596c8.718-0.832,16.577,5.63,17.402,14.419c0.825,8.787-5.63,16.577-14.419,17.402l-485.977,45.596
						C1512.567,1553.864,1512.062,1553.889,1511.561,1553.889z"/>
				</g>
				<g>
					<path style="fill:#650000;" d="M1714.911,1678.871c-4.229,0-8.447-1.667-11.589-4.976c-6.079-6.399-5.818-16.514,0.581-22.593
						c39.238-37.271,98.403-42.822,143.884-13.499c7.417,4.78,9.553,14.67,4.771,22.09c-4.78,7.414-14.673,9.556-22.09,4.771
						c-33.052-21.304-76.04-17.271-104.553,9.812C1722.823,1677.414,1718.863,1678.871,1714.911,1678.871z"/>
				</g>
			</g>
		</g>
		<g>
			<path style="fill:#B74729;" d="M1514.945,1717.123c-14.782,144.543-131.359,182.057-278.499,224.206
				c-73.829,21.134-67.357,60.965-33.838,96.881c0,0.04,0.04,0.04,0.04,0.04c29.324,31.442,79.423,59.847,114.34,70.034
				l-29.044,193.962c-284.611-41.829-399.551-203.711-431.551-265.834c-70.274-136.273-46.823-358.761,92.047-456.641
				c139.349-98.2,290.964-95.723,400.47-56.69c28.805,10.227,54.693,23.051,76.706,37.194
				C1487.898,1600.305,1519.859,1669.021,1514.945,1717.123z"/>
		</g>
		<g style="opacity:0.3;">
			<path style="fill:#650000;" d="M1400.442,2236.982c16.011,37.241-7.645,216.51-7.645,216.51
				c7.633-77.033-9.89-142.297-9.89-142.297c-338.705-15.101-478.454-189.408-521.122-264.795
				c3.396,3.475,101.112,164.604,387.758,171.53C1330.95,2219.896,1384.43,2199.74,1400.442,2236.982z"/>
		</g>
		<g style="opacity:0.35;">
			<path style="fill:#FFFFFF;" d="M1514.945,1717.123c-0.32,3.036-0.679,6.032-1.079,8.989
				c-6.991-43.946-37.554-95.563-88.252-128.123c-105.631-67.957-301.151-104.552-477.176,19.496
				c-83.698,59.008-125.487,163.32-130.041,266.673c-4.994-114.979,36.116-238.188,130.041-304.387
				c176.024-124.048,371.545-87.453,477.176-19.496C1487.898,1600.305,1519.859,1669.021,1514.945,1717.123z"/>
		</g>
		<g style="opacity:0.3;">
			<path style="fill:#650000;" d="M1514.945,1717.123c-14.782,144.543-131.359,182.057-278.499,224.206
				c-73.829,21.134-67.357,60.965-33.838,96.881c-63.642-33.319-65.839-66.039-44.466-93.685
				c45.824-59.288,56.89-137.512,34.558-209.064c-40.75-130.56,105.99-194.641,156.208-212.38
				c28.805,10.227,54.693,23.051,76.706,37.194C1487.898,1600.305,1519.859,1669.021,1514.945,1717.123z"/>
		</g>
		<g>
			<path style="fill:#650000;" d="M1382.931,2327.175c-0.242,0-0.481-0.005-0.725-0.017
				c-155.701-6.953-287.41-47.49-391.472-120.486c-91.294-64.038-134.307-135.278-148.562-162.935
				c-36.755-71.304-49.126-163.421-33.94-252.727c16.445-96.707,62.974-176.372,131.011-224.319
				c173.347-122.163,373.533-98.008,495.032-19.871c70.322,45.22,101.814,120.713,96.577,171.914
				c-16.323,159.573-149.255,197.639-289.99,237.942c-21.089,6.038-46.235,16.899-46.274,34.351
				c-0.078,32.815,72.59,86.104,126.885,101.926c8.474,2.468,13.342,11.34,10.872,19.812c-2.471,8.474-11.357,13.325-19.812,10.872
				c-52.388-15.266-150.042-74.292-149.907-132.686c0.049-20.596,12.134-48.591,69.438-65.002
				c157.339-45.056,253.821-81.704,266.992-210.466c4.141-40.486-23.213-103.936-82.065-141.782
				c-83.938-53.977-275.139-110.693-459.333,19.114c-130.974,92.302-153.994,306.46-87.075,436.279
				c13.171,25.552,53.032,91.455,138.508,151.414c99.001,69.446,225.017,108.044,374.543,114.722
				c8.816,0.393,15.645,7.861,15.251,16.677C1398.5,2320.48,1391.427,2327.172,1382.931,2327.175z"/>
		</g>
		<g>
			<path style="fill:#FFCA9F;" d="M1353.654,1538.702c160.218-7.376,256.049-71.845,305.48-3.306
				c96.771,134.178-172.729,228.46-172.729,228.46s68.067,31.362,66.234,53.762c-3.311,40.481-38.545,53.136-186.308,29.552
				C1173.088,1816.327,1194.104,1546.047,1353.654,1538.702z"/>
			<path style="fill:#650000;" d="M1480.448,1874.921c-28.875,0-66.772-4.011-116.638-11.97
				c-111.135-17.739-156.326-106.77-151.809-187.139c3.977-70.784,49.773-148.877,140.918-153.074l0,0
				c56.875-2.617,104.934-12.483,147.336-21.184c75.029-15.403,134.299-27.559,171.841,24.492
				c23.125,32.068,29.604,65.007,19.255,97.91c-21.902,69.639-116.072,119.446-166.96,141.833
				c23.569,14.265,45.808,33.171,44.175,53.132c-1.436,17.539-7.864,30.564-19.658,39.819
				C1535.123,1869.562,1513.81,1874.921,1480.448,1874.921z M1354.388,1554.667c-71.343,3.284-107.28,66.03-110.479,122.94
				c-3.708,66.028,33.484,139.185,124.939,153.782c58.198,9.287,138.14,19.624,160.325,2.212c3.154-2.473,6.487-6.372,7.466-16.477
				c-3.127-8.015-29.868-26.265-56.926-38.755c-5.911-2.729-9.575-8.77-9.265-15.271c0.31-6.502,4.531-12.168,10.674-14.324
				c1.545-0.542,154.834-55.11,179.751-134.434c7.246-23.069,2.439-45.835-14.7-69.597c-24.37-33.791-62.473-27.685-139.492-11.882
				C1465.284,1541.359,1413.766,1551.933,1354.388,1554.667L1354.388,1554.667z M1536.781,1817.534L1536.781,1817.534
				L1536.781,1817.534z M1353.653,1538.703h0.049H1353.653z"/>
		</g>
		<g>
			<path style="fill:#650000;" d="M1572.671,1489.119c12.378-0.711,25.603,1.313,37.534,9.717
				c5.869,4.224,11.135,10.688,13.724,18.256c2.599,7.507,2.609,15.645,0.795,22.156c-0.792,3.347-2.046,6.326-3.293,9.248
				c-1.464,2.632-2.756,5.598-4.47,7.864c-3.068,4.93-7.156,9.08-11.071,13.291c-8.237,7.371-16.856,13.553-25.782,18.335
				c-17.768,9.917-36.094,17.1-54.612,23.206c-18.575,6.072-37.122,11.134-56.298,15.232c-4.316,0.922-8.562-1.829-9.484-6.144
				c-0.881-4.123,1.591-8.183,5.577-9.341l0.226-0.065c17.852-5.139,35.805-11.401,53.071-18.425
				c17.275-7.04,34.125-15.151,49.056-24.938c7.621-4.752,14.128-10.4,19.759-16.095c4.828-5.552,9.367-12.862,10.018-18.217
				c0.571-2.747-0.021-4.559-0.625-5.972c-0.699-1.374-1.758-2.626-3.741-3.821c-2.016-1.141-4.703-2.033-7.67-2.526
				c-3.01-0.477-6.31-0.305-9.567,0.046l-0.514,0.055c-8.781,0.947-16.665-5.404-17.612-14.184
				c-0.946-8.78,5.405-16.665,14.185-17.611C1572.122,1489.158,1572.425,1489.135,1572.671,1489.119z"/>
		</g>
		<g>
			<path style="fill:#650000;" d="M1670.506,1523.931c5.941,8.691,6.713,16.982,6.779,23.905
				c-0.099,7.004-1.292,13.267-2.927,19.164c-3.339,11.752-8.513,22.094-14.469,31.733c-12.045,19.18-27.728,35.134-45.14,48.337
				c-17.56,13.195-36.911,22.98-56.23,31.141c-19.471,8.167-39.039,15.02-59.36,20.809c-4.244,1.209-8.665-1.251-9.874-5.496
				c-1.159-4.068,1.053-8.298,4.976-9.707l0.22-0.078c18.862-6.724,37.733-14.738,55.662-23.687
				c17.999-9.019,34.998-19.18,49.603-31.718c14.567-12.587,27.192-27.404,36.001-43.749c4.342-8.134,7.815-16.677,9.542-24.885
				c0.859-4.07,1.233-8.055,1.034-11.342c-0.127-3.273-1.331-5.582-1.444-5.33c-5.273-7.076-3.812-17.089,3.265-22.363
				S1665.232,1516.854,1670.506,1523.931z"/>
		</g>
		<g style="opacity:0.3;">
			<path style="fill:#650000;" d="M2720.549,2993.16c5.313,90.289-5.913,169.632-42.348,217.493
				c-50.298,66.119-253.889,65.56-299.353,17.059c-35.157-37.514-52.136-62.244-106.27-150.177
				c-95.163-154.571-273.026-156.568-432.83-162.88c-99.997-3.956-204.47-2.637-226.483,109.546
				c-18.577,94.724-23.611,178.821-76.187,214.537c-26.607,18.058-69.075,22.053-123.569,20.655
				c-118.095-2.996-210.462-93.525-240.905-211.461c-14.382-55.771-22.492-106.949-16.899-170.271
				c2.797,31.161,8.869,60.845,16.899,91.967c30.443,117.936,122.81,208.465,240.905,211.461
				c54.493,1.398,90.822-5.824,115.757-26.128c60.621-49.363,59.348-169.28,52.827-202.648
				c-17.32-88.628-86.438-141.933-47.631-146.79c43.474-5.441,98,68.298,305.272,72.746
				c302.673,6.495,419.074-115.927,461.155-97.427c53.113,23.349-52.228,103.767-18.186,216.938
				c29.744,98.883,60.988,114.116,96.145,151.629c45.464,48.501,249.055,49.06,299.353-17.059
				C2703.61,3098.99,2716.754,3050.25,2720.549,2993.16z"/>
		</g>
	</g>
</g>
</svg>
