<?xml version="1.0" encoding="UTF-8" standalone="no"?>
<!-- Created with Inkscape (http://www.inkscape.org/) -->

<svg
   version="1.1"
   id="svg2"
   xml:space="preserve"
   width="5333.3379"
   height="5333.3379"
   viewBox="0 0 5333.3379 5333.3379"
   sodipodi:docname="5bbd3020f909db958cd81ad9437da9b1.eps"
   xmlns:inkscape="http://www.inkscape.org/namespaces/inkscape"
   xmlns:sodipodi="http://sodipodi.sourceforge.net/DTD/sodipodi-0.dtd"
   xmlns="http://www.w3.org/2000/svg"
   xmlns:svg="http://www.w3.org/2000/svg"><defs
     id="defs6" /><sodipodi:namedview
     id="namedview4"
     pagecolor="#ffffff"
     bordercolor="#666666"
     borderopacity="1.0"
     inkscape:pageshadow="2"
     inkscape:pageopacity="0.0"
     inkscape:pagecheckerboard="0" /><g
     id="g8"
     inkscape:groupmode="layer"
     inkscape:label="ink_ext_XXXXXX"
     transform="matrix(1.3333333,0,0,-1.3333333,0,5333.3381)"><g
       id="g10"
       transform="scale(0.1)"><g
         id="g12"
         transform="scale(2.45399)"><path
           d="M 16300,0 H 0 V 16300 H 16300 V 0"
           style="fill:#afff92;fill-opacity:0;fill-rule:nonzero;stroke:none"
           id="path14" /></g><g
         id="g16"
         transform="scale(1.97911)"><path
           d="m 14737.1,13107.1 c -90.4,147.8 -135,325.3 -115.9,511.1 46.2,450.8 449.3,778.7 900.1,732.4 450.8,-46.2 778.7,-449.2 732.4,-900 -46.3,-450.8 -449.3,-778.8 -900.1,-732.5 -125.3,12.9 -241.2,53.4 -342.2,114.8 l -379.7,-85.1 105.4,359.3"
           style="fill:#ffffff;fill-opacity:1;fill-rule:nonzero;stroke:none"
           id="path18" /></g><g
         id="g20"
         transform="scale(1.95947)"><path
           d="m 16300,13914.8 c -127.2,228 -359.9,392.5 -639.4,421.1 -28.8,3 -57.4,4.4 -85.7,4.4 -247.6,0 -474.3,-110.5 -627.6,-288.7 44.5,75.2 102.4,142.6 172.2,199.4 134.9,109.7 299.9,168 471.5,168 25.8,0 51.7,-1.2 77.7,-3.9 298.7,-30.7 538.7,-233.8 631.3,-500.3"
           style="fill:#ffffff;fill-opacity:1;fill-rule:nonzero;stroke:none"
           id="path22" /></g><g
         id="g24"
         transform="scale(1.98919)"><path
           d="m 14935.4,12846.6 c 14.3,0 28.4,-3.9 40.8,-11.5 94,-57.1 197.6,-91.9 307.7,-103.2 195.9,-20 388.1,37.3 541,161.7 152.8,124.4 248.1,300.8 268.2,496.9 41.6,404.6 -253.9,767.6 -658.5,809.2 -196.2,20 -388.2,-37.3 -541.1,-161.7 -152.8,-124.3 -248,-300.8 -268.2,-496.9 -16.6,-161.8 19.5,-320.7 104.2,-459.5 11.6,-18.9 14.6,-41.8 8.4,-63.1 l -67.3,-229.3 247.6,55.5 c 5.7,1.3 11.4,1.9 17.2,1.9 m 425.5,-276 c -30.9,0 -62,1.7 -93.1,4.8 -122.8,12.6 -238.8,49.2 -345.4,109 l -347.6,-78 c -27.3,-6.1 -55.6,2.7 -74.6,23 -19.1,20.3 -25.9,49.2 -18.1,75.9 l 95.2,324.9 c -89.9,160.9 -127.4,342.4 -108.4,527 24.3,237.9 139.9,451.9 325.4,602.8 185.4,150.9 418.6,220.7 656.3,196.2 491,-50.4 849.4,-490.9 799,-981.8 -24.4,-237.8 -140,-451.9 -325.4,-602.8 -161.2,-131.2 -358.4,-201 -563.3,-201"
           style="fill:#000072;fill-opacity:1;fill-rule:nonzero;stroke:none"
           id="path26" /></g><g
         id="g28"
         transform="scale(1.96141)"><path
           d="m 15577.9,12908.3 c -25.8,0 -51.6,1.3 -77.6,3.9 -111.6,11.5 -216.7,46.7 -311.9,104.7 -12.6,7.7 -27,11.6 -41.5,11.6 -5.8,0 -11.7,-0.6 -17.4,-1.9 l -251.1,-56.3 60.6,206.6 c 157.4,-109.1 346.7,-170.8 544.3,-170.8 76.4,0 154.1,9.3 231.6,28.5 254,63.3 458.7,222.6 585.1,429.7 -40.1,-152 -126.7,-287 -251,-388.1 -134.8,-109.7 -299.7,-167.9 -471.1,-167.9"
           style="fill:#cccce3;fill-opacity:1;fill-rule:nonzero;stroke:none"
           id="path30" /></g><g
         id="g32"
         transform="scale(1.97414)"><path
           d="m 15477.3,12745.7 c -28.1,0 -56.5,1.5 -85,4.5 -125.7,12.8 -241.9,53.5 -343.1,115 l -380.7,-85.3 105.7,360.1 c -1.6,2.6 -3.1,5.3 -4.6,7.9 23.4,-19.8 47.8,-38.5 73.1,-56 l -60.3,-205.2 249.5,55.9 c 5.7,1.3 11.6,1.9 17.3,1.9 14.5,0 28.7,-3.9 41.2,-11.5 94.7,-57.6 199,-92.6 310,-104 25.8,-2.7 51.4,-4 77,-4 170.3,0 334.2,57.9 468.1,166.9 123.5,100.4 209.6,234.6 249.4,385.6 44.5,72.9 79.3,151.8 102.9,234.4 2.2,-41.8 1.2,-84.4 -3.2,-127.5 -43.4,-423.3 -400.8,-738.6 -817.3,-738.7"
           style="fill:#000072;fill-opacity:1;fill-rule:nonzero;stroke:none"
           id="path34" /></g><g
         id="g36"
         transform="scale(1.91628)"><path
           d="m 15672.6,14216.2 v 0 c 73.4,73.3 192.3,60.1 265.7,-13.2 l 11.3,-11.4 11.5,11.4 c 73.3,73.3 192.2,86.5 265.6,13.2 v 0 c 73.3,-73.4 73.3,-192.3 0,-265.7 l -11.4,-11.4 -230.7,-230.5 c -19.3,-19.4 -50.6,-19.4 -70,0 l -230.5,230.5 -11.5,11.4 c -73.3,73.4 -73.3,192.3 0,265.7"
           style="fill:#ff0068;fill-opacity:1;fill-rule:nonzero;stroke:none"
           id="path38" /></g><g
         id="g40"
         transform="scale(1.69308)"><path
           d="M 16152.3,10699.1 C 16300,9396.6 15906,6756.27 12958.4,8172.74 c -1661.9,798.66 -1984,2846.16 -707.5,2706.26 477.9,-74.1 1628.1,-759.2 1968.5,-759.2 864.2,0 1880.3,1043.5 1932.9,579.3"
           style="fill:#fd9d24;fill-opacity:1;fill-rule:nonzero;stroke:none"
           id="path42" /></g><g
         id="g44"
         transform="scale(1.68476)"><path
           d="m 13022.4,8212.98 c 1606.1,-771.75 2457.8,-344.98 2877.1,416.14 354.3,642.64 400.5,1523.58 332.5,2122.88 -52.8,466.4 -1073.9,-582.1 -1942.3,-582.1 -1.6,0 -2.9,0 -4.5,0.3 -347.9,5.8 -1495.7,688.3 -1973.7,762.4 -1282.9,140.8 -959.2,-1916.84 710.9,-2719.62"
           style="fill:#5f5f82;fill-opacity:1;fill-rule:nonzero;stroke:none"
           id="path46" /></g><g
         id="g48"
         transform="scale(1.64337)"><path
           d="m 13350.4,8419.84 c 1646.6,-791.18 2519.7,-353.66 2949.6,426.63 l -0.3,0.3 c -600.1,-546.98 -1716.5,-370.82 -1863.6,180.73 -151.6,569.32 73.6,539.07 208.9,1398.8 -356.7,6.1 -1533.3,705.7 -2023.4,781.7 -1315.2,144.3 -983.4,-1965.15 728.8,-2788.16"
           style="fill:#5f5f82;fill-opacity:1;fill-rule:nonzero;stroke:none"
           id="path50" /></g><g
         id="g52"
         transform="scale(1.6213)"><path
           d="m 15085.3,8206.31 c -183.5,0 -380.5,25.17 -590.8,75.5 -14.9,270.83 -49.1,538.58 -98,796.15 -37.3,185.22 -82.9,368.65 -140.3,548.26 47.4,-77.22 101.4,-108.37 149.2,-108.43 56.3,0 103.9,43.3 121.9,105.72 71.7,248.26 183.1,536.99 231.5,856.99 17.7,-3.2 34.6,-5.6 50.5,-7.1 -137.8,-798.33 -349,-785.31 -199.8,-1345.91 86.4,-323.88 502.3,-520.02 955.5,-520.02 250.1,0 511.6,59.83 735,190.96 -94.1,-126.75 -204.5,-238.94 -333.4,-330.54 -245.5,-174.42 -539.9,-261.58 -881.3,-261.58"
           style="fill:#4c4c7f;fill-opacity:1;fill-rule:nonzero;stroke:none"
           id="path54" /></g><g
         id="g56"
         transform="scale(1.46923)"><path
           d="m 15703.6,10675.2 c 115.9,-247 287.5,-193.7 327.3,-55.6 87,301.1 226.8,656.1 269.1,1051.7 -279.9,52.2 -814.2,318.6 -1310.2,543.7 -190.2,-153.5 -466,-339.4 -766.5,-439.1 -339.1,-112.2 1363.7,-852.7 1480.3,-1100.7"
           style="fill:#5f5f82;fill-opacity:1;fill-rule:nonzero;stroke:none"
           id="path58" /></g><g
         id="g60"
         transform="scale(1.43818)"><path
           d="m 16300,12036.1 c -187.9,-186.8 -524.3,-411.3 -1057.4,-591.3 -457.6,262.5 -903.6,521.9 -712.1,585.4 306.7,102 588.6,291.8 783,448.7 341.7,-155 701.2,-329.4 986.5,-442.8"
           style="fill:#5f5f82;fill-opacity:1;fill-rule:nonzero;stroke:none"
           id="path62" /></g><g
         id="g64"
         transform="scale(1.43053)"><path
           d="m 16122.6,11886.6 c 66,44.5 124.1,88.7 174.7,131.7 1,-0.4 1.8,-0.8 2.7,-1.1 -51.7,-42.7 -110.7,-86.5 -177.4,-130.6"
           style="fill:#4c4c7f;fill-opacity:1;fill-rule:nonzero;stroke:none"
           id="path66" /></g><g
         id="g68"
         transform="scale(1.4303)"><path
           d="m 15892.6,11751.7 -175.4,414.4 c 62.4,8.4 124.5,17.7 186.6,27.8 141.2,-64.6 274.5,-123.9 396.2,-173.6 -50.7,-43 -108.8,-87.2 -174.8,-131.7 -69.1,-45.6 -146.4,-91.6 -232.6,-136.9"
           style="fill:#4c4c7f;fill-opacity:1;fill-rule:nonzero;stroke:none"
           id="path70" /></g><g
         id="g72"
         transform="scale(1.39463)"><path
           d="m 16300,12050.2 c -805,-431.1 -2384.7,-815.4 -5174.9,-409.5 334.9,684.3 484.1,1420.6 154.8,2220.5 -555.3,1349.7 3886.7,777 4238.7,35.4 l 781.4,-1846.4"
           style="fill:#5d5d6d;fill-opacity:1;fill-rule:nonzero;stroke:none"
           id="path74" /></g><g
         id="g76"
         transform="scale(1.69808)"><path
           d="m 12093,10761.7 c -279.5,0 -463.3,-129.5 -534.7,-379 -83.2,-290.9 3.1,-697.88 230.8,-1088.56 261,-447.62 676.9,-824.87 1171.1,-1062.43 986,-473.83 1754.7,-523.18 2284.4,-146.7 774.6,550.45 847.5,1875.83 768.5,2572.19 -3.1,27.5 -9.6,34.9 -9.7,35 -55.6,31.9 -337.8,-123.4 -524.4,-226.1 -379.1,-208.6 -850.9,-468.16 -1301.5,-468.16 -192.9,0 -561.7,170.76 -988.7,368.56 -375.8,174 -764.4,354 -986.1,389.1 -38,4.1 -74.7,6.1 -109.7,6.1 m 2312,-3110.88 c -439.9,0 -949.3,138.33 -1524.7,414.82 -1127.6,541.85 -1695.1,1682.72 -1499.2,2367.76 105.3,368.3 412.8,552.6 843.8,505.1 1.4,-0.1 2.7,-0.3 4.1,-0.5 246.9,-38.3 648.7,-224.4 1037.3,-404.3 355.7,-164.8 758.9,-351.6 911.2,-351.6 403.3,0 852,247 1212.6,445.5 332.4,182.9 551.9,303.7 698.3,228 42.5,-22 95.7,-70.7 107.8,-177.7 103.8,-914.64 -55.3,-2181.95 -844.8,-2743.12 -266.4,-189.32 -582.6,-283.96 -946.4,-283.96"
           style="fill:#000072;fill-opacity:1;fill-rule:nonzero;stroke:none"
           id="path78" /></g><g
         id="g80"
         transform="scale(1.47991)"><path
           d="m 16001.5,10604 c 52.2,278.4 246.7,549.1 298.5,997.3"
           style="fill:#fd9d24;fill-opacity:1;fill-rule:nonzero;stroke:none"
           id="path82" /></g><g
         id="g84"
         transform="scale(1.48945)"><path
           d="m 15899.1,10536.1 c 16.3,172.7 78.6,341 120.9,507.6 44,165.6 69.6,331.3 71.3,495.3 l 208.7,-24.1 c -38.7,-179.6 -103.1,-350.2 -181.5,-507.9 -76.1,-157.6 -167.9,-303.3 -219.4,-470.9"
           style="fill:#000072;fill-opacity:1;fill-rule:nonzero;stroke:none"
           id="path86" /></g><g
         id="g88"
         transform="scale(1.61204)"><path
           d="m 15955,4350.87 c -172.4,-20.46 -429.4,8.63 -772.5,37.72 -525.8,44.54 -1254,89.08 -2190.9,-44.72 0,0 683,2757.18 680.8,3075.91 -2.1,318.79 2616.4,-549.86 2616.4,-549.86 0,0 11.2,-2477.98 -333.8,-2519.05"
           style="fill:#777782;fill-opacity:1;fill-rule:nonzero;stroke:none"
           id="path90" /></g><g
         id="g92"
         transform="scale(1.61204)"><path
           d="m 15955,4350.94 c -24.2,-2.73 -50,-4.72 -77.4,-5.83 -168.7,-6.46 -399.8,18.54 -694.9,43.54 -525.8,44.54 -1254.2,89.08 -2191.2,-44.66 0,0 305.6,1232.91 507.1,2145.29 99.9,451.85 174.6,824.86 173.8,930.62 -2.2,318.67 2616.5,-550.11 2616.5,-550.11 0,0 11.1,-2477.72 -333.9,-2518.85"
           style="fill:#5f5f82;fill-opacity:1;fill-rule:nonzero;stroke:none"
           id="path94" /></g><g
         id="g96"
         transform="scale(1.55072)"><path
           d="m 16300,4621.34 c -102.5,5.74 -220.1,16.06 -350.9,27.6 -296.9,26.19 -675.9,59.59 -1133.3,60.11 -11.4,38.11 -24.8,75.06 -39.9,110.2 -86.1,194.3 -260.5,337.65 -446,427.16 -67.5,122.27 -121.7,263.11 -171.6,403.94 6,5.29 11.8,10.58 17.8,15.99 250.6,241.18 446,518.15 594.5,818.21 347.6,-119.63 670.3,-214.48 903,-214.55 163.4,0 282.3,46.69 334.5,164.38 -22,-73.84 -42.4,-150.52 -61.1,-229.71 l -0.1,-0.38 c -0.5,-2.06 -1,-4.19 -1.4,-6.32 -7.3,-30.89 -14.3,-62.16 -21,-93.83 v -995.15 c 77.3,-192.11 185.6,-378.41 375.5,-487.65"
           style="fill:#4c4c7f;fill-opacity:1;fill-rule:nonzero;stroke:none"
           id="path98" /></g><g
         id="g100"
         transform="scale(1.62077)"><path
           d="m 14165.4,4505.51 c 442.1,0 808.1,-32.27 1094.3,-57.51 255.7,-22.52 458.4,-40.35 593.7,-25.17 22.2,15.85 152.1,153.63 217.6,1234.9 28.5,471.44 32.9,934.25 33.5,1105.4 -1026.9,337.31 -2196.1,644.39 -2410.4,586.26 -26.9,-381.48 -501.8,-2332.65 -644.8,-2914.28 413.4,52.38 785.9,70.4 1116.1,70.4 M 15869,4327.44 h 0.3 -0.3 m -2947.4,-103.47 c -27.1,0 -53.2,11.42 -71.6,31.78 -21.6,23.81 -29.8,56.82 -22.1,87.98 188.2,759.45 676,2785.34 674.4,3035.4 -0.4,48.44 21.6,91.19 61.8,120.44 63.5,46.15 195.4,142.15 1467.4,-210.52 608.8,-168.81 1194.2,-362.6 1200,-364.51 39.4,-13.09 66,-49.79 66.2,-91.26 0,-6.17 2.3,-626.55 -37.6,-1244.03 -75.1,-1162.41 -226.8,-1339.43 -379.7,-1357.63 v 0 c -155.1,-18.51 -368.1,0.31 -637.7,24.07 -515.2,45.47 -1293.7,114.02 -2307.5,-30.73 -4.5,-0.68 -9.1,-0.99 -13.6,-0.99"
           style="fill:#000072;fill-opacity:1;fill-rule:nonzero;stroke:none"
           id="path102" /></g><g
         id="g104"
         transform="scale(1.74765)"><path
           d="m 14130.1,4533.29 c 116.6,-289.88 312.8,-564.88 809.3,-513.84 722.5,74.22 1360.6,1258.95 1193.1,2175.15 -124.3,679.89 -901.9,830.61 -1411.4,430.35 -240.2,-188.65 -468.2,-628.04 -591,-1208.65 v -883.01"
           style="fill:#777782;fill-opacity:1;fill-rule:nonzero;stroke:none"
           id="path106" /></g><g
         id="g108"
         transform="scale(1.73796)"><path
           d="m 16010.9,4920.32 c -228.6,-472.68 -596,-838.23 -988.1,-878.39 -499.4,-51.27 -696.7,225.27 -813.8,516.7 v 887.94 c 6.4,30.09 13.2,59.95 19.8,89.3 l 0.3,0.29 c 126.9,539.36 345.2,945.82 574.1,1125.8 512.3,402.37 1294.4,250.75 1419.3,-432.75 77.5,-424.29 -16.7,-905.49 -211.6,-1308.89"
           style="fill:#5f5f82;fill-opacity:1;fill-rule:nonzero;stroke:none"
           id="path110" /></g><g
         id="g112"
         transform="scale(1.43913)"><path
           d="m 8798.38,6541.73 c 40.65,-284.13 3203.92,-2213.28 4148.52,-2065.76 1137.8,177.61 1628.2,1175.85 2155,1621.54 893.5,755.32 1198.1,2076.88 1110,3503.51 -28.1,456.28 -96.5,922.98 -198.9,1385.68 l -974.3,2480.2 c -341.2,718.7 -4645.7,1273.5 -4107.6,-34.3 518.9,-1261.3 -188.7,-2358.4 -902.2,-3342.3 -349.64,-482.27 -700.83,-937.33 -909.77,-1371 -429.01,-959.61 -402.12,-1612.15 -320.75,-2177.57"
           style="fill:#ffffff;fill-opacity:1;fill-rule:nonzero;stroke:none"
           id="path114" /></g><g
         id="g116"
         transform="scale(1.73133)"><path
           d="m 16300,6150.32 c -2.4,20.68 -5.3,41.35 -8.4,61.8 3.2,-20.51 6,-41.07 8.4,-61.8 m -8.5,62.26 c 0,0.29 0,0.46 -0.1,0.75 0.1,-0.23 0.1,-0.46 0.1,-0.75"
           style="fill:#c7ffb3;fill-opacity:1;fill-rule:nonzero;stroke:none"
           id="path118" /></g><g
         id="g120"
         transform="scale(1.7323)"><path
           d="m 16300,6038.79 c -3.9,71.35 -11.9,141.83 -24.5,210.76 2.4,-13.22 4.6,-26.44 6.7,-39.72 0.1,-0.28 0.1,-0.46 0.1,-0.75 0,-0.11 0.1,-0.28 0.1,-0.46 3.2,-20.43 6,-41.1 8.4,-61.76 4.2,-35.74 7.2,-71.76 9.2,-108.07"
           style="fill:#a0a0a8;fill-opacity:1;fill-rule:nonzero;stroke:none"
           id="path122" /></g><g
         id="g124"
         transform="scale(1.73269)"><path
           d="m 14272.6,5554.13 c 127.4,540.43 346.1,947.71 575.6,1128.07 187.9,147.63 412.2,220.93 627.1,220.93 372.5,0 717.1,-220.18 796.5,-655 v 0 c 12.6,-68.91 20.6,-139.37 24.5,-210.71 3.7,-68.79 3.4,-138.45 -0.5,-208.4 -3.6,69.95 -11.6,139.14 -24,206.84 -79.4,434.76 -424,655 -796.5,655 -215,0 -439.1,-73.24 -627.1,-220.93 -211.9,-166.56 -431.8,-422.29 -564.5,-885.79 l -11.1,-30.01"
           style="fill:#8f8fa8;fill-opacity:1;fill-rule:nonzero;stroke:none"
           id="path126" /></g><g
         id="g128"
         transform="scale(1.70713)"><path
           d="m 15176,4108.65 c -422.5,0 -600.8,259.74 -710.4,532.3 v 903.98 0 c 10,42.46 20.7,83.41 32,122.83 l 43.5,117.74 c -43.7,-227.92 224.5,-1311.44 910.7,-1345.35 9.5,-0.47 18.9,-0.65 28.2,-0.65 314.9,-0.06 597.8,259.91 820,569.67 -232.7,-481.22 -606.7,-853.36 -1005.9,-894.25 -41.4,-4.28 -80.7,-6.27 -118.1,-6.27"
           style="fill:#4c4c7f;fill-opacity:1;fill-rule:nonzero;stroke:none"
           id="path130" /></g><g
         id="g132"
         transform="scale(1.51714)"><path
           d="m 16299.9,6341.63 0.1,0.39 c -0.1,-0.13 -0.1,-0.2 -0.1,-0.33 v -0.06"
           style="fill:#3d3d7c;fill-opacity:1;fill-rule:nonzero;stroke:none"
           id="path134" /></g><g
         id="g136"
         transform="scale(1.51718)"><path
           d="m 16299.5,6341.51 c 0,0.13 0,0.2 0,0.33 l 0.5,1.25 c -0.1,-0.46 -0.2,-0.85 -0.3,-1.31 l -0.2,-0.27"
           style="fill:#5f5f7f;fill-opacity:1;fill-rule:nonzero;stroke:none"
           id="path138" /></g><g
         id="g140"
         transform="scale(1.51836)"><path
           d="m 16264,6234.31 c 7.4,34.45 15.1,68.63 22.8,102.22 v 0 l 0.2,0.33 c 0.2,0.46 0.3,0.85 0.4,1.31 l 12.6,34.25 c -12.7,-44.32 -24.7,-90.36 -36,-138.11"
           style="fill:#72729d;fill-opacity:1;fill-rule:nonzero;stroke:none"
           id="path142" /></g><g
         id="g144"
         transform="scale(1.6928)"><path
           d="m 16188.6,5075.66 c -111.4,-375.53 -408.8,-618.5 -664.4,-542.71 -255.5,75.79 -372.4,441.7 -261,817.17 111.4,375.53 408.8,618.5 664.3,542.71 255.6,-75.79 372.5,-441.7 261.1,-817.17"
           style="fill:#ffffff;fill-opacity:1;fill-rule:nonzero;stroke:none"
           id="path146" /></g><g
         id="g148"
         transform="scale(1.72725)"><path
           d="m 16259.9,5804.66 c -40.1,-135.19 -147.2,-222.67 -239.2,-195.34 -92,27.27 -134.1,158.98 -94,294.16 40.1,135.19 147.2,222.67 239.2,195.34 92,-27.27 134.1,-158.98 94,-294.16"
           style="fill:#ffffff;fill-opacity:1;fill-rule:nonzero;stroke:none"
           id="path150" /></g><g
         id="g152"
         transform="scale(1.63126)"><path
           d="m 16257.6,6316.11 c -42.5,-143.14 -155.9,-235.77 -253.3,-206.84 -97.4,28.88 -141.9,168.34 -99.5,311.48 42.5,143.14 155.9,235.77 253.3,206.84 97.4,-28.88 141.9,-168.34 99.5,-311.48"
           style="fill:#ffffff;fill-opacity:1;fill-rule:nonzero;stroke:none"
           id="path154" /></g><g
         id="g156"
         transform="scale(1.68615)"><path
           d="m 16254.5,6257.16 c -45.7,-153.66 -167.4,-253.06 -271.9,-222.04 -104.6,31.02 -152.4,180.71 -106.9,334.37 45.6,153.67 167.3,253.06 271.9,222.05 104.6,-31.02 152.4,-180.71 106.9,-334.38"
           style="fill:#ffffff;fill-opacity:1;fill-rule:nonzero;stroke:none"
           id="path158" /></g><path
         d="m 10212.2,10173.7 c -151.4,-595.4 -72.7,-1263.6 384.5,-1758.8 1051.3,-1138.3 2575.4,-563.8 2575.4,-563.8 l 892.4,2395.4 c -278.3,-77.2 -597.1,232.9 -973.6,574.9 -456.6,415.5 -997.5,877.4 -1652,750.7 -563.8,-109.6 -1051.4,-704.8 -1226.7,-1398.4"
         style="fill:#5f5f82;fill-opacity:1;fill-rule:nonzero;stroke:none"
         id="path160" /><path
         d="m 11070.6,10479.5 c -54.6,0 -92.2,24.2 -110.7,88.4 -71.2,247.8 367.4,599.2 777.1,599.2 162.9,0 321.2,-55.6 441.1,-195.2 99.8,-116.2 -88.5,-232.6 -371,-276.2 -336.1,-51.8 -594.1,-216.3 -736.5,-216.2"
         style="fill:#8f8fa8;fill-opacity:1;fill-rule:nonzero;stroke:none"
         id="path162" /><path
         d="m 12270.9,7859.4 c -476.2,0 -1071,133.5 -1559,661.8 -316.8,343.1 -456.6,816.3 -402,1319.9 243.4,-608.9 771,-960.6 1186.3,-960.6 233.1,0 430.8,110.9 522.8,349.4 84.3,218.5 183,423.5 286.9,609.3 -17.2,-670.8 72.5,-1350 328.1,-1954.8 -108.8,-14.8 -231.4,-25 -363.1,-25"
         style="fill:#4c4c7f;fill-opacity:1;fill-rule:nonzero;stroke:none"
         id="path164" /><path
         d="m 12273.6,7553.9 c -547,0 -1233.7,150.9 -1791.6,755 -486.34,526.7 -625.84,1300.9 -373.2,2070.9 232.9,709.9 743.2,1238.1 1299.9,1345.8 761.7,147.4 1364.2,-402.4 1848.6,-844.1 301.1,-274.6 585.8,-533.9 765.4,-484.2 83.3,23.1 169.4,-25.9 192.4,-109.2 23,-83.3 -25.9,-169.4 -109.2,-192.4 -346.5,-95.9 -676.9,205.7 -1059.5,554.5 -455.1,415.1 -971.1,885.4 -1578.2,768.2 -440.2,-85.1 -867.1,-541.7 -1062.1,-1136.2 -216.7,-660.6 -102.4,-1318.9 305.8,-1761 964.8,-1044.7 2346.9,-545.5 2405.2,-523.6 80.9,29.9 171,-10.8 201.3,-91.7 30.3,-80.8 -10.4,-170.9 -91.2,-201.3 -8.1,-3 -412.6,-150.7 -953.6,-150.7"
         style="fill:#000072;fill-opacity:1;fill-rule:nonzero;stroke:none"
         id="path166" /><g
         id="g168"
         transform="scale(1.75884)"><path
           d="m 14040.2,4504.45 c 92.1,-116.79 177.2,-227.71 281.3,-300.71 203.8,-149.88 491.4,-151.75 719.4,-53.33 683.5,329.02 1077.7,1386.42 865.5,2100.87 -156.4,464.34 -722.2,558.77 -1114,331.35 -394.2,-220.88 -595.5,-786.94 -752.2,-1200.79 38.8,477.53 218.9,1103.17 658.7,1361.01 335.6,207.18 802.3,220.43 1118.8,-35.48 482.3,-384.06 354.5,-1214.72 156.2,-1718.91 -169.1,-414.31 -429.4,-827.65 -852,-1022.15 -219.7,-95.52 -477.4,-102.34 -701.1,-13.71 -223.1,90.23 -361.5,319.82 -380.6,551.85"
           style="fill:#000072;fill-opacity:1;fill-rule:nonzero;stroke:none"
           id="path170" /></g><g
         id="g172"
         transform="scale(1.45103)"><path
           d="m 14915.3,13356.3 c -338.4,713 -4607.5,1263.3 -4073.9,-33.9 766.5,-1863.6 -1166.83,-3366.24 -1797.07,-4674.75 -425.42,-951.67 -398.68,-1598.93 -318.19,-2159.71 40.39,-281.66 3177.76,-2194.85 4114.46,-2048.61 1128.5,176.22 1614.9,1166.27 2137.6,1608.17 1169.3,988.53 1321.8,2955.62 903.5,4849 l -966.4,2459.8"
           style="fill:#ffffff;fill-opacity:1;fill-rule:nonzero;stroke:none"
           id="path174" /></g><g
         id="g176"
         transform="scale(1.43783)"><path
           d="m 8806.3,6547.62 c 18.71,-131.23 701.19,-611.89 1524.6,-1077.59 23.7,-13.49 47.4,-26.98 71.4,-40.13 33.7,-18.78 67.4,-37.48 101.4,-56.26 34.6,-18.99 69.4,-38.05 104.3,-56.82 67.6,-36.59 136.1,-72.89 204.7,-108.64 44.5,-23.16 89.3,-46.32 133.8,-68.85 27,-13.77 53.9,-27.54 81.2,-41.04 2.6,-1.11 5.6,-2.64 8.5,-4.1 44.5,-22.26 89.4,-44.23 133.9,-65.86 29.5,-14.4 59.4,-28.73 89,-42.77 29.5,-14.06 59.2,-27.82 88.7,-41.6 14.7,-6.74 29.3,-13.77 44.3,-20.52 4.3,-2.01 8.8,-4.1 13.2,-6.11 24.9,-11.48 49.8,-22.61 74.7,-33.73 16.3,-7.58 33,-14.89 49.4,-22.26 66.2,-29.28 132.2,-57.66 196.8,-84.36 32.9,-13.43 65.1,-26.64 97.3,-39.51 13.8,-5.56 27.9,-10.85 41.6,-16.41 55.7,-21.98 110.1,-42.5 163.8,-61.83 50.9,-18.43 100.7,-35.68 149.6,-51.54 29.3,-9.66 58,-18.71 86.4,-27.54 23.8,-7.02 46.9,-13.77 70,-20.51 0.9,-0.28 1.8,-0.56 3,-0.84 21.9,-6.19 43.6,-12.31 65.3,-17.87 2.1,-0.28 3.8,-0.91 5.8,-1.46 23.8,-6.19 47.2,-12.04 70,-17.32 22.9,-5.57 45.5,-10.5 67.7,-14.89 33.4,-7.09 65.6,-12.93 97,-17.59 10.5,-1.74 20.8,-3.27 31,-4.73 20.5,-2.92 40.5,-5.22 60.1,-7.02 19.3,-2.02 38.3,-3.48 57.1,-4.39 7.6,-0.27 15.2,-0.55 22.9,-0.83 21,-0.91 41.2,-0.91 60.8,0 19.7,0.56 38.4,1.74 56.3,3.75 9.1,1.19 17.9,2.09 26.6,3.55 1138.9,177.77 1629.8,1176.91 2157,1623 873.2,738.12 1184.5,2016.36 1116.6,3405.61 -24,488.58 -94.9,990.69 -204.7,1487.99 l -975.2,2482.4 c -341.5,719.4 -4649.9,1274.7 -4111.2,-34.3 C 11714.6,11564 9763.5,10047.6 9127.34,8727.16 8697.94,7766.68 8724.86,7113.55 8806.3,6547.62"
           style="fill:#ffffff;fill-opacity:1;fill-rule:nonzero;stroke:none"
           id="path178" /></g><g
         id="g180"
         transform="scale(1.43783)"><path
           d="m 10288.4,5494.31 c 14,-8.21 28.4,-16.07 42.5,-24.28 23.7,-13.21 47.4,-26.64 71.4,-40.13 33.7,-18.78 67.4,-37.48 101.4,-56.26 34.6,-18.99 69.4,-37.77 104.3,-56.82 67.6,-36.59 136.1,-72.89 204.7,-108.64 44.5,-23.16 89.3,-46.32 133.8,-68.85 27,-13.77 54.3,-27.27 81.2,-41.04 2.6,-1.11 5.6,-2.64 8.5,-4.1 44.5,-22.26 89.4,-44.23 133.9,-65.86 29.5,-14.4 59.4,-28.73 89,-42.77 29.5,-14.06 59.2,-27.82 88.7,-41.6 14.7,-6.74 29.3,-13.77 44.3,-20.52 4.3,-2.01 8.8,-4.1 13.2,-6.11 24.9,-11.48 49.8,-22.61 74.7,-33.73 16.3,-7.58 33,-14.89 49.4,-22.26 66.5,-29.28 132.2,-57.38 196.8,-84.36 32.9,-13.43 65.1,-26.64 97.3,-39.51 13.8,-5.56 27.9,-10.85 41.6,-16.41 55.7,-21.7 110.1,-42.5 163.8,-61.83 50.9,-18.15 100.7,-35.4 149.6,-51.54 29.3,-9.66 58,-18.71 86.4,-27.54 23.8,-7.02 46.9,-13.77 70,-20.51 0.9,-0.28 1.8,-0.56 3,-0.84 21.9,-6.19 43.9,-12.03 65.3,-17.87 2.1,-0.28 3.8,-0.91 5.8,-1.46 23.8,-6.19 47.2,-12.04 70,-17.32 22.9,-5.57 45.5,-10.5 67.7,-14.89 33.4,-6.74 65.6,-12.65 97,-17.59 10.5,-1.74 20.8,-3.27 31,-4.73 20.5,-2.92 40.5,-5.22 60.1,-7.02 19.3,-2.02 38.3,-3.48 57.1,-4.39 7.6,-0.27 15.2,-0.55 22.9,-0.83 21,-0.91 41.2,-0.91 60.8,0 19.7,0.56 38.4,1.74 56.3,3.75 9.1,1.19 17.9,2.09 26.6,3.55 1138.9,177.77 1629.8,1176.91 2157,1623 873.2,738.12 1184.5,2016.36 1116.6,3405.61 -129.2,-811.36 -669.9,-1263.85 -1762.8,-591.66 C 13426.9,8873 13086.8,8545.84 13086.8,8545.84 L 11905,8904.92 c 0,0 -20.8,-970.07 -783.9,-879.86 -714.1,84.36 -818,-1852.09 -832.7,-2530.75"
           style="fill:#dadfe5;fill-opacity:1;fill-rule:nonzero;stroke:none"
           id="path182" /></g><g
         id="g184"
         transform="scale(1.43135)"><path
           d="m 10083.4,10145.2 c 687.3,-685.6 2488.7,-1360.83 4214.6,-1214.05 676.2,57.99 1601.9,293.36 2002,722.05 -28.2,458.7 -97,928 -200,1393.2 l -160.6,558.6 -819,1935.1 c -343,722.6 -4671,1280.5 -4129.9,-34.5 521.7,-1268.1 -189.7,-2371.2 -907.1,-3360.4"
           style="fill:#5f5f82;fill-opacity:1;fill-rule:nonzero;stroke:none"
           id="path186" /></g><g
         id="g188"
         transform="scale(1.39463)"><path
           d="m 13313.9,11468.7 c -599.7,0 -1286.9,46 -2072.1,155.4 83.7,170.6 154.2,346.6 208.3,526.1 271.4,-33.3 545.2,-49.6 817.2,-49.6 460.4,0 916,46.9 1347.5,138.4 0.3,0.1 0.8,0.1 1,0.1 l 1698.1,181.1 c 0.2,0 0.6,0 0.9,0.1 269,0.5 537.6,20.9 804.4,57 l 180.8,-427.1 c -564.4,-302.2 -1509.9,-581.5 -2986.1,-581.5"
           style="fill:#4c4c7f;fill-opacity:1;fill-rule:nonzero;stroke:none"
           id="path190" /></g><g
         id="g192"
         transform="scale(1.45552)"><path
           d="m 14772.1,13269.1 c -44.6,82.2 -150.9,155.3 -240.6,203.4 -105.3,57.9 -220.3,105.9 -337.6,148.1 -714.4,242.8 -1486.5,348.1 -2240.4,330.1 -315.9,-14.1 -1183.8,-75.7 -1073.6,-543.8 8.6,-42.6 44,-125.8 60.3,-168.9 274.7,-714.6 149.6,-1471.1 -187.6,-2138.1 -400.1,-818 -1029.62,-1490.97 -1495.16,-2259.08 -193.26,-321.33 -321.33,-681.27 -411.95,-1043.34 -107.18,-416.14 -101.61,-919.67 -42.19,-1304.13 95.64,-120.65 241.64,-219.45 373.14,-317.49 311.29,-221.71 637.91,-422.73 969.16,-614.55 663.1,-374.85 1346.9,-736.99 2076.3,-955.88 203.5,-54.14 411.6,-107.25 617.3,-63.62 l 45.1,8.24 c 809.1,163.38 1262,795.87 1785.3,1375.73 176.8,184.88 382.9,335.82 534.2,542.49 152.7,194.29 276,411.81 373.6,640.73 487.8,1187.27 375.6,2498.76 255.3,3753.9 86.8,-244.5 152.2,-496.2 203.5,-751 263.8,-1388.29 142,-3040.55 -932.9,-4074.96 -99.5,-90.2 -189.3,-162.62 -277.7,-259.15 -580.9,-650 -1063.8,-1306.95 -1997.3,-1456.38 -724.9,-96.46 -2139.3,688.62 -2790.1,1053.64 -337,195.19 -669.12,399.65 -987.08,626.1 -106.35,76.88 -211.2,154.65 -313.22,247.2 -50.91,49.81 -107.18,97.97 -136.17,170.11 -86.71,469.79 -75.1,962.81 34.49,1428.08 79.56,322.01 188.8,635.99 339.12,930.93 465.95,849.94 1161.16,1549.73 1584.36,2417.33 330.4,657.8 438.3,1365.1 144.7,2056.2 -160.9,390.2 82.7,670.7 449.4,789 855,273.8 2270.4,76.3 3112.8,-217 246.1,-95.7 564.6,-212 699.8,-461.8 l -194.3,-92.1"
           style="fill:#000072;fill-opacity:1;fill-rule:nonzero;stroke:none"
           id="path194" /></g><g
         id="g196"
         transform="scale(1.17836)"><path
           d="m 16300,6686.52 c 0,0 -0.8,-1.36 -2.1,-4.41 1.3,2.63 2.1,4.41 2.1,4.41"
           style="fill:#f9d3b7;fill-opacity:1;fill-rule:nonzero;stroke:none"
           id="path198" /></g><g
         id="g200"
         transform="scale(1.40315)"><path
           d="m 14694.7,10003.9 c 0,0 521.7,-3466.38 1063.1,-4291.81 330.4,-156.58 541.1,-396.9 541.7,-828.21 0.5,-367.03 -205.4,-525.04 -545.4,-629.94 -594.1,-183.38 -1691.3,-179.53 -2037.7,89.94 -806.1,626.95 -1663.6,3525.29 -1523.7,6027.02 l 2502,-367"
           style="fill:#5f5f82;fill-opacity:1;fill-rule:nonzero;stroke:none"
           id="path202" /></g><g
         id="g204"
         transform="scale(1.39323)"><path
           d="m 14897.8,4289.81 c -354.1,0.07 -693.4,44.78 -899.5,132.56 -78,38.26 -154.3,98.41 -228.4,175.78 10.1,25.55 19.5,51.61 28.2,78.02 l 0.1,0.22 c 0.5,1.44 0.9,2.94 1.4,4.38 0.2,0.29 0.2,0.5 0.3,0.79 0.2,0.43 0.3,0.86 0.4,1.29 0,0.14 0.2,0.57 0.3,0.79 0.2,0.64 0.4,1.29 0.6,1.94 0.2,0.36 0.2,0.71 0.4,1.07 0,0.29 0.2,0.58 0.3,0.94 0.2,0.57 0.4,1.36 0.6,1.94 0.1,0.21 0.1,0.35 0.1,0.5 0.3,0.64 0.5,1.22 0.7,1.86 0,0.15 0.1,0.29 0.1,0.43 0.5,1.58 1,3.23 1.5,4.74 v 0.07 c 60.1,189.42 89.7,400.01 97,615.91 193.6,43.57 351.8,160.63 362.1,168.6 -10,-18.59 -332.4,-622.08 373.8,-818.6 128.9,-35.82 273.8,-52.39 425.1,-52.39 435.2,0 922.7,137.08 1231,346.24 6.1,-175.85 -35.9,-331.17 -188.5,-430.51 -249.1,-158.98 -741.3,-236.57 -1207.6,-236.57 M 12657,7779.6 c -33.8,7.83 -67.6,14.29 -101.7,19.38 -125.4,648.93 -209.3,1304.52 -249.7,1966.37 74,-568.32 199.2,-1290.31 351.4,-1985.75"
           style="fill:#4c4c7f;fill-opacity:1;fill-rule:nonzero;stroke:none"
           id="path206" /></g><g
         id="g208"
         transform="scale(1.41815)"><path
           d="m 14539.3,9898.05 c 283.4,-1210.66 550,-2531.11 938.3,-3707.15 59,-167.69 123.5,-336.01 205.7,-478.73 l -44.9,39.14 c 214.3,-96.54 419.9,-258.3 518.8,-481.55 117.1,-273.31 142.8,-644.36 -52.5,-892.36 -336,-407.36 -1294.2,-448.61 -1788.6,-415.47 -341.6,28.56 -731.3,84.27 -967.1,364.99 -497.9,572.64 -749.5,1370.23 -955.3,2085.04 -334.4,1247.75 -482.3,2565.32 -330,3849.24 17.2,-1073.44 150.5,-2130.73 392.7,-3170.05 150,-677.85 666.4,-2437.54 1296,-2746.47 469.1,-199.76 1639.4,-172.69 2070.1,102.18 159.4,103.8 195.9,269.71 183.5,455.88 -10.1,189.68 -78.5,363.85 -220.7,490.85 -69,62.76 -151.9,114.72 -241.4,158.37 -17.5,7.69 -31.7,19.89 -41.8,34.55 -217,327.26 -315.9,686.89 -423.8,1052.72 -280.3,1067.73 -440.4,2161.06 -539,3258.82"
           style="fill:#000072;fill-opacity:1;fill-rule:nonzero;stroke:none"
           id="path210" /></g><g
         id="g212"
         transform="scale(1.10683)"><path
           d="m 11856.9,11336.9 c -834.3,-1628.34 -1046.2,-4651.4 1018.6,-5527.42 1222.5,-518.77 2325.4,-308.9 2831.3,-415.24 142.2,-29.9 593.2,3146.56 593.2,3146.56 0,0 -709.4,795.34 -2372.8,1311.59 l -246.8,464.51 -1823.5,1020"
           style="fill:#ffffff;fill-opacity:1;fill-rule:nonzero;stroke:none"
           id="path214" /></g><g
         id="g216"
         transform="scale(1.10682)"><path
           d="m 16300,8540.81 c 0,0 -450.7,-3176.6 -593,-3146.69 -506.1,106.34 -1608.9,-103.45 -2831.4,415.61 -716.3,304.02 -1158.6,865.91 -1395.5,1539.01 -447.5,1266.51 -168.1,2924.76 377.2,3988.36 l 1629.9,-912.1 193.3,-107.8 247,-464.52 C 15590.9,9336.42 16300,8540.81 16300,8540.81"
           style="fill:#ffffff;fill-opacity:1;fill-rule:nonzero;stroke:none"
           id="path218" /></g><g
         id="g220"
         transform="scale(1.10682)"><path
           d="m 16300,8540.81 c 0,0 -450.7,-3176.6 -593,-3146.69 -506.1,106.34 -1608.9,-103.45 -2831.4,415.61 -716.3,304.02 -1158.6,865.91 -1395.5,1539.01 -162.5,927.7 -86.9,2450.99 1708.4,3003.96 99.9,30.8 199.3,55 298.7,72.3 l 193.3,-107.8 247,-464.52 C 15590.9,9336.42 16300,8540.81 16300,8540.81"
           style="fill:#777782;fill-opacity:1;fill-rule:nonzero;stroke:none"
           id="path222" /></g><g
         id="g224"
         transform="scale(1.10683)"><path
           d="m 16300,8540.89 c 0,0 -450.7,-3176.55 -593,-3146.65 -506.2,106.34 -1609,-103.45 -2831.4,415.6 -716.4,303.93 -1158.6,865.9 -1395.5,1539 -31.9,182.68 -54.6,388.4 -56.6,605.96 -9.3,884.42 323.4,1954.15 1765,2397.9 99.8,30.8 199.3,55.1 298.7,72.4 l 193.2,-107.9 247.1,-464.45 c 855.7,-265.62 1458.9,-605.15 1843,-871.95 362.1,-252.34 529.5,-439.91 529.5,-439.91"
           style="fill:#5f5f82;fill-opacity:1;fill-rule:nonzero;stroke:none"
           id="path226" /></g><path
         d="m 12650,9066.2 c -1.4,11.4 -2.7,22.8 -4.1,34.2 2.4,10.8 4.8,21.5 7.4,32.4 0.4,-1.2 0.8,-2.3 1.3,-3.4 -1.8,-21.2 -3.3,-42.2 -4.6,-63.2"
         style="fill:#cccce3;fill-opacity:1;fill-rule:nonzero;stroke:none"
         id="path228" /><path
         d="m 12650.3,9063.6 c -0.1,0.9 -0.2,1.7 -0.3,2.6 1.3,21 2.8,42 4.6,63.2 0.1,-0.3 0.2,-0.7 0.3,-1 -1.7,-21.6 -3.3,-43.3 -4.6,-64.8"
         style="fill:#5f5f7f;fill-opacity:1;fill-rule:nonzero;stroke:none"
         id="path230" /><path
         d="m 15252.4,6286.9 c -78.1,15.4 -155.8,32.9 -233.4,52.9 -525.3,132.4 -1047.8,333.6 -1444.8,710.1 -544.7,521.6 -828.6,1239.6 -923.9,2013.7 1.3,21.5 2.9,43.2 4.6,64.8 134.2,-351.8 348.7,-419 557.3,-419 64.4,0 128.2,6.4 189,12.8 60.7,6.4 118.3,12.8 170.3,12.8 51.3,0 97.1,-6.2 135,-24.8 12.3,-106.9 32.4,-210.6 58.7,-311.1 0.2,-0.7 0.4,-1.5 0.6,-2.2 0,-0.2 0.1,-0.3 0.1,-0.5 178.5,-679.1 640.9,-1203.5 922.1,-1472.3 135.2,-129.2 228.5,-199.4 228.5,-199.4 v 0 c 96.3,-161.1 209.4,-306.8 335.9,-437.8"
         style="fill:#4c4c7f;fill-opacity:1;fill-rule:nonzero;stroke:none"
         id="path232" /><g
         id="g234"
         transform="scale(1.11087)"><path
           d="m 16175.5,4910.23 c -148.3,-19.36 -1785.9,45.91 -2747.8,1143.52 0,0 -966.6,726.64 -1089,1787.17 252.5,-22.6 393.4,69.67 393.4,69.67 0,0 68.1,-756.89 624.3,-741.58 416.1,11.34 344.8,2054.16 2141.6,1830.64 157.9,-19.71 304.1,-76.51 439,-163.47 89.1,-932.88 363,-3909.84 238.5,-3925.95"
           style="fill:#5d5d6d;fill-opacity:1;fill-rule:nonzero;stroke:none"
           id="path236" /></g><g
         id="g238"
         transform="scale(1.11684)"><path
           d="m 11875.4,11171.4 c -697.6,-1400.35 -947.2,-3685.19 278.7,-4859.04 355.5,-337.11 823.3,-517.26 1293.7,-635.81 612.3,-158.04 1243,-143.08 1873.7,-161.8 87.1,-4.56 180.7,-13.16 269.6,-31.07 l 3.3,-0.62 c -5.2,1.52 -24,3.94 -35.6,2.5 -35.8,-3.31 -69.6,-19.43 -88.4,-46.73 90.6,243.72 130.5,526.21 183.9,786.32 137.1,749.35 251.5,1504.69 360.9,2258.78 l 34.2,-112.99 c -328.5,284.28 -688.7,530.06 -1059.9,755.79 -383.2,233.87 -787.6,431.93 -1187.2,637.33 512,-73.51 1011.5,-235.3 1472,-471.24 369.6,-191.97 727.5,-426.29 996,-750.15 22.7,-28.56 29.7,-65.09 22.3,-98.22 -110.2,-758.93 -224.7,-1515.71 -362.9,-2270.43 -55.3,-275.95 -96,-544.75 -189.1,-816.4 -22.9,-66 -77.3,-148.55 -162.1,-151.59 -15.8,-0.36 -34.5,0.53 -44.1,3.22 -75.1,14.77 -148.7,21.49 -228.5,25.79 -380.8,16.38 -765.7,4.56 -1150.6,42.43 -774.4,77.73 -1603.4,283.75 -2192.1,829.85 -988.6,939.79 -1073.2,2448.06 -834.8,3709.66 100.5,511.22 259.2,1012.52 497.6,1482.22 35,68.9 119.4,96.5 188.3,61.5 69.4,-35.2 96.8,-120.2 61.1,-189.3"
           style="fill:#000072;fill-opacity:1;fill-rule:nonzero;stroke:none"
           id="path240" /></g><g
         id="g242"
         transform="scale(1.11245)"><path
           d="m 13408.7,6044.96 c 960.3,-1096.06 2595.8,-1160.87 2743.6,-1141.54 147.7,19.24 -264.6,4196.15 -264.6,4196.15 0,0 -1000.9,1832.13 -2766.1,1200.73 0,0 -862.5,-880.08 -812.2,-2316.91 39.9,-1141.72 1099.3,-1938.43 1099.3,-1938.43"
           style="fill:#5f5f82;fill-opacity:1;fill-rule:nonzero;stroke:none"
           id="path244" /></g><path
         d="m 14688,6924.1 c -281.2,268.8 -743.6,793.2 -922.1,1472.3 178.6,-679 640.9,-1203.4 922.1,-1472.3"
         style="fill:#4a4a6e;fill-opacity:1;fill-rule:nonzero;stroke:none"
         id="path246" /><path
         d="m 13765.8,8396.9 c -0.2,0.7 -0.4,1.5 -0.6,2.2 0.2,-0.7 0.4,-1.5 0.6,-2.2"
         style="fill:#4a4a6e;fill-opacity:1;fill-rule:nonzero;stroke:none"
         id="path248" /><g
         id="g250"
         transform="scale(1.02412)"><path
           d="m 16300,5693.1 c -8.7,2.54 -17.5,5.18 -26.2,7.82 -620.5,188.74 -1184.5,466.93 -1708.4,865.33 -0.1,0.09 -0.2,0.19 -0.3,0.29 0,0 -91.1,68.45 -223,194.5 v 0 c -274.6,262.57 -726,774.63 -900.4,1437.63 v 0 c 0,0.2 -0.1,0.3 -0.1,0.49 v 0 c -0.2,0.69 -0.4,1.47 -0.6,2.15 v 0 c -25.6,98.04 -45.2,199.39 -57.2,303.78 133.6,-85.54 616.3,-838.77 1111.8,-838.77 9.3,0 18.6,0.19 27.8,0.78 360.4,20.79 312.5,786.63 475.4,1258.45 -46.5,-276.34 -50.9,-593.88 10.5,-955.36 158.9,-934.37 639.5,-1804.88 1290.7,-2277.09"
           style="fill:#4c4c7f;fill-opacity:1;fill-rule:nonzero;stroke:none"
           id="path252" /></g><g
         id="g254"
         transform="scale(1.11467)"><path
           d="m 13382,6032.91 c 481.3,-366.03 999.6,-621.71 1569.8,-795.12 369.3,-111.16 755.6,-205.08 1143.1,-205.35 l 6,0.35 h 0.7 c -37.1,-2.42 -87.9,-36.15 -100.3,-75.35 2.6,17.4 6.1,39.92 6.9,62.98 -9.5,1346.94 -176.5,2703.49 -291.9,4047.21 l 16.5,-53.47 c -32.5,47.82 -72.6,103.62 -111.1,154.66 -422.4,561.52 -1005.2,1051.18 -1725.4,1137.28 -264.8,36.6 -533.1,15.7 -800.8,-26.4 490.6,293 1141.6,308 1659.6,58.9 526.8,-244.5 956.7,-676.63 1224.1,-1189.78 91.9,-614 118.4,-1242.71 181,-1862.35 55.2,-760.59 139.8,-1515.25 128.2,-2283.55 -3.6,-48.89 -7.2,-102.63 -27.2,-151.16 -20.6,-45.04 -52.4,-79.94 -106,-93.93 -23,-5.65 -24.4,-3.5 -43.1,-5.84 -1021.8,4.67 -2179.9,360.2 -2730.1,1280.92"
           style="fill:#000072;fill-opacity:1;fill-rule:nonzero;stroke:none"
           id="path256" /></g><g
         id="g258"
         transform="scale(1.2236)"><path
           d="m 14934.4,4515.11 c 1365.6,406.27 853.4,2851.18 518.3,3482.68 -443.6,934.12 -1474.2,1086.13 -2109.7,705.13 -258,-154.71 -994,-776.89 -780.7,-2032.12 224.9,-1322.16 1219.2,-2491.42 2372.1,-2155.69"
           style="fill:#5f5f82;fill-opacity:1;fill-rule:nonzero;stroke:none"
           id="path260" /></g><g
         id="g262"
         transform="scale(1.16815)"><path
           d="m 16300,8112.16 c -38.3,106.15 -77,196.12 -113.8,265.29 -161.1,339.43 -396.3,580.24 -662.5,733.39 266.3,-153.15 501.4,-393.88 662.6,-733.3 36.7,-69.17 75.4,-159.23 113.7,-265.38 m -777,999.11 c -0.1,0 -0.2,0.08 -0.2,0.08 0,0 0.1,-0.08 0.2,-0.08"
           style="fill:#8f8fa8;fill-opacity:1;fill-rule:nonzero;stroke:none"
           id="path264" /></g><g
         id="g266"
         transform="scale(1.05596)"><path
           d="m 15972.5,10277.7 c 106.7,20.8 216.5,31.5 327.5,31.7 -111,-0.2 -220.8,-10.9 -327.5,-31.7"
           style="fill:#4d4d9d;fill-opacity:1;fill-rule:nonzero;stroke:none"
           id="path268" /></g><g
         id="g270"
         transform="scale(1.17902)"><path
           d="m 13146.8,6465.04 c -46.3,149.19 -82.7,302.54 -109.3,458.09 -221.7,1302.78 542.3,1948.32 810.2,2108.87 137.7,82.62 293.5,141.14 457.8,173.03 95.5,18.58 193.8,28.16 293.3,28.41 1.1,0 2.1,0 3.2,0 263,0 533.5,-65.81 777.7,-206.1 0,0 0,-0.08 0.1,-0.08 0.3,-0.09 0.5,-0.26 0.8,-0.43 263.7,-151.74 496.8,-390.32 656.4,-726.62 36.4,-68.53 74.8,-157.67 112.7,-262.84 53.3,-147.5 105.6,-326.46 150.3,-524.51 -58.4,197.37 -122.1,360.89 -180.6,470.99 -307.7,647.99 -887.6,933.49 -1435.3,933.49 -271.8,0 -535.6,-70.32 -754.4,-201.44 -267.9,-160.56 -1031.5,-806.44 -810.2,-2109.3 7.9,-47.41 17,-94.49 27.3,-141.56"
           style="fill:#8f8fa8;fill-opacity:1;fill-rule:nonzero;stroke:none"
           id="path272" /></g><g
         id="g274"
         transform="scale(1.16584)"><path
           d="m 16116.7,4984.82 v 0 0 m 1.9,1.71 c 0.2,0.09 0.3,0.26 0.4,0.34 -0.2,-0.08 -0.2,-0.25 -0.4,-0.34 m 2.2,2.06 c 0.3,0.17 0.4,0.26 0.5,0.43 -0.1,-0.17 -0.3,-0.26 -0.5,-0.43 m 1.8,1.63 c 0.4,0.26 0.5,0.43 0.8,0.69 -0.3,-0.17 -0.5,-0.43 -0.8,-0.69 m 2,1.8 c 0.5,0.52 0.9,0.86 1.5,1.37 -0.5,-0.43 -1,-0.94 -1.5,-1.37 m 2.1,1.89 c 65.2,60.64 122.7,128.49 173.2,202.6 h 0.1 c -50.6,-74.11 -108.1,-141.96 -173.3,-202.6"
           style="fill:#8ccc8c;fill-opacity:1;fill-rule:nonzero;stroke:none"
           id="path276" /></g><g
         id="g278"
         transform="scale(1.17939)"><path
           d="m 16266.7,5431.89 v 0 c 11.8,30.27 22.9,60.88 33.3,92.17 -10.3,-31.2 -21.5,-61.98 -33.3,-92.17"
           style="fill:#3d3d7c;fill-opacity:1;fill-rule:nonzero;stroke:none"
           id="path280" /></g><g
         id="g282"
         transform="scale(1.17698)"><path
           d="m 16145.8,5147.35 h -0.1 c 61.5,90.06 112.6,189.46 154.3,295.67 v 0 c -41.7,-106.29 -92.7,-205.53 -154.2,-295.67"
           style="fill:#000072;fill-opacity:1;fill-rule:nonzero;stroke:none"
           id="path284" /></g><g
         id="g286"
         transform="scale(1.17997)"><path
           d="m 16292,5521.58 c 0.6,1.78 1.1,3.39 1.7,5.17 -0.6,-1.69 -1.1,-3.47 -1.7,-5.17 m 2.1,6.11 c 0.1,0.51 0.3,1.02 0.5,1.52 -0.2,-0.5 -0.4,-1.01 -0.5,-1.52 m 0.7,2.45 c 0.3,0.76 0.5,1.45 0.8,2.29 -0.3,-0.76 -0.5,-1.53 -0.8,-2.29 m 1.2,3.56 c 0.2,0.43 0.3,0.68 0.4,1.11 -0.1,-0.43 -0.3,-0.77 -0.4,-1.11 m 1.1,3.39 c 0.1,0.26 0.1,0.34 0.2,0.6 0,-0.18 -0.1,-0.34 -0.2,-0.6 m 1,2.8 c 0,0.17 0,0.34 0.1,0.51 -0.1,-0.17 -0.1,-0.34 -0.1,-0.51 m 1.8,6.1 c 0.1,0.09 0,0 0.1,0.09 l -0.1,-0.09"
           style="fill:#3d3d7c;fill-opacity:1;fill-rule:nonzero;stroke:none"
           id="path288" /></g><g
         id="g290"
         transform="scale(1.19344)"><path
           d="m 14902.1,4569.67 c -797.1,0 -1477.7,680.21 -1824.6,1561.2 388.3,-650.31 969.3,-1088.79 1623.8,-1088.79 153.2,0 310.5,24.05 470.4,75.08 848.2,270.56 1047.3,1317.04 936.7,2281.73 130.3,-587.04 191.6,-1335.8 7.7,-1915.39 -0.1,-0.09 0,0 -0.1,-0.09 -0.6,-1.84 -1.1,-3.68 -1.7,-5.53 -0.1,-0.16 -0.2,-0.33 -0.2,-0.5 -0.2,-0.75 -0.5,-1.43 -0.7,-2.18 -0.1,-0.25 -0.1,-0.34 -0.2,-0.58 -0.2,-0.76 -0.5,-1.51 -0.7,-2.27 -0.1,-0.42 -0.2,-0.67 -0.4,-1.09 -0.1,-0.42 -0.2,-0.83 -0.4,-1.25 -0.2,-0.84 -0.5,-1.51 -0.7,-2.27 -0.1,-0.33 -0.2,-0.67 -0.3,-0.92 -0.2,-0.5 -0.3,-1 -0.5,-1.51 -0.1,-0.25 -0.2,-0.58 -0.3,-0.92 -0.6,-1.76 -1.1,-3.35 -1.7,-5.11 0,-0.08 -0.1,-0.17 -0.1,-0.25 -10.3,-30.92 -21.2,-61.17 -32.9,-91.08 -41.2,-104.74 -91.5,-202.78 -152.2,-291.6 -49.3,-72.39 -105.5,-138.67 -169.2,-197.91 -0.2,-0.17 -0.4,-0.34 -0.6,-0.51 -0.5,-0.5 -0.9,-0.83 -1.4,-1.34 -0.4,-0.33 -0.8,-0.75 -1.2,-1.08 -0.3,-0.26 -0.4,-0.42 -0.8,-0.68 -0.4,-0.41 -0.8,-0.75 -1.2,-1.17 -0.2,-0.16 -0.3,-0.25 -0.5,-0.42 -0.6,-0.59 -1.2,-1.09 -1.8,-1.68 -0.1,-0.08 -0.2,-0.24 -0.4,-0.33 -0.6,-0.59 -1.3,-1.17 -1.9,-1.68 v 0 c -117.6,-106.66 -260.3,-189.11 -431.9,-240.14 -139.3,-40.56 -276.3,-59.74 -410,-59.74"
           style="fill:#4c4c7f;fill-opacity:1;fill-rule:nonzero;stroke:none"
           id="path292" /></g><g
         id="g294"
         transform="scale(1.21355)"><path
           d="m 14186.1,8841.78 c -237.8,0 -471.1,-60.33 -666.2,-177.34 -97.7,-58.58 -948.5,-610.19 -726.4,-1916.78 140.2,-824.11 575.3,-1554.12 1135.8,-1904.99 350.3,-219.44 717.9,-275.31 1092.5,-166.38 299.5,89.25 519.5,296.99 653.9,617.62 351,837.21 46.1,2229.17 -208.9,2709.74 -0.9,1.65 -1.7,3.38 -2.5,5.11 -233.5,491.62 -603.1,691.86 -872.1,773.19 -132.7,40.13 -270.1,59.83 -406.1,59.83 z m 872.1,-4289.17 h 0.4 z m -402.5,-187.39 c -296.2,0 -588.8,87.02 -863.2,258.83 -620.9,388.86 -1101.1,1185.95 -1253.2,2080.44 -250.8,1475.42 734.8,2113.23 848,2181.12 368,220.68 846.3,274.24 1279.5,143.14 449.9,-136.05 815.3,-458.08 1029.2,-906.77 281.8,-533.89 604,-2005.69 217.5,-2927.78 -165.8,-395.53 -441.2,-652.96 -818.6,-765.2 l -0.7,-0.24 c -145.9,-42.44 -292.6,-63.54 -438.5,-63.54"
           style="fill:#000072;fill-opacity:1;fill-rule:nonzero;stroke:none"
           id="path296" /></g><g
         id="g298"
         transform="scale(1.15236)"><path
           d="m 16168.1,6759.72 c 131.9,-601.03 -154,-1174.46 -638.3,-1280.69 -484.4,-106.21 -983.9,294.97 -1115.7,896 -131.8,601.11 154,1174.46 638.4,1280.68 484.3,106.21 983.8,-294.88 1115.6,-895.99"
           style="fill:#ffffff;fill-opacity:1;fill-rule:nonzero;stroke:none"
           id="path300" /></g><g
         id="g302"
         transform="scale(1.143)"><path
           d="m 16251.2,8306.65 c 48.8,-222.57 -57.1,-434.91 -236.4,-474.28 -179.4,-39.28 -364.4,109.27 -413.2,331.85 -48.8,222.57 57,434.9 236.4,474.27 179.4,39.37 364.4,-109.18 413.2,-331.84"
           style="fill:#ffffff;fill-opacity:1;fill-rule:nonzero;stroke:none"
           id="path304" /></g><g
         id="g306"
         transform="scale(1.0257)"><path
           d="m 16245.6,8656.53 c 54.4,-248.12 -63.5,-484.74 -263.4,-528.52 -199.9,-43.87 -406,121.68 -460.4,369.7 -54.4,248.13 63.6,484.75 263.4,528.52 199.9,43.88 406,-121.67 460.4,-369.7"
           style="fill:#ffffff;fill-opacity:1;fill-rule:nonzero;stroke:none"
           id="path308" /></g><g
         id="g310"
         transform="scale(1.0784)"><path
           d="m 16242.6,8903.71 c 57.4,-261.78 -67.1,-511.5 -278.1,-557.77 -211,-46.27 -428.5,128.43 -485.9,390.2 -57.4,261.78 67,511.5 278,557.77 211,46.27 428.5,-128.43 486,-390.2"
           style="fill:#ffffff;fill-opacity:1;fill-rule:nonzero;stroke:none"
           id="path312" /></g><g
         id="g314"
         transform="scale(1.3415)"><path
           d="m 14888,5736.06 c 0,0 757.2,346.47 1412,146.25"
           style="fill:#777782;fill-opacity:1;fill-rule:nonzero;stroke:none"
           id="path316" /></g><g
         id="g318"
         transform="scale(1.3415)"><path
           d="m 14888,5736.06 c 371.6,293.03 995.9,401.86 1412,146.33 -484,9.98 -934.6,-81.48 -1412,-146.33"
           style="fill:#000072;fill-opacity:1;fill-rule:nonzero;stroke:none"
           id="path320" /></g><g
         id="g322"
         transform="scale(1.38062)"><path
           d="m 15790.7,5532.15 c 107.1,-38.53 187.9,-130.88 251.2,-222.65 199.4,-296.39 258.1,-690.78 112,-1025.99 l -199.8,107.13 c 170.5,259.95 165.2,610.01 38.4,890.97 -44.8,97.42 -104.3,194.48 -201.8,250.54"
           style="fill:#000072;fill-opacity:1;fill-rule:nonzero;stroke:none"
           id="path324" /></g><g
         id="g326"
         transform="scale(1.3059)"><path
           d="m 15730.4,5745.22 c 497.7,-224.75 569.6,-873.8 433.6,-1346.88 l -225.9,79.94 c 194.2,407.61 211.7,992.27 -207.7,1266.94"
           style="fill:#000072;fill-opacity:1;fill-rule:nonzero;stroke:none"
           id="path328" /></g><g
         id="g330"
         transform="scale(2.09868)"><path
           d="m 11587.1,13970.7 c -740,574.3 -719.7,1076.9 -552.8,1414.4 210.9,426.2 588.4,914.9 1209.2,905.6 884.5,-13.2 1541,-709.7 1326.7,-1562.6 -128,-509.7 -433.5,-815.4 -724,-996.6 -326.3,-203.5 -710.8,-186.4 -1259.1,239.2"
           style="fill:#5f5f82;fill-opacity:1;fill-rule:nonzero;stroke:none"
           id="path332" /></g><g
         id="g334"
         transform="scale(1.97948)"><path
           d="m 11686.2,16285.1 c -0.1,0.1 -0.1,0.1 -0.2,0.1 2.4,4.9 4.8,9.9 7.2,14.8 -2.4,-4.9 -4.7,-9.9 -7,-14.9"
           style="fill:#c7ffb3;fill-opacity:1;fill-rule:nonzero;stroke:none"
           id="path336" /></g><g
         id="g338"
         transform="scale(2.0975)"><path
           d="m 13610.8,14919.3 c -96.2,639.5 -682.6,1103.5 -1420.3,1114.7 -6.2,0.1 -12.3,0.2 -18.4,0.2 -513.8,0 -866.8,-326.8 -1099.3,-684.7 -14.6,6.5 -29.4,13 -44.2,19.3 2.2,4.7 4.4,9.4 6.7,14 207.9,425.1 581.7,917.2 1197.8,917.2 5.7,0 11.5,0 17.3,-0.1 820.8,-12.4 1445.5,-612.8 1360.4,-1380.6"
           style="fill:#8f8fa8;fill-opacity:1;fill-rule:nonzero;stroke:none"
           id="path340" /></g><g
         id="g342"
         transform="scale(2.11035)"><path
           d="m 10776.4,14915.7 c 74.1,380 269.8,733.5 543.2,1008.3 237.6,238.4 567.5,376 905.8,353.6 591.8,-15.8 1192.5,-395.2 1342.3,-989.5 105.6,-386.7 0.5,-799.7 -197.7,-1137.8 -68.6,-111.8 -149.9,-215.7 -242.3,-308.5 -184.9,-186.2 -412.3,-324.7 -654.3,-417.8 -38.2,-14.7 -81.1,4.4 -95.9,42.6 -14.6,38.2 4.5,81.1 42.6,95.8 337.4,128 636,355.4 823,664.6 319.5,538.1 312.3,1186 -201.1,1599.1 -276.2,220.5 -649.1,320.7 -998.6,288.9 -358.8,-39 -647,-281.3 -846.4,-577.6 -135,-200.9 -239.6,-421.7 -350.2,-645 -18.3,-38 -78.2,-19.1 -70.4,23.3"
           style="fill:#000072;fill-opacity:1;fill-rule:nonzero;stroke:none"
           id="path344" /></g><g
         id="g346"
         transform="scale(2.02028)"><path
           d="m 6721.19,13943.1 c 624.77,746 493.45,1251.8 249.72,1557.6 -307.93,386.3 -798.75,799.3 -1426.88,653.2 -895.1,-208.1 -1408.18,-1059.7 -1002.94,-1878.5 242.17,-489.3 619.63,-732.3 954.48,-852.3 376.04,-134.8 762.57,-32.7 1225.62,520"
           style="fill:#5f5f82;fill-opacity:1;fill-rule:nonzero;stroke:none"
           id="path348" /></g><g
         id="g350"
         transform="scale(1.91989)"><path
           d="m 7347.54,16295.7 c -1.1,1.4 -2.24,2.9 -3.33,4.3 1.14,-1.4 2.23,-2.9 3.38,-4.3 h -0.05"
           style="fill:#c7ffb3;fill-opacity:1;fill-rule:nonzero;stroke:none"
           id="path352" /></g><g
         id="g354"
         transform="scale(2.0059)"><path
           d="m 4499.46,14557.4 c -257.11,765.8 248.18,1517.8 1084.22,1712.3 89.23,20.8 175.78,30.3 259.33,30.3 514.63,0 920.04,-361.6 1186.3,-698.9 1.05,-1.4 2.14,-2.7 3.19,-4.1 -14.11,-10 -28.11,-20.1 -42.07,-30.3 -263.43,259.1 -606.21,476.4 -1014.56,476.4 -87.74,0 -178.42,-10 -272.05,-31.8 -751.34,-174.9 -1247.79,-779.1 -1204.36,-1453.9"
           style="fill:#8f8fa8;fill-opacity:1;fill-rule:nonzero;stroke:none"
           id="path356" /></g><g
         id="g358"
         transform="scale(2.03324)"><path
           d="m 7144.43,15016.4 c -367.15,474.7 -823.22,1043.3 -1482.71,976.9 -361.5,-44.7 -717.63,-228.3 -949.29,-512.8 -429.84,-531.8 -294.7,-1190.9 147.78,-1666.3 257.74,-272.4 610.58,-437.4 980.93,-493 42,-6.6 70.77,-45.9 64.28,-87.9 -6.54,-42 -45.84,-70.7 -87.84,-64.2 -265.98,41.1 -527.09,131.7 -755.6,279.9 -114.15,73.7 -219.5,161.3 -313.65,259.5 -275.39,299.4 -472.88,695.3 -450.83,1110.7 21.33,635.8 547.02,1152.7 1143.93,1299 640.9,181.8 1214.81,-212.4 1575.17,-715.9 76.28,-109 143.37,-224.1 194.13,-346.8 8.21,-19.9 -1.19,-42.6 -21.01,-50.8 -16.37,-6.8 -34.72,-1.5 -45.29,11.7"
           style="fill:#000072;fill-opacity:1;fill-rule:nonzero;stroke:none"
           id="path360" /></g><g
         id="g362"
         transform="scale(2.01193)"><path
           d="m 9438.04,8483.94 c -1706.96,-150.21 -3059.64,235.99 -3652.5,1168.58 -446.84,702.88 -258.96,1494.88 -259.01,1495.98 4.57,45.7 -511.55,3142.6 1777.94,4488.3 645.5,379.4 1274,529.2 1901.56,603.3 h 0.05 c 629.05,59.9 1275.02,46.1 1986.02,-188.6 2521.8,-832.5 2670.6,-3968.6 2684.7,-4012.3 0.2,-1.1 350.9,-735.7 62.3,-1517 C 13556.3,9485.56 12315.5,8822.72 10615.3,8609.49 L 9438.04,8483.94"
           style="fill:#ffffff;fill-opacity:1;fill-rule:nonzero;stroke:none"
           id="path364" /></g><g
         id="g366"
         transform="scale(2.00967)"><path
           d="m 5792.04,9663.37 c 38.82,-60.95 80.76,-119.42 125.8,-175.65 645.72,-806 1933.35,-1134.81 3530.97,-994.34 l 1178.39,125.69 c 1612.5,202.43 2812,808.35 3259.8,1753.93 24.9,52.6 47.7,106.4 67.9,161.1 288.6,782.2 -62.3,1517.4 -62.4,1518.6 -14.3,43.9 -163,3183.5 -2687.8,4016.8 -356,117.5 -695.7,179.7 -1024.9,205.1 -329.48,25.4 -648.49,13.8 -963.36,-16.2 -628.27,-74.2 -1257.57,-224.3 -1903.65,-604.1 -2292.22,-1347 -1775.56,-4447.4 -1780.09,-4493.3 0.1,-1.2 -188.09,-793.9 259.34,-1497.63"
           style="fill:#ffffff;fill-opacity:1;fill-rule:nonzero;stroke:none"
           id="path368" /></g><g
         id="g370"
         transform="scale(1.71464)"><path
           d="m 6879.85,11202.1 c 19.48,-25.9 38.2,-53.3 56.23,-81.9 756.83,-944.7 2266,-1330.06 4138.52,-1165.42 0,0 189.5,-6.19 697.5,48.02 508.1,54.2 683.6,99.3 683.6,99.3 1890,237.2 3295.8,947.4 3820.7,2055.7 7.6,18.3 15.6,36.2 23.6,53.9 -824.4,-838.6 -2001.9,-1508.6 -4573.2,-1784 -2571.49,-275.7 -3863.48,129.5 -4846.95,774.4"
           style="fill:#dfe7f2;fill-opacity:1;fill-rule:nonzero;stroke:none"
           id="path372" /></g><g
         id="g374"
         transform="scale(2.03264)"><path
           d="M 9341.88,8397.49 C 8401.68,8197.95 7294.4,8307.07 6446.73,8775.48 5620.22,9239.6 5225.56,10073.3 5375.81,11008.1 l 4.23,22.7 2.21,11.4 0.25,1.5 c -0.44,-3.6 -0.88,-7.6 0.15,-11.2 l 0.39,11.1 c -1.03,-1.2 -1.13,-4.7 -1.03,-4.3 l -1.58,13.4 -3.14,27 -6.3,55.4 c -102.97,998.9 8.31,2043 453.84,2952.3 485.23,981.7 1355.97,1614.9 2399.24,1904.1 1146.35,308.5 2435.83,290 3492.33,-296.8 1201.4,-667.9 1826.4,-2018.6 2040.1,-3328.5 24,-138.7 41.3,-287.3 55.5,-427.7 24.5,-51.8 87.9,-229.1 109.7,-329.8 C 14354,9852 12716.6,8827.82 11199.2,8581.79 c -229,-37.69 -460.3,-59.68 -692,-60.03 716.5,181.4 1446.8,346.8 2092.9,715.38 875.1,494.38 1418.2,1306.66 1166.5,2333.46 -25.1,103.8 -57.1,205.9 -99,304 l -2,4.8 -3,7.4 c -1.9,5.1 -3.5,10.1 -4.9,15.2 l 2.5,-9.6 c -6.2,22.3 -6.3,48.6 -9.2,71.2 -2.6,33.7 -13.9,127.2 -17.6,162.3 -169.2,1337.1 -773.2,2746 -1996.7,3426.8 -1017.3,561.8 -2264.37,573 -3366.33,273.8 -993.78,-278.2 -1826.49,-882.1 -2287.76,-1817.9 -430.58,-878.7 -531.33,-1889.2 -436.87,-2854.7 2.95,-39.3 12.3,-88.2 11.66,-127.6 l 0.39,11.1 c -0.25,-5.7 -0.79,-11.4 -1.62,-17.1 l -1.38,-8.5 -1.08,-5.2 -1.92,-9.8 C 5365.77,9896.38 5961.8,9071.49 6983.96,8704.53 7737.37,8427.7 8548.43,8432.82 9341.88,8397.49"
           style="fill:#000072;fill-opacity:1;fill-rule:nonzero;stroke:none"
           id="path376" /></g><g
         id="g378"
         transform="scale(1.6608)"><path
           d="m 13730.8,13575.3 c -382.6,76.3 -923.9,55.4 -1062.1,855.7 -150.1,869.4 429.3,1530.2 1066.4,1664.2 687.7,144.8 1587.2,-43.2 2163.3,-950.1 401.6,-632.1 319.9,-1588.4 -437.3,-1830.8 -411.4,-131.8 -833.5,82 -1730.3,261"
           style="fill:#5f5f82;fill-opacity:1;fill-rule:nonzero;stroke:none"
           id="path380" /></g><g
         id="g382"
         transform="scale(1.59297)"><path
           d="m 10340.7,13729.3 c 373.1,162 929.4,259.7 894.2,1105.6 -38.3,919.1 -774.1,1465.1 -1452.85,1461.6 -732.72,-3.7 -1608.01,-393.1 -1995.71,-1444 -270.25,-732.6 23.29,-1689.1 848.23,-1769.7 448.34,-43.8 831.52,266.9 1706.13,646.5"
           style="fill:#5f5f82;fill-opacity:1;fill-rule:nonzero;stroke:none"
           id="path384" /></g><g
         id="g386"
         transform="scale(1.83791)"><path
           d="m 12806.5,15429 c -79.5,207.5 -592.6,871 -967.5,516.2 -132.2,-125 -68.9,-426.5 138.2,-456 301.9,-43 360.5,2.1 829.3,-60.2"
           style="fill:#000072;fill-opacity:1;fill-rule:nonzero;stroke:none"
           id="path388" /></g><g
         id="g390"
         transform="scale(1.79064)"><path
           d="m 8117.53,15297.3 c 34.56,225.6 404.93,1002.7 858.18,728.4 159.77,-96.7 161.95,-412.8 -39.43,-487.5 -293.47,-108.9 -362.05,-76.3 -818.75,-240.9"
           style="fill:#000072;fill-opacity:1;fill-rule:nonzero;stroke:none"
           id="path392" /></g><g
         id="g394"
         transform="scale(2.10275)"><path
           d="m 11100.9,15200.8 c -939.3,433.3 -1860.32,272.3 -2023.44,1099.2 0,0 -369.94,-278.9 -281.53,-643.9 -114.95,80.1 -269.51,231.2 -812.66,122.4 -479.42,-96 -739.46,68 -739.46,68 0,0 7.75,-601.6 699.28,-698.5"
           style="fill:#ffffff;fill-opacity:1;fill-rule:nonzero;stroke:none"
           id="path396" /></g><g
         id="g398"
         transform="scale(2.11483)"><path
           d="m 11006.5,15046.7 c -362.5,168.8 -752.1,249.5 -1139.86,353.1 -441.98,117 -821.87,300.8 -913.64,792.7 l 117.12,-44.7 c -40.9,-32.5 -84.03,-76 -118.21,-117.6 -105.73,-124.5 -173.54,-288.9 -133.39,-451.3 7.42,-39.9 -18.87,-78.2 -58.73,-85.7 -20.48,-3.8 -40.76,1.4 -56.46,12.7 -57.69,41.6 -102.8,74.6 -157.03,97.4 -202.9,84.5 -434.27,41.5 -648,3.1 -245.08,-39.6 -511.86,-33.3 -735.33,86.9 l 113.44,63.5 c 62.89,-370.5 263.19,-584.7 621.33,-695.4 -341.36,-18.3 -678.5,198.5 -753.96,542.4 -11.45,50.4 -17.78,98.3 -15.33,150.9 -0.89,40.8 31.45,74.6 72.16,75.4 15.28,0.3 29.13,-4 41.28,-11.6 106.53,-56.3 228.81,-78.2 349.06,-84.4 271.89,-15.8 522.78,95.1 799.78,59.5 71.87,-7.9 145.12,-24.7 214.44,-54.5 69.22,-28.8 132.58,-75.6 182.75,-111.8 l -114.19,-78.1 c -63.08,258.5 78.87,515.1 267.25,683 12.87,11.4 24.4,21.5 40.06,33.7 41.61,34.1 108.89,8.1 117.12,-44.8 18.06,-92.2 48.75,-180.3 95.61,-257.7 150.56,-250.8 435.5,-342.4 712.21,-421 388.62,-103.4 792.82,-188.6 1162.52,-361.3 37.1,-17.1 53.5,-61 36.5,-98.1 -17.1,-37.3 -61.3,-53.6 -98.5,-36.3"
           style="fill:#000072;fill-opacity:1;fill-rule:nonzero;stroke:none"
           id="path400" /></g><g
         id="g402"
         transform="scale(2.01968)"><path
           d="m 9473.99,16081.1 c -171.32,64.7 -233.26,132.7 -316.29,218.9"
           style="fill:#ffffff;fill-opacity:1;fill-rule:nonzero;stroke:none"
           id="path404" /></g><g
         id="g406"
         transform="scale(2.02634)"><path
           d="m 9442.85,16028.2 c -132.5,16.4 -266.68,84.2 -370.86,164.7 l 111.23,107.1 c 67.56,-115 144.01,-203.6 259.63,-271.8"
           style="fill:#000072;fill-opacity:1;fill-rule:nonzero;stroke:none"
           id="path408" /></g><g
         id="g410"
         transform="scale(1.59288)"><path
           d="m 15826.6,15620 c -390.9,238.6 -904,460.5 -1345.4,266.2 -382.9,-161.5 -696,-629.9 -698.4,-1047.3 l -185.4,119.6 c 41.9,13.7 145.6,58.5 193.4,77.5 490.5,202 1068.2,271 1566.1,60.3 -432.8,32.4 -866.3,-48.5 -1262.8,-220 -141,-56.7 -263.3,-128.6 -407.8,-187.1 -71.9,-26.1 -151.3,10.9 -177.4,82.8 -35.6,165.8 5,329.4 49.3,469.9 137.7,392.6 433.8,744 836.6,878 525.5,180.1 1086.8,-116.8 1431.8,-499.9"
           style="fill:#000072;fill-opacity:1;fill-rule:nonzero;stroke:none"
           id="path412" /></g><g
         id="g414"
         transform="scale(1.53434)"><path
           d="m 8887.42,15411.4 c 266.17,464.3 770.82,888.6 1343.48,820.9 438.1,-47.9 815.5,-339.5 1041.3,-707.9 73.6,-126.4 137,-263.3 153.5,-431.6 8.2,-79 -49.1,-149.6 -128.1,-157.8 -57.8,-2.8 -117.6,17.8 -161.9,27.2 -250.9,63.6 -506.1,115.8 -765,127 -299.3,16.1 -602.38,-23 -891.95,-106.4 459.16,322.9 1060.45,379.4 1602.45,281.8 52.5,-8.8 167.2,-31.4 213.3,-36.3 l -162,-162 c -93.9,423.1 -514,829.7 -938.1,909.8 -490.54,100.5 -962.34,-236.9 -1306.98,-564.7"
           style="fill:#000072;fill-opacity:1;fill-rule:nonzero;stroke:none"
           id="path416" /></g><g
         id="g418"
         transform="scale(1.47001)"><path
           d="m 12627.7,15912.1 c 98,-203 344.6,-332 515.9,-400.3 113,-45 240.6,-31.3 341.5,36.6 153.1,103 366.6,281.3 419.5,500.4 60.3,251.2 -552.9,225.5 -668.6,213.1 -115.6,-12.4 -720.4,-117.1 -608.3,-349.8"
           style="fill:#000072;fill-opacity:1;fill-rule:nonzero;stroke:none"
           id="path420" /></g><g
         id="g422"
         transform="scale(1.46239)"><path
           d="m 13254.3,16134.8 c -68.3,0.1 -165.1,9.5 -202.1,59.3 -42.4,57.6 210.2,94.8 258.4,100 19,2 69.9,5.9 122.9,5.9 81.8,0 168.7,-9.2 150.9,-48.8 -41.2,-91.3 -257.1,-112.8 -257.1,-112.8 0,0 -31.1,-3.6 -73,-3.6"
           style="fill:#8080b9;fill-opacity:1;fill-rule:nonzero;stroke:none"
           id="path424" /></g><g
         id="g426"
         transform="scale(1.72188)"><path
           d="m 15942.7,11255.4 c -17.9,301.1 357.3,570 356.9,838.1 -0.3,194.5 -149.9,296.8 -314.4,276.3 -320.6,-39.9 -468.6,-411.3 -468.6,-411.3 l 426.1,-703.1"
           style="fill:#ffebf6;fill-opacity:1;fill-rule:nonzero;stroke:none"
           id="path428" /></g><g
         id="g430"
         transform="scale(1.72183)"><path
           d="m 15943,11255.6 c -13.9,236 213.5,452.3 312.2,663.8 27.3,58.5 44.8,116.4 44.8,174.4 -0.2,194.5 -149.8,296.8 -314.5,276.3 -149.9,-18.6 -262.4,-110 -339.3,-201.9 -87.3,-104.4 -129.1,-209.4 -129.1,-209.4 l 425.9,-703.2"
           style="fill:#777782;fill-opacity:1;fill-rule:nonzero;stroke:none"
           id="path432" /></g><g
         id="g434"
         transform="scale(1.7171)"><path
           d="m 15986.9,11286.6 c -13.9,236.7 214.2,453.6 313.1,665.6 0,0 -267.5,-222.5 -610.7,249.5 -87.6,-104.6 -129.5,-210 -129.5,-210 l 427.1,-705.1"
           style="fill:#5d5d6d;fill-opacity:1;fill-rule:nonzero;stroke:none"
           id="path436" /></g><g
         id="g438"
         transform="scale(1.73145)"><path
           d="m 15854.4,11102.7 c -47.5,0 -87.2,37.1 -90.1,85.1 -11.1,187.3 100.7,356 199.5,504.9 79.9,120.6 155.4,234.4 155.3,333.8 -0.1,61.1 -19.9,110.8 -57.3,143.8 -38.3,33.7 -94.3,48.9 -153.8,41.5 -260.9,-32.6 -392.1,-350 -393.4,-353.2 -18.7,-46.2 -71.3,-68.6 -117.5,-50.1 -46.2,18.6 -68.8,71 -50.3,117.3 6.8,17.1 171.3,419.5 538.8,465.3 110.8,13.7 218.7,-17.3 295.7,-85.3 76.3,-67.2 118.4,-166.3 118.5,-279.1 0.2,-154 -94.2,-296.3 -185.4,-433.9 -87.2,-131.4 -177.2,-267.2 -169.7,-394.3 2.9,-49.8 -35.1,-92.6 -84.8,-95.6 -1.9,-0.1 -3.7,-0.2 -5.5,-0.2"
           style="fill:#000072;fill-opacity:1;fill-rule:nonzero;stroke:none"
           id="path440" /></g><g
         id="g442"
         transform="scale(1.71456)"><path
           d="m 14442.6,9506.24 c 689.9,-181.8 1575.6,438.01 1735,928.56 16.7,51.2 29.4,105.1 38.1,161.3 84.3,518.1 -147.5,1228.4 -634.7,1701.6 -353,343 -600.6,193.9 -664.7,93.9 -168.4,-263.1 166.9,-592.6 209.3,-710.3 0,0 -462.6,-140.2 -765.2,-421.8 -150.8,-140 -305.6,-392.1 -272.3,-649.7 l 0.3,-1.4 c 7.2,-55.1 23.3,-110.3 49.8,-164.9 7.7,-16.4 16.6,-32.7 26.4,-48.9 -1.3,-2.7 -2.7,-5.5 -4,-8.4 -137.8,-290.9 -135.7,-769.9 282,-879.96"
           style="fill:#5f5f82;fill-opacity:1;fill-rule:nonzero;stroke:none"
           id="path444" /></g><g
         id="g446"
         transform="scale(1.68636)"><path
           d="m 14948.2,9771.54 c -80.2,0 -157,9.55 -228.5,28.35 -107.8,28.58 -181.2,87.29 -224.4,179.97 -59.6,128.34 -49.4,292.34 -7.8,426.74 67.3,-78.2 134.4,-88.4 192.7,-109.5 157.2,-57.4 319.7,-82.5 481.1,-82.5 425.4,0 843.4,174.5 1138.7,395.9 -157.9,-380.8 -800.2,-838.96 -1351.8,-838.96"
           style="fill:#4c4c7f;fill-opacity:1;fill-rule:nonzero;stroke:none"
           id="path448" /></g><g
         id="g450"
         transform="scale(1.48716)"><path
           d="m 16242.6,12230.5 c 8.4,-63.5 26.9,-127.2 57.4,-190.1 -19.5,54 -38.7,116.7 -57.4,190.1"
           style="fill:#f4bde3;fill-opacity:1;fill-rule:nonzero;stroke:none"
           id="path452" /></g><g
         id="g454"
         transform="scale(1.71771)"><path
           d="m 15490.7,9706.58 c 210.7,188.68 408.9,383.72 531.7,632.12 74.8,160 88.8,337.2 82.6,512.4 -25.3,360.9 -155.3,713.1 -356.7,1013.3 -131.9,193.9 -481,650.3 -741.6,474.7 -115.9,-103.2 -42.9,-261.8 24.9,-386.3 48.5,-90.2 110.8,-162.6 152,-261.9 18.5,-48.8 -9.2,-103.7 -59.3,-118.2 -136.3,-44.2 -276.8,-105 -403.8,-174.3 -126.5,-68.8 -248,-150.1 -349.6,-251.1 -183.8,-187 -301.5,-485.3 -154.6,-724.4 18.2,-27.6 14.9,-59.2 4.1,-87.5 -66.7,-217 -122.7,-474.37 6.6,-678.31 47.4,-72.54 112.3,-125.11 189,-168.24 -46.1,-0.3 -92.8,7.39 -138.5,22.93 -352.1,128.95 -401,616.02 -220.8,903.62 l 4,-87.3 c -192.7,307.9 -60.7,706.5 179.9,946.6 172.5,170.9 386.4,291.2 606.7,387.7 73.2,31.4 145,59.2 224.2,84.6 l -59.3,-118.2 c -8.3,20.2 -51.2,77.7 -66.6,100.2 -91.5,130.7 -178.3,251.5 -204.4,426.3 -39.1,289.6 214.9,492 491.4,432.1 223.9,-50.5 374.9,-200.9 518.2,-361.9 326.2,-378.2 531.2,-866.2 548.2,-1367 1,-202.6 -22.7,-420.4 -126.6,-599 -154.6,-258.5 -405.5,-445.51 -681.7,-552.92"
           style="fill:#000072;fill-opacity:1;fill-rule:nonzero;stroke:none"
           id="path456" /></g><g
         id="g458"
         transform="scale(1.50422)"><path
           d="m 16300,11722 c 0,0 -353.8,399.8 -82.6,935.4"
           style="fill:#5f5f82;fill-opacity:1;fill-rule:nonzero;stroke:none"
           id="path460" /></g><g
         id="g462"
         transform="scale(1.50517)"><path
           d="m 16289.8,11714.7 c -254.2,252 -310,654.8 -175.2,981.8 l 185.4,-94 c -82.1,-128.5 -137,-273.4 -139.3,-428.5 -4.7,-159.6 41.8,-322.9 129.1,-459.3"
           style="fill:#000072;fill-opacity:1;fill-rule:nonzero;stroke:none"
           id="path464" /></g><g
         id="g466"
         transform="scale(1.62027)"><path
           d="m 16300,12126.7 c -93.6,86.8 -244.7,182.7 -366.8,107.1 l -53.3,185.7 c 195.9,27.6 351.3,-127.2 420.1,-292.8"
           style="fill:#000072;fill-opacity:1;fill-rule:nonzero;stroke:none"
           id="path468" /></g><g
         id="g470"
         transform="scale(1.33912)"><path
           d="m 14414.6,15727 c 450.1,-300.6 1143.3,-52.3 1186.7,502.8 3.9,40.6 40.3,70.2 80.8,65.7 36.8,-4 64.2,-34.7 65.1,-70.7 15.3,-316.6 -219.3,-613.8 -517.8,-703.1 -279.2,-94.8 -632.8,-33 -814.8,205.3"
           style="fill:#000072;fill-opacity:1;fill-rule:nonzero;stroke:none"
           id="path472" /></g><g
         id="g474"
         transform="scale(1.34426)"><path
           d="m 15361,16168 c 96.7,132 321.6,101.1 396.8,-37.5 26.7,-43.8 36,-95.3 28.2,-145.8 -25,11.9 -42.1,25.8 -61,37 -107.2,75.1 -237.6,114.2 -364,146.3"
           style="fill:#000072;fill-opacity:1;fill-rule:nonzero;stroke:none"
           id="path476" /></g></g></g></svg>
