<svg xmlns="http://www.w3.org/2000/svg" height="24" fill="#e0e7ff" viewBox="0 -960 960 960" width="24"><path d="M422.652-616.717 246.065-440.37q-16.956 16.957-40.511 17.077-23.554.119-40.511-17.077-16.956-16.956-16.956-40.51 0-23.555 17.196-40.511L439.37-795.717q8.478-8.24 18.315-12.218 9.837-3.978 21.554-3.978 11.478 0 21.315 3.978 9.837 3.978 18.316 12.218l276.087 276.326q17.195 16.956 17.195 40.391t-17.195 40.391Q778-421.413 754.446-421.413q-23.555 0-40.511-17.196L535.826-616.717v435.478q0 23.674-16.576 40.13-16.576 16.457-40.011 16.457-23.674 0-40.13-16.457-16.457-16.456-16.457-40.13v-435.478Z"/></svg>